<?xml version="1.0" encoding="UTF-8"?><svg id="Layer_1" xmlns="http://www.w3.org/2000/svg" viewBox="0 0 400 400"><defs><style>.cls-1{fill:#147350;fill-rule:evenodd;stroke-width:0px;}</style></defs><path class="cls-1" d="M109.34,87.95c29.78-4.59,59.86-6.99,89.99-7.19,30.59-.22,60.66,1.81,90.09,5.91,24.93,3.5,42.33,25.18,42.5,49.68l.53,75.79c.17,24.5-16.92,46.43-41.8,50.28-14.51,2.23-29.09,3.94-43.73,5.13-1.51.11-2.88.91-3.72,2.17l-34.32,52.28c-2.86,4.36-8.72,5.57-13.08,2.71-1.04-.68-1.94-1.57-2.64-2.6l-35.05-51.79c-.86-1.25-2.24-2.03-3.75-2.11-14.65-.99-29.26-2.5-43.79-4.53-24.93-3.48-42.33-25.18-42.5-49.68l-.53-75.76c-.17-24.5,16.92-46.45,41.8-50.28ZM133.77,156.75c-.04-5.21,4.16-9.47,9.38-9.51l113.3-.8c5.21-.04,9.47,4.16,9.51,9.38.04,5.21-4.16,9.47-9.38,9.51l-113.3.8c-5.21.04-9.47-4.16-9.51-9.38ZM143.41,185.01c-5.21.04-9.41,4.29-9.38,9.51s4.29,9.41,9.51,9.38l56.65-.4c5.21-.04,9.41-4.29,9.38-9.51s-4.29-9.41-9.51-9.38l-56.65.4Z"/></svg>