<?xml version="1.0" encoding="UTF-8"?><svg id="Layer_1" xmlns="http://www.w3.org/2000/svg" viewBox="0 0 400 400"><defs><style>.cls-1{fill:#f2c063;fill-rule:evenodd;stroke-width:0px;}</style></defs><path class="cls-1" d="M54.09,123.48c-.12-20.25,16.06-36.77,36.14-36.89l218.16-1.33c20.08-.12,36.46,16.19,36.58,36.45l.93,154.82c.12,20.25-16.06,36.77-36.14,36.89l-218.16,1.33c-20.08.12-36.46-16.19-36.58-36.45l-.93-154.82ZM78.9,218.02l.36,60.14c.04,6.75,5.5,12.19,12.19,12.15l218.16-1.33c6.69-.04,12.09-5.55,12.05-12.3l-.26-43.84-36.09-35.94c-4.76-4.74-12.43-4.69-17.13.1l-30.68,31.3,7.64,7.61c4.92,4.57,5.24,12.3.71,17.27-4.53,4.97-12.2,5.29-17.13.71-.21-.19-.41-.4-.61-.61l-84.38-84.05c-4.76-4.74-12.43-4.69-17.13.1l-47.7,48.7v-.02ZM232.03,150.91c.05,9-7.14,16.34-16.06,16.4-8.92.05-16.2-7.2-16.26-16.2-.05-9,7.14-16.34,16.06-16.4,8.92-.05,16.2,7.2,16.26,16.2Z"/></svg>