<?xml version="1.0" encoding="UTF-8"?><svg id="Layer_1" xmlns="http://www.w3.org/2000/svg" viewBox="0 0 400 400"><defs><style>.cls-1{fill:#f2c063;stroke-width:0px;}</style></defs><path class="cls-1" d="M54.15,154.1l.27,119.09c.05,23,18.74,41.6,41.73,41.55l208.21-.46c23-.05,41.6-18.74,41.55-41.73l-.27-119.09-123.75,76.52c-13.36,8.26-30.24,8.3-43.64.1l-124.09-75.97Z"/><path class="cls-1" d="M345.59,129v-2.19c-.06-23-18.74-41.6-41.74-41.55l-208.21.46c-23,.05-41.6,18.74-41.55,41.73v2.19s135.02,82.68,135.02,82.68c6.7,4.1,15.14,4.08,21.82-.05l134.65-83.28Z"/></svg>