<?xml version="1.0" encoding="UTF-8"?>
<svg id="Layer_1" data-name="Layer 1" xmlns="http://www.w3.org/2000/svg" viewBox="0 0 1143 1450">
  <defs>
    <style>
      .cls-1 {
        fill: #a7ce9d;
      }

      .cls-1, .cls-2, .cls-3, .cls-4 {
        stroke-width: 0px;
      }

      .cls-5 {
        font-size: 48px;
      }

      .cls-2 {
        fill: #ffdfa2;
      }

      .cls-6 {
        fill: #ea9143;
        font-family: CenturyGothic-Bold, 'Century Gothic';
        font-weight: 700;
      }

      .cls-7 {
        font-family: CenturyGothic, 'Century Gothic';
      }

      .cls-3 {
        fill: #ecedec;
      }

      .cls-4 {
        fill: #147350;
      }
    </style>
  </defs>
  <rect class="cls-2" x="-15.07" y="-11.7" width="1167.32" height="1479.83"/>
  <g>
    <circle class="cls-1" cx="573.26" cy="861.19" r="351.71"/>
    <path class="cls-4" d="M416.55,926.75c103.1-5.16,201.83-119.19,135.38-163.41-29.67-19.74,75.51-53.25,76.73-81.15,3.69-84.84-61.6-74.34-103.65-115.28-32.24-31.39-121.09,5.17-159.27,27.74-10.95,6.47-42.12,40.57-41.03,53.24.89,10.31-9.75,33.02-11.8,42.79-7.38,35.04-23.98,41.68-47.22,62.71-17.82,16.12-34.25,56.63-33.23,129.69.56,40.29,37.32,70.36,76.96,63.16l107.14-19.48Z"/>
    <path class="cls-4" d="M670.7,1162.27s-9.13-70.55,34.86-102.92c43.99-32.37,60.59,17.43,78.85,0,18.26-17.43,21.58-69.72,37.35-79.68,15.77-9.96,57.27-16.6,52.29,8.3-4.33,21.66-28.12,74.07-34.25,87.36-.95,2.06-2.19,3.96-3.7,5.66-12.39,14.02-71.86,79.52-80.19,79.88-9.5.41-88.93,54.61-85.21,1.38Z"/>
    <path class="cls-2" d="M588.21,483.9v370.69l315.78,163.53s241.81-447.69-315.78-534.22Z"/>
    <g>
      <path class="cls-3" d="M799.89,799.1c-129.42-113.69-323.85-113.69-453.27,0-9.16,8.02-22.52,9.17-30.15,1.71t0,0c-7.63-7.43-5.81-21.74,4.59-30.86,144.02-126.51,360.37-126.51,504.38,0,10.4,9.12,12.22,23.43,4.59,30.86h0c-7.64,7.45-20.98,6.31-30.15-1.71Z"/>
      <path class="cls-3" d="M725.85,855.14c-88.29-73.26-216.89-73.26-305.18,0-9.3,7.67-22.63,8.85-30.31,1.43t0,0c-7.66-7.39-5.52-22.1,5.59-31.3,102.6-85.13,252.03-85.13,354.62,0,11.1,9.2,13.26,23.91,5.59,31.3h0c-7.69,7.42-21.01,6.24-30.31-1.43Z"/>
      <path class="cls-3" d="M657.14,911.52c-49.84-36.34-117.93-36.34-167.77,0-9.58,6.89-22.89,8.14-30.66.81h0c-7.76-7.28-4.85-22.92,7.86-32.17,63.4-46.22,149.99-46.22,213.38,0,12.71,9.25,15.62,24.89,7.86,32.17h0c-7.77,7.33-21.09,6.09-30.66-.81Z"/>
      <path class="cls-3" d="M608.1,968.7c-21.72-11.54-47.97-11.54-69.69,0-10.09,5.14-23.41,6.53-31.38-.61h0c-7.99-7.02-3.35-24.86,13.19-33.64,33.06-17.57,73.01-17.57,106.07,0,16.54,8.77,21.18,26.62,13.19,33.64t0,0c-7.96,7.14-21.29,5.75-31.38.61Z"/>
      <circle class="cls-3" cx="573.26" cy="1015.63" r="31.69"/>
    </g>
  </g>
  <text class="cls-5" transform="translate(261.23 273.61)"><tspan class="cls-6"><tspan x="0" y="0">Internettet vil forbruge 20%</tspan></tspan><tspan class="cls-7" x="-134.25" y="57.6">af verdens samlede energi inden </tspan><tspan class="cls-6" x="645.84" y="57.6">2023</tspan></text>
</svg>