<?xml version="1.0" encoding="UTF-8"?><svg id="Layer_1" xmlns="http://www.w3.org/2000/svg" viewBox="0 0 2071.87 1092.79"><defs><style>.cls-1{fill:none;stroke:#ecedec;stroke-linecap:round;stroke-linejoin:round;stroke-width:5px;}.cls-2{fill-rule:evenodd;}.cls-2,.cls-3,.cls-4,.cls-5,.cls-6{stroke-width:0px;}.cls-2,.cls-5{fill:#ecedec;}.cls-3{fill:#147350;}.cls-4{fill:#a7ce9d;}.cls-6{fill:#f2c063;}</style></defs><path class="cls-4" d="M884.86,0c-1.54.73-3.35,1.16-5.44,1.16h-316.66c-2.09,0-3.9-.43-5.44-1.16H0v1092.79h2071.87V0H884.86Z"/><path class="cls-5" d="M1341.89,441.23l-20.73,38.36c-4,7.41-1.24,16.66,6.17,20.66l67.07,36.24c7.41,4,16.66,1.24,20.66-6.17l20.73-38.36-53.19,2.99c-5.74.32-11.18-2.61-14.06-7.6l-26.65-46.13Z"/><path class="cls-5" d="M1440.04,484.09l.38-.71c4-7.41,1.24-16.66-6.17-20.66l-67.07-36.24c-7.41-4-16.66-1.24-20.66,6.17l-.38.71,28.99,50.2c1.44,2.49,4.16,3.96,7.03,3.8l57.87-3.26Z"/><path class="cls-3" d="M1681.71,448.14c1.64.68,57.84,24.05,170.56,78.33,17.83,8.59,25.8,14.69,28.64,17.39,3.29,3.12,6.11,6.41,11.21,7.45,6.66,1.36,12.63-2.04,19.93-6.21,7.36-4.21,12.24-6.99,12.45-11.18.13-2.7-1.77-3.93-9.96-12.42-7.09-7.35-10.67-11.09-12.28-14.46-2.19-4.59-2.69-8.77-3.54-15.89-.93-7.82-.11-9.29-.88-13.24-1.41-7.2-6.21-12.8-13.27-18.54-23.49-19.08-73.28-40.62-92.92-49.43-15.31-6.87-9.45-4.73-31.86-15.01-93.26-42.76-167.25-66.99-195.57-75.92-.56-.18-9.88-4.51-23.01-7.06-8.63-1.68-13.05-2.49-18.58-.88-9.95,2.88-17.3,11.7-18.58,13.24-2.92,3.51-3.64,5.5-7.08,7.94-4.91,3.49-10.17,4.23-12.39,4.41-9.79.82-12.36-4.63-19.47-2.65-5.89,1.64-9,6.74-9.73,7.94-.19.31-4.67,7.91-1.77,15.89,0,0,1.86,5.1,7.08,8.83,17.2,12.29,200.91,73.11,221.04,81.46Z"/><path class="cls-3" d="M1668.57,355.98c.33-.53,2.32-3.58,5.93-5.3,2.54-1.21,4.78-1.34,7.15-1.22,9.74.49,18.6,5.3,18.6,5.3,1.89,1.02,12.3,5.37,33.11,14.07,8.24,3.44,15.95,8.1,24.32,11.21,0,0,3.34,1.24,8.79,5.3,1.48,1.1,2.11,1.7,2.45,2.65.99,2.75-1.14,6.43-2.25,8.36-1.04,1.8-1.5,2.05-1.43,2.85.09.97.91,2.17,6.75,4.49,5.56,2.21,7.83,2.32,12.26,4.49,1.85.9,2.42,2.21,3.68,2.04,1.78-.24,2.75-2.59,4.09-5.71,4.97-11.63,4.91-10.61,5.11-11.83.38-2.25,1.54-9.19-2.66-15.09-1.64-2.31-3.52-3.63-4.5-4.28-17.59-11.61-53.96-25.89-53.96-25.89-12.84-5.04-25.89-9.59-38.63-14.88,0,0-6.91-2.87-19.62-5.3-5.54-1.06-9.59-1.46-14.1,0-3.93,1.27-6.61,3.43-8.18,4.69-4.73,3.81-7.13,8.12-8.18,9.99-1.35,2.42-2.3,4.89-2.86,6.32-.55,1.42-.83,2.13-.82,2.45.07,2.62,3.89,3.72,13.9,8.56,4.73,2.29,6.61,3.36,8.18,2.45,1.54-.9.9-2.6,2.86-5.71Z"/><path class="cls-3" d="M1433.32,565.33c94.65-6,93.17-6.14,93.17-6.14,38.79,3.47,14.51-3.29,172.27-5.26,185.01-2.31,173.1,7.56,189.85,6.14,1.01-.09,10.27-.91,21.09,2.63,5.52,1.81,9.66,3.16,12.31,7.01,5.38,7.85,1.46,21.48-6.15,28.06-4.12,3.56-6.29,2.43-10.55,6.14-6.64,5.77-8.05,14.33-8.79,19.29-4.16,27.73-2.75,45.37-6.15,69.26-2.15,15.12-4.14,18.06-4.39,30.69-.24,11.95,1.39,16.79.88,29.81-.44,11.28-2.08,18.28-3.52,26.3-2.99,16.76-1.64,18.76-4.39,53.48-2.58,32.44-3.86,48.66-7.03,66.63-1.64,9.3-4.04,21.1-5.27,38.58-.99,13.96.02,13.76-.88,22.8-1.4,14.1-3.39,33.99-16.7,49.98-12,14.41-28.25,19.19-34.28,21.04-10.21,3.13-18.58,3.42-21.97,3.51-61.78,1.61-214.45-4.51-261.05-1.75-1.83.11-12.35.75-26.37,0-16.73-.9-34.12-1.83-44.83-7.89-20.6-11.66-22.18-45.57-22.85-64.88-6.54-188.78-5.27-231.47-5.27-231.47.98-32.88-10.77-65.33-9.67-98.2.17-5.21,1.02-20.08-7.91-27.18-3.94-3.13-7.24-2.73-11.43-7.01-4.95-5.07-8.13-13.61-6.15-19.29,3.56-10.23,23.95-11.51,36.04-12.27Z"/><path class="cls-6" d="M1555.69,701.24c0,5-1.22,9.99-5.82,14.72-4.33,4.46-10.56,5.81-15.57,5.81h-14.08c-1.76,0-2.84.13-3.38-.95-.54-.68-.54-1.89-.54-3.24v-86.17c0-1.49,0-2.7.54-3.38.81-.95,1.76-.81,3.52-.81h13.81c5.82,0,11.78,1.62,15.98,5.54,3.93,3.65,5.55,9.05,5.55,14.86v53.62ZM1541.06,698.54v-48.08c0-2.84-.14-5.4-1.76-7.43-1.08-1.08-2.03-1.62-4.47-1.62-2.17,0-3.25,0-3.66.54-.41.54-.41,1.08-.41,1.89v60.77c0,1.22,0,2.16.54,2.7.41.41,1.9.27,3.11.27,1.62,0,3.66-.54,5.15-2.43,1.62-2.3,1.49-4.59,1.49-6.62Z"/><path class="cls-6" d="M1580.06,719.47c0,2.03-.14,2.16-7.58,2.16-6.63,0-6.91,0-6.91-1.89v-90.22c0-2.03.54-2.16,6.91-2.16,7.18,0,7.58.14,7.58,2.3v89.81Z"/><path class="cls-6" d="M1629.34,719.07c0,.68,0,2.16-1.08,2.57-.81.41-1.9,0-2.84,0-1.35,0-2.44-4.86-3.79-5.54-1.49-.41-2.71,5.67-12.05,5.67-12.59,0-19.63-9.18-19.63-18.91v-56.59c0-9.32,6.77-19.04,19.63-19.04s19.77,9.72,19.77,19.04v7.29c0,1.22-1.22,1.76-8.12,1.76-4.74,0-6.5.13-6.5-1.35,0-1.89-.14-5.81-.14-7.16,0-1.89-1.35-5.67-5.01-5.67-4.06,0-5.15,4.32-5.15,7.7v50.92c0,3.51.41,7.7,5.15,7.7,4.33,0,5.01-3.65,5.01-5.4v-17.69c0-1.22-.41-1.62-1.22-1.89-1.35-.41-2.98-.41-3.66-.81-.54-.54-.54-1.89-.54-4.05,0-2.3,0-3.78.54-4.05,1.76-1.22,7.72-1.35,13.13-1.22,5.42.14,6.5.95,6.5,2.84v43.89Z"/><path class="cls-6" d="M1653.71,719.47c0,2.03-.14,2.16-7.58,2.16-6.63,0-6.91,0-6.91-1.89v-90.22c0-2.03.54-2.16,6.91-2.16,7.18,0,7.58.14,7.58,2.3v89.81Z"/><path class="cls-6" d="M1700.56,633.58c0,6.21-.14,6.89-1.62,6.89h-5.82c-1.49,0-3.25,0-3.93.27-1.22.95-.95,3.24-.95,5v74.69c0,1.22-1.49,1.35-7.85,1.35-5.69,0-6.9,0-6.9-1.35v-74.69c0-1.76.27-4.05-.95-5-.68-.27-2.44-.27-3.93-.27h-5.01c-2.03,0-2.44-.95-2.44-6.62s.27-6.62,1.9-6.62h35.74c1.62,0,1.76,1.22,1.76,6.35Z"/><path class="cls-6" d="M1739.69,720.42c.27,1.49-3.79,1.35-7.45,1.35-3.93,0-6.5.27-6.77-1.62-1.08-7.56-1.62-12.69-2.71-20.12-.14-1.35-1.76-1.08-3.93-1.08-2.57,0-3.93-.27-4.06,1.08-.81,7.56-1.35,12.56-2.03,20.39-.14,1.49-3.11,1.35-7.45,1.35-2.03,0-6.77,0-6.63-1.22,5.01-35.25,8.53-58.88,13-91.43.27-1.89,4.06-2.03,7.04-2.03,3.38,0,6.9.13,7.31,2.43,5.15,34.57,8.26,55.64,13.67,90.89ZM1721.68,687.87c-.68-9.99-1.08-15.67-1.76-26.33,0-.68-.27-3.65-1.22-3.65-.68,0-.95,3.38-.95,3.92-.68,10.53-1.08,17.29-1.76,25.93,0,.95.68,1.08,2.71,1.08,1.76,0,3.11.27,2.98-.95Z"/><path class="cls-6" d="M1780.03,714.88c0,6.48-.14,6.89-1.76,6.89h-26c-1.9,0-3.79,0-4.47-.81-.81-.95-.68-2.97-.68-4.73v-86.84c0-1.89.68-2.16,6.77-2.16,6.91,0,7.72.13,7.72,2.3v73.74c0,1.76-.14,4.05.81,4.73.68.41,2.3.54,3.66.54h12.05c1.76,0,1.9.67,1.9,6.35Z"/><path class="cls-6" d="M1554.06,822.03c0,11.21-6.5,18.91-19.09,18.91s-19.63-8.64-19.63-18.91v-56.59c0-10.4,7.45-19.04,19.63-19.04s19.09,9.18,19.09,19.04v7.29c0,1.35-1.08,1.76-7.31,1.76-4.47,0-6.77.27-6.77-1.49v-7.02c0-1.89-1.49-5.67-5.01-5.67-4.2,0-5.15,4.19-5.15,7.7v50.92c0,3.78.95,7.7,5.15,7.7,3.93,0,5.01-3.24,5.01-5.4v-7.02c0-1.89,1.22-1.76,7.18-1.76s6.91.14,6.91,2.57v7.02Z"/><path class="cls-6" d="M1595.08,834.05c0,6.48-.14,6.89-1.76,6.89h-26c-1.9,0-3.79,0-4.47-.81-.81-.95-.68-2.97-.68-4.73v-86.84c0-1.89.68-2.16,6.77-2.16,6.91,0,7.72.13,7.72,2.3v73.74c0,1.76-.14,4.05.81,4.73.68.41,2.3.54,3.66.54h12.05c1.76,0,1.9.67,1.9,6.35Z"/><path class="cls-6" d="M1636.38,834.19c0,6.21-.14,6.75-1.62,6.75h-26c-2.17,0-4.47.27-5.42-.54-1.08-.95-.81-2.97-.81-4.59v-85.36c0-1.76.14-1.89.95-2.97.81-1.08,1.76-1.08,3.11-1.08h28.03c1.62,0,1.62,1.08,1.62,6.35,0,6.08,0,6.89-1.76,6.89h-13.54c-1.08,0-2.71.14-3.11.68-.68.95-.68.81-.68,2.57v17.83c0,1.21-.27,2.7.81,3.51.95.68,1.9.54,2.98.54h6.5c1.62,0,1.76.81,1.76,6.75s0,6.48-1.76,6.48h-6.09c-1.35,0-2.84.13-3.38.4-1.22.81-.95,2.16-.95,3.92v20.12c0,1.76,0,4.32.68,4.73.68.41,2.57.54,4.06.54h12.86c1.62,0,1.76.54,1.76,6.48Z"/><path class="cls-6" d="M1682.82,839.59c.27,1.49-3.79,1.35-7.45,1.35-3.93,0-6.5.27-6.77-1.62-1.08-7.56-1.62-12.69-2.71-20.12-.14-1.35-1.76-1.08-3.93-1.08-2.57,0-3.93-.27-4.06,1.08-.81,7.56-1.35,12.56-2.03,20.39-.14,1.49-3.11,1.35-7.45,1.35-2.03,0-6.77,0-6.63-1.22,5.01-35.25,8.53-58.88,13-91.43.27-1.89,4.06-2.03,7.04-2.03,3.38,0,6.9.13,7.31,2.43,5.15,34.57,8.26,55.64,13.67,90.89ZM1664.81,807.04c-.68-9.99-1.08-15.67-1.76-26.33,0-.68-.27-3.65-1.22-3.65-.68,0-.95,3.38-.95,3.92-.68,10.53-1.08,17.29-1.76,25.93,0,.95.68,1.08,2.71,1.08,1.76,0,3.11.27,2.98-.95Z"/><path class="cls-6" d="M1731.83,837.02c0,3.51.14,3.92-6.77,3.92-3.52,0-5.01-.27-5.96-3.65-4.47-15.67-6.09-22.82-10.83-39.84-.81-2.97-1.9-7.97-2.84-7.97s-.95,2.84-.95,4.59v44.43c0,2.16-.41,2.43-7.45,2.43s-6.77-.27-6.77-2.3v-90.35c0-1.89.27-1.89,6.23-1.89s6.63.54,7.58,4.32c2.98,11.07,6.9,25.53,10.97,39.84.41,1.35.81,3.51,1.62,3.51.95,0,.95-2.57.95-4.05v-41.19c0-2.16.41-2.43,7.18-2.43s7.04.13,7.04,2.3v88.33Z"/><path class="cls-6" d="M1781.11,822.03c0,11.21-7.18,18.91-19.77,18.91s-19.63-8.91-19.63-18.77v-73.47c0-2.16.95-2.3,7.58-2.3,5.42,0,6.9.27,6.9,2.3v70.36c0,3.65.68,7.56,5.15,7.56s5.15-3.78,5.15-7.56v-70.5c0-1.89.68-2.16,6.77-2.16,7.04,0,7.85.41,7.85,2.03v73.6Z"/><path class="cls-6" d="M1830.39,784.49c0,5.54-1.62,10.94-6.77,15.67-4.33,3.92-10.15,5-15.16,5-1.9,0-2.98.81-2.98,4.19v29.44c0,2.3-1.35,2.16-7.58,2.16s-6.91,0-6.91-2.97v-87.38c0-1.62.14-2.7.68-3.38.68-.95,1.76-.81,3.38-.81h13.81c5.42,0,10.83,1.35,14.89,4.73,4.6,3.78,6.63,8.91,6.63,15.67v17.69ZM1815.77,782.59v-12.97c0-2.84-.14-5.4-1.76-7.43-1.08-1.08-2.3-1.62-4.47-1.62-1.62,0-3.11,0-3.66.54-.41.54-.41,1.08-.41,1.89v25.66c0,1.35-.14,2.43.81,2.84.68.14,1.62.14,2.98.14,1.49,0,3.38-.41,4.87-2.16,1.76-2.3,1.62-4.32,1.62-6.89Z"/><path class="cls-6" d="M1555.69,939.58c0,5-1.22,9.99-5.82,14.72-4.33,4.46-10.56,5.81-15.57,5.81h-14.08c-1.76,0-2.84.13-3.38-.95-.54-.68-.54-1.89-.54-3.24v-86.17c0-1.49,0-2.7.54-3.38.81-.95,1.76-.81,3.52-.81h13.81c5.82,0,11.78,1.62,15.98,5.54,3.93,3.65,5.55,9.05,5.55,14.86v53.62ZM1541.06,936.88v-48.08c0-2.84-.14-5.4-1.76-7.43-1.08-1.08-2.03-1.62-4.47-1.62-2.17,0-3.25,0-3.66.54-.41.54-.41,1.08-.41,1.89v60.77c0,1.22,0,2.16.54,2.7.41.41,1.9.27,3.11.27,1.62,0,3.66-.54,5.15-2.43,1.62-2.3,1.49-4.59,1.49-6.62Z"/><path class="cls-6" d="M1602.53,958.76c.27,1.49-3.79,1.35-7.45,1.35-3.93,0-6.5.27-6.77-1.62-1.08-7.56-1.62-12.69-2.71-20.12-.14-1.35-1.76-1.08-3.93-1.08-2.57,0-3.93-.27-4.06,1.08-.81,7.56-1.35,12.56-2.03,20.39-.14,1.49-3.11,1.35-7.45,1.35-2.03,0-6.77,0-6.63-1.22,5.01-35.25,8.53-58.88,13-91.43.27-1.89,4.06-2.03,7.04-2.03,3.38,0,6.9.13,7.31,2.43,5.15,34.57,8.26,55.64,13.67,90.89ZM1584.53,926.21c-.68-9.99-1.08-15.67-1.76-26.33,0-.68-.27-3.65-1.22-3.65-.68,0-.95,3.38-.95,3.92-.68,10.53-1.08,17.29-1.76,25.93,0,.95.68,1.08,2.71,1.08,1.76,0,3.11.27,2.98-.95Z"/><path class="cls-6" d="M1638.82,867.59c-3.38,15.94-5.96,28.23-9.75,44.16-.68,2.84-1.08,5.81-1.49,7.97-.27,1.22-.81,4.73-.81,7.16v32.14c0,1.21-5.69,1.08-7.45,1.08-2.17,0-7.18.13-7.18-1.49,0-10.94.14-19.31.14-31.33,0-2.43-.14-5.13-.41-6.62-.27-1.76-1.22-5.13-1.9-8.1-3.66-15.8-6.77-29.17-10.15-44.97-.41-1.76,3.79-1.89,6.09-1.89,4.2,0,7.99.14,8.26,2.16,1.62,11.75,3.11,22.28,4.6,33.22,0,.41.27,1.22.81,1.22s.68-.95.68-1.35c1.76-12.02,2.71-20.93,4.33-33.09.27-1.76,4.06-2.16,7.58-2.16s7.04.14,6.63,1.89Z"/><path class="cls-6" d="M1680.82,914.45c0,1.79-.07,3.86-1.22,3.86h-17.06c-.79,0-1.22.14-1.72-.29-.65-.5-.5-.64-.5-1.72v-10.58c0-3.15,1.15-5.72,2.37-7.22,3.51-4.22,4.01-4.72,6.95-8.44,1.58-2.07,2.15-3.22,2.94-5.65.65-2.07.72-3.5.72-5.15,0-2.15-.5-3.72-2.72-3.72-2.08,0-2.51,2.07-2.51,3.72v2.5c0,.79-2.37.93-3.94.93s-3.51,0-3.51-1v-4c0-5.15,3.8-9.44,9.96-9.44,6.52,0,10.18,4,10.18,9.37v5.29c0,4.86-3.01,8.79-5.31,11.51-2.65,3.15-3.66,4.29-6.16,7.29-.79,1-1.29,2.29-1.29,3.65v3.29c0,1.07-.07,1.29.36,1.72.36.36.93.36,1.65.36h9.75c.93,0,1.08,1.86,1.08,3.72Z"/><path class="cls-6" d="M1706.69,908.02c0,6.86-4.23,10.3-10.39,10.3s-10.39-3.93-10.39-10.3v-29.53c0-6.22,4.44-10.22,10.39-10.22s10.39,4,10.39,10.22v29.53ZM1698.95,906.45v-26.53c0-2-.57-4.29-2.65-4.29s-2.72,2.29-2.72,4.29v26.53c0,2.43.57,4.29,2.72,4.29s2.65-1.86,2.65-4.29Z"/><path class="cls-6" d="M1731.35,914.45c0,1.79-.07,3.86-1.22,3.86h-17.06c-.79,0-1.22.14-1.72-.29-.65-.5-.5-.64-.5-1.72v-10.58c0-3.15,1.15-5.72,2.37-7.22,3.51-4.22,4.01-4.72,6.95-8.44,1.58-2.07,2.15-3.22,2.94-5.65.65-2.07.72-3.5.72-5.15,0-2.15-.5-3.72-2.72-3.72-2.08,0-2.51,2.07-2.51,3.72v2.5c0,.79-2.37.93-3.94.93s-3.51,0-3.51-1v-4c0-5.15,3.8-9.44,9.96-9.44,6.52,0,10.18,4,10.18,9.37v5.29c0,4.86-3.01,8.79-5.31,11.51-2.65,3.15-3.66,4.29-6.16,7.29-.79,1-1.29,2.29-1.29,3.65v3.29c0,1.07-.07,1.29.36,1.72.36.36.93.36,1.65.36h9.75c.93,0,1.08,1.86,1.08,3.72Z"/><path class="cls-6" d="M1754.72,906.16c0,1.36,0,2.79-.43,2.79-1,0-1.08-.07-1.51.29-.29.29-.22.43-.22.86v7.36c0,.79-1.36.86-3.23.86-1.43,0-4.01-.14-4.01-.93v-6.44c0-.43.07-1-.14-1.5-.29-.43-1.22-.36-1.94-.36h-8.75c-.36,0-.93.07-1.15-.29-.29-.5-.22-1.07-.22-1.64v-6.22c0-.79,0-1.29.14-2.22.14-.71.36-1.36.57-2,3.37-9.8,5.66-16.45,9.46-26.96.5-1.29,1-1.64,4.37-1.64,3.94,0,4.8.21,4.8.93v32.1c0,.29,0,.86.14,1,.29.29,1.08.21,1.65.21.43,0,.43,2.36.43,3.79ZM1745.61,885.35c0-1.79.07-2.93-.29-2.93-.5,0-.65,1.29-.86,2.07-.93,3.86-1.79,7.01-2.8,10.87-.22.79-.43,1.29-.57,2.07-.07.5-.14.71-.14,1.22v2.36c0,.79.07.86.36,1.22.14.21.57.21,1.58.21s1.94-.07,2.22-.21c.29-.14.21-.71.21-1.29.07-6.65.22-8.94.29-15.59Z"/><path class="cls-6" d="M1674.49,957.86c0,.78-.1,1.59-.53,1.59h-11.71c-.63,0-.68-.71-.68-1.55,0-.92.1-1.73.78-1.73h2.04c.34,0,.63.04.87-.07.24-.11.24-.64.24-1.06v-14.58c0-.28.05-.85-.19-.85-.53,0-1.46.64-1.94.88-.39.25-1.17.88-1.31.32-.15-.71-.29-1.8-.1-2.54.05-.35,1.12-.95,1.94-1.45.78-.46,1.07-1.73,1.51-1.8,1.21-.28,3.74-.28,4.71-.28.63,0,.53.67.53,1.06v19.24c0,.39,0,.81.15.95.19.18.63.18.83.18h2.43c.44,0,.44.78.44,1.7Z"/><path class="cls-6" d="M1690.38,954.01c0,3.32-2.57,5.44-6.85,5.44-4.62,0-6.95-2.33-6.95-5.44,0-4.41.05-6.36.05-11.09,0-1.94.44-3.14,2.14-4.84,1.7-1.73,5.64-3.32,11.22-3.39.34,0,.29,1.24.29,1.59s0,1.55-.29,1.55c-2.62.25-4.86.35-6.46,1.52-1.17.81-1.8,1.73-1.8,3.14v1.91c0,.21-.1.57.19.67.29.21,1.02-.49,3.3-.49,1.12,0,2.19.25,3.21.95,1.12.74,1.94,1.98,1.94,3.57v4.91ZM1685.32,953.31v-3.71c0-1.13-.44-2.05-1.85-2.05s-1.8.92-1.8,2.12v3.64c0,1.48,0,2.51,1.85,2.51,1.55,0,1.8-1.17,1.8-2.51Z"/><path class="cls-6" d="M1720.84,958.81c0,.57.05.64-2.57.64-2.38,0-2.53-.07-2.53-.6,0-4.94,0-11.33-.15-14.12-.19-.32-.63-.21-.73.14-.58,1.98-1.17,3.6-1.65,4.8-.1.35-.29.53-1.07.53s-.92-.18-1.07-.49c-.39-1.09-.97-2.83-1.55-4.77-.1-.35-.68-.46-.87-.18-.15,2.83-.15,9.11-.15,14.05,0,.57-.15.64-2.67.64-2.38,0-2.33-.07-2.33-.6v-23.52c0-.6.34-.56,2.23-.56,2.09,0,2.43.18,2.92,1.31.73,1.8,1.46,3.39,2.14,5.05.49,1.24,1.02,2.33,1.36,2.33s.83-1.02,1.36-2.33l2.14-5.05c.44-1.13.78-1.34,2.67-1.34,2.09,0,2.53.04,2.53.6v23.48Z"/><path class="cls-6" d="M1738.23,959.1c.1.39-1.36.35-2.67.35-1.41,0-2.33.07-2.43-.42-.39-1.98-.58-3.32-.97-5.26-.05-.35-.63-.28-1.41-.28-.92,0-1.41-.07-1.46.28-.29,1.98-.49,3.28-.73,5.33-.05.39-1.12.35-2.67.35-.73,0-2.43,0-2.38-.32,1.8-9.22,3.06-15.4,4.66-23.9.1-.49,1.46-.53,2.53-.53,1.21,0,2.48.04,2.62.64,1.85,9.04,2.96,14.55,4.91,23.76ZM1731.77,950.59c-.24-2.61-.39-4.1-.63-6.89,0-.18-.1-.95-.44-.95-.24,0-.34.88-.34,1.02-.24,2.75-.39,4.52-.63,6.78,0,.25.24.28.97.28.63,0,1.12.07,1.07-.25Z"/><path class="cls-6" d="M1754.99,958.89c0,.56-.34.56-2.67.56s-2.53.04-2.53-.6v-8.12c0-1.24-.58-2.22-1.8-2.22-1.7,0-1.9-.04-1.9.46v9.82c0,.67-.39.67-2.82.67-1.99,0-2.38,0-2.38-.78v-22.85c0-.35.05-.71.19-.88.29-.28.63-.21,1.26-.21h4.81c2.09,0,4.23.42,5.68,1.45,1.46.99,1.99,2.4,1.99,3.88v3c0,1.02-.19,1.69-.83,2.33-.87.95-2.38,1.17-2.38,1.27,0,.14,1.55.21,2.48,1.09.63.64.87,1.24.87,2.22v8.9ZM1749.65,943.21v-2.4c0-.74-.05-1.41-.68-1.94-.34-.28-.63-.42-1.75-.42-.44,0-.78,0-.97.18-.1.14-.15.28-.15.46v5.26c0,.32,0,.57.24.71.19.11.49.07.87.07.44,0,1.21-.11,1.75-.53.63-.49.68-1.02.68-1.38Z"/><path class="cls-5" d="M1333.71,334.82c8.75,0,15.84-7.09,15.84-15.84v-43.16l-36.32,21.23,18.4,9.9c1.93,1.04,2.65,3.44,1.61,5.37-1.04,1.93-3.44,2.65-5.37,1.61l-30-16.16c-2.34-1.26-5.16-1.26-7.51,0l-30,16.16c-1.94,1.01-4.33.25-5.34-1.7-.98-1.9-.28-4.23,1.58-5.27l18.4-9.91-36.32-21.23v43.16c0,8.75,7.09,15.84,15.84,15.84h79.19Z"/><path class="cls-5" d="M1238.68,266.65v-3.93c0-5.83,3.2-11.19,8.33-13.95l39.6-21.32c4.69-2.52,10.33-2.52,15.02,0l39.6,21.32c5.13,2.76,8.33,8.12,8.33,13.95v3.93l-44.49,26.01-3.44-1.85c-4.69-2.52-10.33-2.52-15.02,0l-3.44,1.85-44.49-26.01Z"/><path class="cls-2" d="M913,357.91c1.82-6.78,8.79-10.8,15.56-8.98l5.71,1.53c4.1,1.1,8.48.08,11.67-2.72l6.99-6.15c3.19-2.8,7.57-3.82,11.67-2.72l23.68,6.36c4.1,1.1,7.38,4.18,8.74,8.2l2.97,8.82c1.36,4.02,4.64,7.1,8.74,8.2l5.71,1.53c6.78,1.82,10.8,8.79,8.98,15.56l-11.53,42.94c-1.82,6.78-8.79,10.8-15.56,8.98l-85.89-23.05c-6.78-1.82-10.8-8.79-8.98-15.56l11.53-42.94ZM990.88,398.55c-4.09,15.25-19.77,24.29-35.02,20.2-15.25-4.09-24.29-19.77-20.2-35.02,4.09-15.25,19.77-24.29,35.02-20.2s24.29,19.77,20.2,35.02ZM958.33,409.54c10.16,2.73,20.62-3.3,23.34-13.46s-3.3-20.62-13.46-23.34c-10.16-2.73-20.62,3.3-23.34,13.46s3.3,20.62,13.46,23.34Z"/><path class="cls-2" d="M761.32,543.35c1.79-8.4,10.04-13.76,18.44-11.98l91.26,19.41c8.4,1.79,13.76,10.04,11.98,18.44l-13.66,64.22c-1.79,8.4-10.04,13.76-18.44,11.98l-91.26-19.41c-8.4-1.79-13.76-10.04-11.98-18.44l13.66-64.22ZM763.11,584.78l-5.3,24.95c-.6,2.8,1.19,5.55,3.99,6.15l91.26,19.41c2.8.6,5.55-1.19,6.15-3.99l3.87-18.18-11.82-18.19c-1.56-2.4-4.77-3.08-7.17-1.52l-15.66,10.16,2.5,3.85c1.64,2.34,1.07,5.58-1.27,7.22s-5.58,1.07-7.22-1.27c-.07-.1-.14-.2-.2-.31l-27.63-42.54c-1.56-2.4-4.77-3.08-7.17-1.52l-24.35,15.81h0ZM833.17,570.99c-.79,3.73-4.46,6.12-8.2,5.32s-6.12-4.46-5.32-8.2c.79-3.73,4.46-6.12,8.2-5.32s6.12,4.46,5.32,8.2Z"/><path class="cls-2" d="M781.65,235.31c14.6.99,29.11,3.05,43.41,6.16,14.52,3.15,28.55,7.31,42.06,12.38,11.44,4.31,17.38,16.43,14.86,28.06l-7.8,35.97c-2.52,11.63-12.95,20.2-25.15,19.38-7.11-.49-14.21-1.23-21.27-2.22-.73-.11-1.46.12-1.99.63l-21.82,21.12c-1.82,1.76-4.72,1.71-6.48-.11-.42-.43-.75-.95-.97-1.51l-11.1-28.27c-.27-.68-.85-1.2-1.55-1.4-6.84-2.02-13.6-4.29-20.27-6.8-11.44-4.3-17.38-16.43-14.86-28.06l7.8-35.96c2.52-11.63,12.96-20.21,25.15-19.38ZM785.91,270.52c.54-2.47,2.98-4.05,5.45-3.51l53.78,11.67c2.47.54,4.05,2.98,3.51,5.45-.54,2.47-2.98,4.05-5.45,3.51l-53.78-11.67c-2.47-.54-4.05-2.98-3.51-5.45ZM787.48,284.93c-2.47-.54-4.92,1.03-5.45,3.51s1.03,4.92,3.51,5.45l26.89,5.83c2.47.54,4.92-1.03,5.45-3.51s-1.03-4.92-3.51-5.45l-26.89-5.83Z"/><path class="cls-2" d="M1134.71,350.23c-5.74,0-10.64,4.15-11.58,9.81l-1.11,6.71c-.13.75-.72,1.63-1.86,2.18-2.15,1.03-4.21,2.22-6.17,3.57-1.04.72-2.09.79-2.82.52l-6.37-2.39c-5.37-2.01-11.42.16-14.29,5.13l-5.77,10c-2.87,4.97-1.73,11.28,2.7,14.93l5.26,4.33c.59.49,1.06,1.43.96,2.69-.18,2.37-.18,4.76,0,7.13.09,1.25-.37,2.2-.96,2.69l-5.26,4.33c-4.43,3.65-5.57,9.96-2.7,14.93l5.77,10c2.87,4.97,8.91,7.14,14.29,5.12l6.38-2.39c.72-.27,1.77-.19,2.82.51,1.95,1.34,4.01,2.54,6.17,3.57,1.14.55,1.73,1.43,1.86,2.19l1.11,6.7c.95,5.66,5.84,9.81,11.58,9.81h11.54c5.73,0,10.64-4.15,11.58-9.81l1.11-6.71c.13-.75.71-1.63,1.86-2.18,2.15-1.03,4.21-2.23,6.17-3.57,1.05-.71,2.1-.78,2.82-.51l6.39,2.39c5.37,2.01,11.41-.16,14.27-5.13l5.78-10c2.87-4.97,1.73-11.28-2.7-14.93l-5.26-4.33c-.59-.49-1.06-1.43-.96-2.69.18-2.37.18-4.76,0-7.13-.1-1.25.37-2.2.96-2.69l5.26-4.33c4.43-3.64,5.58-9.95,2.71-14.93l-5.77-10c-2.87-4.97-8.91-7.14-14.29-5.12l-6.39,2.39c-.71.27-1.77.19-2.81-.52-1.96-1.34-4.02-2.54-6.17-3.57-1.15-.54-1.73-1.42-1.86-2.18l-1.12-6.71c-.94-5.66-5.84-9.81-11.58-9.81h-11.54ZM1140.48,434.74c12.97,0,23.48-10.51,23.48-23.48s-10.51-23.48-23.48-23.48-23.48,10.51-23.48,23.48,10.51,23.48,23.48,23.48Z"/><path class="cls-1" d="M1062.08,251.58l-36.7,36.7c-8.38,8.38-21.97,8.38-30.36,0-8.38-8.38-8.38-21.97,0-30.36l52.18-52.18c5.59-5.59,14.65-5.59,20.24,0,5.59,5.59,5.59,14.65,0,20.24l-52.22,52.22M1015.27,278.15l-.05.05M1042.41,230.78l-37.25,37.25c-2.76,2.83-2.7,7.36.13,10.12,2.76,2.69,7.16,2.71,9.95.04"/><path class="cls-5" d="M1121.59,627.35c9.4,2.03,18.66-3.95,20.69-13.35l5.5-25.53c2.03-9.4-3.95-18.66-13.35-20.69l-85.08-18.34c-9.4-2.03-18.66,3.95-20.69,13.35l-5.5,25.53c-2.03,9.4,3.95,18.66,13.35,20.69l85.08,18.34ZM1032.76,543.77l5.07-23.52c2.03-9.4,11.29-15.37,20.69-13.35l30.51,6.58c3.38.73,6.34,2.77,8.21,5.68l9.44,14.63c.62.97,1.61,1.65,2.74,1.9l30.51,6.58c9.4,2.03,15.37,11.29,13.35,20.69h0s-1.4,6.5-1.4,6.5c-3.77-5.2-9.33-8.82-15.62-10.17l-85.08-18.34c-6.28-1.36-12.84-.35-18.42,2.83Z"/><path class="cls-5" d="M605.86,352.09c-6.38,0-11.55,5.18-11.55,11.55v4.62c0,6.38,5.18,11.55,11.55,11.55h106.29c6.38,0,11.55-5.18,11.55-11.55v-4.62c0-6.38-5.18-11.55-11.55-11.55h-106.29Z"/><path class="cls-2" d="M604.09,389.06l3.33,56.54c.57,9.77,8.66,17.39,18.44,17.4h66.28c9.79,0,17.88-7.63,18.45-17.4l3.33-56.54h-109.84ZM642.06,412.17c0-2.55,2.07-4.62,4.62-4.62h24.65c2.55,0,4.62,2.07,4.62,4.62s-2.07,4.62-4.62,4.62h-24.65c-2.55,0-4.62-2.07-4.62-4.62Z"/><path class="cls-3" d="M427.62,128.98c-1.23.7-.18.39-15.16,18.95-4.73,5.87-6.62,8.27-7.58,12.32-1.92,8.05,3.55,11.61,2.84,17.06-1.32,10.13-21.7,15.58-43.59,20.85-30.88,7.44-46.33,11.16-55.91,12.32-23.45,2.85-58.82,6.98-108.03,4.74-70.1-3.19-105.14-4.78-122.24-13.27-2.04-1.01-9.6-4.97-14.21-1.9-5.56,3.7-3.68,15.56-2.84,20.85,2.98,18.77,11.94,26.16,34.11,56.86,1.14,1.58,3.76,5.23,8.53,7.58,6.03,2.98,12.02,2.17,14.21,1.9,20.37-2.55,7.07,4.48,87.18-1.9,11.11-.88,16.67-1.44,17.06,0,.75,2.77-17.85,12.11-37.9,17.06-30.87,7.62-52.05,1.62-54.96,9.48-.99,2.68.57,5.82,9.48,16.11,16.36,18.9,27.29,27,49.28,47.38,7.71,7.15,16.46,13.21,23.69,20.85,3.17,3.35,5.34,5.93,9.48,7.58,7.58,3.03,14.92.22,23.69-2.84,24.75-8.63,19.15-4.64,33.17-10.42,17.99-7.43,36.79-15.18,54.01-32.22,9.16-9.06,14.27-17.18,16.11-16.11,2.08,1.21-1.38,13.41-7.58,23.69-4.44,7.37-11.01,14.94-39.8,34.11-21.23,14.13-31.39,19.17-31.27,27.48.07,4.5,3.08,7.91,6.63,11.37,27.56,26.87,50.22,19.96,79.6,42.64,5.04,3.89,13.22,10.93,20.85,8.53,5.46-1.72,8.11-7.49,9.48-10.42,14.74-31.58,14.4-19.64,24.64-46.43,6.58-17.21,10.9-33.1,17.06-49.28,1.16-3.06,1.29-3.22,3.45-8.85,5.49-14.31,6.06-16.8,6.97-16.73,2.3.17,3.99,16.38,2.84,33.17-.41,6.02-1.19,12.18-7.58,38.85-9.23,38.49-11.92,43.63-15.16,48.33-8.41,12.18-15.08,13.52-14.21,18.95,1.8,11.29,33.04,20.62,57.8,11.6,3.4-1.24,12.03-4.78,19.9-12.54,49.01-48.38,20.31-213.39,7.58-247.33-.11-.29-6.08-16.22-1.9-18.95,2.35-1.53,5.68,2.51,11.37,1.9,5.85-.63,9.68-5.69,13.27-10.42,3.82-5.05,10.12-13.37,9.48-22.74-.72-10.41-9.7-17.41-18-23.69-58.44-44.21-67.81-51.02-75.81-46.43Z"/><path class="cls-3" d="M584.39,1.16c-32.92,36.32-64.41,68.87-77.25,75.77-2.08,1.12-12.6,6.35-16.19,15.93-3.02,8.06.29,15.42,2.02,19.11,7.13,15.2,26.92,29,48.57,30.26,19.49,1.13,35.48-8.19,44.52-14.33,35.57-24.15,83.1-77.32,123.38-126.73h-125.06Z"/></svg>