<?xml version="1.0" encoding="utf-8"?>
<!-- Generator: Adobe Illustrator 28.2.0, SVG Export Plug-In . SVG Version: 6.00 Build 0)  -->
<svg version="1.1" id="Layer_1" xmlns="http://www.w3.org/2000/svg" xmlns:xlink="http://www.w3.org/1999/xlink" x="0px" y="0px"
	 viewBox="0 0 2071.9 1092.8" style="enable-background:new 0 0 2071.9 1092.8;" xml:space="preserve">
<style type="text/css">
	.st0{fill:#A7CE9D;}
	.st1{fill:#ECEDEC;}
	.st2{fill:#147350;}
	.st3{fill:#F2C063;}
	.st4{fill-rule:evenodd;clip-rule:evenodd;fill:#ECEDEC;}
	.st5{fill:none;stroke:#ECEDEC;stroke-width:5;stroke-linecap:round;stroke-linejoin:round;}
</style>
<path class="st0" d="M884.9-9.7c-1.5,0.7-3.3,1.2-5.4,1.2H562.8c-2.1,0-3.9-0.4-5.4-1.2H0v1102.5h2071.9V-9.7H884.9z"/>
<path class="st1" d="M1341.9,441.2l-20.7,38.4c-4,7.4-1.2,16.7,6.2,20.7l67.1,36.2c7.4,4,16.7,1.2,20.7-6.2l20.7-38.4l-53.2,3
	c-5.7,0.3-11.2-2.6-14.1-7.6L1341.9,441.2L1341.9,441.2z"/>
<path class="st1" d="M1440,484.1l0.4-0.7c4-7.4,1.2-16.7-6.2-20.7l-67.1-36.2c-7.4-4-16.7-1.2-20.7,6.2l-0.4,0.7l29,50.2
	c1.4,2.5,4.2,4,7,3.8L1440,484.1L1440,484.1z"/>
<path class="st2" d="M1681.7,448.1c1.6,0.7,57.8,24,170.6,78.3c17.8,8.6,25.8,14.7,28.6,17.4c3.3,3.1,6.1,6.4,11.2,7.5
	c6.7,1.4,12.6-2,19.9-6.2c7.4-4.2,12.2-7,12.4-11.2c0.1-2.7-1.8-3.9-10-12.4c-7.1-7.3-10.7-11.1-12.3-14.5
	c-2.2-4.6-2.7-8.8-3.5-15.9c-0.9-7.8-0.1-9.3-0.9-13.2c-1.4-7.2-6.2-12.8-13.3-18.5c-23.5-19.1-73.3-40.6-92.9-49.4
	c-15.3-6.9-9.4-4.7-31.9-15c-93.3-42.8-167.2-67-195.6-75.9c-0.6-0.2-9.9-4.5-23-7.1c-8.6-1.7-13.1-2.5-18.6-0.9
	c-9.9,2.9-17.3,11.7-18.6,13.2c-2.9,3.5-3.6,5.5-7.1,7.9c-4.9,3.5-10.2,4.2-12.4,4.4c-9.8,0.8-12.4-4.6-19.5-2.6
	c-5.9,1.6-9,6.7-9.7,7.9c-0.2,0.3-4.7,7.9-1.8,15.9c0,0,1.9,5.1,7.1,8.8C1477.9,379,1661.6,439.8,1681.7,448.1L1681.7,448.1z"/>
<path class="st2" d="M1668.6,356c0.3-0.5,2.3-3.6,5.9-5.3c2.5-1.2,4.8-1.3,7.2-1.2c9.7,0.5,18.6,5.3,18.6,5.3
	c1.9,1,12.3,5.4,33.1,14.1c8.2,3.4,15.9,8.1,24.3,11.2c0,0,3.3,1.2,8.8,5.3c1.5,1.1,2.1,1.7,2.4,2.6c1,2.8-1.1,6.4-2.2,8.4
	c-1,1.8-1.5,2-1.4,2.9c0.1,1,0.9,2.2,6.8,4.5c5.6,2.2,7.8,2.3,12.3,4.5c1.8,0.9,2.4,2.2,3.7,2c1.8-0.2,2.8-2.6,4.1-5.7
	c5-11.6,4.9-10.6,5.1-11.8c0.4-2.2,1.5-9.2-2.7-15.1c-1.6-2.3-3.5-3.6-4.5-4.3c-17.6-11.6-54-25.9-54-25.9
	c-12.8-5-25.9-9.6-38.6-14.9c0,0-6.9-2.9-19.6-5.3c-5.5-1.1-9.6-1.5-14.1,0c-3.9,1.3-6.6,3.4-8.2,4.7c-4.7,3.8-7.1,8.1-8.2,10
	c-1.3,2.4-2.3,4.9-2.9,6.3c-0.6,1.4-0.8,2.1-0.8,2.5c0.1,2.6,3.9,3.7,13.9,8.6c4.7,2.3,6.6,3.4,8.2,2.5
	C1667.2,360.8,1666.6,359.1,1668.6,356L1668.6,356z"/>
<path class="st2" d="M1433.3,565.3c94.7-6,93.2-6.1,93.2-6.1c38.8,3.5,14.5-3.3,172.3-5.3c185-2.3,173.1,7.6,189.8,6.1
	c1-0.1,10.3-0.9,21.1,2.6c5.5,1.8,9.7,3.2,12.3,7c5.4,7.8,1.5,21.5-6.2,28.1c-4.1,3.6-6.3,2.4-10.6,6.1c-6.6,5.8-8.1,14.3-8.8,19.3
	c-4.2,27.7-2.8,45.4-6.2,69.3c-2.2,15.1-4.1,18.1-4.4,30.7c-0.2,12,1.4,16.8,0.9,29.8c-0.4,11.3-2.1,18.3-3.5,26.3
	c-3,16.8-1.6,18.8-4.4,53.5c-2.6,32.4-3.9,48.7-7,66.6c-1.6,9.3-4,21.1-5.3,38.6c-1,14,0,13.8-0.9,22.8c-1.4,14.1-3.4,34-16.7,50
	c-12,14.4-28.2,19.2-34.3,21c-10.2,3.1-18.6,3.4-22,3.5c-61.8,1.6-214.4-4.5-261.1-1.8c-1.8,0.1-12.3,0.8-26.4,0
	c-16.7-0.9-34.1-1.8-44.8-7.9c-20.6-11.7-22.2-45.6-22.8-64.9c-6.5-188.8-5.3-231.5-5.3-231.5c1-32.9-10.8-65.3-9.7-98.2
	c0.2-5.2,1-20.1-7.9-27.2c-3.9-3.1-7.2-2.7-11.4-7c-4.9-5.1-8.1-13.6-6.2-19.3C1400.8,567.4,1421.2,566.1,1433.3,565.3L1433.3,565.3
	z"/>
<path class="st3" d="M1555.7,701.2c0,5-1.2,10-5.8,14.7c-4.3,4.5-10.6,5.8-15.6,5.8h-14.1c-1.8,0-2.8,0.1-3.4-1
	c-0.5-0.7-0.5-1.9-0.5-3.2v-86.2c0-1.5,0-2.7,0.5-3.4c0.8-1,1.8-0.8,3.5-0.8h13.8c5.8,0,11.8,1.6,16,5.5c3.9,3.7,5.6,9,5.6,14.9
	L1555.7,701.2L1555.7,701.2z M1541.1,698.5v-48.1c0-2.8-0.1-5.4-1.8-7.4c-1.1-1.1-2-1.6-4.5-1.6c-2.2,0-3.2,0-3.7,0.5
	s-0.4,1.1-0.4,1.9v60.8c0,1.2,0,2.2,0.5,2.7c0.4,0.4,1.9,0.3,3.1,0.3c1.6,0,3.7-0.5,5.2-2.4C1541.2,702.9,1541.1,700.6,1541.1,698.5
	L1541.1,698.5z"/>
<path class="st3" d="M1580.1,719.5c0,2-0.1,2.2-7.6,2.2c-6.6,0-6.9,0-6.9-1.9v-90.2c0-2,0.5-2.2,6.9-2.2c7.2,0,7.6,0.1,7.6,2.3
	V719.5L1580.1,719.5z"/>
<path class="st3" d="M1629.3,719.1c0,0.7,0,2.2-1.1,2.6c-0.8,0.4-1.9,0-2.8,0c-1.3,0-2.4-4.9-3.8-5.5c-1.5-0.4-2.7,5.7-12.1,5.7
	c-12.6,0-19.6-9.2-19.6-18.9v-56.6c0-9.3,6.8-19,19.6-19s19.8,9.7,19.8,19v7.3c0,1.2-1.2,1.8-8.1,1.8c-4.7,0-6.5,0.1-6.5-1.3
	c0-1.9-0.1-5.8-0.1-7.2c0-1.9-1.3-5.7-5-5.7c-4.1,0-5.2,4.3-5.2,7.7v50.9c0,3.5,0.4,7.7,5.2,7.7c4.3,0,5-3.7,5-5.4v-17.7
	c0-1.2-0.4-1.6-1.2-1.9c-1.3-0.4-3-0.4-3.7-0.8c-0.5-0.5-0.5-1.9-0.5-4c0-2.3,0-3.8,0.5-4c1.8-1.2,7.7-1.3,13.1-1.2
	c5.4,0.1,6.5,1,6.5,2.8V719.1L1629.3,719.1z"/>
<path class="st3" d="M1653.7,719.5c0,2-0.1,2.2-7.6,2.2c-6.6,0-6.9,0-6.9-1.9v-90.2c0-2,0.5-2.2,6.9-2.2c7.2,0,7.6,0.1,7.6,2.3
	V719.5L1653.7,719.5z"/>
<path class="st3" d="M1700.6,633.6c0,6.2-0.1,6.9-1.6,6.9h-5.8c-1.5,0-3.2,0-3.9,0.3c-1.2,1-0.9,3.2-0.9,5v74.7
	c0,1.2-1.5,1.3-7.8,1.3c-5.7,0-6.9,0-6.9-1.3v-74.7c0-1.8,0.3-4-0.9-5c-0.7-0.3-2.4-0.3-3.9-0.3h-5c-2,0-2.4-1-2.4-6.6
	s0.3-6.6,1.9-6.6h35.7C1700.4,627.2,1700.6,628.5,1700.6,633.6L1700.6,633.6z"/>
<path class="st3" d="M1739.7,720.4c0.3,1.5-3.8,1.3-7.4,1.3c-3.9,0-6.5,0.3-6.8-1.6c-1.1-7.6-1.6-12.7-2.7-20.1
	c-0.1-1.3-1.8-1.1-3.9-1.1c-2.6,0-3.9-0.3-4.1,1.1c-0.8,7.6-1.3,12.6-2,20.4c-0.1,1.5-3.1,1.3-7.4,1.3c-2,0-6.8,0-6.6-1.2
	c5-35.2,8.5-58.9,13-91.4c0.3-1.9,4.1-2,7-2c3.4,0,6.9,0.1,7.3,2.4C1731.2,664.1,1734.3,685.2,1739.7,720.4L1739.7,720.4z
	 M1721.7,687.9c-0.7-10-1.1-15.7-1.8-26.3c0-0.7-0.3-3.7-1.2-3.7c-0.7,0-0.9,3.4-0.9,3.9c-0.7,10.5-1.1,17.3-1.8,25.9
	c0,1,0.7,1.1,2.7,1.1C1720.5,688.8,1721.8,689.1,1721.7,687.9L1721.7,687.9z"/>
<path class="st3" d="M1780,714.9c0,6.5-0.1,6.9-1.8,6.9h-26c-1.9,0-3.8,0-4.5-0.8c-0.8-1-0.7-3-0.7-4.7v-86.8c0-1.9,0.7-2.2,6.8-2.2
	c6.9,0,7.7,0.1,7.7,2.3v73.7c0,1.8-0.1,4,0.8,4.7c0.7,0.4,2.3,0.5,3.7,0.5h12.1C1779.9,708.5,1780,709.2,1780,714.9L1780,714.9z"/>
<path class="st3" d="M1554.1,822c0,11.2-6.5,18.9-19.1,18.9s-19.6-8.6-19.6-18.9v-56.6c0-10.4,7.4-19,19.6-19s19.1,9.2,19.1,19v7.3
	c0,1.3-1.1,1.8-7.3,1.8c-4.5,0-6.8,0.3-6.8-1.5v-7c0-1.9-1.5-5.7-5-5.7c-4.2,0-5.2,4.2-5.2,7.7v50.9c0,3.8,0.9,7.7,5.2,7.7
	c3.9,0,5-3.2,5-5.4v-7c0-1.9,1.2-1.8,7.2-1.8s6.9,0.1,6.9,2.6L1554.1,822L1554.1,822z"/>
<path class="st3" d="M1595.1,834c0,6.5-0.1,6.9-1.8,6.9h-26c-1.9,0-3.8,0-4.5-0.8c-0.8-1-0.7-3-0.7-4.7v-86.8c0-1.9,0.7-2.2,6.8-2.2
	c6.9,0,7.7,0.1,7.7,2.3v73.7c0,1.8-0.1,4,0.8,4.7c0.7,0.4,2.3,0.5,3.7,0.5h12.1C1594.9,827.7,1595.1,828.4,1595.1,834L1595.1,834z"
	/>
<path class="st3" d="M1636.4,834.2c0,6.2-0.1,6.8-1.6,6.8h-26c-2.2,0-4.5,0.3-5.4-0.5c-1.1-1-0.8-3-0.8-4.6v-85.4
	c0-1.8,0.1-1.9,0.9-3c0.8-1.1,1.8-1.1,3.1-1.1h28c1.6,0,1.6,1.1,1.6,6.3c0,6.1,0,6.9-1.8,6.9h-13.5c-1.1,0-2.7,0.1-3.1,0.7
	c-0.7,1-0.7,0.8-0.7,2.6v17.8c0,1.2-0.3,2.7,0.8,3.5c0.9,0.7,1.9,0.5,3,0.5h6.5c1.6,0,1.8,0.8,1.8,6.8s0,6.5-1.8,6.5h-6.1
	c-1.3,0-2.8,0.1-3.4,0.4c-1.2,0.8-0.9,2.2-0.9,3.9v20.1c0,1.8,0,4.3,0.7,4.7s2.6,0.5,4.1,0.5h12.9
	C1636.2,827.7,1636.4,828.2,1636.4,834.2L1636.4,834.2z"/>
<path class="st3" d="M1682.8,839.6c0.3,1.5-3.8,1.3-7.4,1.3c-3.9,0-6.5,0.3-6.8-1.6c-1.1-7.6-1.6-12.7-2.7-20.1
	c-0.1-1.3-1.8-1.1-3.9-1.1c-2.6,0-3.9-0.3-4.1,1.1c-0.8,7.6-1.3,12.6-2,20.4c-0.1,1.5-3.1,1.3-7.4,1.3c-2,0-6.8,0-6.6-1.2
	c5-35.2,8.5-58.9,13-91.4c0.3-1.9,4.1-2,7-2c3.4,0,6.9,0.1,7.3,2.4C1674.3,783.3,1677.4,804.3,1682.8,839.6L1682.8,839.6z
	 M1664.8,807c-0.7-10-1.1-15.7-1.8-26.3c0-0.7-0.3-3.7-1.2-3.7c-0.7,0-0.9,3.4-0.9,3.9c-0.7,10.5-1.1,17.3-1.8,25.9
	c0,1,0.7,1.1,2.7,1.1C1663.6,808,1664.9,808.3,1664.8,807L1664.8,807z"/>
<path class="st3" d="M1731.8,837c0,3.5,0.1,3.9-6.8,3.9c-3.5,0-5-0.3-6-3.7c-4.5-15.7-6.1-22.8-10.8-39.8c-0.8-3-1.9-8-2.8-8
	s-0.9,2.8-0.9,4.6v44.4c0,2.2-0.4,2.4-7.4,2.4s-6.8-0.3-6.8-2.3v-90.3c0-1.9,0.3-1.9,6.2-1.9s6.6,0.5,7.6,4.3
	c3,11.1,6.9,25.5,11,39.8c0.4,1.3,0.8,3.5,1.6,3.5c0.9,0,0.9-2.6,0.9-4v-41.2c0-2.2,0.4-2.4,7.2-2.4s7,0.1,7,2.3L1731.8,837
	L1731.8,837z"/>
<path class="st3" d="M1781.1,822c0,11.2-7.2,18.9-19.8,18.9s-19.6-8.9-19.6-18.8v-73.5c0-2.2,0.9-2.3,7.6-2.3c5.4,0,6.9,0.3,6.9,2.3
	v70.4c0,3.7,0.7,7.6,5.2,7.6s5.2-3.8,5.2-7.6v-70.5c0-1.9,0.7-2.2,6.8-2.2c7,0,7.8,0.4,7.8,2V822L1781.1,822z"/>
<path class="st3" d="M1830.4,784.5c0,5.5-1.6,10.9-6.8,15.7c-4.3,3.9-10.2,5-15.2,5c-1.9,0-3,0.8-3,4.2v29.4c0,2.3-1.3,2.2-7.6,2.2
	s-6.9,0-6.9-3v-87.4c0-1.6,0.1-2.7,0.7-3.4c0.7-1,1.8-0.8,3.4-0.8h13.8c5.4,0,10.8,1.3,14.9,4.7c4.6,3.8,6.6,8.9,6.6,15.7
	L1830.4,784.5L1830.4,784.5z M1815.8,782.6v-13c0-2.8-0.1-5.4-1.8-7.4c-1.1-1.1-2.3-1.6-4.5-1.6c-1.6,0-3.1,0-3.7,0.5
	c-0.4,0.5-0.4,1.1-0.4,1.9v25.7c0,1.3-0.1,2.4,0.8,2.8c0.7,0.1,1.6,0.1,3,0.1c1.5,0,3.4-0.4,4.9-2.2
	C1815.9,787.2,1815.8,785.2,1815.8,782.6L1815.8,782.6z"/>
<path class="st3" d="M1555.7,939.6c0,5-1.2,10-5.8,14.7c-4.3,4.5-10.6,5.8-15.6,5.8h-14.1c-1.8,0-2.8,0.1-3.4-1
	c-0.5-0.7-0.5-1.9-0.5-3.2v-86.2c0-1.5,0-2.7,0.5-3.4c0.8-1,1.8-0.8,3.5-0.8h13.8c5.8,0,11.8,1.6,16,5.5c3.9,3.7,5.6,9,5.6,14.9
	L1555.7,939.6L1555.7,939.6z M1541.1,936.9v-48.1c0-2.8-0.1-5.4-1.8-7.4c-1.1-1.1-2-1.6-4.5-1.6c-2.2,0-3.2,0-3.7,0.5
	s-0.4,1.1-0.4,1.9V943c0,1.2,0,2.2,0.5,2.7c0.4,0.4,1.9,0.3,3.1,0.3c1.6,0,3.7-0.5,5.2-2.4C1541.2,941.2,1541.1,938.9,1541.1,936.9
	L1541.1,936.9z"/>
<path class="st3" d="M1602.5,958.8c0.3,1.5-3.8,1.3-7.4,1.3c-3.9,0-6.5,0.3-6.8-1.6c-1.1-7.6-1.6-12.7-2.7-20.1
	c-0.1-1.3-1.8-1.1-3.9-1.1c-2.6,0-3.9-0.3-4.1,1.1c-0.8,7.6-1.3,12.6-2,20.4c-0.1,1.5-3.1,1.3-7.4,1.3c-2,0-6.8,0-6.6-1.2
	c5-35.2,8.5-58.9,13-91.4c0.3-1.9,4.1-2,7-2c3.4,0,6.9,0.1,7.3,2.4C1594,902.4,1597.1,923.5,1602.5,958.8L1602.5,958.8z
	 M1584.5,926.2c-0.7-10-1.1-15.7-1.8-26.3c0-0.7-0.3-3.7-1.2-3.7c-0.7,0-0.9,3.4-0.9,3.9c-0.7,10.5-1.1,17.3-1.8,25.9
	c0,1,0.7,1.1,2.7,1.1C1583.3,927.2,1584.7,927.4,1584.5,926.2L1584.5,926.2z"/>
<path class="st3" d="M1638.8,867.6c-3.4,15.9-6,28.2-9.8,44.2c-0.7,2.8-1.1,5.8-1.5,8c-0.3,1.2-0.8,4.7-0.8,7.2V959
	c0,1.2-5.7,1.1-7.4,1.1c-2.2,0-7.2,0.1-7.2-1.5c0-10.9,0.1-19.3,0.1-31.3c0-2.4-0.1-5.1-0.4-6.6c-0.3-1.8-1.2-5.1-1.9-8.1
	c-3.7-15.8-6.8-29.2-10.2-45c-0.4-1.8,3.8-1.9,6.1-1.9c4.2,0,8,0.1,8.3,2.2c1.6,11.8,3.1,22.3,4.6,33.2c0,0.4,0.3,1.2,0.8,1.2
	s0.7-1,0.7-1.3c1.8-12,2.7-20.9,4.3-33.1c0.3-1.8,4.1-2.2,7.6-2.2S1639.2,865.8,1638.8,867.6L1638.8,867.6z"/>
<path class="st3" d="M1680.8,914.5c0,1.8-0.1,3.9-1.2,3.9h-17.1c-0.8,0-1.2,0.1-1.7-0.3c-0.7-0.5-0.5-0.6-0.5-1.7v-10.6
	c0-3.2,1.2-5.7,2.4-7.2c3.5-4.2,4-4.7,6.9-8.4c1.6-2.1,2.2-3.2,2.9-5.7c0.7-2.1,0.7-3.5,0.7-5.2c0-2.2-0.5-3.7-2.7-3.7
	c-2.1,0-2.5,2.1-2.5,3.7v2.5c0,0.8-2.4,0.9-3.9,0.9s-3.5,0-3.5-1v-4c0-5.2,3.8-9.4,10-9.4c6.5,0,10.2,4,10.2,9.4v5.3
	c0,4.9-3,8.8-5.3,11.5c-2.7,3.2-3.7,4.3-6.2,7.3c-0.8,1-1.3,2.3-1.3,3.7v3.3c0,1.1-0.1,1.3,0.4,1.7c0.4,0.4,0.9,0.4,1.7,0.4h9.8
	C1680.7,910.7,1680.8,912.6,1680.8,914.5L1680.8,914.5z"/>
<path class="st3" d="M1706.7,908c0,6.9-4.2,10.3-10.4,10.3s-10.4-3.9-10.4-10.3v-29.5c0-6.2,4.4-10.2,10.4-10.2s10.4,4,10.4,10.2
	V908z M1698.9,906.5v-26.5c0-2-0.6-4.3-2.7-4.3s-2.7,2.3-2.7,4.3v26.5c0,2.4,0.6,4.3,2.7,4.3S1698.9,908.9,1698.9,906.5z"/>
<path class="st3" d="M1731.3,914.5c0,1.8-0.1,3.9-1.2,3.9h-17.1c-0.8,0-1.2,0.1-1.7-0.3c-0.7-0.5-0.5-0.6-0.5-1.7v-10.6
	c0-3.2,1.2-5.7,2.4-7.2c3.5-4.2,4-4.7,6.9-8.4c1.6-2.1,2.2-3.2,2.9-5.7c0.7-2.1,0.7-3.5,0.7-5.2c0-2.2-0.5-3.7-2.7-3.7
	c-2.1,0-2.5,2.1-2.5,3.7v2.5c0,0.8-2.4,0.9-3.9,0.9s-3.5,0-3.5-1v-4c0-5.2,3.8-9.4,10-9.4c6.5,0,10.2,4,10.2,9.4v5.3
	c0,4.9-3,8.8-5.3,11.5c-2.7,3.2-3.7,4.3-6.2,7.3c-0.8,1-1.3,2.3-1.3,3.7v3.3c0,1.1-0.1,1.3,0.4,1.7c0.4,0.4,0.9,0.4,1.7,0.4h9.8
	C1731.2,910.7,1731.4,912.6,1731.3,914.5L1731.3,914.5z"/>
<path class="st3" d="M1754.7,906.2c0,1.4,0,2.8-0.4,2.8c-1,0-1.1-0.1-1.5,0.3c-0.3,0.3-0.2,0.4-0.2,0.9v7.4c0,0.8-1.4,0.9-3.2,0.9
	c-1.4,0-4-0.1-4-0.9v-6.4c0-0.4,0.1-1-0.1-1.5c-0.3-0.4-1.2-0.4-1.9-0.4h-8.8c-0.4,0-0.9,0.1-1.2-0.3c-0.3-0.5-0.2-1.1-0.2-1.6v-6.2
	c0-0.8,0-1.3,0.1-2.2c0.1-0.7,0.4-1.4,0.6-2c3.4-9.8,5.7-16.5,9.5-27c0.5-1.3,1-1.6,4.4-1.6c3.9,0,4.8,0.2,4.8,0.9v32.1
	c0,0.3,0,0.9,0.1,1c0.3,0.3,1.1,0.2,1.7,0.2C1754.7,902.4,1754.7,904.7,1754.7,906.2L1754.7,906.2z M1745.6,885.3
	c0-1.8,0.1-2.9-0.3-2.9c-0.5,0-0.7,1.3-0.9,2.1c-0.9,3.9-1.8,7-2.8,10.9c-0.2,0.8-0.4,1.3-0.6,2.1c-0.1,0.5-0.1,0.7-0.1,1.2v2.4
	c0,0.8,0.1,0.9,0.4,1.2c0.1,0.2,0.6,0.2,1.6,0.2s1.9-0.1,2.2-0.2c0.3-0.1,0.2-0.7,0.2-1.3C1745.4,894.3,1745.5,892,1745.6,885.3
	L1745.6,885.3z"/>
<path class="st3" d="M1674.5,957.9c0,0.8-0.1,1.6-0.5,1.6h-11.7c-0.6,0-0.7-0.7-0.7-1.5c0-0.9,0.1-1.7,0.8-1.7h2
	c0.3,0,0.6,0,0.9-0.1s0.2-0.6,0.2-1.1v-14.6c0-0.3,0.1-0.8-0.2-0.8c-0.5,0-1.5,0.6-1.9,0.9c-0.4,0.2-1.2,0.9-1.3,0.3
	c-0.2-0.7-0.3-1.8-0.1-2.5c0.1-0.3,1.1-1,1.9-1.5c0.8-0.5,1.1-1.7,1.5-1.8c1.2-0.3,3.7-0.3,4.7-0.3c0.6,0,0.5,0.7,0.5,1.1V955
	c0,0.4,0,0.8,0.2,1c0.2,0.2,0.6,0.2,0.8,0.2h2.4C1674.5,956.2,1674.5,957,1674.5,957.9L1674.5,957.9z"/>
<path class="st3" d="M1690.4,954c0,3.3-2.6,5.4-6.8,5.4c-4.6,0-6.9-2.3-6.9-5.4c0-4.4,0.1-6.4,0.1-11.1c0-1.9,0.4-3.1,2.1-4.8
	c1.7-1.7,5.6-3.3,11.2-3.4c0.3,0,0.3,1.2,0.3,1.6s0,1.5-0.3,1.5c-2.6,0.2-4.9,0.3-6.5,1.5c-1.2,0.8-1.8,1.7-1.8,3.1v1.9
	c0,0.2-0.1,0.6,0.2,0.7c0.3,0.2,1-0.5,3.3-0.5c1.1,0,2.2,0.2,3.2,1c1.1,0.7,1.9,2,1.9,3.6L1690.4,954L1690.4,954z M1685.3,953.3
	v-3.7c0-1.1-0.4-2-1.8-2s-1.8,0.9-1.8,2.1v3.6c0,1.5,0,2.5,1.8,2.5C1685.1,955.8,1685.3,954.7,1685.3,953.3z"/>
<path class="st3" d="M1720.8,958.8c0,0.6,0.1,0.6-2.6,0.6c-2.4,0-2.5-0.1-2.5-0.6c0-4.9,0-11.3-0.2-14.1c-0.2-0.3-0.6-0.2-0.7,0.1
	c-0.6,2-1.2,3.6-1.7,4.8c-0.1,0.3-0.3,0.5-1.1,0.5s-0.9-0.2-1.1-0.5c-0.4-1.1-1-2.8-1.6-4.8c-0.1-0.3-0.7-0.5-0.9-0.2
	c-0.2,2.8-0.2,9.1-0.2,14c0,0.6-0.2,0.6-2.7,0.6c-2.4,0-2.3-0.1-2.3-0.6v-23.5c0-0.6,0.3-0.6,2.2-0.6c2.1,0,2.4,0.2,2.9,1.3
	c0.7,1.8,1.5,3.4,2.1,5c0.5,1.2,1,2.3,1.4,2.3s0.8-1,1.4-2.3l2.1-5c0.4-1.1,0.8-1.3,2.7-1.3c2.1,0,2.5,0,2.5,0.6L1720.8,958.8
	L1720.8,958.8z"/>
<path class="st3" d="M1738.2,959.1c0.1,0.4-1.4,0.3-2.7,0.3c-1.4,0-2.3,0.1-2.4-0.4c-0.4-2-0.6-3.3-1-5.3c-0.1-0.3-0.6-0.3-1.4-0.3
	c-0.9,0-1.4-0.1-1.5,0.3c-0.3,2-0.5,3.3-0.7,5.3c-0.1,0.4-1.1,0.3-2.7,0.3c-0.7,0-2.4,0-2.4-0.3c1.8-9.2,3.1-15.4,4.7-23.9
	c0.1-0.5,1.5-0.5,2.5-0.5c1.2,0,2.5,0,2.6,0.6C1735.2,944.4,1736.3,949.9,1738.2,959.1L1738.2,959.1z M1731.8,950.6
	c-0.2-2.6-0.4-4.1-0.6-6.9c0-0.2-0.1-1-0.4-1c-0.2,0-0.3,0.9-0.3,1c-0.2,2.8-0.4,4.5-0.6,6.8c0,0.2,0.2,0.3,1,0.3
	C1731.3,950.8,1731.8,950.9,1731.8,950.6L1731.8,950.6z"/>
<path class="st3" d="M1755,958.9c0,0.6-0.3,0.6-2.7,0.6s-2.5,0-2.5-0.6v-8.1c0-1.2-0.6-2.2-1.8-2.2c-1.7,0-1.9,0-1.9,0.5v9.8
	c0,0.7-0.4,0.7-2.8,0.7c-2,0-2.4,0-2.4-0.8v-22.8c0-0.3,0.1-0.7,0.2-0.9c0.3-0.3,0.6-0.2,1.3-0.2h4.8c2.1,0,4.2,0.4,5.7,1.5
	c1.5,1,2,2.4,2,3.9v3c0,1-0.2,1.7-0.8,2.3c-0.9,1-2.4,1.2-2.4,1.3c0,0.1,1.6,0.2,2.5,1.1c0.6,0.6,0.9,1.2,0.9,2.2L1755,958.9
	L1755,958.9z M1749.7,943.2v-2.4c0-0.7-0.1-1.4-0.7-1.9c-0.3-0.3-0.6-0.4-1.8-0.4c-0.4,0-0.8,0-1,0.2c-0.1,0.1-0.2,0.3-0.2,0.5v5.3
	c0,0.3,0,0.6,0.2,0.7c0.2,0.1,0.5,0.1,0.9,0.1c0.4,0,1.2-0.1,1.8-0.5C1749.6,944.1,1749.6,943.6,1749.7,943.2L1749.7,943.2z"/>
<path class="st1" d="M1333.7,334.8c8.8,0,15.8-7.1,15.8-15.8v-43.2l-36.3,21.2l18.4,9.9c1.9,1,2.7,3.4,1.6,5.4s-3.4,2.6-5.4,1.6
	l-30-16.2c-2.3-1.3-5.2-1.3-7.5,0l-30,16.2c-1.9,1-4.3,0.2-5.3-1.7c-1-1.9-0.3-4.2,1.6-5.3l18.4-9.9l-36.3-21.2V319
	c0,8.8,7.1,15.8,15.8,15.8L1333.7,334.8L1333.7,334.8z"/>
<path class="st1" d="M1238.7,266.6v-3.9c0-5.8,3.2-11.2,8.3-14l39.6-21.3c4.7-2.5,10.3-2.5,15,0l39.6,21.3c5.1,2.8,8.3,8.1,8.3,14
	v3.9l-44.5,26l-3.4-1.9c-4.7-2.5-10.3-2.5-15,0l-3.4,1.9L1238.7,266.6L1238.7,266.6z"/>
<path class="st4" d="M913,357.9c1.8-6.8,8.8-10.8,15.6-9l5.7,1.5c4.1,1.1,8.5,0.1,11.7-2.7l7-6.1c3.2-2.8,7.6-3.8,11.7-2.7l23.7,6.4
	c4.1,1.1,7.4,4.2,8.7,8.2l3,8.8c1.4,4,4.6,7.1,8.7,8.2l5.7,1.5c6.8,1.8,10.8,8.8,9,15.6l-11.5,42.9c-1.8,6.8-8.8,10.8-15.6,9
	l-85.9-23c-6.8-1.8-10.8-8.8-9-15.6L913,357.9L913,357.9z M990.9,398.5c-4.1,15.2-19.8,24.3-35,20.2s-24.3-19.8-20.2-35
	c4.1-15.2,19.8-24.3,35-20.2S995,383.3,990.9,398.5z M958.3,409.5c10.2,2.7,20.6-3.3,23.3-13.5s-3.3-20.6-13.5-23.3
	c-10.2-2.7-20.6,3.3-23.3,13.5S948.2,406.8,958.3,409.5z"/>
<path class="st4" d="M761.3,543.3c1.8-8.4,10-13.8,18.4-12l91.3,19.4c8.4,1.8,13.8,10,12,18.4l-13.7,64.2c-1.8,8.4-10,13.8-18.4,12
	L759.6,626c-8.4-1.8-13.8-10-12-18.4L761.3,543.3z M763.1,584.8l-5.3,25c-0.6,2.8,1.2,5.5,4,6.2l91.3,19.4c2.8,0.6,5.5-1.2,6.2-4
	l3.9-18.2l-11.8-18.2c-1.6-2.4-4.8-3.1-7.2-1.5l-15.7,10.2l2.5,3.8c1.6,2.3,1.1,5.6-1.3,7.2s-5.6,1.1-7.2-1.3
	c-0.1-0.1-0.1-0.2-0.2-0.3l-27.6-42.5c-1.6-2.4-4.8-3.1-7.2-1.5L763.1,584.8L763.1,584.8L763.1,584.8z M833.2,571
	c-0.8,3.7-4.5,6.1-8.2,5.3s-6.1-4.5-5.3-8.2c0.8-3.7,4.5-6.1,8.2-5.3S834,567.2,833.2,571z"/>
<path class="st4" d="M781.7,235.3c14.6,1,29.1,3.1,43.4,6.2c14.5,3.1,28.5,7.3,42.1,12.4c11.4,4.3,17.4,16.4,14.9,28.1l-7.8,36
	c-2.5,11.6-13,20.2-25.2,19.4c-7.1-0.5-14.2-1.2-21.3-2.2c-0.7-0.1-1.5,0.1-2,0.6l-21.8,21.1c-1.8,1.8-4.7,1.7-6.5-0.1
	c-0.4-0.4-0.8-1-1-1.5l-11.1-28.3c-0.3-0.7-0.8-1.2-1.5-1.4c-6.8-2-13.6-4.3-20.3-6.8c-11.4-4.3-17.4-16.4-14.9-28.1l7.8-36
	C759,243.1,769.5,234.5,781.7,235.3L781.7,235.3z M785.9,270.5c0.5-2.5,3-4,5.5-3.5l53.8,11.7c2.5,0.5,4,3,3.5,5.5s-3,4-5.5,3.5
	L789.4,276C787,275.4,785.4,273,785.9,270.5L785.9,270.5z M787.5,284.9c-2.5-0.5-4.9,1-5.5,3.5s1,4.9,3.5,5.5l26.9,5.8
	c2.5,0.5,4.9-1,5.5-3.5s-1-4.9-3.5-5.5L787.5,284.9z"/>
<path class="st4" d="M1134.7,350.2c-5.7,0-10.6,4.1-11.6,9.8l-1.1,6.7c-0.1,0.8-0.7,1.6-1.9,2.2c-2.2,1-4.2,2.2-6.2,3.6
	c-1,0.7-2.1,0.8-2.8,0.5l-6.4-2.4c-5.4-2-11.4,0.2-14.3,5.1l-5.8,10c-2.9,5-1.7,11.3,2.7,14.9l5.3,4.3c0.6,0.5,1.1,1.4,1,2.7
	c-0.2,2.4-0.2,4.8,0,7.1c0.1,1.2-0.4,2.2-1,2.7l-5.3,4.3c-4.4,3.6-5.6,10-2.7,14.9l5.8,10c2.9,5,8.9,7.1,14.3,5.1l6.4-2.4
	c0.7-0.3,1.8-0.2,2.8,0.5c1.9,1.3,4,2.5,6.2,3.6c1.1,0.5,1.7,1.4,1.9,2.2l1.1,6.7c0.9,5.7,5.8,9.8,11.6,9.8h11.5
	c5.7,0,10.6-4.1,11.6-9.8l1.1-6.7c0.1-0.8,0.7-1.6,1.9-2.2c2.2-1,4.2-2.2,6.2-3.6c1.1-0.7,2.1-0.8,2.8-0.5l6.4,2.4
	c5.4,2,11.4-0.2,14.3-5.1l5.8-10c2.9-5,1.7-11.3-2.7-14.9l-5.3-4.3c-0.6-0.5-1.1-1.4-1-2.7c0.2-2.4,0.2-4.8,0-7.1
	c-0.1-1.2,0.4-2.2,1-2.7l5.3-4.3c4.4-3.6,5.6-10,2.7-14.9l-5.8-10c-2.9-5-8.9-7.1-14.3-5.1l-6.4,2.4c-0.7,0.3-1.8,0.2-2.8-0.5
	c-2-1.3-4-2.5-6.2-3.6c-1.2-0.5-1.7-1.4-1.9-2.2l-1.1-6.7c-0.9-5.7-5.8-9.8-11.6-9.8L1134.7,350.2L1134.7,350.2z M1140.5,434.7
	c13,0,23.5-10.5,23.5-23.5s-10.5-23.5-23.5-23.5s-23.5,10.5-23.5,23.5S1127.5,434.7,1140.5,434.7z"/>
<path class="st5" d="M1062.1,251.6l-36.7,36.7c-8.4,8.4-22,8.4-30.4,0c-8.4-8.4-8.4-22,0-30.4l52.2-52.2c5.6-5.6,14.7-5.6,20.2,0
	s5.6,14.6,0,20.2l-52.2,52.2 M1015.3,278.1L1015.3,278.1 M1042.4,230.8l-37.2,37.3c-2.8,2.8-2.7,7.4,0.1,10.1c2.8,2.7,7.2,2.7,10,0"
	/>
<path class="st1" d="M1121.6,627.3c9.4,2,18.7-4,20.7-13.3l5.5-25.5c2-9.4-3.9-18.7-13.3-20.7l-85.1-18.3c-9.4-2-18.7,4-20.7,13.3
	l-5.5,25.5c-2,9.4,3.9,18.7,13.3,20.7L1121.6,627.3z M1032.8,543.8l5.1-23.5c2-9.4,11.3-15.4,20.7-13.4l30.5,6.6
	c3.4,0.7,6.3,2.8,8.2,5.7l9.4,14.6c0.6,1,1.6,1.7,2.7,1.9l30.5,6.6c9.4,2,15.4,11.3,13.3,20.7l0,0l-1.4,6.5
	c-3.8-5.2-9.3-8.8-15.6-10.2l-85.1-18.3C1044.9,539.6,1038.3,540.6,1032.8,543.8L1032.8,543.8z"/>
<path class="st1" d="M605.9,352.1c-6.4,0-11.5,5.2-11.5,11.5v4.6c0,6.4,5.2,11.5,11.5,11.5h106.3c6.4,0,11.5-5.2,11.5-11.5v-4.6
	c0-6.4-5.2-11.5-11.5-11.5H605.9z"/>
<path class="st4" d="M604.1,389.1l3.3,56.5c0.6,9.8,8.7,17.4,18.4,17.4h66.3c9.8,0,17.9-7.6,18.5-17.4l3.3-56.5H604.1L604.1,389.1z
	 M642.1,412.2c0-2.5,2.1-4.6,4.6-4.6h24.7c2.5,0,4.6,2.1,4.6,4.6s-2.1,4.6-4.6,4.6h-24.7C644.1,416.8,642.1,414.7,642.1,412.2z"/>
<path class="st2" d="M427.6,129c-1.2,0.7-0.2,0.4-15.2,18.9c-4.7,5.9-6.6,8.3-7.6,12.3c-1.9,8.1,3.5,11.6,2.8,17.1
	c-1.3,10.1-21.7,15.6-43.6,20.9c-30.9,7.4-46.3,11.2-55.9,12.3c-23.5,2.9-58.8,7-108,4.7C130.1,212,95.1,210.4,78,201.9
	c-2-1-9.6-5-14.2-1.9c-5.6,3.7-3.7,15.6-2.8,20.9c3,18.8,11.9,26.2,34.1,56.9c1.1,1.6,3.8,5.2,8.5,7.6c6,3,12,2.2,14.2,1.9
	c20.4-2.5,7.1,4.5,87.2-1.9c11.1-0.9,16.7-1.4,17.1,0c0.8,2.8-17.9,12.1-37.9,17.1c-30.9,7.6-52.1,1.6-55,9.5
	c-1,2.7,0.6,5.8,9.5,16.1c16.4,18.9,27.3,27,49.3,47.4c7.7,7.1,16.5,13.2,23.7,20.9c3.2,3.4,5.3,5.9,9.5,7.6
	c7.6,3,14.9,0.2,23.7-2.8c24.8-8.6,19.1-4.6,33.2-10.4c18-7.4,36.8-15.2,54-32.2c9.2-9.1,14.3-17.2,16.1-16.1
	c2.1,1.2-1.4,13.4-7.6,23.7c-4.4,7.4-11,14.9-39.8,34.1c-21.2,14.1-31.4,19.2-31.3,27.5c0.1,4.5,3.1,7.9,6.6,11.4
	c27.6,26.9,50.2,20,79.6,42.6c5,3.9,13.2,10.9,20.9,8.5c5.5-1.7,8.1-7.5,9.5-10.4c14.7-31.6,14.4-19.6,24.6-46.4
	c6.6-17.2,10.9-33.1,17.1-49.3c1.2-3.1,1.3-3.2,3.5-8.9c5.5-14.3,6.1-16.8,7-16.7c2.3,0.2,4,16.4,2.8,33.2c-0.4,6-1.2,12.2-7.6,38.9
	c-9.2,38.5-11.9,43.6-15.2,48.3c-8.4,12.2-15.1,13.5-14.2,19c1.8,11.3,33,20.6,57.8,11.6c3.4-1.2,12-4.8,19.9-12.5
	c49-48.4,20.3-213.4,7.6-247.3c-0.1-0.3-6.1-16.2-1.9-18.9c2.4-1.5,5.7,2.5,11.4,1.9c5.9-0.6,9.7-5.7,13.3-10.4
	c3.8-5.1,10.1-13.4,9.5-22.7c-0.7-10.4-9.7-17.4-18-23.7C445,131.2,435.7,124.4,427.6,129L427.6,129z"/>
<path class="st2" d="M584.4,1.2C551.5,37.5,520,70,507.1,76.9c-2.1,1.1-12.6,6.3-16.2,15.9c-3,8.1,0.3,15.4,2,19.1
	c7.1,15.2,26.9,29,48.6,30.3c19.5,1.1,35.5-8.2,44.5-14.3c35.6-24.2,83.1-77.3,123.4-126.7L584.4,1.2L584.4,1.2z"/>
</svg>
