<?xml version="1.0" encoding="UTF-8"?><svg id="Layer_1" xmlns="http://www.w3.org/2000/svg" viewBox="0 0 1142.99 1450.27"><defs><style>.cls-1{fill:none;stroke:#eb9143;stroke-miterlimit:10;stroke-width:30px;}.cls-2,.cls-3,.cls-4,.cls-5,.cls-6,.cls-7{stroke-width:0px;}.cls-3{fill:#579936;}.cls-4{fill:#147350;}.cls-5{fill:#a7ce9d;}.cls-6{fill:#eb9143;}.cls-7{fill:#ffdfa2;}</style></defs><rect class="cls-7" x="0" width="1142.99" height="1450.27" rx="100" ry="100"/><rect class="cls-5" x="139.27" y="685.26" width="649.16" height="461.52" rx="70.13" ry="70.13"/><path class="cls-3" d="M210.6,685.26h506.64c39.29,0,71.18,31.9,71.18,71.18v37.89H139.27v-37.73c0-39.37,31.97-71.34,71.34-71.34Z"/><rect class="cls-5" x="264.53" y="638.49" width="53.28" height="93.53" rx="26.64" ry="26.64"/><rect class="cls-5" x="383.71" y="638.49" width="53.28" height="93.53" rx="26.64" ry="26.64"/><rect class="cls-5" x="496.17" y="638.49" width="53.28" height="93.53" rx="26.64" ry="26.64"/><rect class="cls-5" x="621.25" y="638.49" width="53.28" height="93.53" rx="26.64" ry="26.64"/><path class="cls-4" d="M341.67,938.84v-21.47h37.41v98.59h-24.04v-77.11h-13.37Z"/><path class="cls-4" d="M484.82,999.21h-35.38l-5.67,16.75h-24.17l34.3-94.81h26.74l34.3,94.81h-24.44l-5.67-16.75ZM479.08,910.89c-3.2,2.97-7.14,4.46-11.82,4.46s-8.6-1.49-11.75-4.46c-3.15-2.97-4.73-6.93-4.73-11.88s1.57-8.91,4.73-11.88c3.15-2.97,7.07-4.46,11.75-4.46s8.62,1.49,11.82,4.46c3.2,2.97,4.79,6.93,4.79,11.88s-1.6,8.91-4.79,11.88ZM478.88,981.38l-11.75-34.71-11.62,34.71h23.36ZM471.93,894.21c-1.22-1.22-2.77-1.82-4.66-1.82s-3.31.61-4.52,1.82c-1.22,1.22-1.82,2.81-1.82,4.79s.61,3.47,1.82,4.73c1.22,1.26,2.72,1.89,4.52,1.89s3.44-.63,4.66-1.89c1.21-1.26,1.82-2.84,1.82-4.73s-.61-3.58-1.82-4.79Z"/><path class="cls-4" d="M573.69,1015.96l-19.72-35.79h-5.54v35.79h-23.09v-94.81h38.76c7.47,0,13.84,1.31,19.11,3.92,5.27,2.61,9.21,6.19,11.82,10.74,2.61,4.55,3.92,9.61,3.92,15.19,0,6.3-1.78,11.93-5.33,16.88-3.56,4.95-8.8,8.46-15.73,10.53l21.88,37.54h-26.06ZM548.43,963.83h14.32c4.23,0,7.4-1.03,9.52-3.11,2.11-2.07,3.17-5,3.17-8.78s-1.06-6.44-3.17-8.51c-2.12-2.07-5.29-3.11-9.52-3.11h-14.32v23.5Z"/><path class="cls-2" d="M151.11,230.04v41.82h-5.46v-18.96h-21.3v18.96h-5.46v-41.82h5.46v18.36h21.3v-18.36h5.46Z"/><path class="cls-2" d="M172.65,266.82l10.2-27.84h5.82l-12.9,32.88h-6.36l-12.9-32.88h5.88l10.26,27.84Z"/><path class="cls-2" d="M223.89,257.46h-26.28c.2,3.24,1.31,5.77,3.33,7.59,2.02,1.82,4.47,2.73,7.35,2.73,2.36,0,4.33-.55,5.91-1.65,1.58-1.1,2.69-2.57,3.33-4.41h5.88c-.88,3.16-2.64,5.73-5.28,7.71-2.64,1.98-5.92,2.97-9.84,2.97-3.12,0-5.91-.7-8.37-2.1-2.46-1.4-4.39-3.39-5.79-5.97-1.4-2.58-2.1-5.57-2.1-8.97s.68-6.38,2.04-8.94c1.36-2.56,3.27-4.53,5.73-5.91s5.29-2.07,8.49-2.07,5.88.68,8.28,2.04c2.4,1.36,4.25,3.23,5.55,5.61,1.3,2.38,1.95,5.07,1.95,8.07,0,1.04-.06,2.14-.18,3.3ZM217.05,247.65c-.92-1.5-2.17-2.64-3.75-3.42-1.58-.78-3.33-1.17-5.25-1.17-2.76,0-5.11.88-7.05,2.64-1.94,1.76-3.05,4.2-3.33,7.32h20.76c0-2.08-.46-3.87-1.38-5.37Z"/><path class="cls-2" d="M240.84,239.94c1.78-1.04,3.95-1.56,6.51-1.56v5.64h-1.44c-6.12,0-9.18,3.32-9.18,9.96v17.88h-5.46v-32.88h5.46v5.34c.96-1.88,2.33-3.34,4.11-4.38Z"/><path class="cls-2" d="M260.31,243.48v19.38c0,1.6.34,2.73,1.02,3.39.68.66,1.86.99,3.54.99h4.02v4.62h-4.92c-3.04,0-5.32-.7-6.84-2.1-1.52-1.4-2.28-3.7-2.28-6.9v-19.38h-4.26v-4.5h4.26v-8.28h5.46v8.28h8.58v4.5h-8.58Z"/><path class="cls-2" d="M291.51,246.45c1.36-2.54,3.23-4.51,5.61-5.91,2.38-1.4,5.03-2.1,7.95-2.1s5.38.62,7.5,1.86c2.12,1.24,3.7,2.8,4.74,4.68v-6h5.52v32.88h-5.52v-6.12c-1.08,1.92-2.69,3.51-4.83,4.77-2.14,1.26-4.63,1.89-7.47,1.89s-5.56-.72-7.92-2.16c-2.36-1.44-4.22-3.46-5.58-6.06-1.36-2.6-2.04-5.56-2.04-8.88s.68-6.31,2.04-8.85ZM315.81,248.88c-1-1.84-2.35-3.25-4.05-4.23-1.7-.98-3.57-1.47-5.61-1.47s-3.9.48-5.58,1.44c-1.68.96-3.02,2.36-4.02,4.2-1,1.84-1.5,4-1.5,6.48s.5,4.71,1.5,6.57c1,1.86,2.34,3.28,4.02,4.26,1.68.98,3.54,1.47,5.58,1.47s3.91-.49,5.61-1.47c1.7-.98,3.05-2.4,4.05-4.26,1-1.86,1.5-4.03,1.5-6.51s-.5-4.64-1.5-6.48ZM311.82,233.73c-1.22,1.14-2.75,1.71-4.59,1.71s-3.32-.58-4.56-1.74c-1.24-1.16-1.86-2.68-1.86-4.56s.62-3.4,1.86-4.56c1.24-1.16,2.76-1.74,4.56-1.74s3.37.57,4.59,1.71c1.22,1.14,1.83,2.67,1.83,4.59s-.61,3.45-1.83,4.59ZM309.54,226.65c-.62-.62-1.39-.93-2.31-.93s-1.69.31-2.31.93c-.62.62-.93,1.43-.93,2.43s.31,1.82.93,2.46c.62.64,1.39.96,2.31.96s1.69-.32,2.31-.96c.62-.64.93-1.46.93-2.46s-.31-1.81-.93-2.43Z"/><path class="cls-2" d="M341.64,239.94c1.78-1.04,3.95-1.56,6.51-1.56v5.64h-1.44c-6.12,0-9.18,3.32-9.18,9.96v17.88h-5.46v-32.88h5.46v5.34c.96-1.88,2.33-3.34,4.11-4.38Z"/><path class="cls-2" d="M380.76,240.33c2.14-1.26,4.63-1.89,7.47-1.89s5.57.7,7.95,2.1c2.38,1.4,4.25,3.37,5.61,5.91,1.36,2.54,2.04,5.49,2.04,8.85s-.68,6.28-2.04,8.88c-1.36,2.6-3.23,4.62-5.61,6.06-2.38,1.44-5.03,2.16-7.95,2.16s-5.27-.63-7.41-1.89c-2.14-1.26-3.77-2.83-4.89-4.71v21.66h-5.46v-48.48h5.46v6.06c1.08-1.88,2.69-3.45,4.83-4.71ZM396.75,248.82c-1-1.84-2.35-3.24-4.05-4.2-1.7-.96-3.57-1.44-5.61-1.44s-3.85.49-5.55,1.47c-1.7.98-3.06,2.4-4.08,4.26-1.02,1.86-1.53,4.01-1.53,6.45s.51,4.65,1.53,6.51c1.02,1.86,2.38,3.28,4.08,4.26,1.7.98,3.55,1.47,5.55,1.47s3.91-.49,5.61-1.47c1.7-.98,3.05-2.4,4.05-4.26,1-1.86,1.5-4.05,1.5-6.57s-.5-4.64-1.5-6.48Z"/><path class="cls-2" d="M420.6,239.94c1.78-1.04,3.95-1.56,6.51-1.56v5.64h-1.44c-6.12,0-9.18,3.32-9.18,9.96v17.88h-5.46v-32.88h5.46v5.34c.96-1.88,2.33-3.34,4.11-4.38Z"/><path class="cls-2" d="M439.37,270.3c-2.5-1.4-4.46-3.39-5.88-5.97-1.42-2.58-2.13-5.57-2.13-8.97s.73-6.33,2.19-8.91,3.45-4.56,5.97-5.94c2.52-1.38,5.34-2.07,8.46-2.07s5.94.69,8.46,2.07c2.52,1.38,4.51,3.35,5.97,5.91,1.46,2.56,2.19,5.54,2.19,8.94s-.75,6.39-2.25,8.97c-1.5,2.58-3.53,4.57-6.09,5.97-2.56,1.4-5.4,2.1-8.52,2.1s-5.87-.7-8.37-2.1ZM453.27,266.22c1.72-.92,3.11-2.3,4.17-4.14,1.06-1.84,1.59-4.08,1.59-6.72s-.52-4.88-1.56-6.72c-1.04-1.84-2.4-3.21-4.08-4.11-1.68-.9-3.5-1.35-5.46-1.35s-3.83.45-5.49,1.35c-1.66.9-2.99,2.27-3.99,4.11-1,1.84-1.5,4.08-1.5,6.72s.49,4.94,1.47,6.78c.98,1.84,2.29,3.21,3.93,4.11,1.64.9,3.44,1.35,5.4,1.35s3.8-.46,5.52-1.38Z"/><path class="cls-2" d="M471.81,246.45c1.36-2.54,3.23-4.51,5.61-5.91,2.38-1.4,5.05-2.1,8.01-2.1,2.56,0,4.94.59,7.14,1.77,2.2,1.18,3.88,2.73,5.04,4.65v-17.4h5.52v44.4h-5.52v-6.18c-1.08,1.96-2.68,3.57-4.8,4.83-2.12,1.26-4.6,1.89-7.44,1.89s-5.57-.72-7.95-2.16c-2.38-1.44-4.25-3.46-5.61-6.06-1.36-2.6-2.04-5.56-2.04-8.88s.68-6.31,2.04-8.85ZM496.11,248.88c-1-1.84-2.35-3.25-4.05-4.23-1.7-.98-3.57-1.47-5.61-1.47s-3.9.48-5.58,1.44c-1.68.96-3.02,2.36-4.02,4.2-1,1.84-1.5,4-1.5,6.48s.5,4.71,1.5,6.57c1,1.86,2.34,3.28,4.02,4.26,1.68.98,3.54,1.47,5.58,1.47s3.91-.49,5.61-1.47c1.7-.98,3.05-2.4,4.05-4.26,1-1.86,1.5-4.03,1.5-6.51s-.5-4.64-1.5-6.48Z"/><path class="cls-2" d="M541.52,238.98v32.88h-5.46v-4.86c-1.04,1.68-2.49,2.99-4.35,3.93-1.86.94-3.91,1.41-6.15,1.41-2.56,0-4.86-.53-6.9-1.59-2.04-1.06-3.65-2.65-4.83-4.77-1.18-2.12-1.77-4.7-1.77-7.74v-19.26h5.4v18.54c0,3.24.82,5.73,2.46,7.47,1.64,1.74,3.88,2.61,6.72,2.61s5.22-.9,6.9-2.7c1.68-1.8,2.52-4.42,2.52-7.86v-18.06h5.46Z"/><path class="cls-2" d="M550.77,246.45c1.36-2.54,3.25-4.51,5.67-5.91,2.42-1.4,5.19-2.1,8.31-2.1,4.04,0,7.37.98,9.99,2.94,2.62,1.96,4.35,4.68,5.19,8.16h-5.88c-.56-2-1.65-3.58-3.27-4.74-1.62-1.16-3.63-1.74-6.03-1.74-3.12,0-5.64,1.07-7.56,3.21-1.92,2.14-2.88,5.17-2.88,9.09s.96,7.02,2.88,9.18c1.92,2.16,4.44,3.24,7.56,3.24,2.4,0,4.4-.56,6-1.68,1.6-1.12,2.7-2.72,3.3-4.8h5.88c-.88,3.36-2.64,6.05-5.28,8.07-2.64,2.02-5.94,3.03-9.9,3.03-3.12,0-5.89-.7-8.31-2.1-2.42-1.4-4.31-3.38-5.67-5.94-1.36-2.56-2.04-5.56-2.04-9s.68-6.37,2.04-8.91Z"/><path class="cls-2" d="M617.01,257.46h-26.28c.2,3.24,1.31,5.77,3.33,7.59,2.02,1.82,4.47,2.73,7.35,2.73,2.36,0,4.33-.55,5.91-1.65,1.58-1.1,2.69-2.57,3.33-4.41h5.88c-.88,3.16-2.64,5.73-5.28,7.71-2.64,1.98-5.92,2.97-9.84,2.97-3.12,0-5.91-.7-8.37-2.1-2.46-1.4-4.39-3.39-5.79-5.97-1.4-2.58-2.1-5.57-2.1-8.97s.68-6.38,2.04-8.94c1.36-2.56,3.27-4.53,5.73-5.91s5.29-2.07,8.49-2.07,5.88.68,8.28,2.04c2.4,1.36,4.25,3.23,5.55,5.61,1.3,2.38,1.95,5.07,1.95,8.07,0,1.04-.06,2.14-.18,3.3ZM610.16,247.65c-.92-1.5-2.17-2.64-3.75-3.42-1.58-.78-3.33-1.17-5.25-1.17-2.76,0-5.11.88-7.05,2.64-1.94,1.76-3.05,4.2-3.33,7.32h20.76c0-2.08-.46-3.87-1.38-5.37Z"/><path class="cls-2" d="M633.96,239.94c1.78-1.04,3.95-1.56,6.51-1.56v5.64h-1.44c-6.12,0-9.18,3.32-9.18,9.96v17.88h-5.46v-32.88h5.46v5.34c.96-1.88,2.33-3.34,4.11-4.38Z"/><path class="cls-2" d="M676.58,257.46h-26.28c.2,3.24,1.31,5.77,3.33,7.59,2.02,1.82,4.47,2.73,7.35,2.73,2.36,0,4.33-.55,5.91-1.65,1.58-1.1,2.69-2.57,3.33-4.41h5.88c-.88,3.16-2.64,5.73-5.28,7.71-2.64,1.98-5.92,2.97-9.84,2.97-3.12,0-5.91-.7-8.37-2.1-2.46-1.4-4.39-3.39-5.79-5.97-1.4-2.58-2.1-5.57-2.1-8.97s.68-6.38,2.04-8.94c1.36-2.56,3.27-4.53,5.73-5.91s5.29-2.07,8.49-2.07,5.88.68,8.28,2.04c2.4,1.36,4.25,3.23,5.55,5.61,1.3,2.38,1.95,5.07,1.95,8.07,0,1.04-.06,2.14-.18,3.3ZM669.74,247.65c-.92-1.5-2.17-2.64-3.75-3.42-1.58-.78-3.33-1.17-5.25-1.17-2.76,0-5.11.88-7.05,2.64-1.94,1.76-3.05,4.2-3.33,7.32h20.76c0-2.08-.46-3.87-1.38-5.37Z"/><path class="cls-2" d="M693.53,239.94c1.78-1.04,3.95-1.56,6.51-1.56v5.64h-1.44c-6.12,0-9.18,3.32-9.18,9.96v17.88h-5.46v-32.88h5.46v5.34c.96-1.88,2.33-3.34,4.11-4.38Z"/><path class="cls-6" d="M718.91,233.31c-1.14-1.06-1.71-2.37-1.71-3.93s.57-2.93,1.71-3.99c1.14-1.06,2.61-1.59,4.41-1.59s3.21.53,4.35,1.59c1.14,1.06,1.71,2.39,1.71,3.99s-.57,2.87-1.71,3.93c-1.14,1.06-2.59,1.59-4.35,1.59s-3.27-.53-4.41-1.59ZM728.42,238.38v33.48h-10.26v-33.48h10.26Z"/><path class="cls-6" d="M765.65,241.83c2.34,2.54,3.51,6.03,3.51,10.47v19.56h-10.2v-18.18c0-2.24-.58-3.98-1.74-5.22-1.16-1.24-2.72-1.86-4.68-1.86s-3.52.62-4.68,1.86c-1.16,1.24-1.74,2.98-1.74,5.22v18.18h-10.26v-33.48h10.26v4.44c1.04-1.48,2.44-2.65,4.2-3.51,1.76-.86,3.74-1.29,5.94-1.29,3.92,0,7.05,1.27,9.39,3.81Z"/><path class="cls-6" d="M794.96,263.16v8.7h-5.22c-3.72,0-6.62-.91-8.7-2.73-2.08-1.82-3.12-4.79-3.12-8.91v-13.32h-4.08v-8.52h4.08v-8.16h10.26v8.16h6.72v8.52h-6.72v13.44c0,1,.24,1.72.72,2.16.48.44,1.28.66,2.4.66h3.66Z"/><path class="cls-6" d="M832.04,257.58h-23.22c.16,2.08.83,3.67,2.01,4.77,1.18,1.1,2.63,1.65,4.35,1.65,2.56,0,4.34-1.08,5.34-3.24h10.92c-.56,2.2-1.57,4.18-3.03,5.94-1.46,1.76-3.29,3.14-5.49,4.14-2.2,1-4.66,1.5-7.38,1.5-3.28,0-6.2-.7-8.76-2.1-2.56-1.4-4.56-3.4-6-6-1.44-2.6-2.16-5.64-2.16-9.12s.71-6.52,2.13-9.12c1.42-2.6,3.41-4.6,5.97-6,2.56-1.4,5.5-2.1,8.82-2.1s6.12.68,8.64,2.04c2.52,1.36,4.49,3.3,5.91,5.82,1.42,2.52,2.13,5.46,2.13,8.82,0,.96-.06,1.96-.18,3ZM821.72,251.88c0-1.76-.6-3.16-1.8-4.2-1.2-1.04-2.7-1.56-4.5-1.56s-3.17.5-4.35,1.5c-1.18,1-1.91,2.42-2.19,4.26h12.84Z"/><path class="cls-6" d="M852.38,239.61c1.8-1.06,3.8-1.59,6-1.59v10.86h-2.82c-2.56,0-4.48.55-5.76,1.65-1.28,1.1-1.92,3.03-1.92,5.79v15.54h-10.26v-33.48h10.26v5.58c1.2-1.84,2.7-3.29,4.5-4.35Z"/><path class="cls-6" d="M893.09,241.83c2.34,2.54,3.51,6.03,3.51,10.47v19.56h-10.2v-18.18c0-2.24-.58-3.98-1.74-5.22-1.16-1.24-2.72-1.86-4.68-1.86s-3.52.62-4.68,1.86c-1.16,1.24-1.74,2.98-1.74,5.22v18.18h-10.26v-33.48h10.26v4.44c1.04-1.48,2.44-2.65,4.2-3.51,1.76-.86,3.74-1.29,5.94-1.29,3.92,0,7.05,1.27,9.39,3.81Z"/><path class="cls-6" d="M935.12,257.58h-23.22c.16,2.08.83,3.67,2.01,4.77,1.18,1.1,2.63,1.65,4.35,1.65,2.56,0,4.34-1.08,5.34-3.24h10.92c-.56,2.2-1.57,4.18-3.03,5.94-1.46,1.76-3.29,3.14-5.49,4.14-2.2,1-4.66,1.5-7.38,1.5-3.28,0-6.2-.7-8.76-2.1-2.56-1.4-4.56-3.4-6-6-1.44-2.6-2.16-5.64-2.16-9.12s.71-6.52,2.13-9.12c1.42-2.6,3.41-4.6,5.97-6,2.56-1.4,5.5-2.1,8.82-2.1s6.12.68,8.64,2.04c2.52,1.36,4.49,3.3,5.91,5.82,1.42,2.52,2.13,5.46,2.13,8.82,0,.96-.06,1.96-.18,3ZM924.8,251.88c0-1.76-.6-3.16-1.8-4.2-1.2-1.04-2.7-1.56-4.5-1.56s-3.17.5-4.35,1.5c-1.18,1-1.91,2.42-2.19,4.26h12.84Z"/><path class="cls-6" d="M959.36,263.16v8.7h-5.22c-3.72,0-6.62-.91-8.7-2.73-2.08-1.82-3.12-4.79-3.12-8.91v-13.32h-4.08v-8.52h4.08v-8.16h10.26v8.16h6.72v8.52h-6.72v13.44c0,1,.24,1.72.72,2.16.48.44,1.28.66,2.4.66h3.66Z"/><path class="cls-6" d="M983.72,263.16v8.7h-5.22c-3.72,0-6.62-.91-8.7-2.73-2.08-1.82-3.12-4.79-3.12-8.91v-13.32h-4.08v-8.52h4.08v-8.16h10.26v8.16h6.72v8.52h-6.72v13.44c0,1,.24,1.72.72,2.16.48.44,1.28.66,2.4.66h3.66Z"/><path class="cls-6" d="M1020.8,257.58h-23.22c.16,2.08.83,3.67,2.01,4.77,1.18,1.1,2.63,1.65,4.35,1.65,2.56,0,4.34-1.08,5.34-3.24h10.92c-.56,2.2-1.57,4.18-3.03,5.94-1.46,1.76-3.29,3.14-5.49,4.14-2.2,1-4.66,1.5-7.38,1.5-3.28,0-6.2-.7-8.76-2.1-2.56-1.4-4.56-3.4-6-6-1.44-2.6-2.16-5.64-2.16-9.12s.71-6.52,2.13-9.12c1.42-2.6,3.41-4.6,5.97-6,2.56-1.4,5.5-2.1,8.82-2.1s6.12.68,8.64,2.04c2.52,1.36,4.49,3.3,5.91,5.82,1.42,2.52,2.13,5.46,2.13,8.82,0,.96-.06,1.96-.18,3ZM1010.48,251.88c0-1.76-.6-3.16-1.8-4.2-1.2-1.04-2.7-1.56-4.5-1.56s-3.17.5-4.35,1.5c-1.18,1-1.91,2.42-2.19,4.26h12.84Z"/><path class="cls-6" d="M1045.04,263.16v8.7h-5.22c-3.72,0-6.62-.91-8.7-2.73-2.08-1.82-3.12-4.79-3.12-8.91v-13.32h-4.08v-8.52h4.08v-8.16h10.26v8.16h6.72v8.52h-6.72v13.44c0,1,.24,1.72.72,2.16.48.44,1.28.66,2.4.66h3.66Z"/><path class="cls-2" d="M237.51,342.3c-2.5-1.4-4.46-3.39-5.88-5.97-1.42-2.58-2.13-5.57-2.13-8.97s.73-6.33,2.19-8.91,3.45-4.56,5.97-5.94c2.52-1.38,5.34-2.07,8.46-2.07s5.94.69,8.46,2.07c2.52,1.38,4.51,3.35,5.97,5.91,1.46,2.56,2.19,5.54,2.19,8.94s-.75,6.39-2.25,8.97c-1.5,2.58-3.53,4.57-6.09,5.97-2.56,1.4-5.4,2.1-8.52,2.1s-5.87-.7-8.37-2.1ZM251.4,338.22c1.72-.92,3.11-2.3,4.17-4.14,1.06-1.84,1.59-4.08,1.59-6.72s-.52-4.88-1.56-6.72c-1.04-1.84-2.4-3.21-4.08-4.11-1.68-.9-3.5-1.35-5.46-1.35s-3.83.45-5.49,1.35c-1.66.9-2.99,2.27-3.99,4.11-1,1.84-1.5,4.08-1.5,6.72s.49,4.94,1.47,6.78c.98,1.84,2.29,3.21,3.93,4.11,1.64.9,3.44,1.35,5.4,1.35s3.8-.46,5.52-1.38Z"/><path class="cls-2" d="M290.97,312.3c2.14,1.24,3.73,2.8,4.77,4.68v-6h5.52v33.6c0,3-.64,5.67-1.92,8.01s-3.11,4.17-5.49,5.49c-2.38,1.32-5.15,1.98-8.31,1.98-4.32,0-7.92-1.02-10.8-3.06s-4.58-4.82-5.1-8.34h5.4c.6,2,1.84,3.61,3.72,4.83,1.88,1.22,4.14,1.83,6.78,1.83,3,0,5.45-.94,7.35-2.82,1.9-1.88,2.85-4.52,2.85-7.92v-6.9c-1.08,1.92-2.68,3.52-4.8,4.8-2.12,1.28-4.6,1.92-7.44,1.92s-5.57-.72-7.95-2.16c-2.38-1.44-4.25-3.46-5.61-6.06-1.36-2.6-2.04-5.56-2.04-8.88s.68-6.31,2.04-8.85c1.36-2.54,3.23-4.51,5.61-5.91,2.38-1.4,5.03-2.1,7.95-2.1s5.33.62,7.47,1.86ZM294.24,320.88c-1-1.84-2.35-3.25-4.05-4.23-1.7-.98-3.57-1.47-5.61-1.47s-3.9.48-5.58,1.44c-1.68.96-3.02,2.36-4.02,4.2-1,1.84-1.5,4-1.5,6.48s.5,4.71,1.5,6.57c1,1.86,2.34,3.28,4.02,4.26,1.68.98,3.54,1.47,5.58,1.47s3.91-.49,5.61-1.47c1.7-.98,3.05-2.4,4.05-4.26,1-1.86,1.5-4.03,1.5-6.51s-.5-4.64-1.5-6.48Z"/><path class="cls-2" d="M326.52,318.45c1.36-2.54,3.23-4.51,5.61-5.91,2.38-1.4,5.05-2.1,8.01-2.1,2.56,0,4.94.59,7.14,1.77,2.2,1.18,3.88,2.73,5.04,4.65v-17.4h5.52v44.4h-5.52v-6.18c-1.08,1.96-2.68,3.57-4.8,4.83-2.12,1.26-4.6,1.89-7.44,1.89s-5.57-.72-7.95-2.16c-2.38-1.44-4.25-3.46-5.61-6.06-1.36-2.6-2.04-5.56-2.04-8.88s.68-6.31,2.04-8.85ZM350.82,320.88c-1-1.84-2.35-3.25-4.05-4.23-1.7-.98-3.57-1.47-5.61-1.47s-3.9.48-5.58,1.44c-1.68.96-3.02,2.36-4.02,4.2-1,1.84-1.5,4-1.5,6.48s.5,4.71,1.5,6.57c1,1.86,2.34,3.28,4.02,4.26,1.68.98,3.54,1.47,5.58,1.47s3.91-.49,5.61-1.47c1.7-.98,3.05-2.4,4.05-4.26,1-1.86,1.5-4.03,1.5-6.51s-.5-4.64-1.5-6.48Z"/><path class="cls-2" d="M396.9,329.46h-26.28c.2,3.24,1.31,5.77,3.33,7.59,2.02,1.82,4.47,2.73,7.35,2.73,2.36,0,4.33-.55,5.91-1.65,1.58-1.1,2.69-2.57,3.33-4.41h5.88c-.88,3.16-2.64,5.73-5.28,7.71-2.64,1.98-5.92,2.97-9.84,2.97-3.12,0-5.91-.7-8.37-2.1-2.46-1.4-4.39-3.39-5.79-5.97-1.4-2.58-2.1-5.57-2.1-8.97s.68-6.38,2.04-8.94c1.36-2.56,3.27-4.53,5.73-5.91s5.29-2.07,8.49-2.07,5.88.68,8.28,2.04c2.4,1.36,4.25,3.23,5.55,5.61,1.3,2.38,1.95,5.07,1.95,8.07,0,1.04-.06,2.14-.18,3.3ZM390.06,319.65c-.92-1.5-2.17-2.64-3.75-3.42-1.58-.78-3.33-1.17-5.25-1.17-2.76,0-5.11.88-7.05,2.64-1.94,1.76-3.05,4.2-3.33,7.32h20.76c0-2.08-.46-3.87-1.38-5.37Z"/><path class="cls-2" d="M410.94,315.48v19.38c0,1.6.34,2.73,1.02,3.39.68.66,1.86.99,3.54.99h4.02v4.62h-4.92c-3.04,0-5.32-.7-6.84-2.1-1.52-1.4-2.28-3.7-2.28-6.9v-19.38h-4.26v-4.5h4.26v-8.28h5.46v8.28h8.58v4.5h-8.58Z"/><path class="cls-2" d="M430.98,343.11c-2-.86-3.58-2.06-4.74-3.6-1.16-1.54-1.8-3.31-1.92-5.31h5.64c.16,1.64.93,2.98,2.31,4.02,1.38,1.04,3.19,1.56,5.43,1.56,2.08,0,3.72-.46,4.92-1.38,1.2-.92,1.8-2.08,1.8-3.48s-.64-2.51-1.92-3.21c-1.28-.7-3.26-1.39-5.94-2.07-2.44-.64-4.43-1.29-5.97-1.95-1.54-.66-2.86-1.64-3.96-2.94-1.1-1.3-1.65-3.01-1.65-5.13,0-1.68.5-3.22,1.5-4.62,1-1.4,2.42-2.51,4.26-3.33,1.84-.82,3.94-1.23,6.3-1.23,3.64,0,6.58.92,8.82,2.76,2.24,1.84,3.44,4.36,3.6,7.56h-5.46c-.12-1.72-.81-3.1-2.07-4.14-1.26-1.04-2.95-1.56-5.07-1.56-1.96,0-3.52.42-4.68,1.26s-1.74,1.94-1.74,3.3c0,1.08.35,1.97,1.05,2.67.7.7,1.58,1.26,2.64,1.68,1.06.42,2.53.89,4.41,1.41,2.36.64,4.28,1.27,5.76,1.89,1.48.62,2.75,1.55,3.81,2.79,1.06,1.24,1.61,2.86,1.65,4.86,0,1.8-.5,3.42-1.5,4.86s-2.41,2.57-4.23,3.39c-1.82.82-3.91,1.23-6.27,1.23-2.52,0-4.78-.43-6.78-1.29Z"/><path class="cls-2" d="M502.61,310.98v32.88h-5.46v-4.86c-1.04,1.68-2.49,2.99-4.35,3.93-1.86.94-3.91,1.41-6.15,1.41-2.56,0-4.86-.53-6.9-1.59-2.04-1.06-3.65-2.65-4.83-4.77-1.18-2.12-1.77-4.7-1.77-7.74v-19.26h5.4v18.54c0,3.24.82,5.73,2.46,7.47,1.64,1.74,3.88,2.61,6.72,2.61s5.22-.9,6.9-2.7c1.68-1.8,2.52-4.42,2.52-7.86v-18.06h5.46Z"/><path class="cls-2" d="M537.6,314.01c2.48,2.42,3.72,5.91,3.72,10.47v19.38h-5.4v-18.6c0-3.28-.82-5.79-2.46-7.53-1.64-1.74-3.88-2.61-6.72-2.61s-5.17.9-6.87,2.7-2.55,4.42-2.55,7.86v18.18h-5.46v-32.88h5.46v4.68c1.08-1.68,2.55-2.98,4.41-3.9,1.86-.92,3.91-1.38,6.15-1.38,4,0,7.24,1.21,9.72,3.63Z"/><path class="cls-2" d="M550.26,318.45c1.36-2.54,3.23-4.51,5.61-5.91,2.38-1.4,5.05-2.1,8.01-2.1,2.56,0,4.94.59,7.14,1.77,2.2,1.18,3.88,2.73,5.04,4.65v-17.4h5.52v44.4h-5.52v-6.18c-1.08,1.96-2.68,3.57-4.8,4.83-2.12,1.26-4.6,1.89-7.44,1.89s-5.57-.72-7.95-2.16c-2.38-1.44-4.25-3.46-5.61-6.06-1.36-2.6-2.04-5.56-2.04-8.88s.68-6.31,2.04-8.85ZM574.56,320.88c-1-1.84-2.35-3.25-4.05-4.23-1.7-.98-3.57-1.47-5.61-1.47s-3.9.48-5.58,1.44c-1.68.96-3.02,2.36-4.02,4.2-1,1.84-1.5,4-1.5,6.48s.5,4.71,1.5,6.57c1,1.86,2.34,3.28,4.02,4.26,1.68.98,3.54,1.47,5.58,1.47s3.91-.49,5.61-1.47c1.7-.98,3.05-2.4,4.05-4.26,1-1.86,1.5-4.03,1.5-6.51s-.5-4.64-1.5-6.48Z"/><path class="cls-2" d="M620.64,329.46h-26.28c.2,3.24,1.31,5.77,3.33,7.59,2.02,1.82,4.47,2.73,7.35,2.73,2.36,0,4.33-.55,5.91-1.65,1.58-1.1,2.69-2.57,3.33-4.41h5.88c-.88,3.16-2.64,5.73-5.28,7.71-2.64,1.98-5.92,2.97-9.84,2.97-3.12,0-5.91-.7-8.37-2.1-2.46-1.4-4.39-3.39-5.79-5.97-1.4-2.58-2.1-5.57-2.1-8.97s.68-6.38,2.04-8.94c1.36-2.56,3.27-4.53,5.73-5.91s5.29-2.07,8.49-2.07,5.88.68,8.28,2.04c2.4,1.36,4.25,3.23,5.55,5.61,1.3,2.38,1.95,5.07,1.95,8.07,0,1.04-.06,2.14-.18,3.3ZM613.79,319.65c-.92-1.5-2.17-2.64-3.75-3.42-1.58-.78-3.33-1.17-5.25-1.17-2.76,0-5.11.88-7.05,2.64-1.94,1.76-3.05,4.2-3.33,7.32h20.76c0-2.08-.46-3.87-1.38-5.37Z"/><path class="cls-2" d="M637.58,311.94c1.78-1.04,3.95-1.56,6.51-1.56v5.64h-1.44c-6.12,0-9.18,3.32-9.18,9.96v17.88h-5.46v-32.88h5.46v5.34c.96-1.88,2.33-3.34,4.11-4.38Z"/><path class="cls-2" d="M655.25,343.11c-2-.86-3.58-2.06-4.74-3.6-1.16-1.54-1.8-3.31-1.92-5.31h5.64c.16,1.64.93,2.98,2.31,4.02,1.38,1.04,3.19,1.56,5.43,1.56,2.08,0,3.72-.46,4.92-1.38,1.2-.92,1.8-2.08,1.8-3.48s-.64-2.51-1.92-3.21c-1.28-.7-3.26-1.39-5.94-2.07-2.44-.64-4.43-1.29-5.97-1.95-1.54-.66-2.86-1.64-3.96-2.94-1.1-1.3-1.65-3.01-1.65-5.13,0-1.68.5-3.22,1.5-4.62,1-1.4,2.42-2.51,4.26-3.33,1.84-.82,3.94-1.23,6.3-1.23,3.64,0,6.58.92,8.82,2.76,2.24,1.84,3.44,4.36,3.6,7.56h-5.46c-.12-1.72-.81-3.1-2.07-4.14-1.26-1.04-2.95-1.56-5.07-1.56-1.96,0-3.52.42-4.68,1.26s-1.74,1.94-1.74,3.3c0,1.08.35,1.97,1.05,2.67.7.7,1.58,1.26,2.64,1.68,1.06.42,2.53.89,4.41,1.41,2.36.64,4.28,1.27,5.76,1.89,1.48.62,2.75,1.55,3.81,2.79,1.06,1.24,1.61,2.86,1.65,4.86,0,1.8-.5,3.42-1.5,4.86s-2.41,2.57-4.23,3.39c-1.82.82-3.91,1.23-6.27,1.23-2.52,0-4.78-.43-6.78-1.29Z"/><path class="cls-2" d="M688.37,315.48v19.38c0,1.6.34,2.73,1.02,3.39.68.66,1.86.99,3.54.99h4.02v4.62h-4.92c-3.04,0-5.32-.7-6.84-2.1-1.52-1.4-2.28-3.7-2.28-6.9v-19.38h-4.26v-4.5h4.26v-8.28h5.46v8.28h8.58v4.5h-8.58Z"/><path class="cls-2" d="M730.73,315.78c1.28,1.48,2.27,3.2,2.97,5.16.7,1.96,1.05,4.1,1.05,6.42,0,3.4-.75,6.39-2.25,8.97-1.5,2.58-3.53,4.57-6.09,5.97-2.56,1.4-5.4,2.1-8.52,2.1-3.88,0-7.3-1.1-10.26-3.3l-2.52,2.76h-3.9l4.32-4.74c-1.28-1.52-2.27-3.27-2.97-5.25-.7-1.98-1.05-4.15-1.05-6.51,0-3.36.73-6.33,2.19-8.91s3.45-4.56,5.97-5.94c2.52-1.38,5.34-2.07,8.46-2.07,4.04,0,7.54,1.14,10.5,3.42l2.58-2.88h3.9l-4.38,4.8ZM709.19,335.16l15.96-17.52c-1.92-1.64-4.28-2.46-7.08-2.46-2,0-3.83.45-5.49,1.35-1.66.9-2.99,2.27-3.99,4.11-1,1.84-1.5,4.08-1.5,6.72,0,3.08.7,5.68,2.1,7.8ZM727.07,319.8l-15.96,17.52c1.88,1.52,4.14,2.28,6.78,2.28,1.96,0,3.8-.46,5.52-1.38,1.72-.92,3.11-2.3,4.17-4.14,1.06-1.84,1.59-4.08,1.59-6.72,0-3.08-.7-5.6-2.1-7.56Z"/><path class="cls-2" d="M748.61,315.48v19.38c0,1.6.34,2.73,1.02,3.39.68.66,1.86.99,3.54.99h4.02v4.62h-4.92c-3.04,0-5.32-.7-6.84-2.1-1.52-1.4-2.28-3.7-2.28-6.9v-19.38h-4.26v-4.5h4.26v-8.28h5.46v8.28h8.58v4.5h-8.58Z"/><path class="cls-2" d="M770.45,315.48v19.38c0,1.6.34,2.73,1.02,3.39.68.66,1.86.99,3.54.99h4.02v4.62h-4.92c-3.04,0-5.32-.7-6.84-2.1-1.52-1.4-2.28-3.7-2.28-6.9v-19.38h-4.26v-4.5h4.26v-8.28h5.46v8.28h8.58v4.5h-8.58Z"/><path class="cls-2" d="M815.45,329.46h-26.28c.2,3.24,1.31,5.77,3.33,7.59,2.02,1.82,4.47,2.73,7.35,2.73,2.36,0,4.33-.55,5.91-1.65,1.58-1.1,2.69-2.57,3.33-4.41h5.88c-.88,3.16-2.64,5.73-5.28,7.71-2.64,1.98-5.92,2.97-9.84,2.97-3.12,0-5.91-.7-8.37-2.1-2.46-1.4-4.39-3.39-5.79-5.97-1.4-2.58-2.1-5.57-2.1-8.97s.68-6.38,2.04-8.94c1.36-2.56,3.27-4.53,5.73-5.91s5.29-2.07,8.49-2.07,5.88.68,8.28,2.04c2.4,1.36,4.25,3.23,5.55,5.61,1.3,2.38,1.95,5.07,1.95,8.07,0,1.04-.06,2.14-.18,3.3ZM808.61,319.65c-.92-1.5-2.17-2.64-3.75-3.42-1.58-.78-3.33-1.17-5.25-1.17-2.76,0-5.11.88-7.05,2.64-1.94,1.76-3.05,4.2-3.33,7.32h20.76c0-2.08-.46-3.87-1.38-5.37Z"/><path class="cls-2" d="M848.57,314.01c2.48,2.42,3.72,5.91,3.72,10.47v19.38h-5.4v-18.6c0-3.28-.82-5.79-2.46-7.53-1.64-1.74-3.88-2.61-6.72-2.61s-5.17.9-6.87,2.7-2.55,4.42-2.55,7.86v18.18h-5.46v-32.88h5.46v4.68c1.08-1.68,2.55-2.98,4.41-3.9,1.86-.92,3.91-1.38,6.15-1.38,4,0,7.24,1.21,9.72,3.63Z"/><path class="cls-2" d="M861.23,318.45c1.36-2.54,3.23-4.51,5.61-5.91,2.38-1.4,5.05-2.1,8.01-2.1,2.56,0,4.94.59,7.14,1.77,2.2,1.18,3.88,2.73,5.04,4.65v-17.4h5.52v44.4h-5.52v-6.18c-1.08,1.96-2.68,3.57-4.8,4.83-2.12,1.26-4.6,1.89-7.44,1.89s-5.57-.72-7.95-2.16c-2.38-1.44-4.25-3.46-5.61-6.06-1.36-2.6-2.04-5.56-2.04-8.88s.68-6.31,2.04-8.85ZM885.53,320.88c-1-1.84-2.35-3.25-4.05-4.23-1.7-.98-3.57-1.47-5.61-1.47s-3.9.48-5.58,1.44c-1.68.96-3.02,2.36-4.02,4.2-1,1.84-1.5,4-1.5,6.48s.5,4.71,1.5,6.57c1,1.86,2.34,3.28,4.02,4.26,1.68.98,3.54,1.47,5.58,1.47s3.91-.49,5.61-1.47c1.7-.98,3.05-2.4,4.05-4.26,1-1.86,1.5-4.03,1.5-6.51s-.5-4.64-1.5-6.48Z"/><path class="cls-2" d="M931.61,329.46h-26.28c.2,3.24,1.31,5.77,3.33,7.59,2.02,1.82,4.47,2.73,7.35,2.73,2.36,0,4.33-.55,5.91-1.65,1.58-1.1,2.69-2.57,3.33-4.41h5.88c-.88,3.16-2.64,5.73-5.28,7.71-2.64,1.98-5.92,2.97-9.84,2.97-3.12,0-5.91-.7-8.37-2.1-2.46-1.4-4.39-3.39-5.79-5.97-1.4-2.58-2.1-5.57-2.1-8.97s.68-6.38,2.04-8.94c1.36-2.56,3.27-4.53,5.73-5.91s5.29-2.07,8.49-2.07,5.88.68,8.28,2.04c2.4,1.36,4.25,3.23,5.55,5.61,1.3,2.38,1.95,5.07,1.95,8.07,0,1.04-.06,2.14-.18,3.3ZM924.77,319.65c-.92-1.5-2.17-2.64-3.75-3.42-1.58-.78-3.33-1.17-5.25-1.17-2.76,0-5.11.88-7.05,2.64-1.94,1.76-3.05,4.2-3.33,7.32h20.76c0-2.08-.46-3.87-1.38-5.37Z"/><path class="cls-2" d="M298.32,415.11c-2-.86-3.58-2.06-4.74-3.6-1.16-1.54-1.8-3.31-1.92-5.31h5.64c.16,1.64.93,2.98,2.31,4.02,1.38,1.04,3.19,1.56,5.43,1.56,2.08,0,3.72-.46,4.92-1.38,1.2-.92,1.8-2.08,1.8-3.48s-.64-2.51-1.92-3.21c-1.28-.7-3.26-1.39-5.94-2.07-2.44-.64-4.43-1.29-5.97-1.95-1.54-.66-2.86-1.64-3.96-2.94-1.1-1.3-1.65-3.01-1.65-5.13,0-1.68.5-3.22,1.5-4.62,1-1.4,2.42-2.51,4.26-3.33,1.84-.82,3.94-1.23,6.3-1.23,3.64,0,6.58.92,8.82,2.76,2.24,1.84,3.44,4.36,3.6,7.56h-5.46c-.12-1.72-.81-3.1-2.07-4.14-1.26-1.04-2.95-1.56-5.07-1.56-1.96,0-3.52.42-4.68,1.26s-1.74,1.94-1.74,3.3c0,1.08.35,1.97,1.05,2.67.7.7,1.58,1.26,2.64,1.68,1.06.42,2.53.89,4.41,1.41,2.36.64,4.28,1.27,5.76,1.89,1.48.62,2.75,1.55,3.81,2.79,1.06,1.24,1.61,2.86,1.65,4.86,0,1.8-.5,3.42-1.5,4.86s-2.41,2.57-4.23,3.39c-1.82.82-3.91,1.23-6.27,1.23-2.52,0-4.78-.43-6.78-1.29Z"/><path class="cls-2" d="M353.1,382.98l-19.8,48.36h-5.64l6.48-15.84-13.26-32.52h6.06l10.32,26.64,10.2-26.64h5.64Z"/><path class="cls-2" d="M363.42,415.11c-2-.86-3.58-2.06-4.74-3.6-1.16-1.54-1.8-3.31-1.92-5.31h5.64c.16,1.64.93,2.98,2.31,4.02,1.38,1.04,3.19,1.56,5.43,1.56,2.08,0,3.72-.46,4.92-1.38,1.2-.92,1.8-2.08,1.8-3.48s-.64-2.51-1.92-3.21c-1.28-.7-3.26-1.39-5.94-2.07-2.44-.64-4.43-1.29-5.97-1.95-1.54-.66-2.86-1.64-3.96-2.94-1.1-1.3-1.65-3.01-1.65-5.13,0-1.68.5-3.22,1.5-4.62,1-1.4,2.42-2.51,4.26-3.33,1.84-.82,3.94-1.23,6.3-1.23,3.64,0,6.58.92,8.82,2.76,2.24,1.84,3.44,4.36,3.6,7.56h-5.46c-.12-1.72-.81-3.1-2.07-4.14-1.26-1.04-2.95-1.56-5.07-1.56-1.96,0-3.52.42-4.68,1.26s-1.74,1.94-1.74,3.3c0,1.08.35,1.97,1.05,2.67.7.7,1.58,1.26,2.64,1.68,1.06.42,2.53.89,4.41,1.41,2.36.64,4.28,1.27,5.76,1.89,1.48.62,2.75,1.55,3.81,2.79,1.06,1.24,1.61,2.86,1.65,4.86,0,1.8-.5,3.42-1.5,4.86s-2.41,2.57-4.23,3.39c-1.82.82-3.91,1.23-6.27,1.23-2.52,0-4.78-.43-6.78-1.29Z"/><path class="cls-2" d="M396.54,387.48v19.38c0,1.6.34,2.73,1.02,3.39.68.66,1.86.99,3.54.99h4.02v4.62h-4.92c-3.04,0-5.32-.7-6.84-2.1-1.52-1.4-2.28-3.7-2.28-6.9v-19.38h-4.26v-4.5h4.26v-8.28h5.46v8.28h8.58v4.5h-8.58Z"/><path class="cls-2" d="M441.54,401.46h-26.28c.2,3.24,1.31,5.77,3.33,7.59,2.02,1.82,4.47,2.73,7.35,2.73,2.36,0,4.33-.55,5.91-1.65,1.58-1.1,2.69-2.57,3.33-4.41h5.88c-.88,3.16-2.64,5.73-5.28,7.71-2.64,1.98-5.92,2.97-9.84,2.97-3.12,0-5.91-.7-8.37-2.1-2.46-1.4-4.39-3.39-5.79-5.97-1.4-2.58-2.1-5.57-2.1-8.97s.68-6.38,2.04-8.94c1.36-2.56,3.27-4.53,5.73-5.91s5.29-2.07,8.49-2.07,5.88.68,8.28,2.04c2.4,1.36,4.25,3.23,5.55,5.61,1.3,2.38,1.95,5.07,1.95,8.07,0,1.04-.06,2.14-.18,3.3ZM434.69,391.65c-.92-1.5-2.17-2.64-3.75-3.42-1.58-.78-3.33-1.17-5.25-1.17-2.76,0-5.11.88-7.05,2.64-1.94,1.76-3.05,4.2-3.33,7.32h20.76c0-2.08-.46-3.87-1.38-5.37Z"/><path class="cls-2" d="M495.29,383.97c2,1.06,3.58,2.65,4.74,4.77,1.16,2.12,1.74,4.7,1.74,7.74v19.38h-5.4v-18.6c0-3.28-.81-5.79-2.43-7.53-1.62-1.74-3.81-2.61-6.57-2.61s-5.1.91-6.78,2.73c-1.68,1.82-2.52,4.45-2.52,7.89v18.12h-5.4v-18.6c0-3.28-.81-5.79-2.43-7.53-1.62-1.74-3.81-2.61-6.57-2.61s-5.1.91-6.78,2.73c-1.68,1.82-2.52,4.45-2.52,7.89v18.12h-5.46v-32.88h5.46v4.74c1.08-1.72,2.53-3.04,4.35-3.96,1.82-.92,3.83-1.38,6.03-1.38,2.76,0,5.2.62,7.32,1.86,2.12,1.24,3.7,3.06,4.74,5.46.92-2.32,2.44-4.12,4.56-5.4,2.12-1.28,4.48-1.92,7.08-1.92s4.84.53,6.84,1.59Z"/><path class="cls-2" d="M540.53,401.46h-26.28c.2,3.24,1.31,5.77,3.33,7.59,2.02,1.82,4.47,2.73,7.35,2.73,2.36,0,4.33-.55,5.91-1.65,1.58-1.1,2.69-2.57,3.33-4.41h5.88c-.88,3.16-2.64,5.73-5.28,7.71-2.64,1.98-5.92,2.97-9.84,2.97-3.12,0-5.91-.7-8.37-2.1-2.46-1.4-4.39-3.39-5.79-5.97-1.4-2.58-2.1-5.57-2.1-8.97s.68-6.38,2.04-8.94c1.36-2.56,3.27-4.53,5.73-5.91s5.29-2.07,8.49-2.07,5.88.68,8.28,2.04c2.4,1.36,4.25,3.23,5.55,5.61,1.3,2.38,1.95,5.07,1.95,8.07,0,1.04-.06,2.14-.18,3.3ZM533.69,391.65c-.92-1.5-2.17-2.64-3.75-3.42-1.58-.78-3.33-1.17-5.25-1.17-2.76,0-5.11.88-7.05,2.64-1.94,1.76-3.05,4.2-3.33,7.32h20.76c0-2.08-.46-3.87-1.38-5.37Z"/><path class="cls-2" d="M557.48,383.94c1.78-1.04,3.95-1.56,6.51-1.56v5.64h-1.44c-6.12,0-9.18,3.32-9.18,9.96v17.88h-5.46v-32.88h5.46v5.34c.96-1.88,2.33-3.34,4.11-4.38Z"/><path class="cls-2" d="M632.69,383.97c2,1.06,3.58,2.65,4.74,4.77,1.16,2.12,1.74,4.7,1.74,7.74v19.38h-5.4v-18.6c0-3.28-.81-5.79-2.43-7.53-1.62-1.74-3.81-2.61-6.57-2.61s-5.1.91-6.78,2.73c-1.68,1.82-2.52,4.45-2.52,7.89v18.12h-5.4v-18.6c0-3.28-.81-5.79-2.43-7.53-1.62-1.74-3.81-2.61-6.57-2.61s-5.1.91-6.78,2.73c-1.68,1.82-2.52,4.45-2.52,7.89v18.12h-5.46v-32.88h5.46v4.74c1.08-1.72,2.53-3.04,4.35-3.96,1.82-.92,3.83-1.38,6.03-1.38,2.76,0,5.2.62,7.32,1.86,2.12,1.24,3.7,3.06,4.74,5.46.92-2.32,2.44-4.12,4.56-5.4,2.12-1.28,4.48-1.92,7.08-1.92s4.84.53,6.84,1.59Z"/><path class="cls-2" d="M677.93,401.46h-26.28c.2,3.24,1.31,5.77,3.33,7.59,2.02,1.82,4.47,2.73,7.35,2.73,2.36,0,4.33-.55,5.91-1.65,1.58-1.1,2.69-2.57,3.33-4.41h5.88c-.88,3.16-2.64,5.73-5.28,7.71-2.64,1.98-5.92,2.97-9.84,2.97-3.12,0-5.91-.7-8.37-2.1-2.46-1.4-4.39-3.39-5.79-5.97-1.4-2.58-2.1-5.57-2.1-8.97s.68-6.38,2.04-8.94c1.36-2.56,3.27-4.53,5.73-5.91s5.29-2.07,8.49-2.07,5.88.68,8.28,2.04c2.4,1.36,4.25,3.23,5.55,5.61,1.3,2.38,1.95,5.07,1.95,8.07,0,1.04-.06,2.14-.18,3.3ZM671.09,391.65c-.92-1.5-2.17-2.64-3.75-3.42-1.58-.78-3.33-1.17-5.25-1.17-2.76,0-5.11.88-7.05,2.64-1.94,1.76-3.05,4.2-3.33,7.32h20.76c0-2.08-.46-3.87-1.38-5.37Z"/><path class="cls-2" d="M694.88,383.94c1.78-1.04,3.95-1.56,6.51-1.56v5.64h-1.44c-6.12,0-9.18,3.32-9.18,9.96v17.88h-5.46v-32.88h5.46v5.34c.96-1.88,2.33-3.34,4.11-4.38Z"/><path class="cls-2" d="M737.51,401.46h-26.28c.2,3.24,1.31,5.77,3.33,7.59,2.02,1.82,4.47,2.73,7.35,2.73,2.36,0,4.33-.55,5.91-1.65,1.58-1.1,2.69-2.57,3.33-4.41h5.88c-.88,3.16-2.64,5.73-5.28,7.71-2.64,1.98-5.92,2.97-9.84,2.97-3.12,0-5.91-.7-8.37-2.1-2.46-1.4-4.39-3.39-5.79-5.97-1.4-2.58-2.1-5.57-2.1-8.97s.68-6.38,2.04-8.94c1.36-2.56,3.27-4.53,5.73-5.91s5.29-2.07,8.49-2.07,5.88.68,8.28,2.04c2.4,1.36,4.25,3.23,5.55,5.61,1.3,2.38,1.95,5.07,1.95,8.07,0,1.04-.06,2.14-.18,3.3ZM730.67,391.65c-.92-1.5-2.17-2.64-3.75-3.42-1.58-.78-3.33-1.17-5.25-1.17-2.76,0-5.11.88-7.05,2.64-1.94,1.76-3.05,4.2-3.33,7.32h20.76c0-2.08-.46-3.87-1.38-5.37Z"/><path class="cls-2" d="M790.73,401.46h-26.28c.2,3.24,1.31,5.77,3.33,7.59,2.02,1.82,4.47,2.73,7.35,2.73,2.36,0,4.33-.55,5.91-1.65,1.58-1.1,2.69-2.57,3.33-4.41h5.88c-.88,3.16-2.64,5.73-5.28,7.71-2.64,1.98-5.92,2.97-9.84,2.97-3.12,0-5.91-.7-8.37-2.1-2.46-1.4-4.39-3.39-5.79-5.97-1.4-2.58-2.1-5.57-2.1-8.97s.68-6.38,2.04-8.94c1.36-2.56,3.27-4.53,5.73-5.91s5.29-2.07,8.49-2.07,5.88.68,8.28,2.04c2.4,1.36,4.25,3.23,5.55,5.61,1.3,2.38,1.95,5.07,1.95,8.07,0,1.04-.06,2.14-.18,3.3ZM783.89,391.65c-.92-1.5-2.17-2.64-3.75-3.42-1.58-.78-3.33-1.17-5.25-1.17-2.76,0-5.11.88-7.05,2.64-1.94,1.76-3.05,4.2-3.33,7.32h20.76c0-2.08-.46-3.87-1.38-5.37Z"/><path class="cls-2" d="M823.85,386.01c2.48,2.42,3.72,5.91,3.72,10.47v19.38h-5.4v-18.6c0-3.28-.82-5.79-2.46-7.53-1.64-1.74-3.88-2.61-6.72-2.61s-5.17.9-6.87,2.7-2.55,4.42-2.55,7.86v18.18h-5.46v-32.88h5.46v4.68c1.08-1.68,2.55-2.98,4.41-3.9,1.86-.92,3.91-1.38,6.15-1.38,4,0,7.24,1.21,9.72,3.63Z"/><path class="cls-2" d="M836.51,390.45c1.36-2.54,3.23-4.51,5.61-5.91,2.38-1.4,5.05-2.1,8.01-2.1,2.56,0,4.94.59,7.14,1.77,2.2,1.18,3.88,2.73,5.04,4.65v-17.4h5.52v44.4h-5.52v-6.18c-1.08,1.96-2.68,3.57-4.8,4.83-2.12,1.26-4.6,1.89-7.44,1.89s-5.57-.72-7.95-2.16c-2.38-1.44-4.25-3.46-5.61-6.06-1.36-2.6-2.04-5.56-2.04-8.88s.68-6.31,2.04-8.85ZM860.81,392.88c-1-1.84-2.35-3.25-4.05-4.23-1.7-.98-3.57-1.47-5.61-1.47s-3.9.48-5.58,1.44c-1.68.96-3.02,2.36-4.02,4.2-1,1.84-1.5,4-1.5,6.48s.5,4.71,1.5,6.57c1,1.86,2.34,3.28,4.02,4.26,1.68.98,3.54,1.47,5.58,1.47s3.91-.49,5.61-1.47c1.7-.98,3.05-2.4,4.05-4.26,1-1.86,1.5-4.03,1.5-6.51s-.5-4.64-1.5-6.48Z"/><path class="cls-6" d="M253.62,479.76c2.12,0,3.62-.94,4.5-2.82.88-1.88,1.32-4.94,1.32-9.18-.88,1.24-2.08,2.2-3.6,2.88-1.52.68-3.22,1.02-5.1,1.02-2.56,0-4.84-.53-6.84-1.59-2-1.06-3.57-2.64-4.71-4.74-1.14-2.1-1.71-4.65-1.71-7.65s.61-5.54,1.83-7.74c1.22-2.2,2.96-3.9,5.22-5.1s4.93-1.8,8.01-1.8c5.92,0,10.06,1.84,12.42,5.52,2.36,3.68,3.54,9.1,3.54,16.26,0,5.2-.47,9.49-1.41,12.87-.94,3.38-2.52,5.95-4.74,7.71-2.22,1.76-5.25,2.64-9.09,2.64-3.04,0-5.63-.6-7.77-1.8-2.14-1.2-3.78-2.78-4.92-4.74-1.14-1.96-1.79-4.12-1.95-6.48h9.48c.6,3.16,2.44,4.74,5.52,4.74ZM257.1,462.03c1-1.02,1.5-2.41,1.5-4.17,0-1.92-.52-3.4-1.56-4.44-1.04-1.04-2.44-1.56-4.2-1.56s-3.15.53-4.17,1.59c-1.02,1.06-1.53,2.51-1.53,4.35,0,1.72.51,3.11,1.53,4.17,1.02,1.06,2.49,1.59,4.41,1.59,1.68,0,3.02-.51,4.02-1.53Z"/><path class="cls-6" d="M277.95,449.1c2.66-3.96,6.95-5.94,12.87-5.94s10.21,1.98,12.87,5.94c2.66,3.96,3.99,9.38,3.99,16.26s-1.33,12.42-3.99,16.38-6.95,5.94-12.87,5.94-10.21-1.98-12.87-5.94c-2.66-3.96-3.99-9.42-3.99-16.38s1.33-12.3,3.99-16.26ZM296.28,456.03c-.88-2.18-2.7-3.27-5.46-3.27s-4.58,1.09-5.46,3.27c-.88,2.18-1.32,5.29-1.32,9.33,0,2.72.16,4.97.48,6.75.32,1.78.97,3.22,1.95,4.32.98,1.1,2.43,1.65,4.35,1.65s3.37-.55,4.35-1.65c.98-1.1,1.63-2.54,1.95-4.32.32-1.78.48-4.03.48-6.75,0-4.04-.44-7.15-1.32-9.33Z"/><path class="cls-6" d="M317.07,449.1c2.66-3.96,6.95-5.94,12.87-5.94s10.21,1.98,12.87,5.94c2.66,3.96,3.99,9.38,3.99,16.26s-1.33,12.42-3.99,16.38-6.95,5.94-12.87,5.94-10.21-1.98-12.87-5.94c-2.66-3.96-3.99-9.42-3.99-16.38s1.33-12.3,3.99-16.26ZM335.4,456.03c-.88-2.18-2.7-3.27-5.46-3.27s-4.58,1.09-5.46,3.27c-.88,2.18-1.32,5.29-1.32,9.33,0,2.72.16,4.97.48,6.75.32,1.78.97,3.22,1.95,4.32.98,1.1,2.43,1.65,4.35,1.65s3.37-.55,4.35-1.65c.98-1.1,1.63-2.54,1.95-4.32.32-1.78.48-4.03.48-6.75,0-4.04-.44-7.15-1.32-9.33Z"/><path class="cls-6" d="M418.59,457.8c2.46,2.52,3.69,6.02,3.69,10.5v19.56h-10.2v-18.18c0-2.16-.57-3.83-1.71-5.01-1.14-1.18-2.71-1.77-4.71-1.77s-3.57.59-4.71,1.77c-1.14,1.18-1.71,2.85-1.71,5.01v18.18h-10.2v-18.18c0-2.16-.57-3.83-1.71-5.01-1.14-1.18-2.71-1.77-4.71-1.77s-3.57.59-4.71,1.77c-1.14,1.18-1.71,2.85-1.71,5.01v18.18h-10.26v-33.48h10.26v4.2c1.04-1.4,2.4-2.51,4.08-3.33,1.68-.82,3.58-1.23,5.7-1.23,2.52,0,4.77.54,6.75,1.62,1.98,1.08,3.53,2.62,4.65,4.62,1.16-1.84,2.74-3.34,4.74-4.5,2-1.16,4.18-1.74,6.54-1.74,4.16,0,7.47,1.26,9.93,3.78Z"/><path class="cls-6" d="M430.22,449.31c-1.14-1.06-1.71-2.37-1.71-3.93s.57-2.93,1.71-3.99c1.14-1.06,2.61-1.59,4.41-1.59s3.21.53,4.35,1.59c1.14,1.06,1.71,2.39,1.71,3.99s-.57,2.87-1.71,3.93c-1.14,1.06-2.59,1.59-4.35,1.59s-3.27-.53-4.41-1.59ZM439.73,454.38v33.48h-10.26v-33.48h10.26Z"/><path class="cls-6" d="M457.44,443.46v44.4h-10.26v-44.4h10.26Z"/><path class="cls-6" d="M475.14,443.46v44.4h-10.26v-44.4h10.26Z"/><path class="cls-6" d="M483.32,449.31c-1.14-1.06-1.71-2.37-1.71-3.93s.57-2.93,1.71-3.99c1.14-1.06,2.61-1.59,4.41-1.59s3.21.53,4.35,1.59c1.14,1.06,1.71,2.39,1.71,3.99s-.57,2.87-1.71,3.93c-1.14,1.06-2.59,1.59-4.35,1.59s-3.27-.53-4.41-1.59ZM492.84,454.38v33.48h-10.26v-33.48h10.26Z"/><path class="cls-6" d="M506.67,486.24c-2.62-1.4-4.68-3.4-6.18-6-1.5-2.6-2.25-5.64-2.25-9.12s.76-6.47,2.28-9.09c1.52-2.62,3.6-4.63,6.24-6.03,2.64-1.4,5.6-2.1,8.88-2.1s6.24.7,8.88,2.1c2.64,1.4,4.72,3.41,6.24,6.03,1.52,2.62,2.28,5.65,2.28,9.09s-.77,6.47-2.31,9.09c-1.54,2.62-3.64,4.63-6.3,6.03-2.66,1.4-5.63,2.1-8.91,2.1s-6.23-.7-8.85-2.1ZM520.52,477.3c1.38-1.44,2.07-3.5,2.07-6.18s-.67-4.74-2.01-6.18c-1.34-1.44-2.99-2.16-4.95-2.16s-3.66.71-4.98,2.13c-1.32,1.42-1.98,3.49-1.98,6.21s.65,4.74,1.95,6.18c1.3,1.44,2.93,2.16,4.89,2.16s3.63-.72,5.01-2.16Z"/><path class="cls-6" d="M568.28,457.83c2.34,2.54,3.51,6.03,3.51,10.47v19.56h-10.2v-18.18c0-2.24-.58-3.98-1.74-5.22-1.16-1.24-2.72-1.86-4.68-1.86s-3.52.62-4.68,1.86c-1.16,1.24-1.74,2.98-1.74,5.22v18.18h-10.26v-33.48h10.26v4.44c1.04-1.48,2.44-2.65,4.2-3.51,1.76-.86,3.74-1.29,5.94-1.29,3.92,0,7.05,1.27,9.39,3.81Z"/><path class="cls-6" d="M610.31,473.58h-23.22c.16,2.08.83,3.67,2.01,4.77,1.18,1.1,2.63,1.65,4.35,1.65,2.56,0,4.34-1.08,5.34-3.24h10.92c-.56,2.2-1.57,4.18-3.03,5.94-1.46,1.76-3.29,3.14-5.49,4.14-2.2,1-4.66,1.5-7.38,1.5-3.28,0-6.2-.7-8.76-2.1-2.56-1.4-4.56-3.4-6-6-1.44-2.6-2.16-5.64-2.16-9.12s.71-6.52,2.13-9.12c1.42-2.6,3.41-4.6,5.97-6,2.56-1.4,5.5-2.1,8.82-2.1s6.12.68,8.64,2.04c2.52,1.36,4.49,3.3,5.91,5.82,1.42,2.52,2.13,5.46,2.13,8.82,0,.96-.06,1.96-.18,3ZM599.99,467.88c0-1.76-.6-3.16-1.8-4.2-1.2-1.04-2.7-1.56-4.5-1.56s-3.17.5-4.35,1.5c-1.18,1-1.91,2.42-2.19,4.26h12.84Z"/><path class="cls-6" d="M630.65,455.61c1.8-1.06,3.8-1.59,6-1.59v10.86h-2.82c-2.56,0-4.48.55-5.76,1.65-1.28,1.1-1.92,3.03-1.92,5.79v15.54h-10.26v-33.48h10.26v5.58c1.2-1.84,2.7-3.29,4.5-4.35Z"/><path class="cls-6" d="M672.95,479.16v8.7h-5.22c-3.72,0-6.62-.91-8.7-2.73-2.08-1.82-3.12-4.79-3.12-8.91v-13.32h-4.08v-8.52h4.08v-8.16h10.26v8.16h6.72v8.52h-6.72v13.44c0,1,.24,1.72.72,2.16.48.44,1.28.66,2.4.66h3.66Z"/><path class="cls-6" d="M685.04,486.24c-2.62-1.4-4.68-3.4-6.18-6-1.5-2.6-2.25-5.64-2.25-9.12s.76-6.47,2.28-9.09c1.52-2.62,3.6-4.63,6.24-6.03,2.64-1.4,5.6-2.1,8.88-2.1s6.24.7,8.88,2.1c2.64,1.4,4.72,3.41,6.24,6.03,1.52,2.62,2.28,5.65,2.28,9.09s-.77,6.47-2.31,9.09c-1.54,2.62-3.64,4.63-6.3,6.03-2.66,1.4-5.63,2.1-8.91,2.1s-6.23-.7-8.85-2.1ZM698.9,477.3c1.38-1.44,2.07-3.5,2.07-6.18s-.67-4.74-2.01-6.18c-1.34-1.44-2.99-2.16-4.95-2.16s-3.66.71-4.98,2.13c-1.32,1.42-1.98,3.49-1.98,6.21s.65,4.74,1.95,6.18c1.3,1.44,2.93,2.16,4.89,2.16s3.63-.72,5.01-2.16Z"/><path class="cls-6" d="M746.66,457.83c2.34,2.54,3.51,6.03,3.51,10.47v19.56h-10.2v-18.18c0-2.24-.58-3.98-1.74-5.22-1.16-1.24-2.72-1.86-4.68-1.86s-3.52.62-4.68,1.86c-1.16,1.24-1.74,2.98-1.74,5.22v18.18h-10.26v-33.48h10.26v4.44c1.04-1.48,2.44-2.65,4.2-3.51,1.76-.86,3.74-1.29,5.94-1.29,3.92,0,7.05,1.27,9.39,3.81Z"/><path class="cls-6" d="M763.13,486.84c-2.28-1-4.08-2.37-5.4-4.11-1.32-1.74-2.06-3.69-2.22-5.85h10.14c.12,1.16.66,2.1,1.62,2.82.96.72,2.14,1.08,3.54,1.08,1.28,0,2.27-.25,2.97-.75.7-.5,1.05-1.15,1.05-1.95,0-.96-.5-1.67-1.5-2.13-1-.46-2.62-.97-4.86-1.53-2.4-.56-4.4-1.15-6-1.77-1.6-.62-2.98-1.6-4.14-2.94-1.16-1.34-1.74-3.15-1.74-5.43,0-1.92.53-3.67,1.59-5.25,1.06-1.58,2.62-2.83,4.68-3.75,2.06-.92,4.51-1.38,7.35-1.38,4.2,0,7.51,1.04,9.93,3.12,2.42,2.08,3.81,4.84,4.17,8.28h-9.48c-.16-1.16-.67-2.08-1.53-2.76-.86-.68-1.99-1.02-3.39-1.02-1.2,0-2.12.23-2.76.69-.64.46-.96,1.09-.96,1.89,0,.96.51,1.68,1.53,2.16,1.02.48,2.61.96,4.77,1.44,2.48.64,4.5,1.27,6.06,1.89,1.56.62,2.93,1.62,4.11,3,1.18,1.38,1.79,3.23,1.83,5.55,0,1.96-.55,3.71-1.65,5.25-1.1,1.54-2.68,2.75-4.74,3.63-2.06.88-4.45,1.32-7.17,1.32-2.92,0-5.52-.5-7.8-1.5Z"/><path class="cls-6" d="M804.47,455.61c1.8-3.26,4.31-5.8,7.53-7.62,3.22-1.82,6.87-2.73,10.95-2.73,5,0,9.28,1.32,12.84,3.96,3.56,2.64,5.94,6.24,7.14,10.8h-11.28c-.84-1.76-2.03-3.1-3.57-4.02-1.54-.92-3.29-1.38-5.25-1.38-3.16,0-5.72,1.1-7.68,3.3-1.96,2.2-2.94,5.14-2.94,8.82s.98,6.62,2.94,8.82c1.96,2.2,4.52,3.3,7.68,3.3,1.96,0,3.71-.46,5.25-1.38,1.54-.92,2.73-2.26,3.57-4.02h11.28c-1.2,4.56-3.58,8.15-7.14,10.77-3.56,2.62-7.84,3.93-12.84,3.93-4.08,0-7.73-.91-10.95-2.73-3.22-1.82-5.73-4.35-7.53-7.59-1.8-3.24-2.7-6.94-2.7-11.1s.9-7.87,2.7-11.13Z"/><path class="cls-6" d="M858.26,485.52c-3.3-1.84-5.92-4.41-7.86-7.71-1.94-3.3-2.91-7.01-2.91-11.13s.97-7.82,2.91-11.1c1.94-3.28,4.56-5.84,7.86-7.68,3.3-1.84,6.93-2.76,10.89-2.76s7.59.92,10.89,2.76c3.3,1.84,5.9,4.4,7.8,7.68,1.9,3.28,2.85,6.98,2.85,11.1s-.96,7.83-2.88,11.13c-1.92,3.3-4.52,5.87-7.8,7.71-3.28,1.84-6.9,2.76-10.86,2.76s-7.59-.92-10.89-2.76ZM877.22,475.56c2.02-2.24,3.03-5.2,3.03-8.88s-1.01-6.69-3.03-8.91c-2.02-2.22-4.71-3.33-8.07-3.33s-6.11,1.1-8.13,3.3c-2.02,2.2-3.03,5.18-3.03,8.94s1.01,6.69,3.03,8.91c2.02,2.22,4.73,3.33,8.13,3.33s6.05-1.12,8.07-3.36Z"/><path class="cls-6" d="M896.87,478.14c3.92-3.24,7.01-5.9,9.27-7.98,2.26-2.08,4.17-4.26,5.73-6.54,1.56-2.28,2.34-4.5,2.34-6.66,0-1.64-.38-2.92-1.14-3.84-.76-.92-1.9-1.38-3.42-1.38s-2.71.57-3.57,1.71c-.86,1.14-1.29,2.75-1.29,4.83h-9.9c.08-3.4.81-6.24,2.19-8.52,1.38-2.28,3.2-3.96,5.46-5.04,2.26-1.08,4.77-1.62,7.53-1.62,4.76,0,8.35,1.22,10.77,3.66,2.42,2.44,3.63,5.62,3.63,9.54,0,4.28-1.46,8.25-4.38,11.91-2.92,3.66-6.64,7.23-11.16,10.71h16.2v8.34h-30.12v-7.62c1.36-1.08,1.98-1.58,1.86-1.5Z"/><path class="cls-6" d="M1017.05,1337.75h-424.49c-29.66,0-50.44-30.23-40.66-59.13l95.68-282.79c6.04-17.85,22.35-29.8,40.66-29.8h206.86c17.01,0,32.43,10.34,39.34,26.38l121.95,282.79c12.68,29.41-8.17,62.56-39.34,62.56Z"/><circle class="cls-1" cx="792.92" cy="909.5" r="66.56"/><path class="cls-4" d="M705.34,1086.56c1.05.86,2.45,1.29,4.21,1.29,2.27,0,3.92-.94,4.95-2.83,1.03-1.89,1.54-5.07,1.54-9.54-.84,1.17-2.03,2.09-3.55,2.75-1.52.66-3.16.99-4.92.99-2.35,0-4.46-.49-6.35-1.46s-3.38-2.42-4.48-4.34c-1.1-1.93-1.65-4.26-1.65-7.01,0-4.07,1.21-7.31,3.63-9.71,2.42-2.4,5.72-3.6,9.9-3.6,5.21,0,8.88,1.67,11.03,5,2.14,3.34,3.22,8.36,3.22,15.07,0,4.77-.41,8.67-1.24,11.71-.83,3.04-2.24,5.35-4.23,6.93-2,1.58-4.72,2.36-8.17,2.36-2.71,0-5.02-.52-6.93-1.57-1.91-1.04-3.36-2.42-4.37-4.12s-1.59-3.58-1.73-5.64h7.15c.29,1.61.96,2.85,2.01,3.71ZM713.68,1071.19c1.1-1.17,1.65-2.75,1.65-4.73,0-2.16-.58-3.84-1.73-5.03-1.15-1.19-2.72-1.79-4.7-1.79s-3.55.62-4.7,1.84c-1.16,1.23-1.73,2.85-1.73,4.87s.56,3.53,1.68,4.76c1.12,1.23,2.8,1.84,5.03,1.84,1.91,0,3.41-.59,4.51-1.76Z"/><path class="cls-4" d="M732.29,1058.65c2.29-3.59,6.1-5.39,11.41-5.39s9.12,1.8,11.41,5.39c2.29,3.59,3.44,8.56,3.44,14.9s-1.15,11.39-3.44,15.02c-2.29,3.63-6.1,5.44-11.41,5.44s-9.12-1.81-11.41-5.44c-2.29-3.63-3.44-8.64-3.44-15.02s1.15-11.31,3.44-14.9ZM750.44,1066.7c-.35-1.85-1.05-3.36-2.09-4.54-1.04-1.17-2.59-1.76-4.65-1.76s-3.6.59-4.65,1.76c-1.04,1.17-1.74,2.69-2.09,4.54-.35,1.85-.52,4.13-.52,6.85s.17,5.12.5,7.01c.33,1.89,1.03,3.41,2.09,4.57,1.06,1.15,2.62,1.73,4.67,1.73s3.61-.58,4.68-1.73c1.06-1.16,1.76-2.68,2.09-4.57.33-1.89.5-4.23.5-7.01s-.17-5-.52-6.85Z"/><path class="cls-4" d="M767.82,1058.65c2.29-3.59,6.1-5.39,11.41-5.39s9.12,1.8,11.41,5.39c2.29,3.59,3.44,8.56,3.44,14.9s-1.15,11.39-3.44,15.02c-2.29,3.63-6.1,5.44-11.41,5.44s-9.12-1.81-11.41-5.44c-2.29-3.63-3.44-8.64-3.44-15.02s1.15-11.31,3.44-14.9ZM785.97,1066.7c-.35-1.85-1.05-3.36-2.09-4.54-1.04-1.17-2.59-1.76-4.65-1.76s-3.6.59-4.65,1.76c-1.04,1.17-1.74,2.69-2.09,4.54-.35,1.85-.52,4.13-.52,6.85s.17,5.12.5,7.01c.33,1.89,1.03,3.41,2.09,4.57,1.06,1.15,2.62,1.73,4.67,1.73s3.61-.58,4.68-1.73c1.06-1.16,1.76-2.68,2.09-4.57.33-1.89.5-4.23.5-7.01s-.17-5-.52-6.85Z"/><path class="cls-4" d="M860.77,1066.65c2.29,2.29,3.44,5.49,3.44,9.6v17.88h-7.7v-16.83c0-2.38-.6-4.21-1.81-5.47-1.21-1.26-2.86-1.9-4.95-1.9s-3.75.63-4.98,1.9c-1.23,1.27-1.84,3.09-1.84,5.47v16.83h-7.7v-16.83c0-2.38-.6-4.21-1.81-5.47-1.21-1.26-2.86-1.9-4.95-1.9s-3.8.63-5.03,1.9c-1.23,1.27-1.84,3.09-1.84,5.47v16.83h-7.7v-30.47h7.7v3.68c.99-1.28,2.26-2.29,3.82-3.02s3.27-1.1,5.14-1.1c2.38,0,4.51.5,6.38,1.51,1.87,1.01,3.32,2.45,4.34,4.32.99-1.76,2.43-3.17,4.32-4.24,1.89-1.06,3.93-1.59,6.13-1.59,3.74,0,6.76,1.15,9.05,3.44Z"/><path class="cls-4" d="M872.05,1058.73c-.9-.86-1.35-1.93-1.35-3.22s.45-2.36,1.35-3.22,2.03-1.29,3.38-1.29,2.48.43,3.38,1.29,1.35,1.93,1.35,3.22-.45,2.36-1.35,3.22c-.9.86-2.03,1.29-3.38,1.29s-2.48-.43-3.38-1.29ZM879.22,1063.65v30.47h-7.7v-30.47h7.7Z"/><path class="cls-4" d="M892.42,1092.66c-2.35-1.3-4.19-3.14-5.53-5.53-1.34-2.38-2.01-5.13-2.01-8.25s.69-5.87,2.06-8.25c1.38-2.38,3.25-4.23,5.64-5.53,2.38-1.3,5.04-1.95,7.97-1.95s5.59.65,7.97,1.95c2.38,1.3,4.26,3.14,5.64,5.53,1.38,2.38,2.06,5.13,2.06,8.25s-.71,5.87-2.12,8.25c-1.41,2.38-3.32,4.23-5.72,5.53-2.4,1.3-5.09,1.95-8.06,1.95s-5.57-.65-7.92-1.95ZM904.28,1086.89c1.23-.68,2.21-1.7,2.94-3.05.73-1.36,1.1-3.01,1.1-4.95,0-2.9-.76-5.12-2.28-6.68-1.52-1.56-3.38-2.34-5.58-2.34s-4.04.78-5.53,2.34c-1.48,1.56-2.23,3.79-2.23,6.68s.72,5.12,2.17,6.68c1.45,1.56,3.27,2.34,5.47,2.34,1.39,0,2.7-.34,3.93-1.02Z"/><path class="cls-4" d="M756.19,1135.98v14.74c0,1.03.25,1.77.74,2.23.49.46,1.33.69,2.5.69h3.58v6.49h-4.84c-6.49,0-9.74-3.15-9.74-9.46v-14.68h-3.63v-6.33h3.63v-7.54h7.75v7.54h6.82v6.33h-6.82Z"/><path class="cls-4" d="M774.17,1158.66c-2.35-1.3-4.19-3.14-5.53-5.53-1.34-2.38-2.01-5.13-2.01-8.25s.69-5.87,2.06-8.25c1.38-2.38,3.25-4.23,5.64-5.53,2.38-1.3,5.04-1.95,7.97-1.95s5.59.65,7.97,1.95c2.38,1.3,4.26,3.14,5.64,5.53,1.38,2.38,2.06,5.13,2.06,8.25s-.71,5.87-2.12,8.25c-1.41,2.38-3.32,4.23-5.72,5.53-2.4,1.3-5.09,1.95-8.06,1.95s-5.57-.65-7.92-1.95ZM786.03,1152.89c1.23-.68,2.21-1.7,2.94-3.05.73-1.36,1.1-3.01,1.1-4.95,0-2.9-.76-5.12-2.28-6.68-1.52-1.56-3.38-2.34-5.58-2.34s-4.04.78-5.53,2.34c-1.48,1.56-2.23,3.79-2.23,6.68s.72,5.12,2.17,6.68c1.45,1.56,3.27,2.34,5.47,2.34,1.39,0,2.7-.34,3.93-1.02Z"/><path class="cls-4" d="M829.34,1132.65c2.24,2.29,3.35,5.49,3.35,9.6v17.88h-7.7v-16.83c0-2.42-.6-4.28-1.81-5.58s-2.86-1.95-4.95-1.95-3.8.65-5.03,1.95c-1.23,1.3-1.84,3.16-1.84,5.58v16.83h-7.7v-30.47h7.7v3.79c1.03-1.32,2.34-2.36,3.93-3.11,1.59-.75,3.35-1.13,5.25-1.13,3.63,0,6.56,1.15,8.8,3.44Z"/><path class="cls-4" d="M844.96,1159.27c-1.98-.9-3.55-2.12-4.7-3.66-1.16-1.54-1.79-3.25-1.9-5.12h7.76c.15,1.17.72,2.14,1.73,2.92,1.01.77,2.26,1.16,3.77,1.16s2.61-.29,3.44-.88c.82-.59,1.24-1.34,1.24-2.26,0-.99-.5-1.73-1.51-2.23-1.01-.49-2.61-1.04-4.81-1.62-2.27-.55-4.13-1.12-5.58-1.71-1.45-.59-2.7-1.49-3.74-2.7s-1.57-2.84-1.57-4.89c0-1.69.49-3.23,1.46-4.62.97-1.39,2.37-2.49,4.18-3.3,1.82-.81,3.95-1.21,6.41-1.21,3.63,0,6.53.91,8.69,2.72,2.16,1.81,3.36,4.26,3.58,7.34h-7.37c-.11-1.21-.61-2.17-1.51-2.89-.9-.72-2.1-1.07-3.6-1.07-1.39,0-2.47.26-3.22.77-.75.51-1.13,1.23-1.13,2.14,0,1.03.51,1.81,1.54,2.34,1.03.53,2.62,1.07,4.79,1.62,2.2.55,4.01,1.12,5.45,1.71,1.43.59,2.67,1.5,3.71,2.72,1.04,1.23,1.59,2.85,1.62,4.87,0,1.76-.49,3.34-1.46,4.73s-2.37,2.48-4.18,3.27c-1.82.79-3.93,1.18-6.35,1.18s-4.73-.45-6.71-1.35Z"/><path class="cls-4" d="M721.29,1216.5c2.55-4.62,6.11-8.22,10.68-10.81,4.57-2.58,9.74-3.87,15.53-3.87,7.09,0,13.16,1.87,18.21,5.62,5.05,3.74,8.42,8.85,10.13,15.32h-16c-1.19-2.5-2.88-4.4-5.06-5.7-2.18-1.3-4.67-1.96-7.45-1.96-4.48,0-8.11,1.56-10.89,4.68-2.78,3.12-4.17,7.29-4.17,12.51s1.39,9.39,4.17,12.51c2.78,3.12,6.41,4.68,10.89,4.68,2.78,0,5.26-.65,7.45-1.96,2.18-1.3,3.87-3.21,5.06-5.7h16c-1.7,6.47-5.08,11.56-10.13,15.28-5.05,3.72-11.12,5.57-18.21,5.57-5.79,0-10.96-1.29-15.53-3.87-4.57-2.58-8.13-6.17-10.68-10.76-2.55-4.6-3.83-9.84-3.83-15.74s1.28-11.16,3.83-15.79Z"/><path class="cls-4" d="M797.57,1258.92c-4.68-2.61-8.4-6.25-11.15-10.94-2.75-4.68-4.13-9.94-4.13-15.79s1.37-11.09,4.13-15.74c2.75-4.65,6.47-8.28,11.15-10.89,4.68-2.61,9.83-3.92,15.45-3.92s10.76,1.31,15.45,3.92,8.37,6.24,11.06,10.89c2.69,4.65,4.04,9.9,4.04,15.74s-1.36,11.1-4.08,15.79c-2.72,4.68-6.41,8.33-11.06,10.94-4.65,2.61-9.79,3.91-15.4,3.91s-10.76-1.3-15.45-3.91ZM824.47,1244.79c2.86-3.18,4.3-7.37,4.3-12.59s-1.43-9.49-4.3-12.64c-2.87-3.15-6.68-4.72-11.45-4.72s-8.67,1.56-11.53,4.68c-2.87,3.12-4.3,7.35-4.3,12.68s1.43,9.49,4.3,12.64c2.86,3.15,6.71,4.72,11.53,4.72s8.58-1.59,11.45-4.77Z"/><path class="cls-4" d="M852.34,1248.45c5.56-4.59,9.94-8.37,13.15-11.32,3.2-2.95,5.91-6.04,8.13-9.28,2.21-3.23,3.32-6.38,3.32-9.45,0-2.33-.54-4.14-1.62-5.45-1.08-1.3-2.7-1.96-4.85-1.96s-3.84.81-5.06,2.42c-1.22,1.62-1.83,3.9-1.83,6.85h-14.04c.11-4.82,1.15-8.85,3.11-12.08s4.54-5.62,7.74-7.15c3.2-1.53,6.76-2.3,10.68-2.3,6.75,0,11.84,1.73,15.27,5.19,3.43,3.46,5.15,7.97,5.15,13.53,0,6.07-2.07,11.7-6.21,16.89-4.14,5.19-9.42,10.25-15.83,15.19h22.98v11.83h-42.72v-10.81c1.93-1.53,2.81-2.24,2.64-2.13Z"/></svg>