<?xml version="1.0" encoding="UTF-8"?><svg id="Layer_1" xmlns="http://www.w3.org/2000/svg" viewBox="0 0 1142.99 1450"><defs><style>.cls-1,.cls-2,.cls-3,.cls-4,.cls-5,.cls-6,.cls-7,.cls-8{stroke-width:0px;}.cls-9{fill:none;stroke:#147350;stroke-linecap:round;stroke-miterlimit:10;stroke-width:19px;}.cls-2{fill:#589936;}.cls-3{fill:#147350;}.cls-4{fill:#a7ce9d;}.cls-5{fill:#f2c063;}.cls-6{fill:#eb9143;}.cls-7{fill:#ea9143;}.cls-8{fill:#ffdfa2;}</style></defs><path class="cls-8" d="M98.17-.13h946.64c54.22,0,98.17,43.79,98.17,97.8v1254.67c0,54.01-43.95,97.8-98.17,97.8H98.17C43.96,1450.13,0,1406.35,0,1352.33V97.67C0,43.65,43.96-.13,98.17-.13Z"/><path class="cls-2" d="M252.35,944.1s-89.45,7.33-109.98,87.99c-20.53,80.65-27.86,107.05,35.19,124.65,58.8,16.41,210.68,2.22,230.92.22,1.55-.15,3.1.06,4.55.63,6.53,2.57,24.89,10.86,28.49,24.07,4,14.66,237.01,2.67,279.39.36,3.92-.21,7.33-2.72,8.69-6.4,11.98-32.25,76.21-181.91,228.71-157.47,2.92.47,5.9-.42,8.1-2.4,8.6-7.75,26.89-28.71,2.06-49.66-24.48-20.65-78.9-22.45-101.4-22.26-5.46.05-9.89-4.34-9.93-9.8-.27-39.9-8.22-188.85-108.48-271.5-5.89-4.86-14.86-1.34-15.95,6.21-2.69,18.79-11.47,46.97-39.73,54.27-5.26,1.36-8.39,6.77-7,12.02,11.73,44.53,48.59,222.61-69.57,354.08-1.79,1.99-4.33,3.14-7,3.21l-95.28,2.75c-1.5.04-2.98-.25-4.35-.87-12.91-5.87-78.94-39.18-50.65-94.87l23.79-46.84c3.38-6.65-1.58-14.5-9.04-14.31l-221.52,5.91h0Z"/><path class="cls-3" d="M352.49,817.56c-5.01-.04-9.97-1.05-14.6-2.97-14.44-5.98-47.76-18.91-60.61-16.64-16.62,2.93-62.67,65.93-60.9,79.19,1.76,13.18,8.17,30.73,23.81,33.02,13.56,1.98,195.36.45,243.48,0,10.54-.1,20.6-4.73,27.27-12.89,11.44-14.01,17.82-39.33-29.1-75-3.25-2.47-7.23-3.8-11.31-3.84l-118.04-.87Z"/><path class="cls-3" d="M600.07,639.86c-10.33,5.54-32.13,21.21-7.31,45.59,6.45,6.34,15.18,9.85,24.23,9.85h52.51c6.63,0,13.11-2.09,18.41-6.08,11.33-8.52,25.6-25.32,2-46.17-3.97-3.51-9.11-5.44-14.4-5.44h-66.41c-3.15,0-6.25.76-9.02,2.24h0Z"/><path class="cls-4" d="M882.03,1061.32c-2.71-.3-3.19-4.02-.61-4.92,22.81-7.92,66.94-20.38,92.91-9.15,28.92,12.5,34.09,73.11,35,96.93.25,6.41-.54,12.8-2.38,18.95-6.59,22.1-26.11,77.07-60.98,93.34-43.99,20.53-88.96,25.42-125.14,12.71-36.17-12.71-72.95-62.55-70.39-67.46,2.02-3.86,23.83-66.68,40.08-85.62,2.43-2.83,7.04-.86,6.58,2.85-2.22,17.95-4.61,60.45,19.81,74.95,31.28,18.57,62.57,29.33,90.92,12.71s48.88-51.81,43.99-69.41c-4.38-15.76-28.35-71.23-69.82-75.87h.03Z"/><path class="cls-4" d="M227.08,1188.65l-63.21-5.19c-1.79-.15-3.09,1.66-2.36,3.3,6.53,14.65,33.44,69.21,75.68,78.5,48.88,10.75,79.38,20.53,130.12-10.75,43.53-26.84,46.84-47.92,46.9-53.37,0-.85-.43-1.61-1.16-2.04-6.01-3.55-35.76-19.83-61.03-10.42-.29.11-.56.27-.79.48-3.75,3.41-37.69,33.69-52.45,27.23-15.45-6.76-17.55,10.01-67.54-26.17-1.22-.88-2.67-1.43-4.17-1.55v-.02Z"/><rect class="cls-7" x="285.88" y="579.11" width="177.18" height="248.06" rx="44.06" ry="44.06" transform="translate(-353.02 1027.78) rotate(-86.01)"/><path class="cls-7" d="M363.85,782.31l-5.47,4.98c-1.75,1.59-3.2,3.48-4.29,5.58l-1.76,3.39c-.27.52-.6,1.02-.96,1.49-.82,1.09-1.56,2.24-2.21,3.44l-10.12,18.72c-2.38,3.51-.06,8.28,4.17,8.57l13.17.46c.19,0,.37.02.56.04l20.85,1.91,11.11.78c4.23.3,7.19-4.1,5.32-7.91l-9.61-23.71-1.32-3.23c-.11-.27-.2-.54-.29-.82-.95-3.12-2.55-6.01-4.71-8.47l-3.76-4.28c-.27-.31-.49-.66-.71-1.01-2.08-3.27-6.97-3.43-9.97.07h0Z"/><rect class="cls-5" x="295.65" y="592.79" width="157.64" height="220.7" rx="44.06" ry="44.06" transform="translate(-353.02 1027.78) rotate(-86.01)"/><path class="cls-8" d="M388.26,695.58l-25.32-17.16c-6.28-4.26-14.82-.11-15.35,7.47l-2.14,30.63c-.53,7.57,7.35,12.87,14.16,9.53l27.46-13.47c6.79-3.33,7.45-12.75,1.19-17Z"/><path class="cls-4" d="M251.73,974.49c1.46-.38,3.01.23,3.98,1.39l73.39,88.24s5.55,6.26,0,6.66c-3.31.24-30.16.1-39.47.04-1.59,0-2.73,1.51-2.29,3.03l16.18,56.61c.59,2.06-.03,4.36-1.74,5.66-1.24.94-2.86,1.3-4.65-.5-3.81-3.81-66.59-81.94-72.41-89.18-.47-.58-.88-1.2-1.19-1.88-.83-1.83-1.42-4.88,3.87-4.88,6.01,0,27.81.56,36.43.79,1.77.05,3.08-1.63,2.61-3.33l-16.28-56.82s-2.07-4.9,1.58-5.85v.02Z"/><line class="cls-9" x1="116.77" y1="1331.33" x2="277.28" y2="1331.33"/><path class="cls-6" d="M313.92,262c3.92-3.24,7.01-5.9,9.27-7.98,2.26-2.08,4.17-4.26,5.73-6.54,1.56-2.28,2.34-4.5,2.34-6.66,0-1.64-.38-2.92-1.14-3.84-.76-.92-1.9-1.38-3.42-1.38s-2.71.57-3.57,1.71c-.86,1.14-1.29,2.75-1.29,4.83h-9.9c.08-3.4.81-6.24,2.19-8.52,1.38-2.28,3.2-3.96,5.46-5.04,2.26-1.08,4.77-1.62,7.53-1.62,4.76,0,8.35,1.22,10.77,3.66,2.42,2.44,3.63,5.62,3.63,9.54,0,4.28-1.46,8.25-4.38,11.91-2.92,3.66-6.64,7.23-11.16,10.71h16.2v8.34h-30.12v-7.62c1.36-1.08,1.98-1.58,1.86-1.5Z"/><path class="cls-6" d="M379.08,263.02v8.7h-5.22c-3.72,0-6.62-.91-8.7-2.73-2.08-1.82-3.12-4.79-3.12-8.91v-13.32h-4.08v-8.52h4.08v-8.16h10.26v8.16h6.72v8.52h-6.72v13.44c0,1,.24,1.72.72,2.16.48.44,1.28.66,2.4.66h3.66Z"/><path class="cls-6" d="M385.53,233.17c-1.14-1.06-1.71-2.37-1.71-3.93s.57-2.93,1.71-3.99c1.14-1.06,2.61-1.59,4.41-1.59s3.21.53,4.35,1.59c1.14,1.06,1.71,2.39,1.71,3.99s-.57,2.87-1.71,3.93c-1.14,1.06-2.59,1.59-4.35,1.59s-3.27-.53-4.41-1.59ZM395.04,238.24v33.48h-10.26v-33.48h10.26Z"/><path class="cls-6" d="M455.13,241.66c2.46,2.52,3.69,6.02,3.69,10.5v19.56h-10.2v-18.18c0-2.16-.57-3.83-1.71-5.01-1.14-1.18-2.71-1.77-4.71-1.77s-3.57.59-4.71,1.77c-1.14,1.18-1.71,2.85-1.71,5.01v18.18h-10.2v-18.18c0-2.16-.57-3.83-1.71-5.01-1.14-1.18-2.71-1.77-4.71-1.77s-3.57.59-4.71,1.77c-1.14,1.18-1.71,2.85-1.71,5.01v18.18h-10.26v-33.48h10.26v4.2c1.04-1.4,2.4-2.51,4.08-3.33,1.68-.82,3.58-1.23,5.7-1.23,2.52,0,4.77.54,6.75,1.62,1.98,1.08,3.53,2.62,4.65,4.62,1.16-1.84,2.74-3.34,4.74-4.5,2-1.16,4.18-1.74,6.54-1.74,4.16,0,7.47,1.26,9.93,3.78Z"/><path class="cls-6" d="M497.4,257.44h-23.22c.16,2.08.83,3.67,2.01,4.77,1.18,1.1,2.63,1.65,4.35,1.65,2.56,0,4.34-1.08,5.34-3.24h10.92c-.56,2.2-1.57,4.18-3.03,5.94-1.46,1.76-3.29,3.14-5.49,4.14-2.2,1-4.66,1.5-7.38,1.5-3.28,0-6.2-.7-8.76-2.1-2.56-1.4-4.56-3.4-6-6-1.44-2.6-2.16-5.64-2.16-9.12s.71-6.52,2.13-9.12c1.42-2.6,3.41-4.6,5.97-6,2.56-1.4,5.5-2.1,8.82-2.1s6.12.68,8.64,2.04c2.52,1.36,4.49,3.3,5.91,5.82s2.13,5.46,2.13,8.82c0,.96-.06,1.96-.18,3ZM487.08,251.74c0-1.76-.6-3.16-1.8-4.2-1.2-1.04-2.7-1.56-4.5-1.56s-3.17.5-4.35,1.5c-1.18,1-1.91,2.42-2.19,4.26h12.84Z"/><path class="cls-6" d="M517.74,239.47c1.8-1.06,3.8-1.59,6-1.59v10.86h-2.82c-2.56,0-4.48.55-5.76,1.65-1.28,1.1-1.92,3.03-1.92,5.79v15.54h-10.26v-33.48h10.26v5.58c1.2-1.84,2.7-3.29,4.5-4.35Z"/><path class="cls-6" d="M534.48,270.7c-2.28-1-4.08-2.37-5.4-4.11-1.32-1.74-2.06-3.69-2.22-5.85h10.14c.12,1.16.66,2.1,1.62,2.82.96.72,2.14,1.08,3.54,1.08,1.28,0,2.27-.25,2.97-.75.7-.5,1.05-1.15,1.05-1.95,0-.96-.5-1.67-1.5-2.13-1-.46-2.62-.97-4.86-1.53-2.4-.56-4.4-1.15-6-1.77-1.6-.62-2.98-1.6-4.14-2.94-1.16-1.34-1.74-3.15-1.74-5.43,0-1.92.53-3.67,1.59-5.25,1.06-1.58,2.62-2.83,4.68-3.75,2.06-.92,4.51-1.38,7.35-1.38,4.2,0,7.51,1.04,9.93,3.12,2.42,2.08,3.81,4.84,4.17,8.28h-9.48c-.16-1.16-.67-2.08-1.53-2.76-.86-.68-1.99-1.02-3.39-1.02-1.2,0-2.12.23-2.76.69-.64.46-.96,1.09-.96,1.89,0,.96.51,1.68,1.53,2.16,1.02.48,2.61.96,4.77,1.44,2.48.64,4.5,1.27,6.06,1.89,1.56.62,2.93,1.62,4.11,3,1.18,1.38,1.79,3.23,1.83,5.55,0,1.96-.55,3.71-1.65,5.25-1.1,1.54-2.68,2.75-4.74,3.63-2.06.88-4.45,1.32-7.17,1.32-2.92,0-5.52-.5-7.8-1.5Z"/><path class="cls-6" d="M580.68,270.7c-2.28-1-4.08-2.37-5.4-4.11-1.32-1.74-2.06-3.69-2.22-5.85h10.14c.12,1.16.66,2.1,1.62,2.82.96.72,2.14,1.08,3.54,1.08,1.28,0,2.27-.25,2.97-.75.7-.5,1.05-1.15,1.05-1.95,0-.96-.5-1.67-1.5-2.13-1-.46-2.62-.97-4.86-1.53-2.4-.56-4.4-1.15-6-1.77-1.6-.62-2.98-1.6-4.14-2.94-1.16-1.34-1.74-3.15-1.74-5.43,0-1.92.53-3.67,1.59-5.25,1.06-1.58,2.62-2.83,4.68-3.75,2.06-.92,4.51-1.38,7.35-1.38,4.2,0,7.51,1.04,9.93,3.12,2.42,2.08,3.81,4.84,4.17,8.28h-9.48c-.16-1.16-.67-2.08-1.53-2.76-.86-.68-1.99-1.02-3.39-1.02-1.2,0-2.12.23-2.76.69-.64.46-.96,1.09-.96,1.89,0,.96.51,1.68,1.53,2.16,1.02.48,2.61.96,4.77,1.44,2.48.64,4.5,1.27,6.06,1.89,1.56.62,2.93,1.62,4.11,3,1.18,1.38,1.79,3.23,1.83,5.55,0,1.96-.55,3.71-1.65,5.25-1.1,1.54-2.68,2.75-4.74,3.63-2.06.88-4.45,1.32-7.17,1.32-2.92,0-5.52-.5-7.8-1.5Z"/><path class="cls-6" d="M627,263.02v8.7h-5.22c-3.72,0-6.62-.91-8.7-2.73-2.08-1.82-3.12-4.79-3.12-8.91v-13.32h-4.08v-8.52h4.08v-8.16h10.26v8.16h6.72v8.52h-6.72v13.44c0,1,.24,1.72.72,2.16.48.44,1.28.66,2.4.66h3.66Z"/><path class="cls-6" d="M647.46,239.47c1.8-1.06,3.8-1.59,6-1.59v10.86h-2.82c-2.56,0-4.48.55-5.76,1.65-1.28,1.1-1.92,3.03-1.92,5.79v15.54h-10.26v-33.48h10.26v5.58c1.2-1.84,2.7-3.29,4.5-4.35Z"/><path class="cls-6" d="M689.76,257.44h-23.22c.16,2.08.83,3.67,2.01,4.77,1.18,1.1,2.63,1.65,4.35,1.65,2.56,0,4.34-1.08,5.34-3.24h10.92c-.56,2.2-1.57,4.18-3.03,5.94-1.46,1.76-3.29,3.14-5.49,4.14-2.2,1-4.66,1.5-7.38,1.5-3.28,0-6.2-.7-8.76-2.1-2.56-1.4-4.56-3.4-6-6-1.44-2.6-2.16-5.64-2.16-9.12s.71-6.52,2.13-9.12c1.42-2.6,3.41-4.6,5.97-6,2.56-1.4,5.5-2.1,8.82-2.1s6.12.68,8.64,2.04c2.52,1.36,4.49,3.3,5.91,5.82s2.13,5.46,2.13,8.82c0,.96-.06,1.96-.18,3ZM679.44,251.74c0-1.76-.6-3.16-1.8-4.2-1.2-1.04-2.7-1.56-4.5-1.56s-3.17.5-4.35,1.5c-1.18,1-1.91,2.42-2.19,4.26h12.84Z"/><path class="cls-6" d="M695.25,245.86c1.3-2.6,3.07-4.6,5.31-6,2.24-1.4,4.74-2.1,7.5-2.1,2.36,0,4.43.48,6.21,1.44,1.78.96,3.15,2.22,4.11,3.78v-4.74h10.26v33.48h-10.26v-4.74c-1,1.56-2.39,2.82-4.17,3.78-1.78.96-3.85,1.44-6.21,1.44-2.72,0-5.2-.71-7.44-2.13-2.24-1.42-4.01-3.44-5.31-6.06-1.3-2.62-1.95-5.65-1.95-9.09s.65-6.46,1.95-9.06ZM716.25,248.92c-1.42-1.48-3.15-2.22-5.19-2.22s-3.77.73-5.19,2.19c-1.42,1.46-2.13,3.47-2.13,6.03s.71,4.59,2.13,6.09c1.42,1.5,3.15,2.25,5.19,2.25s3.77-.74,5.19-2.22c1.42-1.48,2.13-3.5,2.13-6.06s-.71-4.58-2.13-6.06Z"/><path class="cls-6" d="M788.73,241.66c2.46,2.52,3.69,6.02,3.69,10.5v19.56h-10.2v-18.18c0-2.16-.57-3.83-1.71-5.01-1.14-1.18-2.71-1.77-4.71-1.77s-3.57.59-4.71,1.77c-1.14,1.18-1.71,2.85-1.71,5.01v18.18h-10.2v-18.18c0-2.16-.57-3.83-1.71-5.01-1.14-1.18-2.71-1.77-4.71-1.77s-3.57.59-4.71,1.77c-1.14,1.18-1.71,2.85-1.71,5.01v18.18h-10.26v-33.48h10.26v4.2c1.04-1.4,2.4-2.51,4.08-3.33,1.68-.82,3.58-1.23,5.7-1.23,2.52,0,4.77.54,6.75,1.62,1.98,1.08,3.53,2.62,4.65,4.62,1.16-1.84,2.74-3.34,4.74-4.5,2-1.16,4.18-1.74,6.54-1.74,4.16,0,7.47,1.26,9.93,3.78Z"/><path class="cls-6" d="M800.37,233.17c-1.14-1.06-1.71-2.37-1.71-3.93s.57-2.93,1.71-3.99c1.14-1.06,2.61-1.59,4.41-1.59s3.21.53,4.35,1.59c1.14,1.06,1.71,2.39,1.71,3.99s-.57,2.87-1.71,3.93c-1.14,1.06-2.59,1.59-4.35,1.59s-3.27-.53-4.41-1.59ZM809.87,238.24v33.48h-10.26v-33.48h10.26Z"/><path class="cls-6" d="M847.11,241.69c2.34,2.54,3.51,6.03,3.51,10.47v19.56h-10.2v-18.18c0-2.24-.58-3.98-1.74-5.22-1.16-1.24-2.72-1.86-4.68-1.86s-3.52.62-4.68,1.86c-1.16,1.24-1.74,2.98-1.74,5.22v18.18h-10.26v-33.48h10.26v4.44c1.04-1.48,2.44-2.65,4.2-3.51,1.76-.86,3.74-1.29,5.94-1.29,3.92,0,7.05,1.27,9.39,3.81Z"/><path class="cls-6" d="M876.69,239.2c1.78.96,3.15,2.22,4.11,3.78v-4.74h10.26v33.42c0,3.08-.61,5.87-1.83,8.37-1.22,2.5-3.08,4.49-5.58,5.97-2.5,1.48-5.61,2.22-9.33,2.22-4.96,0-8.98-1.17-12.06-3.51-3.08-2.34-4.84-5.51-5.28-9.51h10.14c.32,1.28,1.08,2.29,2.28,3.03,1.2.74,2.68,1.11,4.44,1.11,2.12,0,3.81-.61,5.07-1.83,1.26-1.22,1.89-3.17,1.89-5.85v-4.74c-1,1.56-2.38,2.83-4.14,3.81-1.76.98-3.82,1.47-6.18,1.47-2.76,0-5.26-.71-7.5-2.13-2.24-1.42-4.01-3.44-5.31-6.06-1.3-2.62-1.95-5.65-1.95-9.09s.65-6.46,1.95-9.06c1.3-2.6,3.07-4.6,5.31-6,2.24-1.4,4.74-2.1,7.5-2.1,2.36,0,4.43.48,6.21,1.44ZM878.66,248.92c-1.42-1.48-3.15-2.22-5.19-2.22s-3.77.73-5.19,2.19c-1.42,1.46-2.13,3.47-2.13,6.03s.71,4.59,2.13,6.09c1.42,1.5,3.15,2.25,5.19,2.25s3.77-.74,5.19-2.22c1.42-1.48,2.13-3.5,2.13-6.06s-.71-4.58-2.13-6.06Z"/><path class="cls-1" d="M241.98,312.16c2.16-1.24,4.62-1.86,7.38-1.86,2.96,0,5.62.7,7.98,2.1,2.36,1.4,4.22,3.37,5.58,5.91,1.36,2.54,2.04,5.49,2.04,8.85s-.68,6.28-2.04,8.88c-1.36,2.6-3.23,4.62-5.61,6.06-2.38,1.44-5.03,2.16-7.95,2.16s-5.33-.62-7.47-1.86c-2.14-1.24-3.75-2.82-4.83-4.74v6.06h-5.46v-44.4h5.46v17.64c1.12-1.96,2.76-3.56,4.92-4.8ZM257.88,320.68c-1-1.84-2.35-3.24-4.05-4.2-1.7-.96-3.57-1.44-5.61-1.44s-3.85.49-5.55,1.47c-1.7.98-3.06,2.4-4.08,4.26-1.02,1.86-1.53,4.01-1.53,6.45s.51,4.65,1.53,6.51c1.02,1.86,2.38,3.28,4.08,4.26,1.7.98,3.55,1.47,5.55,1.47s3.91-.49,5.61-1.47c1.7-.98,3.05-2.4,4.05-4.26,1-1.86,1.5-4.05,1.5-6.57s-.5-4.64-1.5-6.48Z"/><path class="cls-1" d="M281.73,311.8c1.78-1.04,3.95-1.56,6.51-1.56v5.64h-1.44c-6.12,0-9.18,3.32-9.18,9.96v17.88h-5.46v-32.88h5.46v5.34c.96-1.88,2.33-3.34,4.11-4.38Z"/><path class="cls-1" d="M323.7,310.84v32.88h-5.46v-4.86c-1.04,1.68-2.49,2.99-4.35,3.93-1.86.94-3.91,1.41-6.15,1.41-2.56,0-4.86-.53-6.9-1.59-2.04-1.06-3.65-2.65-4.83-4.77-1.18-2.12-1.77-4.7-1.77-7.74v-19.26h5.4v18.54c0,3.24.82,5.73,2.46,7.47,1.64,1.74,3.88,2.61,6.72,2.61s5.22-.9,6.9-2.7c1.68-1.8,2.52-4.42,2.52-7.86v-18.06h5.46Z"/><path class="cls-1" d="M353.97,312.16c2.14,1.24,3.73,2.8,4.77,4.68v-6h5.52v33.6c0,3-.64,5.67-1.92,8.01-1.28,2.34-3.11,4.17-5.49,5.49-2.38,1.32-5.15,1.98-8.31,1.98-4.32,0-7.92-1.02-10.8-3.06-2.88-2.04-4.58-4.82-5.1-8.34h5.4c.6,2,1.84,3.61,3.72,4.83,1.88,1.22,4.14,1.83,6.78,1.83,3,0,5.45-.94,7.35-2.82,1.9-1.88,2.85-4.52,2.85-7.92v-6.9c-1.08,1.92-2.68,3.52-4.8,4.8-2.12,1.28-4.6,1.92-7.44,1.92s-5.57-.72-7.95-2.16c-2.38-1.44-4.25-3.46-5.61-6.06-1.36-2.6-2.04-5.56-2.04-8.88s.68-6.31,2.04-8.85c1.36-2.54,3.23-4.51,5.61-5.91,2.38-1.4,5.03-2.1,7.95-2.1s5.33.62,7.47,1.86ZM357.24,320.74c-1-1.84-2.35-3.25-4.05-4.23-1.7-.98-3.57-1.47-5.61-1.47s-3.9.48-5.58,1.44c-1.68.96-3.02,2.36-4.02,4.2-1,1.84-1.5,4-1.5,6.48s.5,4.71,1.5,6.57c1,1.86,2.34,3.28,4.02,4.26,1.68.98,3.54,1.47,5.58,1.47s3.91-.49,5.61-1.47c1.7-.98,3.05-2.4,4.05-4.26,1-1.86,1.5-4.03,1.5-6.51s-.5-4.64-1.5-6.48Z"/><path class="cls-1" d="M403.32,329.32h-26.28c.2,3.24,1.31,5.77,3.33,7.59,2.02,1.82,4.47,2.73,7.35,2.73,2.36,0,4.33-.55,5.91-1.65,1.58-1.1,2.69-2.57,3.33-4.41h5.88c-.88,3.16-2.64,5.73-5.28,7.71-2.64,1.98-5.92,2.97-9.84,2.97-3.12,0-5.91-.7-8.37-2.1-2.46-1.4-4.39-3.39-5.79-5.97-1.4-2.58-2.1-5.57-2.1-8.97s.68-6.38,2.04-8.94c1.36-2.56,3.27-4.53,5.73-5.91,2.46-1.38,5.29-2.07,8.49-2.07s5.88.68,8.28,2.04c2.4,1.36,4.25,3.23,5.55,5.61,1.3,2.38,1.95,5.07,1.95,8.07,0,1.04-.06,2.14-.18,3.3ZM396.48,319.51c-.92-1.5-2.17-2.64-3.75-3.42-1.58-.78-3.33-1.17-5.25-1.17-2.76,0-5.11.88-7.05,2.64-1.94,1.76-3.05,4.2-3.33,7.32h20.76c0-2.08-.46-3.87-1.38-5.37Z"/><path class="cls-1" d="M420.27,311.8c1.78-1.04,3.95-1.56,6.51-1.56v5.64h-1.44c-6.12,0-9.18,3.32-9.18,9.96v17.88h-5.46v-32.88h5.46v5.34c.96-1.88,2.33-3.34,4.11-4.38Z"/><path class="cls-1" d="M453.96,342.97c-2-.86-3.58-2.06-4.74-3.6-1.16-1.54-1.8-3.31-1.92-5.31h5.64c.16,1.64.93,2.98,2.31,4.02,1.38,1.04,3.19,1.56,5.43,1.56,2.08,0,3.72-.46,4.92-1.38,1.2-.92,1.8-2.08,1.8-3.48s-.64-2.51-1.92-3.21c-1.28-.7-3.26-1.39-5.94-2.07-2.44-.64-4.43-1.29-5.97-1.95s-2.86-1.64-3.96-2.94c-1.1-1.3-1.65-3.01-1.65-5.13,0-1.68.5-3.22,1.5-4.62,1-1.4,2.42-2.51,4.26-3.33,1.84-.82,3.94-1.23,6.3-1.23,3.64,0,6.58.92,8.82,2.76,2.24,1.84,3.44,4.36,3.6,7.56h-5.46c-.12-1.72-.81-3.1-2.07-4.14-1.26-1.04-2.95-1.56-5.07-1.56-1.96,0-3.52.42-4.68,1.26s-1.74,1.94-1.74,3.3c0,1.08.35,1.97,1.05,2.67.7.7,1.58,1.26,2.64,1.68,1.06.42,2.53.89,4.41,1.41,2.36.64,4.28,1.27,5.76,1.89,1.48.62,2.75,1.55,3.81,2.79,1.06,1.24,1.61,2.86,1.65,4.86,0,1.8-.5,3.42-1.5,4.86s-2.41,2.57-4.23,3.39c-1.82.82-3.91,1.23-6.27,1.23-2.52,0-4.78-.43-6.78-1.29Z"/><path class="cls-1" d="M480.42,318.31c1.36-2.54,3.23-4.51,5.61-5.91,2.38-1.4,5.03-2.1,7.95-2.1s5.38.62,7.5,1.86c2.12,1.24,3.7,2.8,4.74,4.68v-6h5.52v32.88h-5.52v-6.12c-1.08,1.92-2.69,3.51-4.83,4.77-2.14,1.26-4.63,1.89-7.47,1.89s-5.56-.72-7.92-2.16-4.22-3.46-5.58-6.06c-1.36-2.6-2.04-5.56-2.04-8.88s.68-6.31,2.04-8.85ZM504.72,320.74c-1-1.84-2.35-3.25-4.05-4.23-1.7-.98-3.57-1.47-5.61-1.47s-3.9.48-5.58,1.44c-1.68.96-3.02,2.36-4.02,4.2-1,1.84-1.5,4-1.5,6.48s.5,4.71,1.5,6.57c1,1.86,2.34,3.28,4.02,4.26,1.68.98,3.54,1.47,5.58,1.47s3.91-.49,5.61-1.47c1.7-.98,3.05-2.4,4.05-4.26,1-1.86,1.5-4.03,1.5-6.51s-.5-4.64-1.5-6.48Z"/><path class="cls-1" d="M567.36,311.83c2,1.06,3.58,2.65,4.74,4.77,1.16,2.12,1.74,4.7,1.74,7.74v19.38h-5.4v-18.6c0-3.28-.81-5.79-2.43-7.53-1.62-1.74-3.81-2.61-6.57-2.61s-5.1.91-6.78,2.73c-1.68,1.82-2.52,4.45-2.52,7.89v18.12h-5.4v-18.6c0-3.28-.81-5.79-2.43-7.53-1.62-1.74-3.81-2.61-6.57-2.61s-5.1.91-6.78,2.73c-1.68,1.82-2.52,4.45-2.52,7.89v18.12h-5.46v-32.88h5.46v4.74c1.08-1.72,2.53-3.04,4.35-3.96,1.82-.92,3.83-1.38,6.03-1.38,2.76,0,5.2.62,7.32,1.86,2.12,1.24,3.7,3.06,4.74,5.46.92-2.32,2.44-4.12,4.56-5.4,2.12-1.28,4.48-1.92,7.08-1.92s4.84.53,6.84,1.59Z"/><path class="cls-1" d="M629.16,311.83c2,1.06,3.58,2.65,4.74,4.77,1.16,2.12,1.74,4.7,1.74,7.74v19.38h-5.4v-18.6c0-3.28-.81-5.79-2.43-7.53-1.62-1.74-3.81-2.61-6.57-2.61s-5.1.91-6.78,2.73c-1.68,1.82-2.52,4.45-2.52,7.89v18.12h-5.4v-18.6c0-3.28-.81-5.79-2.43-7.53-1.62-1.74-3.81-2.61-6.57-2.61s-5.1.91-6.78,2.73c-1.68,1.82-2.52,4.45-2.52,7.89v18.12h-5.46v-32.88h5.46v4.74c1.08-1.72,2.53-3.04,4.35-3.96,1.82-.92,3.83-1.38,6.03-1.38,2.76,0,5.2.62,7.32,1.86,2.12,1.24,3.7,3.06,4.74,5.46.92-2.32,2.44-4.12,4.56-5.4,2.12-1.28,4.48-1.92,7.08-1.92s4.84.53,6.84,1.59Z"/><path class="cls-1" d="M674.4,329.32h-26.28c.2,3.24,1.31,5.77,3.33,7.59,2.02,1.82,4.47,2.73,7.35,2.73,2.36,0,4.33-.55,5.91-1.65,1.58-1.1,2.69-2.57,3.33-4.41h5.88c-.88,3.16-2.64,5.73-5.28,7.71-2.64,1.98-5.92,2.97-9.84,2.97-3.12,0-5.91-.7-8.37-2.1-2.46-1.4-4.39-3.39-5.79-5.97-1.4-2.58-2.1-5.57-2.1-8.97s.68-6.38,2.04-8.94c1.36-2.56,3.27-4.53,5.73-5.91,2.46-1.38,5.29-2.07,8.49-2.07s5.88.68,8.28,2.04c2.4,1.36,4.25,3.23,5.55,5.61,1.3,2.38,1.95,5.07,1.95,8.07,0,1.04-.06,2.14-.18,3.3ZM667.55,319.51c-.92-1.5-2.17-2.64-3.75-3.42-1.58-.78-3.33-1.17-5.25-1.17-2.76,0-5.11.88-7.05,2.64-1.94,1.76-3.05,4.2-3.33,7.32h20.76c0-2.08-.46-3.87-1.38-5.37Z"/><path class="cls-1" d="M744.17,311.83c2,1.06,3.58,2.65,4.74,4.77,1.16,2.12,1.74,4.7,1.74,7.74v19.38h-5.4v-18.6c0-3.28-.81-5.79-2.43-7.53-1.62-1.74-3.81-2.61-6.57-2.61s-5.1.91-6.78,2.73c-1.68,1.82-2.52,4.45-2.52,7.89v18.12h-5.4v-18.6c0-3.28-.81-5.79-2.43-7.53-1.62-1.74-3.81-2.61-6.57-2.61s-5.1.91-6.78,2.73c-1.68,1.82-2.52,4.45-2.52,7.89v18.12h-5.46v-32.88h5.46v4.74c1.08-1.72,2.53-3.04,4.35-3.96,1.82-.92,3.83-1.38,6.03-1.38,2.76,0,5.2.62,7.32,1.86,2.12,1.24,3.7,3.06,4.74,5.46.92-2.32,2.44-4.12,4.56-5.4,2.12-1.28,4.48-1.92,7.08-1.92s4.84.53,6.84,1.59Z"/><path class="cls-1" d="M818.03,329.14h-27.06c.2,2.24.84,4.15,1.92,5.73,1.08,1.58,2.42,2.77,4.02,3.57,1.6.8,3.28,1.2,5.04,1.2,2.56,0,4.68-.55,6.36-1.65,1.68-1.1,2.8-2.57,3.36-4.41h5.88c-.88,3.16-2.6,5.73-5.16,7.71-2.56,1.98-5.74,2.97-9.54,2.97-2.68,0-5.15-.62-7.41-1.86-2.26-1.24-3.97-2.92-5.13-5.04v6.36h-4.74v-6.3c-1.2,2.04-2.88,3.69-5.04,4.95-2.16,1.26-4.62,1.89-7.38,1.89-2.92,0-5.57-.72-7.95-2.16-2.38-1.44-4.25-3.46-5.61-6.06-1.36-2.6-2.04-5.56-2.04-8.88s.69-6.31,2.07-8.85c1.38-2.54,3.27-4.51,5.67-5.91,2.4-1.4,5.12-2.1,8.16-2.1,2.68,0,5.07.57,7.17,1.71,2.1,1.14,3.81,2.77,5.13,4.89v-6.06h4.56v6.06c2.84-4.4,7.02-6.6,12.54-6.6,3.04,0,5.73.69,8.07,2.07s4.15,3.26,5.43,5.64c1.28,2.38,1.92,5.01,1.92,7.89,0,1.16-.08,2.24-.24,3.24ZM779.84,337.99c1.7-.98,3.05-2.4,4.05-4.26,1-1.86,1.5-4.03,1.5-6.51s-.5-4.64-1.5-6.48c-1-1.84-2.35-3.25-4.05-4.23-1.7-.98-3.57-1.47-5.61-1.47s-3.9.48-5.58,1.44c-1.68.96-3.02,2.36-4.02,4.2-1,1.84-1.5,4-1.5,6.48s.5,4.71,1.5,6.57c1,1.86,2.34,3.28,4.02,4.26,1.68.98,3.54,1.47,5.58,1.47s3.91-.49,5.61-1.47ZM811.22,319.69c-.94-1.54-2.22-2.72-3.84-3.54-1.62-.82-3.41-1.23-5.37-1.23-2.88,0-5.37.92-7.47,2.76-2.1,1.84-3.29,4.34-3.57,7.5h21.66c0-2.12-.47-3.95-1.41-5.49Z"/><path class="cls-1" d="M851.15,313.87c2.48,2.42,3.72,5.91,3.72,10.47v19.38h-5.4v-18.6c0-3.28-.82-5.79-2.46-7.53-1.64-1.74-3.88-2.61-6.72-2.61s-5.17.9-6.87,2.7c-1.7,1.8-2.55,4.42-2.55,7.86v18.18h-5.46v-32.88h5.46v4.68c1.08-1.68,2.55-2.98,4.41-3.9,1.86-.92,3.91-1.38,6.15-1.38,4,0,7.24,1.21,9.72,3.63Z"/><path class="cls-1" d="M884.84,312.16c2.14,1.24,3.73,2.8,4.77,4.68v-6h5.52v33.6c0,3-.64,5.67-1.92,8.01-1.28,2.34-3.11,4.17-5.49,5.49-2.38,1.32-5.15,1.98-8.31,1.98-4.32,0-7.92-1.02-10.8-3.06-2.88-2.04-4.58-4.82-5.1-8.34h5.4c.6,2,1.84,3.61,3.72,4.83,1.88,1.22,4.14,1.83,6.78,1.83,3,0,5.45-.94,7.35-2.82,1.9-1.88,2.85-4.52,2.85-7.92v-6.9c-1.08,1.92-2.68,3.52-4.8,4.8-2.12,1.28-4.6,1.92-7.44,1.92s-5.57-.72-7.95-2.16c-2.38-1.44-4.25-3.46-5.61-6.06-1.36-2.6-2.04-5.56-2.04-8.88s.68-6.31,2.04-8.85c1.36-2.54,3.23-4.51,5.61-5.91,2.38-1.4,5.03-2.1,7.95-2.1s5.33.62,7.47,1.86ZM888.11,320.74c-1-1.84-2.35-3.25-4.05-4.23-1.7-.98-3.57-1.47-5.61-1.47s-3.9.48-5.58,1.44c-1.68.96-3.02,2.36-4.02,4.2-1,1.84-1.5,4-1.5,6.48s.5,4.71,1.5,6.57c1,1.86,2.34,3.28,4.02,4.26,1.68.98,3.54,1.47,5.58,1.47s3.91-.49,5.61-1.47c1.7-.98,3.05-2.4,4.05-4.26,1-1.86,1.5-4.03,1.5-6.51s-.5-4.64-1.5-6.48Z"/><path class="cls-1" d="M904.37,318.31c1.36-2.54,3.23-4.51,5.61-5.91,2.38-1.4,5.05-2.1,8.01-2.1,2.56,0,4.94.59,7.14,1.77,2.2,1.18,3.88,2.73,5.04,4.65v-17.4h5.52v44.4h-5.52v-6.18c-1.08,1.96-2.68,3.57-4.8,4.83-2.12,1.26-4.6,1.89-7.44,1.89s-5.57-.72-7.95-2.16c-2.38-1.44-4.25-3.46-5.61-6.06-1.36-2.6-2.04-5.56-2.04-8.88s.68-6.31,2.04-8.85ZM928.67,320.74c-1-1.84-2.35-3.25-4.05-4.23-1.7-.98-3.57-1.47-5.61-1.47s-3.9.48-5.58,1.44c-1.68.96-3.02,2.36-4.02,4.2-1,1.84-1.5,4-1.5,6.48s.5,4.71,1.5,6.57c1,1.86,2.34,3.28,4.02,4.26,1.68.98,3.54,1.47,5.58,1.47s3.91-.49,5.61-1.47c1.7-.98,3.05-2.4,4.05-4.26,1-1.86,1.5-4.03,1.5-6.51s-.5-4.64-1.5-6.48Z"/><path class="cls-1" d="M974.75,329.32h-26.28c.2,3.24,1.31,5.77,3.33,7.59,2.02,1.82,4.47,2.73,7.35,2.73,2.36,0,4.33-.55,5.91-1.65,1.58-1.1,2.69-2.57,3.33-4.41h5.88c-.88,3.16-2.64,5.73-5.28,7.71-2.64,1.98-5.92,2.97-9.84,2.97-3.12,0-5.91-.7-8.37-2.1-2.46-1.4-4.39-3.39-5.79-5.97-1.4-2.58-2.1-5.57-2.1-8.97s.68-6.38,2.04-8.94c1.36-2.56,3.27-4.53,5.73-5.91,2.46-1.38,5.29-2.07,8.49-2.07s5.88.68,8.28,2.04c2.4,1.36,4.25,3.23,5.55,5.61,1.3,2.38,1.95,5.07,1.95,8.07,0,1.04-.06,2.14-.18,3.3ZM967.91,319.51c-.92-1.5-2.17-2.64-3.75-3.42-1.58-.78-3.33-1.17-5.25-1.17-2.76,0-5.11.88-7.05,2.64-1.94,1.76-3.05,4.2-3.33,7.32h20.76c0-2.08-.46-3.87-1.38-5.37Z"/><path class="cls-1" d="M259.35,401.32h-26.28c.2,3.24,1.31,5.77,3.33,7.59,2.02,1.82,4.47,2.73,7.35,2.73,2.36,0,4.33-.55,5.91-1.65,1.58-1.1,2.69-2.57,3.33-4.41h5.88c-.88,3.16-2.64,5.73-5.28,7.71-2.64,1.98-5.92,2.97-9.84,2.97-3.12,0-5.91-.7-8.37-2.1-2.46-1.4-4.39-3.39-5.79-5.97-1.4-2.58-2.1-5.57-2.1-8.97s.68-6.38,2.04-8.94c1.36-2.56,3.27-4.53,5.73-5.91,2.46-1.38,5.29-2.07,8.49-2.07s5.88.68,8.28,2.04c2.4,1.36,4.25,3.23,5.55,5.61,1.3,2.38,1.95,5.07,1.95,8.07,0,1.04-.06,2.14-.18,3.3ZM252.51,391.51c-.92-1.5-2.17-2.64-3.75-3.42-1.58-.78-3.33-1.17-5.25-1.17-2.76,0-5.11.88-7.05,2.64-1.94,1.76-3.05,4.2-3.33,7.32h20.76c0-2.08-.46-3.87-1.38-5.37Z"/><path class="cls-1" d="M292.47,385.87c2.48,2.42,3.72,5.91,3.72,10.47v19.38h-5.4v-18.6c0-3.28-.82-5.79-2.46-7.53-1.64-1.74-3.88-2.61-6.72-2.61s-5.17.9-6.87,2.7c-1.7,1.8-2.55,4.42-2.55,7.86v18.18h-5.46v-32.88h5.46v4.68c1.08-1.68,2.55-2.98,4.41-3.9,1.86-.92,3.91-1.38,6.15-1.38,4,0,7.24,1.21,9.72,3.63Z"/><path class="cls-1" d="M334.95,401.32h-26.28c.2,3.24,1.31,5.77,3.33,7.59,2.02,1.82,4.47,2.73,7.35,2.73,2.36,0,4.33-.55,5.91-1.65,1.58-1.1,2.69-2.57,3.33-4.41h5.88c-.88,3.16-2.64,5.73-5.28,7.71-2.64,1.98-5.92,2.97-9.84,2.97-3.12,0-5.91-.7-8.37-2.1-2.46-1.4-4.39-3.39-5.79-5.97-1.4-2.58-2.1-5.57-2.1-8.97s.68-6.38,2.04-8.94c1.36-2.56,3.27-4.53,5.73-5.91,2.46-1.38,5.29-2.07,8.49-2.07s5.88.68,8.28,2.04c2.4,1.36,4.25,3.23,5.55,5.61,1.3,2.38,1.95,5.07,1.95,8.07,0,1.04-.06,2.14-.18,3.3ZM328.11,391.51c-.92-1.5-2.17-2.64-3.75-3.42-1.58-.78-3.33-1.17-5.25-1.17-2.76,0-5.11.88-7.05,2.64-1.94,1.76-3.05,4.2-3.33,7.32h20.76c0-2.08-.46-3.87-1.38-5.37Z"/><path class="cls-1" d="M351.9,383.8c1.78-1.04,3.95-1.56,6.51-1.56v5.64h-1.44c-6.12,0-9.18,3.32-9.18,9.96v17.88h-5.46v-32.88h5.46v5.34c.96-1.88,2.33-3.34,4.11-4.38Z"/><path class="cls-1" d="M385.74,384.16c2.14,1.24,3.73,2.8,4.77,4.68v-6h5.52v33.6c0,3-.64,5.67-1.92,8.01-1.28,2.34-3.11,4.17-5.49,5.49-2.38,1.32-5.15,1.98-8.31,1.98-4.32,0-7.92-1.02-10.8-3.06-2.88-2.04-4.58-4.82-5.1-8.34h5.4c.6,2,1.84,3.61,3.72,4.83,1.88,1.22,4.14,1.83,6.78,1.83,3,0,5.45-.94,7.35-2.82,1.9-1.88,2.85-4.52,2.85-7.92v-6.9c-1.08,1.92-2.68,3.52-4.8,4.8-2.12,1.28-4.6,1.92-7.44,1.92s-5.57-.72-7.95-2.16c-2.38-1.44-4.25-3.46-5.61-6.06-1.36-2.6-2.04-5.56-2.04-8.88s.68-6.31,2.04-8.85c1.36-2.54,3.23-4.51,5.61-5.91,2.38-1.4,5.03-2.1,7.95-2.1s5.33.62,7.47,1.86ZM389.01,392.74c-1-1.84-2.35-3.25-4.05-4.23-1.7-.98-3.57-1.47-5.61-1.47s-3.9.48-5.58,1.44c-1.68.96-3.02,2.36-4.02,4.2-1,1.84-1.5,4-1.5,6.48s.5,4.71,1.5,6.57c1,1.86,2.34,3.28,4.02,4.26,1.68.98,3.54,1.47,5.58,1.47s3.91-.49,5.61-1.47c1.7-.98,3.05-2.4,4.05-4.26,1-1.86,1.5-4.03,1.5-6.51s-.5-4.64-1.5-6.48Z"/><path class="cls-1" d="M405.45,376.42c-.72-.72-1.08-1.6-1.08-2.64s.36-1.92,1.08-2.64c.72-.72,1.6-1.08,2.64-1.08s1.85.36,2.55,1.08c.7.72,1.05,1.6,1.05,2.64s-.35,1.92-1.05,2.64c-.7.72-1.55,1.08-2.55,1.08s-1.92-.36-2.64-1.08ZM410.73,382.84v32.88h-5.46v-32.88h5.46Z"/><path class="cls-1" d="M440.91,414.97c-2-.86-3.58-2.06-4.74-3.6-1.16-1.54-1.8-3.31-1.92-5.31h5.64c.16,1.64.93,2.98,2.31,4.02,1.38,1.04,3.19,1.56,5.43,1.56,2.08,0,3.72-.46,4.92-1.38,1.2-.92,1.8-2.08,1.8-3.48s-.64-2.51-1.92-3.21c-1.28-.7-3.26-1.39-5.94-2.07-2.44-.64-4.43-1.29-5.97-1.95s-2.86-1.64-3.96-2.94c-1.1-1.3-1.65-3.01-1.65-5.13,0-1.68.5-3.22,1.5-4.62,1-1.4,2.42-2.51,4.26-3.33,1.84-.82,3.94-1.23,6.3-1.23,3.64,0,6.58.92,8.82,2.76,2.24,1.84,3.44,4.36,3.6,7.56h-5.46c-.12-1.72-.81-3.1-2.07-4.14-1.26-1.04-2.95-1.56-5.07-1.56-1.96,0-3.52.42-4.68,1.26s-1.74,1.94-1.74,3.3c0,1.08.35,1.97,1.05,2.67.7.7,1.58,1.26,2.64,1.68,1.06.42,2.53.89,4.41,1.41,2.36.64,4.28,1.27,5.76,1.89,1.48.62,2.75,1.55,3.81,2.79,1.06,1.24,1.61,2.86,1.65,4.86,0,1.8-.5,3.42-1.5,4.86s-2.41,2.57-4.23,3.39c-1.82.82-3.91,1.23-6.27,1.23-2.52,0-4.78-.43-6.78-1.29Z"/><path class="cls-1" d="M473.34,414.16c-2.5-1.4-4.46-3.39-5.88-5.97-1.42-2.58-2.13-5.57-2.13-8.97s.73-6.33,2.19-8.91c1.46-2.58,3.45-4.56,5.97-5.94,2.52-1.38,5.34-2.07,8.46-2.07s5.94.69,8.46,2.07c2.52,1.38,4.51,3.35,5.97,5.91,1.46,2.56,2.19,5.54,2.19,8.94s-.75,6.39-2.25,8.97c-1.5,2.58-3.53,4.57-6.09,5.97-2.56,1.4-5.4,2.1-8.52,2.1s-5.87-.7-8.37-2.1ZM487.23,410.08c1.72-.92,3.11-2.3,4.17-4.14,1.06-1.84,1.59-4.08,1.59-6.72s-.52-4.88-1.56-6.72c-1.04-1.84-2.4-3.21-4.08-4.11s-3.5-1.35-5.46-1.35-3.83.45-5.49,1.35c-1.66.9-2.99,2.27-3.99,4.11-1,1.84-1.5,4.08-1.5,6.72s.49,4.94,1.47,6.78c.98,1.84,2.29,3.21,3.93,4.11s3.44,1.35,5.4,1.35,3.8-.46,5.52-1.38Z"/><path class="cls-1" d="M552.15,383.83c2,1.06,3.58,2.65,4.74,4.77,1.16,2.12,1.74,4.7,1.74,7.74v19.38h-5.4v-18.6c0-3.28-.81-5.79-2.43-7.53-1.62-1.74-3.81-2.61-6.57-2.61s-5.1.91-6.78,2.73c-1.68,1.82-2.52,4.45-2.52,7.89v18.12h-5.4v-18.6c0-3.28-.81-5.79-2.43-7.53-1.62-1.74-3.81-2.61-6.57-2.61s-5.1.91-6.78,2.73c-1.68,1.82-2.52,4.45-2.52,7.89v18.12h-5.46v-32.88h5.46v4.74c1.08-1.72,2.53-3.04,4.35-3.96,1.82-.92,3.83-1.38,6.03-1.38,2.76,0,5.2.62,7.32,1.86,2.12,1.24,3.7,3.06,4.74,5.46.92-2.32,2.44-4.12,4.56-5.4,2.12-1.28,4.48-1.92,7.08-1.92s4.84.53,6.84,1.59Z"/><path class="cls-6" d="M579.93,382.78c0-2.16.56-4.13,1.68-5.91,1.12-1.78,2.82-3.2,5.1-4.26,2.28-1.06,5.08-1.59,8.4-1.59s6.11.53,8.37,1.59c2.26,1.06,3.95,2.48,5.07,4.26,1.12,1.78,1.68,3.75,1.68,5.91s-.51,4.04-1.53,5.64c-1.02,1.6-2.39,2.86-4.11,3.78,2.16,1.04,3.82,2.47,4.98,4.29,1.16,1.82,1.74,3.95,1.74,6.39,0,2.84-.72,5.29-2.16,7.35-1.44,2.06-3.39,3.63-5.85,4.71-2.46,1.08-5.19,1.62-8.19,1.62s-5.73-.54-8.19-1.62c-2.46-1.08-4.41-2.65-5.85-4.71-1.44-2.06-2.16-4.51-2.16-7.35,0-2.48.58-4.63,1.74-6.45,1.16-1.82,2.8-3.23,4.92-4.23-3.76-2-5.64-5.14-5.64-9.42ZM590.55,398.17c-1.16,1.02-1.74,2.43-1.74,4.23,0,1.68.57,3.06,1.71,4.14,1.14,1.08,2.67,1.62,4.59,1.62s3.43-.54,4.53-1.62c1.1-1.08,1.65-2.46,1.65-4.14s-.57-3.16-1.71-4.2c-1.14-1.04-2.63-1.56-4.47-1.56s-3.4.51-4.56,1.53ZM598.86,380.53c-.94-.9-2.19-1.35-3.75-1.35s-2.81.46-3.75,1.38c-.94.92-1.41,2.2-1.41,3.84s.48,2.79,1.44,3.69c.96.9,2.2,1.35,3.72,1.35s2.76-.46,3.72-1.38c.96-.92,1.44-2.16,1.44-3.72,0-1.64-.47-2.91-1.41-3.81Z"/><path class="cls-6" d="M651.45,415.72l-10.2-14.04v14.04h-10.26v-44.4h10.26v24.54l10.14-13.62h12.66l-13.92,16.8,14.04,16.68h-12.72Z"/><path class="cls-6" d="M720.72,385.66c2.46,2.52,3.69,6.02,3.69,10.5v19.56h-10.2v-18.18c0-2.16-.57-3.83-1.71-5.01-1.14-1.18-2.71-1.77-4.71-1.77s-3.57.59-4.71,1.77c-1.14,1.18-1.71,2.85-1.71,5.01v18.18h-10.2v-18.18c0-2.16-.57-3.83-1.71-5.01-1.14-1.18-2.71-1.77-4.71-1.77s-3.57.59-4.71,1.77c-1.14,1.18-1.71,2.85-1.71,5.01v18.18h-10.26v-33.48h10.26v4.2c1.04-1.4,2.4-2.51,4.08-3.33,1.68-.82,3.58-1.23,5.7-1.23,2.52,0,4.77.54,6.75,1.62,1.98,1.08,3.53,2.62,4.65,4.62,1.16-1.84,2.74-3.34,4.74-4.5,2-1.16,4.18-1.74,6.54-1.74,4.16,0,7.47,1.26,9.93,3.78Z"/><path class="cls-6" d="M758.73,383.2c1.76-.96,3.82-1.44,6.18-1.44,2.76,0,5.26.7,7.5,2.1,2.24,1.4,4.01,3.4,5.31,6,1.3,2.6,1.95,5.62,1.95,9.06s-.65,6.47-1.95,9.09c-1.3,2.62-3.07,4.64-5.31,6.06-2.24,1.42-4.74,2.13-7.5,2.13-2.32,0-4.37-.48-6.15-1.44s-3.17-2.2-4.17-3.72v20.64h-10.26v-49.44h10.26v4.74c1-1.56,2.38-2.82,4.14-3.78ZM767.1,392.89c-1.42-1.46-3.17-2.19-5.25-2.19s-3.77.74-5.19,2.22c-1.42,1.48-2.13,3.5-2.13,6.06s.71,4.58,2.13,6.06c1.42,1.48,3.15,2.22,5.19,2.22s3.78-.75,5.22-2.25c1.44-1.5,2.16-3.53,2.16-6.09s-.71-4.57-2.13-6.03Z"/><path class="cls-6" d="M784.97,389.86c1.3-2.6,3.07-4.6,5.31-6,2.24-1.4,4.74-2.1,7.5-2.1,2.36,0,4.43.48,6.21,1.44,1.78.96,3.15,2.22,4.11,3.78v-4.74h10.26v33.48h-10.26v-4.74c-1,1.56-2.39,2.82-4.17,3.78-1.78.96-3.85,1.44-6.21,1.44-2.72,0-5.2-.71-7.44-2.13-2.24-1.42-4.01-3.44-5.31-6.06-1.3-2.62-1.95-5.65-1.95-9.09s.65-6.46,1.95-9.06ZM805.97,392.92c-1.42-1.48-3.15-2.22-5.19-2.22s-3.77.73-5.19,2.19c-1.42,1.46-2.13,3.47-2.13,6.03s.71,4.59,2.13,6.09c1.42,1.5,3.15,2.25,5.19,2.25s3.77-.74,5.19-2.22c1.42-1.48,2.13-3.5,2.13-6.06s-.71-4.58-2.13-6.06ZM807.18,377.8c-1.42,1.32-3.17,1.98-5.25,1.98s-3.82-.66-5.22-1.98c-1.4-1.32-2.1-3.08-2.1-5.28s.7-3.96,2.1-5.28,3.14-1.98,5.22-1.98,3.83.66,5.25,1.98c1.42,1.32,2.13,3.08,2.13,5.28s-.71,3.96-2.13,5.28ZM804,370.39c-.54-.54-1.23-.81-2.07-.81s-1.47.27-2.01.81c-.54.54-.81,1.25-.81,2.13s.27,1.54.81,2.1c.54.56,1.21.84,2.01.84s1.53-.28,2.07-.84c.54-.56.81-1.26.81-2.1s-.27-1.59-.81-2.13Z"/><path class="cls-6" d="M869.9,401.44h-23.22c.16,2.08.83,3.67,2.01,4.77,1.18,1.1,2.63,1.65,4.35,1.65,2.56,0,4.34-1.08,5.34-3.24h10.92c-.56,2.2-1.57,4.18-3.03,5.94-1.46,1.76-3.29,3.14-5.49,4.14-2.2,1-4.66,1.5-7.38,1.5-3.28,0-6.2-.7-8.76-2.1-2.56-1.4-4.56-3.4-6-6-1.44-2.6-2.16-5.64-2.16-9.12s.71-6.52,2.13-9.12c1.42-2.6,3.41-4.6,5.97-6,2.56-1.4,5.5-2.1,8.82-2.1s6.12.68,8.64,2.04c2.52,1.36,4.49,3.3,5.91,5.82,1.42,2.52,2.13,5.46,2.13,8.82,0,.96-.06,1.96-.18,3ZM859.58,395.74c0-1.76-.6-3.16-1.8-4.2-1.2-1.04-2.7-1.56-4.5-1.56s-3.17.5-4.35,1.5c-1.18,1-1.91,2.42-2.19,4.26h12.84Z"/><path class="cls-6" d="M905.27,385.69c2.34,2.54,3.51,6.03,3.51,10.47v19.56h-10.2v-18.18c0-2.24-.58-3.98-1.74-5.22-1.16-1.24-2.72-1.86-4.68-1.86s-3.52.62-4.68,1.86c-1.16,1.24-1.74,2.98-1.74,5.22v18.18h-10.26v-33.48h10.26v4.44c1.04-1.48,2.44-2.65,4.2-3.51,1.76-.86,3.74-1.29,5.94-1.29,3.92,0,7.05,1.27,9.39,3.81Z"/><path class="cls-6" d="M960.02,401.44h-23.22c.16,2.08.83,3.67,2.01,4.77,1.18,1.1,2.63,1.65,4.35,1.65,2.56,0,4.34-1.08,5.34-3.24h10.92c-.56,2.2-1.57,4.18-3.03,5.94-1.46,1.76-3.29,3.14-5.49,4.14-2.2,1-4.66,1.5-7.38,1.5-3.28,0-6.2-.7-8.76-2.1-2.56-1.4-4.56-3.4-6-6-1.44-2.6-2.16-5.64-2.16-9.12s.71-6.52,2.13-9.12c1.42-2.6,3.41-4.6,5.97-6,2.56-1.4,5.5-2.1,8.82-2.1s6.12.68,8.64,2.04c2.52,1.36,4.49,3.3,5.91,5.82,1.42,2.52,2.13,5.46,2.13,8.82,0,.96-.06,1.96-.18,3ZM949.7,395.74c0-1.76-.6-3.16-1.8-4.2-1.2-1.04-2.7-1.56-4.5-1.56s-3.17.5-4.35,1.5c-1.18,1-1.91,2.42-2.19,4.26h12.84Z"/><path class="cls-6" d="M975.86,371.32v44.4h-10.26v-44.4h10.26Z"/><path class="cls-6" d="M495.18,486.7c-2.28-1-4.08-2.37-5.4-4.11-1.32-1.74-2.06-3.69-2.22-5.85h10.14c.12,1.16.66,2.1,1.62,2.82.96.72,2.14,1.08,3.54,1.08,1.28,0,2.27-.25,2.97-.75.7-.5,1.05-1.15,1.05-1.95,0-.96-.5-1.67-1.5-2.13-1-.46-2.62-.97-4.86-1.53-2.4-.56-4.4-1.15-6-1.77-1.6-.62-2.98-1.6-4.14-2.94-1.16-1.34-1.74-3.15-1.74-5.43,0-1.92.53-3.67,1.59-5.25,1.06-1.58,2.62-2.83,4.68-3.75,2.06-.92,4.51-1.38,7.35-1.38,4.2,0,7.51,1.04,9.93,3.12,2.42,2.08,3.81,4.84,4.17,8.28h-9.48c-.16-1.16-.67-2.08-1.53-2.76-.86-.68-1.99-1.02-3.39-1.02-1.2,0-2.12.23-2.76.69-.64.46-.96,1.09-.96,1.89,0,.96.51,1.68,1.53,2.16s2.61.96,4.77,1.44c2.48.64,4.5,1.27,6.06,1.89,1.56.62,2.93,1.62,4.11,3s1.79,3.23,1.83,5.55c0,1.96-.55,3.71-1.65,5.25-1.1,1.54-2.68,2.75-4.74,3.63s-4.45,1.32-7.17,1.32c-2.92,0-5.52-.5-7.8-1.5Z"/><path class="cls-6" d="M522.93,461.86c1.42-2.6,3.4-4.6,5.94-6,2.54-1.4,5.45-2.1,8.73-2.1,4.2,0,7.71,1.1,10.53,3.3,2.82,2.2,4.67,5.3,5.55,9.3h-10.92c-.92-2.56-2.7-3.84-5.34-3.84-1.88,0-3.38.73-4.5,2.19-1.12,1.46-1.68,3.55-1.68,6.27s.56,4.81,1.68,6.27c1.12,1.46,2.62,2.19,4.5,2.19,2.64,0,4.42-1.28,5.34-3.84h10.92c-.88,3.92-2.74,7-5.58,9.24-2.84,2.24-6.34,3.36-10.5,3.36-3.28,0-6.19-.7-8.73-2.1-2.54-1.4-4.52-3.4-5.94-6-1.42-2.6-2.13-5.64-2.13-9.12s.71-6.52,2.13-9.12Z"/><path class="cls-6" d="M565.53,486.1c-2.62-1.4-4.68-3.4-6.18-6-1.5-2.6-2.25-5.64-2.25-9.12s.76-6.47,2.28-9.09c1.52-2.62,3.6-4.63,6.24-6.03,2.64-1.4,5.6-2.1,8.88-2.1s6.24.7,8.88,2.1c2.64,1.4,4.72,3.41,6.24,6.03,1.52,2.62,2.28,5.65,2.28,9.09s-.77,6.47-2.31,9.09c-1.54,2.62-3.64,4.63-6.3,6.03-2.66,1.4-5.63,2.1-8.91,2.1s-6.23-.7-8.85-2.1ZM579.39,477.16c1.38-1.44,2.07-3.5,2.07-6.18s-.67-4.74-2.01-6.18c-1.34-1.44-2.99-2.16-4.95-2.16s-3.66.71-4.98,2.13c-1.32,1.42-1.98,3.49-1.98,6.21s.65,4.74,1.95,6.18c1.3,1.44,2.93,2.16,4.89,2.16s3.63-.72,5.01-2.16Z"/><path class="cls-6" d="M603.75,486.1c-2.62-1.4-4.68-3.4-6.18-6-1.5-2.6-2.25-5.64-2.25-9.12s.76-6.47,2.28-9.09c1.52-2.62,3.6-4.63,6.24-6.03,2.64-1.4,5.6-2.1,8.88-2.1s6.24.7,8.88,2.1c2.64,1.4,4.72,3.41,6.24,6.03,1.52,2.62,2.28,5.65,2.28,9.09s-.77,6.47-2.31,9.09c-1.54,2.62-3.64,4.63-6.3,6.03-2.66,1.4-5.63,2.1-8.91,2.1s-6.23-.7-8.85-2.1ZM617.61,477.16c1.38-1.44,2.07-3.5,2.07-6.18s-.67-4.74-2.01-6.18-2.99-2.16-4.95-2.16-3.66.71-4.98,2.13c-1.32,1.42-1.98,3.49-1.98,6.21s.65,4.74,1.95,6.18c1.3,1.44,2.93,2.16,4.89,2.16s3.63-.72,5.01-2.16Z"/><path class="cls-6" d="M654.24,479.02v8.7h-5.22c-3.72,0-6.62-.91-8.7-2.73-2.08-1.82-3.12-4.79-3.12-8.91v-13.32h-4.08v-8.52h4.08v-8.16h10.26v8.16h6.72v8.52h-6.72v13.44c0,1,.24,1.72.72,2.16.48.44,1.28.66,2.4.66h3.66Z"/><path class="cls-6" d="M691.32,473.44h-23.22c.16,2.08.83,3.67,2.01,4.77,1.18,1.1,2.63,1.65,4.35,1.65,2.56,0,4.34-1.08,5.34-3.24h10.92c-.56,2.2-1.57,4.18-3.03,5.94-1.46,1.76-3.29,3.14-5.49,4.14-2.2,1-4.66,1.5-7.38,1.5-3.28,0-6.2-.7-8.76-2.1-2.56-1.4-4.56-3.4-6-6-1.44-2.6-2.16-5.64-2.16-9.12s.71-6.52,2.13-9.12c1.42-2.6,3.41-4.6,5.97-6,2.56-1.4,5.5-2.1,8.82-2.1s6.12.68,8.64,2.04c2.52,1.36,4.49,3.3,5.91,5.82s2.13,5.46,2.13,8.82c0,.96-.06,1.96-.18,3ZM681,467.74c0-1.76-.6-3.16-1.8-4.2-1.2-1.04-2.7-1.56-4.5-1.56s-3.17.5-4.35,1.5c-1.18,1-1.91,2.42-2.19,4.26h12.84Z"/><path class="cls-6" d="M711.66,455.47c1.8-1.06,3.8-1.59,6-1.59v10.86h-2.82c-2.56,0-4.48.55-5.76,1.65-1.28,1.1-1.92,3.03-1.92,5.79v15.54h-10.26v-33.48h10.26v5.58c1.2-1.84,2.7-3.29,4.5-4.35Z"/><line class="cls-9" x1="358.64" y1="1331.33" x2="519.16" y2="1331.33"/><line class="cls-9" x1="589.8" y1="1331.33" x2="750.32" y2="1331.33"/><line class="cls-9" x1="820.48" y1="1331.33" x2="981" y2="1331.33"/></svg>