<?xml version="1.0" encoding="UTF-8"?><svg id="Layer_1" xmlns="http://www.w3.org/2000/svg" viewBox="0 0 1143 1450"><defs><style>.cls-1,.cls-2,.cls-3,.cls-4,.cls-5,.cls-6{stroke-width:0px;}.cls-2{fill:#147350;}.cls-3{fill:#a7ce9d;}.cls-4{fill:#ecedec;}.cls-5{fill:#eb9143;}.cls-6{fill:#ffdfa2;}</style></defs><path class="cls-6" d="M98.63,0h942.69c54.47,0,98.63,44.26,98.63,98.85v1250.59c0,54.59-44.16,98.85-98.63,98.85H98.63c-54.47,0-98.63-44.26-98.63-98.85V98.85C0,44.26,44.16,0,98.63,0Z"/><circle class="cls-3" cx="589.22" cy="954.87" r="351.71"/><path class="cls-2" d="M432.51,1020.43c103.1-5.16,201.83-119.19,135.38-163.41-29.67-19.74,75.51-53.25,76.73-81.15,3.69-84.84-61.6-74.34-103.65-115.28-32.24-31.39-121.09,5.17-159.27,27.74-10.95,6.47-42.12,40.57-41.03,53.24.89,10.31-9.75,33.02-11.8,42.79-7.38,35.04-23.98,41.68-47.22,62.71-17.82,16.12-34.25,56.63-33.23,129.69.56,40.29,37.32,70.36,76.96,63.16l107.14-19.48h0Z"/><path class="cls-2" d="M686.66,1255.95s-9.13-70.55,34.86-102.92,60.59,17.43,78.85,0c18.26-17.43,21.58-69.72,37.35-79.68,15.77-9.96,57.27-16.6,52.29,8.3-4.33,21.66-28.12,74.07-34.25,87.36-.95,2.06-2.19,3.96-3.7,5.66-12.39,14.02-71.86,79.52-80.19,79.88-9.5.41-88.93,54.61-85.21,1.38v.02Z"/><path class="cls-6" d="M604.17,577.58v370.69l315.78,163.53s241.81-447.69-315.78-534.22h0Z"/><path class="cls-4" d="M815.85,892.78c-129.42-113.69-323.85-113.69-453.27,0-9.16,8.02-22.52,9.17-30.15,1.71q-5.09-4.97,0,0c-7.63-7.43-5.81-21.74,4.59-30.86,144.02-126.51,360.37-126.51,504.38,0,10.4,9.12,12.22,23.43,4.59,30.86h0c-7.64,7.45-20.98,6.31-30.15-1.71h0Z"/><path class="cls-4" d="M741.81,948.82c-88.29-73.26-216.89-73.26-305.18,0-9.3,7.67-22.63,8.85-30.31,1.43q-5.12-4.95,0,0c-7.66-7.39-5.52-22.1,5.59-31.3,102.6-85.13,252.03-85.13,354.62,0,11.1,9.2,13.26,23.91,5.59,31.3h0c-7.69,7.42-21.01,6.24-30.31-1.43Z"/><path class="cls-4" d="M673.1,1005.2c-49.84-36.34-117.93-36.34-167.77,0-9.58,6.89-22.89,8.14-30.66.81h0c-7.76-7.28-4.85-22.92,7.86-32.17,63.4-46.22,149.99-46.22,213.38,0,12.71,9.25,15.62,24.89,7.86,32.17h0c-7.77,7.33-21.09,6.09-30.66-.81h0Z"/><path class="cls-4" d="M624.06,1062.38c-21.72-11.54-47.97-11.54-69.69,0-10.09,5.14-23.41,6.53-31.38-.61h0c-7.99-7.02-3.35-24.86,13.19-33.64,33.06-17.57,73.01-17.57,106.07,0,16.54,8.77,21.18,26.62,13.19,33.64q-5.33,4.68,0,0c-7.96,7.14-21.29,5.75-31.38.61Z"/><circle class="cls-4" cx="589.22" cy="1109.31" r="31.69"/><path class="cls-5" d="M144.24,229.6v42.12h-10.26v-42.12h10.26Z"/><path class="cls-5" d="M181.46,241.69c2.34,2.54,3.51,6.03,3.51,10.47v19.56h-10.2v-18.18c0-2.24-.58-3.98-1.74-5.22-1.16-1.24-2.72-1.86-4.68-1.86s-3.52.62-4.68,1.86c-1.16,1.24-1.74,2.98-1.74,5.22v18.18h-10.26v-33.48h10.26v4.44c1.04-1.48,2.44-2.65,4.2-3.51,1.76-.86,3.74-1.29,5.94-1.29,3.92,0,7.05,1.27,9.39,3.81Z"/><path class="cls-5" d="M210.77,263.02v8.7h-5.22c-3.72,0-6.62-.91-8.7-2.73-2.08-1.82-3.12-4.79-3.12-8.91v-13.32h-4.08v-8.52h4.08v-8.16h10.26v8.16h6.72v8.52h-6.72v13.44c0,1,.24,1.72.72,2.16.48.44,1.28.66,2.4.66h3.66Z"/><path class="cls-5" d="M247.85,257.44h-23.22c.16,2.08.83,3.67,2.01,4.77,1.18,1.1,2.63,1.65,4.35,1.65,2.56,0,4.34-1.08,5.34-3.24h10.92c-.56,2.2-1.57,4.18-3.03,5.94-1.46,1.76-3.29,3.14-5.49,4.14-2.2,1-4.66,1.5-7.38,1.5-3.28,0-6.2-.7-8.76-2.1-2.56-1.4-4.56-3.4-6-6-1.44-2.6-2.16-5.64-2.16-9.12s.71-6.52,2.13-9.12c1.42-2.6,3.41-4.6,5.97-6,2.56-1.4,5.5-2.1,8.82-2.1s6.12.68,8.64,2.04c2.52,1.36,4.49,3.3,5.91,5.82,1.42,2.52,2.13,5.46,2.13,8.82,0,.96-.06,1.96-.18,3ZM237.53,251.74c0-1.76-.6-3.16-1.8-4.2-1.2-1.04-2.7-1.56-4.5-1.56s-3.17.5-4.35,1.5c-1.18,1-1.91,2.42-2.19,4.26h12.84Z"/><path class="cls-5" d="M268.19,239.47c1.8-1.06,3.8-1.59,6-1.59v10.86h-2.82c-2.56,0-4.48.55-5.76,1.65-1.28,1.1-1.92,3.03-1.92,5.79v15.54h-10.26v-33.48h10.26v5.58c1.2-1.84,2.7-3.29,4.5-4.35Z"/><path class="cls-5" d="M308.9,241.69c2.34,2.54,3.51,6.03,3.51,10.47v19.56h-10.2v-18.18c0-2.24-.58-3.98-1.74-5.22-1.16-1.24-2.72-1.86-4.68-1.86s-3.52.62-4.68,1.86c-1.16,1.24-1.74,2.98-1.74,5.22v18.18h-10.26v-33.48h10.26v4.44c1.04-1.48,2.44-2.65,4.2-3.51,1.76-.86,3.74-1.29,5.94-1.29,3.92,0,7.05,1.27,9.39,3.81Z"/><path class="cls-5" d="M350.93,257.44h-23.22c.16,2.08.83,3.67,2.01,4.77,1.18,1.1,2.63,1.65,4.35,1.65,2.56,0,4.34-1.08,5.34-3.24h10.92c-.56,2.2-1.57,4.18-3.03,5.94-1.46,1.76-3.29,3.14-5.49,4.14-2.2,1-4.66,1.5-7.38,1.5-3.28,0-6.2-.7-8.76-2.1-2.56-1.4-4.56-3.4-6-6-1.44-2.6-2.16-5.64-2.16-9.12s.71-6.52,2.13-9.12c1.42-2.6,3.41-4.6,5.97-6,2.56-1.4,5.5-2.1,8.82-2.1s6.12.68,8.64,2.04c2.52,1.36,4.49,3.3,5.91,5.82,1.42,2.52,2.13,5.46,2.13,8.82,0,.96-.06,1.96-.18,3ZM340.61,251.74c0-1.76-.6-3.16-1.8-4.2-1.2-1.04-2.7-1.56-4.5-1.56s-3.17.5-4.35,1.5c-1.18,1-1.91,2.42-2.19,4.26h12.84Z"/><path class="cls-5" d="M375.17,263.02v8.7h-5.22c-3.72,0-6.62-.91-8.7-2.73-2.08-1.82-3.12-4.79-3.12-8.91v-13.32h-4.08v-8.52h4.08v-8.16h10.26v8.16h6.72v8.52h-6.72v13.44c0,1,.24,1.72.72,2.16.48.44,1.28.66,2.4.66h3.66Z"/><path class="cls-5" d="M399.53,263.02v8.7h-5.22c-3.72,0-6.62-.91-8.7-2.73-2.08-1.82-3.12-4.79-3.12-8.91v-13.32h-4.08v-8.52h4.08v-8.16h10.26v8.16h6.72v8.52h-6.72v13.44c0,1,.24,1.72.72,2.16.48.44,1.28.66,2.4.66h3.66Z"/><path class="cls-5" d="M436.61,257.44h-23.22c.16,2.08.83,3.67,2.01,4.77,1.18,1.1,2.63,1.65,4.35,1.65,2.56,0,4.34-1.08,5.34-3.24h10.92c-.56,2.2-1.57,4.18-3.03,5.94-1.46,1.76-3.29,3.14-5.49,4.14-2.2,1-4.66,1.5-7.38,1.5-3.28,0-6.2-.7-8.76-2.1-2.56-1.4-4.56-3.4-6-6-1.44-2.6-2.16-5.64-2.16-9.12s.71-6.52,2.13-9.12c1.42-2.6,3.41-4.6,5.97-6,2.56-1.4,5.5-2.1,8.82-2.1s6.12.68,8.64,2.04c2.52,1.36,4.49,3.3,5.91,5.82,1.42,2.52,2.13,5.46,2.13,8.82,0,.96-.06,1.96-.18,3ZM426.29,251.74c0-1.76-.6-3.16-1.8-4.2-1.2-1.04-2.7-1.56-4.5-1.56s-3.17.5-4.35,1.5c-1.18,1-1.91,2.42-2.19,4.26h12.84Z"/><path class="cls-5" d="M460.85,263.02v8.7h-5.22c-3.72,0-6.62-.91-8.7-2.73-2.08-1.82-3.12-4.79-3.12-8.91v-13.32h-4.08v-8.52h4.08v-8.16h10.26v8.16h6.72v8.52h-6.72v13.44c0,1,.24,1.72.72,2.16.48.44,1.28.66,2.4.66h3.66Z"/><path class="cls-5" d="M494.33,262.12l7.26-23.88h10.92l-11.88,33.48h-12.66l-11.88-33.48h10.98l7.26,23.88Z"/><path class="cls-5" d="M517.58,233.17c-1.14-1.06-1.71-2.37-1.71-3.93s.57-2.93,1.71-3.99c1.14-1.06,2.61-1.59,4.41-1.59s3.21.53,4.35,1.59c1.14,1.06,1.71,2.39,1.71,3.99s-.57,2.87-1.71,3.93c-1.14,1.06-2.59,1.59-4.35,1.59s-3.27-.53-4.41-1.59ZM527.09,238.24v33.48h-10.26v-33.48h10.26Z"/><path class="cls-5" d="M544.79,227.32v44.4h-10.26v-44.4h10.26Z"/><path class="cls-5" d="M581.75,246.76h-5.52v24.96h-10.26v-24.96h-3.72v-8.52h3.72v-.96c0-4.12,1.18-7.25,3.54-9.39,2.36-2.14,5.82-3.21,10.38-3.21.76,0,1.32.02,1.68.06v8.7c-1.96-.12-3.34.16-4.14.84-.8.68-1.2,1.9-1.2,3.66v.3h5.52v8.52Z"/><path class="cls-5" d="M592.94,270.1c-2.62-1.4-4.68-3.4-6.18-6-1.5-2.6-2.25-5.64-2.25-9.12s.76-6.47,2.28-9.09c1.52-2.62,3.6-4.63,6.24-6.03,2.64-1.4,5.6-2.1,8.88-2.1s6.24.7,8.88,2.1c2.64,1.4,4.72,3.41,6.24,6.03,1.52,2.62,2.28,5.65,2.28,9.09s-.77,6.47-2.31,9.09c-1.54,2.62-3.64,4.63-6.3,6.03-2.66,1.4-5.63,2.1-8.91,2.1s-6.23-.7-8.85-2.1ZM606.8,261.16c1.38-1.44,2.07-3.5,2.07-6.18s-.67-4.74-2.01-6.18c-1.34-1.44-2.99-2.16-4.95-2.16s-3.66.71-4.98,2.13c-1.32,1.42-1.98,3.49-1.98,6.21s.65,4.74,1.95,6.18c1.3,1.44,2.93,2.16,4.89,2.16s3.63-.72,5.01-2.16Z"/><path class="cls-5" d="M639.53,239.47c1.8-1.06,3.8-1.59,6-1.59v10.86h-2.82c-2.56,0-4.48.55-5.76,1.65-1.28,1.1-1.92,3.03-1.92,5.79v15.54h-10.26v-33.48h10.26v5.58c1.2-1.84,2.7-3.29,4.5-4.35Z"/><path class="cls-5" d="M664.85,239.2c1.8-.96,3.86-1.44,6.18-1.44,2.76,0,5.26.7,7.5,2.1,2.24,1.4,4.01,3.4,5.31,6,1.3,2.6,1.95,5.62,1.95,9.06s-.65,6.47-1.95,9.09c-1.3,2.62-3.07,4.64-5.31,6.06-2.24,1.42-4.74,2.13-7.5,2.13-2.36,0-4.42-.47-6.18-1.41-1.76-.94-3.14-2.19-4.14-3.75v4.68h-10.26v-44.4h10.26v15.66c.96-1.56,2.34-2.82,4.14-3.78ZM673.22,248.89c-1.42-1.46-3.17-2.19-5.25-2.19s-3.77.74-5.19,2.22c-1.42,1.48-2.13,3.5-2.13,6.06s.71,4.58,2.13,6.06c1.42,1.48,3.15,2.22,5.19,2.22s3.78-.75,5.22-2.25,2.16-3.53,2.16-6.09-.71-4.57-2.13-6.03Z"/><path class="cls-5" d="M705.95,239.47c1.8-1.06,3.8-1.59,6-1.59v10.86h-2.82c-2.56,0-4.48.55-5.76,1.65-1.28,1.1-1.92,3.03-1.92,5.79v15.54h-10.26v-33.48h10.26v5.58c1.2-1.84,2.7-3.29,4.5-4.35Z"/><path class="cls-5" d="M749.93,238.24v33.48h-10.26v-4.56c-1.04,1.48-2.45,2.67-4.23,3.57-1.78.9-3.75,1.35-5.91,1.35-2.56,0-4.82-.57-6.78-1.71s-3.48-2.79-4.56-4.95c-1.08-2.16-1.62-4.7-1.62-7.62v-19.56h10.2v18.18c0,2.24.58,3.98,1.74,5.22,1.16,1.24,2.72,1.86,4.68,1.86s3.58-.62,4.74-1.86c1.16-1.24,1.74-2.98,1.74-5.22v-18.18h10.26Z"/><path class="cls-5" d="M776.24,239.2c1.78.96,3.15,2.22,4.11,3.78v-4.74h10.26v33.42c0,3.08-.61,5.87-1.83,8.37-1.22,2.5-3.08,4.49-5.58,5.97-2.5,1.48-5.61,2.22-9.33,2.22-4.96,0-8.98-1.17-12.06-3.51-3.08-2.34-4.84-5.51-5.28-9.51h10.14c.32,1.28,1.08,2.29,2.28,3.03,1.2.74,2.68,1.11,4.44,1.11,2.12,0,3.81-.61,5.07-1.83,1.26-1.22,1.89-3.17,1.89-5.85v-4.74c-1,1.56-2.38,2.83-4.14,3.81-1.76.98-3.82,1.47-6.18,1.47-2.76,0-5.26-.71-7.5-2.13-2.24-1.42-4.01-3.44-5.31-6.06-1.3-2.62-1.95-5.65-1.95-9.09s.65-6.46,1.95-9.06c1.3-2.6,3.07-4.6,5.31-6,2.24-1.4,4.74-2.1,7.5-2.1,2.36,0,4.43.48,6.21,1.44ZM778.22,248.92c-1.42-1.48-3.15-2.22-5.19-2.22s-3.77.73-5.19,2.19c-1.42,1.46-2.13,3.47-2.13,6.03s.71,4.59,2.13,6.09c1.42,1.5,3.15,2.25,5.19,2.25s3.77-.74,5.19-2.22c1.42-1.48,2.13-3.5,2.13-6.06s-.71-4.58-2.13-6.06Z"/><path class="cls-5" d="M829.43,257.44h-23.22c.16,2.08.83,3.67,2.01,4.77,1.18,1.1,2.63,1.65,4.35,1.65,2.56,0,4.34-1.08,5.34-3.24h10.92c-.56,2.2-1.57,4.18-3.03,5.94-1.46,1.76-3.29,3.14-5.49,4.14-2.2,1-4.66,1.5-7.38,1.5-3.28,0-6.2-.7-8.76-2.1-2.56-1.4-4.56-3.4-6-6-1.44-2.6-2.16-5.64-2.16-9.12s.71-6.52,2.13-9.12c1.42-2.6,3.41-4.6,5.97-6,2.56-1.4,5.5-2.1,8.82-2.1s6.12.68,8.64,2.04c2.52,1.36,4.49,3.3,5.91,5.82,1.42,2.52,2.13,5.46,2.13,8.82,0,.96-.06,1.96-.18,3ZM819.11,251.74c0-1.76-.6-3.16-1.8-4.2-1.2-1.04-2.7-1.56-4.5-1.56s-3.17.5-4.35,1.5c-1.18,1-1.91,2.42-2.19,4.26h12.84Z"/><path class="cls-5" d="M848.21,262c3.92-3.24,7.01-5.9,9.27-7.98,2.26-2.08,4.17-4.26,5.73-6.54,1.56-2.28,2.34-4.5,2.34-6.66,0-1.64-.38-2.92-1.14-3.84-.76-.92-1.9-1.38-3.42-1.38s-2.71.57-3.57,1.71c-.86,1.14-1.29,2.75-1.29,4.83h-9.9c.08-3.4.81-6.24,2.19-8.52,1.38-2.28,3.2-3.96,5.46-5.04,2.26-1.08,4.77-1.62,7.53-1.62,4.76,0,8.35,1.22,10.77,3.66,2.42,2.44,3.63,5.62,3.63,9.54,0,4.28-1.46,8.25-4.38,11.91-2.92,3.66-6.64,7.23-11.16,10.71h16.2v8.34h-30.12v-7.62c1.36-1.08,1.98-1.58,1.86-1.5Z"/><path class="cls-5" d="M884.96,232.96c2.66-3.96,6.95-5.94,12.87-5.94s10.21,1.98,12.87,5.94c2.66,3.96,3.99,9.38,3.99,16.26s-1.33,12.42-3.99,16.38-6.95,5.94-12.87,5.94-10.21-1.98-12.87-5.94c-2.66-3.96-3.99-9.42-3.99-16.38s1.33-12.3,3.99-16.26ZM903.29,239.89c-.88-2.18-2.7-3.27-5.46-3.27s-4.58,1.09-5.46,3.27c-.88,2.18-1.32,5.29-1.32,9.33,0,2.72.16,4.97.48,6.75.32,1.78.97,3.22,1.95,4.32.98,1.1,2.43,1.65,4.35,1.65s3.37-.55,4.35-1.65c.98-1.1,1.63-2.54,1.95-4.32.32-1.78.48-4.03.48-6.75,0-4.04-.44-7.15-1.32-9.33Z"/><path class="cls-5" d="M922.04,231.46c1.86-1.76,4.27-2.64,7.23-2.64s5.36.88,7.2,2.64c1.84,1.76,2.76,4.26,2.76,7.5s-.92,5.74-2.76,7.5c-1.84,1.76-4.24,2.64-7.2,2.64s-5.37-.88-7.23-2.64c-1.86-1.76-2.79-4.26-2.79-7.5s.93-5.74,2.79-7.5ZM926.33,238.96c0,2.72.96,4.08,2.88,4.08.92,0,1.64-.34,2.16-1.02.52-.68.78-1.7.78-3.06,0-2.76-.98-4.14-2.94-4.14s-2.88,1.38-2.88,4.14ZM959.99,229.48l-23.1,42.24h-9.9l23.1-42.24h9.9ZM950.57,254.74c1.84-1.76,4.24-2.64,7.2-2.64s5.36.88,7.2,2.64c1.84,1.76,2.76,4.26,2.76,7.5s-.92,5.74-2.76,7.5c-1.84,1.76-4.24,2.64-7.2,2.64s-5.36-.88-7.2-2.64c-1.84-1.76-2.76-4.26-2.76-7.5s.92-5.74,2.76-7.5ZM955.58,259.12c-.5.68-.75,1.72-.75,3.12,0,2.72.96,4.08,2.88,4.08.92,0,1.64-.34,2.16-1.02.52-.68.78-1.7.78-3.06s-.26-2.39-.78-3.09c-.52-.7-1.24-1.05-2.16-1.05s-1.63.34-2.13,1.02Z"/><path class="cls-1" d="M990.23,246.31c1.36-2.54,3.23-4.51,5.61-5.91,2.38-1.4,5.03-2.1,7.95-2.1s5.38.62,7.5,1.86c2.12,1.24,3.7,2.8,4.74,4.68v-6h5.52v32.88h-5.52v-6.12c-1.08,1.92-2.69,3.51-4.83,4.77-2.14,1.26-4.63,1.89-7.47,1.89s-5.56-.72-7.92-2.16c-2.36-1.44-4.22-3.46-5.58-6.06-1.36-2.6-2.04-5.56-2.04-8.88s.68-6.31,2.04-8.85ZM1014.53,248.74c-1-1.84-2.35-3.25-4.05-4.23-1.7-.98-3.57-1.47-5.61-1.47s-3.9.48-5.58,1.44c-1.68.96-3.02,2.36-4.02,4.2-1,1.84-1.5,4-1.5,6.48s.5,4.71,1.5,6.57c1,1.86,2.34,3.28,4.02,4.26,1.68.98,3.54,1.47,5.58,1.47s3.91-.49,5.61-1.47c1.7-.98,3.05-2.4,4.05-4.26,1-1.86,1.5-4.03,1.5-6.51s-.5-4.64-1.5-6.48Z"/><path class="cls-1" d="M1044.16,243.34h-6.9v28.38h-5.46v-28.38h-4.26v-4.5h4.26v-2.34c0-3.68.95-6.37,2.85-8.07,1.9-1.7,4.95-2.55,9.15-2.55v4.56c-2.4,0-4.09.47-5.07,1.41-.98.94-1.47,2.49-1.47,4.65v2.34h6.9v4.5Z"/><path class="cls-1" d="M148.94,338.68l10.2-27.84h5.82l-12.9,32.88h-6.36l-12.9-32.88h5.88l10.26,27.84Z"/><path class="cls-1" d="M200.18,329.32h-26.28c.2,3.24,1.31,5.77,3.33,7.59,2.02,1.82,4.47,2.73,7.35,2.73,2.36,0,4.33-.55,5.91-1.65,1.58-1.1,2.69-2.57,3.33-4.41h5.88c-.88,3.16-2.64,5.73-5.28,7.71-2.64,1.98-5.92,2.97-9.84,2.97-3.12,0-5.91-.7-8.37-2.1-2.46-1.4-4.39-3.39-5.79-5.97-1.4-2.58-2.1-5.57-2.1-8.97s.68-6.38,2.04-8.94c1.36-2.56,3.27-4.53,5.73-5.91s5.29-2.07,8.49-2.07,5.88.68,8.28,2.04c2.4,1.36,4.25,3.23,5.55,5.61,1.3,2.38,1.95,5.07,1.95,8.07,0,1.04-.06,2.14-.18,3.3ZM193.34,319.51c-.92-1.5-2.17-2.64-3.75-3.42-1.58-.78-3.33-1.17-5.25-1.17-2.76,0-5.11.88-7.05,2.64-1.94,1.76-3.05,4.2-3.33,7.32h20.76c0-2.08-.46-3.87-1.38-5.37Z"/><path class="cls-1" d="M217.13,311.8c1.78-1.04,3.95-1.56,6.51-1.56v5.64h-1.44c-6.12,0-9.18,3.32-9.18,9.96v17.88h-5.46v-32.88h5.46v5.34c.96-1.88,2.33-3.34,4.11-4.38Z"/><path class="cls-1" d="M229.94,318.31c1.36-2.54,3.23-4.51,5.61-5.91,2.38-1.4,5.05-2.1,8.01-2.1,2.56,0,4.94.59,7.14,1.77,2.2,1.18,3.88,2.73,5.04,4.65v-17.4h5.52v44.4h-5.52v-6.18c-1.08,1.96-2.68,3.57-4.8,4.83-2.12,1.26-4.6,1.89-7.44,1.89s-5.57-.72-7.95-2.16c-2.38-1.44-4.25-3.46-5.61-6.06-1.36-2.6-2.04-5.56-2.04-8.88s.68-6.31,2.04-8.85ZM254.24,320.74c-1-1.84-2.35-3.25-4.05-4.23-1.7-.98-3.57-1.47-5.61-1.47s-3.9.48-5.58,1.44c-1.68.96-3.02,2.36-4.02,4.2-1,1.84-1.5,4-1.5,6.48s.5,4.71,1.5,6.57c1,1.86,2.34,3.28,4.02,4.26,1.68.98,3.54,1.47,5.58,1.47s3.91-.49,5.61-1.47c1.7-.98,3.05-2.4,4.05-4.26,1-1.86,1.5-4.03,1.5-6.51s-.5-4.64-1.5-6.48Z"/><path class="cls-1" d="M300.32,329.32h-26.28c.2,3.24,1.31,5.77,3.33,7.59,2.02,1.82,4.47,2.73,7.35,2.73,2.36,0,4.33-.55,5.91-1.65,1.58-1.1,2.69-2.57,3.33-4.41h5.88c-.88,3.16-2.64,5.73-5.28,7.71-2.64,1.98-5.92,2.97-9.84,2.97-3.12,0-5.91-.7-8.37-2.1-2.46-1.4-4.39-3.39-5.79-5.97-1.4-2.58-2.1-5.57-2.1-8.97s.68-6.38,2.04-8.94c1.36-2.56,3.27-4.53,5.73-5.91s5.29-2.07,8.49-2.07,5.88.68,8.28,2.04c2.4,1.36,4.25,3.23,5.55,5.61,1.3,2.38,1.95,5.07,1.95,8.07,0,1.04-.06,2.14-.18,3.3ZM293.48,319.51c-.92-1.5-2.17-2.64-3.75-3.42-1.58-.78-3.33-1.17-5.25-1.17-2.76,0-5.11.88-7.05,2.64-1.94,1.76-3.05,4.2-3.33,7.32h20.76c0-2.08-.46-3.87-1.38-5.37Z"/><path class="cls-1" d="M333.44,313.87c2.48,2.42,3.72,5.91,3.72,10.47v19.38h-5.4v-18.6c0-3.28-.82-5.79-2.46-7.53-1.64-1.74-3.88-2.61-6.72-2.61s-5.17.9-6.87,2.7-2.55,4.42-2.55,7.86v18.18h-5.46v-32.88h5.46v4.68c1.08-1.68,2.55-2.98,4.41-3.9,1.86-.92,3.91-1.38,6.15-1.38,4,0,7.24,1.21,9.72,3.63Z"/><path class="cls-1" d="M350.96,342.97c-2-.86-3.58-2.06-4.74-3.6-1.16-1.54-1.8-3.31-1.92-5.31h5.64c.16,1.64.93,2.98,2.31,4.02,1.38,1.04,3.19,1.56,5.43,1.56,2.08,0,3.72-.46,4.92-1.38,1.2-.92,1.8-2.08,1.8-3.48s-.64-2.51-1.92-3.21c-1.28-.7-3.26-1.39-5.94-2.07-2.44-.64-4.43-1.29-5.97-1.95-1.54-.66-2.86-1.64-3.96-2.94-1.1-1.3-1.65-3.01-1.65-5.13,0-1.68.5-3.22,1.5-4.62,1-1.4,2.42-2.51,4.26-3.33,1.84-.82,3.94-1.23,6.3-1.23,3.64,0,6.58.92,8.82,2.76,2.24,1.84,3.44,4.36,3.6,7.56h-5.46c-.12-1.72-.81-3.1-2.07-4.14-1.26-1.04-2.95-1.56-5.07-1.56-1.96,0-3.52.42-4.68,1.26s-1.74,1.94-1.74,3.3c0,1.08.35,1.97,1.05,2.67.7.7,1.58,1.26,2.64,1.68,1.06.42,2.53.89,4.41,1.41,2.36.64,4.28,1.27,5.76,1.89,1.48.62,2.75,1.55,3.81,2.79,1.06,1.24,1.61,2.86,1.65,4.86,0,1.8-.5,3.42-1.5,4.86s-2.41,2.57-4.23,3.39c-1.82.82-3.91,1.23-6.27,1.23-2.52,0-4.78-.43-6.78-1.29Z"/><path class="cls-1" d="M398.3,342.97c-2-.86-3.58-2.06-4.74-3.6-1.16-1.54-1.8-3.31-1.92-5.31h5.64c.16,1.64.93,2.98,2.31,4.02,1.38,1.04,3.19,1.56,5.43,1.56,2.08,0,3.72-.46,4.92-1.38,1.2-.92,1.8-2.08,1.8-3.48s-.64-2.51-1.92-3.21c-1.28-.7-3.26-1.39-5.94-2.07-2.44-.64-4.43-1.29-5.97-1.95-1.54-.66-2.86-1.64-3.96-2.94-1.1-1.3-1.65-3.01-1.65-5.13,0-1.68.5-3.22,1.5-4.62,1-1.4,2.42-2.51,4.26-3.33,1.84-.82,3.94-1.23,6.3-1.23,3.64,0,6.58.92,8.82,2.76,2.24,1.84,3.44,4.36,3.6,7.56h-5.46c-.12-1.72-.81-3.1-2.07-4.14-1.26-1.04-2.95-1.56-5.07-1.56-1.96,0-3.52.42-4.68,1.26s-1.74,1.94-1.74,3.3c0,1.08.35,1.97,1.05,2.67.7.7,1.58,1.26,2.64,1.68,1.06.42,2.53.89,4.41,1.41,2.36.64,4.28,1.27,5.76,1.89,1.48.62,2.75,1.55,3.81,2.79,1.06,1.24,1.61,2.86,1.65,4.86,0,1.8-.5,3.42-1.5,4.86s-2.41,2.57-4.23,3.39c-1.82.82-3.91,1.23-6.27,1.23-2.52,0-4.78-.43-6.78-1.29Z"/><path class="cls-1" d="M424.76,318.31c1.36-2.54,3.23-4.51,5.61-5.91,2.38-1.4,5.03-2.1,7.95-2.1s5.38.62,7.5,1.86c2.12,1.24,3.7,2.8,4.74,4.68v-6h5.52v32.88h-5.52v-6.12c-1.08,1.92-2.69,3.51-4.83,4.77-2.14,1.26-4.63,1.89-7.47,1.89s-5.56-.72-7.92-2.16c-2.36-1.44-4.22-3.46-5.58-6.06-1.36-2.6-2.04-5.56-2.04-8.88s.68-6.31,2.04-8.85ZM449.06,320.74c-1-1.84-2.35-3.25-4.05-4.23-1.7-.98-3.57-1.47-5.61-1.47s-3.9.48-5.58,1.44c-1.68.96-3.02,2.36-4.02,4.2-1,1.84-1.5,4-1.5,6.48s.5,4.71,1.5,6.57c1,1.86,2.34,3.28,4.02,4.26,1.68.98,3.54,1.47,5.58,1.47s3.91-.49,5.61-1.47c1.7-.98,3.05-2.4,4.05-4.26,1-1.86,1.5-4.03,1.5-6.51s-.5-4.64-1.5-6.48Z"/><path class="cls-1" d="M511.7,311.83c2,1.06,3.58,2.65,4.74,4.77,1.16,2.12,1.74,4.7,1.74,7.74v19.38h-5.4v-18.6c0-3.28-.81-5.79-2.43-7.53-1.62-1.74-3.81-2.61-6.57-2.61s-5.1.91-6.78,2.73c-1.68,1.82-2.52,4.45-2.52,7.89v18.12h-5.4v-18.6c0-3.28-.81-5.79-2.43-7.53-1.62-1.74-3.81-2.61-6.57-2.61s-5.1.91-6.78,2.73c-1.68,1.82-2.52,4.45-2.52,7.89v18.12h-5.46v-32.88h5.46v4.74c1.08-1.72,2.53-3.04,4.35-3.96,1.82-.92,3.83-1.38,6.03-1.38,2.76,0,5.2.62,7.32,1.86,2.12,1.24,3.7,3.06,4.74,5.46.92-2.32,2.44-4.12,4.56-5.4,2.12-1.28,4.48-1.92,7.08-1.92s4.84.53,6.84,1.59Z"/><path class="cls-1" d="M532.58,299.32v44.4h-5.46v-44.4h5.46Z"/><path class="cls-1" d="M571.7,329.32h-26.28c.2,3.24,1.31,5.77,3.33,7.59,2.02,1.82,4.47,2.73,7.35,2.73,2.36,0,4.33-.55,5.91-1.65,1.58-1.1,2.69-2.57,3.33-4.41h5.88c-.88,3.16-2.64,5.73-5.28,7.71-2.64,1.98-5.92,2.97-9.84,2.97-3.12,0-5.91-.7-8.37-2.1-2.46-1.4-4.39-3.39-5.79-5.97-1.4-2.58-2.1-5.57-2.1-8.97s.68-6.38,2.04-8.94c1.36-2.56,3.27-4.53,5.73-5.91s5.29-2.07,8.49-2.07,5.88.68,8.28,2.04c2.4,1.36,4.25,3.23,5.55,5.61,1.3,2.38,1.95,5.07,1.95,8.07,0,1.04-.06,2.14-.18,3.3ZM564.86,319.51c-.92-1.5-2.17-2.64-3.75-3.42-1.58-.78-3.33-1.17-5.25-1.17-2.76,0-5.11.88-7.05,2.64-1.94,1.76-3.05,4.2-3.33,7.32h20.76c0-2.08-.46-3.87-1.38-5.37Z"/><path class="cls-1" d="M579.08,318.31c1.36-2.54,3.23-4.51,5.61-5.91,2.38-1.4,5.05-2.1,8.01-2.1,2.56,0,4.94.59,7.14,1.77,2.2,1.18,3.88,2.73,5.04,4.65v-17.4h5.52v44.4h-5.52v-6.18c-1.08,1.96-2.68,3.57-4.8,4.83-2.12,1.26-4.6,1.89-7.44,1.89s-5.57-.72-7.95-2.16c-2.38-1.44-4.25-3.46-5.61-6.06-1.36-2.6-2.04-5.56-2.04-8.88s.68-6.31,2.04-8.85ZM603.38,320.74c-1-1.84-2.35-3.25-4.05-4.23-1.7-.98-3.57-1.47-5.61-1.47s-3.9.48-5.58,1.44c-1.68.96-3.02,2.36-4.02,4.2-1,1.84-1.5,4-1.5,6.48s.5,4.71,1.5,6.57c1,1.86,2.34,3.28,4.02,4.26,1.68.98,3.54,1.47,5.58,1.47s3.91-.49,5.61-1.47c1.7-.98,3.05-2.4,4.05-4.26,1-1.86,1.5-4.03,1.5-6.51s-.5-4.64-1.5-6.48Z"/><path class="cls-1" d="M649.46,329.32h-26.28c.2,3.24,1.31,5.77,3.33,7.59,2.02,1.82,4.47,2.73,7.35,2.73,2.36,0,4.33-.55,5.91-1.65,1.58-1.1,2.69-2.57,3.33-4.41h5.88c-.88,3.16-2.64,5.73-5.28,7.71-2.64,1.98-5.92,2.97-9.84,2.97-3.12,0-5.91-.7-8.37-2.1-2.46-1.4-4.39-3.39-5.79-5.97-1.4-2.58-2.1-5.57-2.1-8.97s.68-6.38,2.04-8.94c1.36-2.56,3.27-4.53,5.73-5.91s5.29-2.07,8.49-2.07,5.88.68,8.28,2.04c2.4,1.36,4.25,3.23,5.55,5.61,1.3,2.38,1.95,5.07,1.95,8.07,0,1.04-.06,2.14-.18,3.3ZM642.62,319.51c-.92-1.5-2.17-2.64-3.75-3.42-1.58-.78-3.33-1.17-5.25-1.17-2.76,0-5.11.88-7.05,2.64-1.94,1.76-3.05,4.2-3.33,7.32h20.76c0-2.08-.46-3.87-1.38-5.37Z"/><path class="cls-1" d="M702.68,329.32h-26.28c.2,3.24,1.31,5.77,3.33,7.59,2.02,1.82,4.47,2.73,7.35,2.73,2.36,0,4.33-.55,5.91-1.65,1.58-1.1,2.69-2.57,3.33-4.41h5.88c-.88,3.16-2.64,5.73-5.28,7.71-2.64,1.98-5.92,2.97-9.84,2.97-3.12,0-5.91-.7-8.37-2.1-2.46-1.4-4.39-3.39-5.79-5.97-1.4-2.58-2.1-5.57-2.1-8.97s.68-6.38,2.04-8.94c1.36-2.56,3.27-4.53,5.73-5.91s5.29-2.07,8.49-2.07,5.88.68,8.28,2.04c2.4,1.36,4.25,3.23,5.55,5.61,1.3,2.38,1.95,5.07,1.95,8.07,0,1.04-.06,2.14-.18,3.3ZM695.84,319.51c-.92-1.5-2.17-2.64-3.75-3.42-1.58-.78-3.33-1.17-5.25-1.17-2.76,0-5.11.88-7.05,2.64-1.94,1.76-3.05,4.2-3.33,7.32h20.76c0-2.08-.46-3.87-1.38-5.37Z"/><path class="cls-1" d="M735.8,313.87c2.48,2.42,3.72,5.91,3.72,10.47v19.38h-5.4v-18.6c0-3.28-.82-5.79-2.46-7.53-1.64-1.74-3.88-2.61-6.72-2.61s-5.17.9-6.87,2.7-2.55,4.42-2.55,7.86v18.18h-5.46v-32.88h5.46v4.68c1.08-1.68,2.55-2.98,4.41-3.9,1.86-.92,3.91-1.38,6.15-1.38,4,0,7.24,1.21,9.72,3.63Z"/><path class="cls-1" d="M778.28,329.32h-26.28c.2,3.24,1.31,5.77,3.33,7.59,2.02,1.82,4.47,2.73,7.35,2.73,2.36,0,4.33-.55,5.91-1.65,1.58-1.1,2.69-2.57,3.33-4.41h5.88c-.88,3.16-2.64,5.73-5.28,7.71-2.64,1.98-5.92,2.97-9.84,2.97-3.12,0-5.91-.7-8.37-2.1-2.46-1.4-4.39-3.39-5.79-5.97-1.4-2.58-2.1-5.57-2.1-8.97s.68-6.38,2.04-8.94c1.36-2.56,3.27-4.53,5.73-5.91s5.29-2.07,8.49-2.07,5.88.68,8.28,2.04c2.4,1.36,4.25,3.23,5.55,5.61,1.3,2.38,1.95,5.07,1.95,8.07,0,1.04-.06,2.14-.18,3.3ZM771.44,319.51c-.92-1.5-2.17-2.64-3.75-3.42-1.58-.78-3.33-1.17-5.25-1.17-2.76,0-5.11.88-7.05,2.64-1.94,1.76-3.05,4.2-3.33,7.32h20.76c0-2.08-.46-3.87-1.38-5.37Z"/><path class="cls-1" d="M795.23,311.8c1.78-1.04,3.95-1.56,6.51-1.56v5.64h-1.44c-6.12,0-9.18,3.32-9.18,9.96v17.88h-5.46v-32.88h5.46v5.34c.96-1.88,2.33-3.34,4.11-4.38Z"/><path class="cls-1" d="M829.07,312.16c2.14,1.24,3.73,2.8,4.77,4.68v-6h5.52v33.6c0,3-.64,5.67-1.92,8.01s-3.11,4.17-5.49,5.49c-2.38,1.32-5.15,1.98-8.31,1.98-4.32,0-7.92-1.02-10.8-3.06s-4.58-4.82-5.1-8.34h5.4c.6,2,1.84,3.61,3.72,4.83,1.88,1.22,4.14,1.83,6.78,1.83,3,0,5.45-.94,7.35-2.82,1.9-1.88,2.85-4.52,2.85-7.92v-6.9c-1.08,1.92-2.68,3.52-4.8,4.8-2.12,1.28-4.6,1.92-7.44,1.92s-5.57-.72-7.95-2.16c-2.38-1.44-4.25-3.46-5.61-6.06-1.36-2.6-2.04-5.56-2.04-8.88s.68-6.31,2.04-8.85c1.36-2.54,3.23-4.51,5.61-5.91,2.38-1.4,5.03-2.1,7.95-2.1s5.33.62,7.47,1.86ZM832.34,320.74c-1-1.84-2.35-3.25-4.05-4.23-1.7-.98-3.57-1.47-5.61-1.47s-3.9.48-5.58,1.44c-1.68.96-3.02,2.36-4.02,4.2-1,1.84-1.5,4-1.5,6.48s.5,4.71,1.5,6.57c1,1.86,2.34,3.28,4.02,4.26,1.68.98,3.54,1.47,5.58,1.47s3.91-.49,5.61-1.47c1.7-.98,3.05-2.4,4.05-4.26,1-1.86,1.5-4.03,1.5-6.51s-.5-4.64-1.5-6.48Z"/><path class="cls-1" d="M848.78,304.42c-.72-.72-1.08-1.6-1.08-2.64s.36-1.92,1.08-2.64c.72-.72,1.6-1.08,2.64-1.08s1.85.36,2.55,1.08c.7.72,1.05,1.6,1.05,2.64s-.35,1.92-1.05,2.64c-.7.72-1.55,1.08-2.55,1.08s-1.92-.36-2.64-1.08ZM854.06,310.84v32.88h-5.46v-32.88h5.46Z"/><path class="cls-1" d="M879.55,304.42c-.72-.72-1.08-1.6-1.08-2.64s.36-1.92,1.08-2.64c.72-.72,1.6-1.08,2.64-1.08s1.85.36,2.55,1.08c.7.72,1.05,1.6,1.05,2.64s-.35,1.92-1.05,2.64c-.7.72-1.55,1.08-2.55,1.08s-1.92-.36-2.64-1.08ZM884.83,310.84v32.88h-5.46v-32.88h5.46Z"/><path class="cls-1" d="M919.87,313.87c2.48,2.42,3.72,5.91,3.72,10.47v19.38h-5.4v-18.6c0-3.28-.82-5.79-2.46-7.53-1.64-1.74-3.88-2.61-6.72-2.61s-5.17.9-6.87,2.7-2.55,4.42-2.55,7.86v18.18h-5.46v-32.88h5.46v4.68c1.08-1.68,2.55-2.98,4.41-3.9,1.86-.92,3.91-1.38,6.15-1.38,4,0,7.24,1.21,9.72,3.63Z"/><path class="cls-1" d="M932.53,318.31c1.36-2.54,3.23-4.51,5.61-5.91,2.38-1.4,5.05-2.1,8.01-2.1,2.56,0,4.94.59,7.14,1.77,2.2,1.18,3.88,2.73,5.04,4.65v-17.4h5.52v44.4h-5.52v-6.18c-1.08,1.96-2.68,3.57-4.8,4.83-2.12,1.26-4.6,1.89-7.44,1.89s-5.57-.72-7.95-2.16c-2.38-1.44-4.25-3.46-5.61-6.06-1.36-2.6-2.04-5.56-2.04-8.88s.68-6.31,2.04-8.85ZM956.83,320.74c-1-1.84-2.35-3.25-4.05-4.23-1.7-.98-3.57-1.47-5.61-1.47s-3.9.48-5.58,1.44c-1.68.96-3.02,2.36-4.02,4.2-1,1.84-1.5,4-1.5,6.48s.5,4.71,1.5,6.57c1,1.86,2.34,3.28,4.02,4.26,1.68.98,3.54,1.47,5.58,1.47s3.91-.49,5.61-1.47c1.7-.98,3.05-2.4,4.05-4.26,1-1.86,1.5-4.03,1.5-6.51s-.5-4.64-1.5-6.48Z"/><path class="cls-1" d="M1002.91,329.32h-26.28c.2,3.24,1.31,5.77,3.33,7.59,2.02,1.82,4.47,2.73,7.35,2.73,2.36,0,4.33-.55,5.91-1.65,1.58-1.1,2.69-2.57,3.33-4.41h5.88c-.88,3.16-2.64,5.73-5.28,7.71-2.64,1.98-5.92,2.97-9.84,2.97-3.12,0-5.91-.7-8.37-2.1-2.46-1.4-4.39-3.39-5.79-5.97-1.4-2.58-2.1-5.57-2.1-8.97s.68-6.38,2.04-8.94c1.36-2.56,3.27-4.53,5.73-5.91s5.29-2.07,8.49-2.07,5.88.68,8.28,2.04c2.4,1.36,4.25,3.23,5.55,5.61,1.3,2.38,1.95,5.07,1.95,8.07,0,1.04-.06,2.14-.18,3.3ZM996.07,319.51c-.92-1.5-2.17-2.64-3.75-3.42-1.58-.78-3.33-1.17-5.25-1.17-2.76,0-5.11.88-7.05,2.64-1.94,1.76-3.05,4.2-3.33,7.32h20.76c0-2.08-.46-3.87-1.38-5.37Z"/><path class="cls-1" d="M1036.03,313.87c2.48,2.42,3.72,5.91,3.72,10.47v19.38h-5.4v-18.6c0-3.28-.82-5.79-2.46-7.53-1.64-1.74-3.88-2.61-6.72-2.61s-5.17.9-6.87,2.7-2.55,4.42-2.55,7.86v18.18h-5.46v-32.88h5.46v4.68c1.08-1.68,2.55-2.98,4.41-3.9,1.86-.92,3.91-1.38,6.15-1.38,4,0,7.24,1.21,9.72,3.63Z"/><path class="cls-5" d="M520.31,406c3.92-3.24,7.01-5.9,9.27-7.98,2.26-2.08,4.17-4.26,5.73-6.54,1.56-2.28,2.34-4.5,2.34-6.66,0-1.64-.38-2.92-1.14-3.84-.76-.92-1.9-1.38-3.42-1.38s-2.71.57-3.57,1.71c-.86,1.14-1.29,2.75-1.29,4.83h-9.9c.08-3.4.81-6.24,2.19-8.52,1.38-2.28,3.2-3.96,5.46-5.04,2.26-1.08,4.77-1.62,7.53-1.62,4.76,0,8.35,1.22,10.77,3.66,2.42,2.44,3.63,5.62,3.63,9.54,0,4.28-1.46,8.25-4.38,11.91-2.92,3.66-6.64,7.23-11.16,10.71h16.2v8.34h-30.12v-7.62c1.36-1.08,1.98-1.58,1.86-1.5Z"/><path class="cls-5" d="M557.06,376.96c2.66-3.96,6.95-5.94,12.87-5.94s10.21,1.98,12.87,5.94c2.66,3.96,3.99,9.38,3.99,16.26s-1.33,12.42-3.99,16.38-6.95,5.94-12.87,5.94-10.21-1.98-12.87-5.94c-2.66-3.96-3.99-9.42-3.99-16.38s1.33-12.3,3.99-16.26ZM575.39,383.89c-.88-2.18-2.7-3.27-5.46-3.27s-4.58,1.09-5.46,3.27c-.88,2.18-1.32,5.29-1.32,9.33,0,2.72.16,4.97.48,6.75.32,1.78.97,3.22,1.95,4.32.98,1.1,2.43,1.65,4.35,1.65s3.37-.55,4.35-1.65c.98-1.1,1.63-2.54,1.95-4.32.32-1.78.48-4.03.48-6.75,0-4.04-.44-7.15-1.32-9.33Z"/><path class="cls-5" d="M593.69,406c3.92-3.24,7.01-5.9,9.27-7.98,2.26-2.08,4.17-4.26,5.73-6.54,1.56-2.28,2.34-4.5,2.34-6.66,0-1.64-.38-2.92-1.14-3.84-.76-.92-1.9-1.38-3.42-1.38s-2.71.57-3.57,1.71c-.86,1.14-1.29,2.75-1.29,4.83h-9.9c.08-3.4.81-6.24,2.19-8.52,1.38-2.28,3.2-3.96,5.46-5.04,2.26-1.08,4.77-1.62,7.53-1.62,4.76,0,8.35,1.22,10.77,3.66,2.42,2.44,3.63,5.62,3.63,9.54,0,4.28-1.46,8.25-4.38,11.91-2.92,3.66-6.64,7.23-11.16,10.71h16.2v8.34h-30.12v-7.62c1.36-1.08,1.98-1.58,1.86-1.5Z"/><path class="cls-5" d="M631.01,374.38c2.64-2.32,6.22-3.48,10.74-3.48,3,0,5.57.52,7.71,1.56,2.14,1.04,3.76,2.46,4.86,4.26,1.1,1.8,1.65,3.82,1.65,6.06,0,2.64-.66,4.79-1.98,6.45-1.32,1.66-2.86,2.79-4.62,3.39v.24c2.28.76,4.08,2.02,5.4,3.78,1.32,1.76,1.98,4.02,1.98,6.78,0,2.48-.57,4.67-1.71,6.57-1.14,1.9-2.8,3.39-4.98,4.47-2.18,1.08-4.77,1.62-7.77,1.62-4.8,0-8.63-1.18-11.49-3.54-2.86-2.36-4.37-5.92-4.53-10.68h9.96c.04,1.76.54,3.15,1.5,4.17.96,1.02,2.36,1.53,4.2,1.53,1.56,0,2.77-.45,3.63-1.35.86-.9,1.29-2.09,1.29-3.57,0-1.92-.61-3.31-1.83-4.17-1.22-.86-3.17-1.29-5.85-1.29h-1.92v-8.34h1.92c2.04,0,3.69-.35,4.95-1.05,1.26-.7,1.89-1.95,1.89-3.75,0-1.44-.4-2.56-1.2-3.36-.8-.8-1.9-1.2-3.3-1.2-1.52,0-2.65.46-3.39,1.38-.74.92-1.17,2.06-1.29,3.42h-10.02c.16-4.28,1.56-7.58,4.2-9.9Z"/></svg>