<?xml version="1.0" encoding="UTF-8"?><svg id="Layer_1" xmlns="http://www.w3.org/2000/svg" viewBox="0 0 1143 1450"><defs><style>.cls-1{stroke-width:6px;}.cls-1,.cls-2{fill:none;stroke:#eb9143;stroke-miterlimit:10;}.cls-2{stroke-width:22px;}.cls-3,.cls-4,.cls-5,.cls-6,.cls-7,.cls-8,.cls-9{stroke-width:0px;}.cls-4{fill:#3f403f;}.cls-5{fill:#147350;}.cls-6{fill:#a7ce9d;}.cls-7{fill:#f2c063;}.cls-8{fill:#eb9143;}.cls-9{fill:#ffdfa2;}</style></defs><rect class="cls-6" x="-3.82" y="-2.23" width="1146.82" height="1454.46" rx="100" ry="100"/><rect class="cls-9" x="331.55" y="1029.46" width="118.53" height="237.07" rx="29.63" ry="29.63"/><rect class="cls-7" x="509.36" y="910.92" width="118.53" height="355.6" rx="29.63" ry="29.63"/><rect class="cls-8" x="687.16" y="792.39" width="118.53" height="474.14" rx="29.63" ry="29.63"/><path class="cls-4" d="M694.09,708.64c2.5-3.92,6.65-5.88,12.45-5.88s9.95,1.96,12.45,5.88c2.5,3.92,3.75,9.34,3.75,16.26s-1.25,12.42-3.75,16.38c-2.5,3.96-6.65,5.94-12.45,5.94s-9.95-1.98-12.45-5.94-3.75-9.42-3.75-16.38,1.25-12.34,3.75-16.26ZM713.89,717.43c-.38-2.02-1.14-3.67-2.28-4.95-1.14-1.28-2.83-1.92-5.07-1.92s-3.93.64-5.07,1.92c-1.14,1.28-1.9,2.93-2.28,4.95-.38,2.02-.57,4.51-.57,7.47s.18,5.59.54,7.65c.36,2.06,1.12,3.72,2.28,4.98,1.16,1.26,2.86,1.89,5.1,1.89s3.94-.63,5.1-1.89c1.16-1.26,1.92-2.92,2.28-4.98.36-2.06.54-4.61.54-7.65s-.19-5.45-.57-7.47Z"/><path class="cls-4" d="M739.24,738.52l-7.02,16.86h-5.4l3.9-16.86h8.52Z"/><path class="cls-4" d="M756.25,739.09c1.14.94,2.67,1.41,4.59,1.41,2.48,0,4.28-1.03,5.4-3.09,1.12-2.06,1.68-5.53,1.68-10.41-.92,1.28-2.21,2.28-3.87,3-1.66.72-3.45,1.08-5.37,1.08-2.56,0-4.87-.53-6.93-1.59-2.06-1.06-3.69-2.64-4.89-4.74-1.2-2.1-1.8-4.65-1.8-7.65,0-4.44,1.32-7.97,3.96-10.59,2.64-2.62,6.24-3.93,10.8-3.93,5.68,0,9.69,1.82,12.03,5.46,2.34,3.64,3.51,9.12,3.51,16.44,0,5.2-.45,9.46-1.35,12.78-.9,3.32-2.44,5.84-4.62,7.56-2.18,1.72-5.15,2.58-8.91,2.58-2.96,0-5.48-.57-7.56-1.71s-3.67-2.64-4.77-4.5c-1.1-1.86-1.73-3.91-1.89-6.15h7.8c.32,1.76,1.05,3.11,2.19,4.05ZM765.34,722.32c1.2-1.28,1.8-3,1.8-5.16,0-2.36-.63-4.19-1.89-5.49-1.26-1.3-2.97-1.95-5.13-1.95s-3.87.67-5.13,2.01c-1.26,1.34-1.89,3.11-1.89,5.31s.61,3.85,1.83,5.19c1.22,1.34,3.05,2.01,5.49,2.01,2.08,0,3.72-.64,4.92-1.92Z"/><path class="cls-4" d="M783.61,707.2c1.78-1.72,4.07-2.58,6.87-2.58s5.09.86,6.87,2.58c1.78,1.72,2.67,4.1,2.67,7.14s-.89,5.48-2.67,7.2c-1.78,1.72-4.07,2.58-6.87,2.58s-5.09-.86-6.87-2.58c-1.78-1.72-2.67-4.12-2.67-7.2s.89-5.42,2.67-7.14ZM787.12,714.34c0,3.16,1.1,4.74,3.3,4.74,1.08,0,1.92-.39,2.52-1.17.6-.78.9-1.97.9-3.57,0-3.12-1.14-4.68-3.42-4.68s-3.3,1.56-3.3,4.68ZM819.46,705.34l-23.58,42h-8.16l23.52-42h8.22ZM809.95,731.11c1.78-1.7,4.07-2.55,6.87-2.55s5.07.85,6.81,2.55c1.74,1.7,2.61,4.09,2.61,7.17s-.87,5.48-2.61,7.2c-1.74,1.72-4.01,2.58-6.81,2.58s-5.14-.86-6.9-2.58c-1.76-1.72-2.64-4.12-2.64-7.2s.89-5.47,2.67-7.17ZM813.34,738.28c0,3.16,1.14,4.74,3.42,4.74s3.36-1.58,3.36-4.74-1.12-4.68-3.36-4.68-3.42,1.56-3.42,4.68Z"/><path class="cls-3" d="M152.92,232.45c3.34,1.7,5.9,4.13,7.68,7.29,1.78,3.16,2.67,6.88,2.67,11.16s-.89,7.99-2.67,11.13c-1.78,3.14-4.34,5.54-7.68,7.2-3.34,1.66-7.29,2.49-11.85,2.49h-13.02v-41.82h13.02c4.56,0,8.51.85,11.85,2.55ZM153.43,262.93c2.84-2.86,4.26-6.87,4.26-12.03s-1.43-9.26-4.29-12.18c-2.86-2.92-6.97-4.38-12.33-4.38h-7.56v32.88h7.56c5.4,0,9.52-1.43,12.36-4.29Z"/><path class="cls-3" d="M200.29,257.32h-26.28c.2,3.24,1.31,5.77,3.33,7.59,2.02,1.82,4.47,2.73,7.35,2.73,2.36,0,4.33-.55,5.91-1.65,1.58-1.1,2.69-2.57,3.33-4.41h5.88c-.88,3.16-2.64,5.73-5.28,7.71-2.64,1.98-5.92,2.97-9.84,2.97-3.12,0-5.91-.7-8.37-2.1-2.46-1.4-4.39-3.39-5.79-5.97-1.4-2.58-2.1-5.57-2.1-8.97s.68-6.38,2.04-8.94c1.36-2.56,3.27-4.53,5.73-5.91s5.29-2.07,8.49-2.07,5.88.68,8.28,2.04c2.4,1.36,4.25,3.23,5.55,5.61,1.3,2.38,1.95,5.07,1.95,8.07,0,1.04-.06,2.14-.18,3.3ZM193.45,247.51c-.92-1.5-2.17-2.64-3.75-3.42-1.58-.78-3.33-1.17-5.25-1.17-2.76,0-5.11.88-7.05,2.64-1.94,1.76-3.05,4.2-3.33,7.32h20.76c0-2.08-.46-3.87-1.38-5.37Z"/><path class="cls-3" d="M244.72,240.16c2.14,1.24,3.73,2.8,4.77,4.68v-6h5.52v33.6c0,3-.64,5.67-1.92,8.01s-3.11,4.17-5.49,5.49c-2.38,1.32-5.15,1.98-8.31,1.98-4.32,0-7.92-1.02-10.8-3.06s-4.58-4.82-5.1-8.34h5.4c.6,2,1.84,3.61,3.72,4.83,1.88,1.22,4.14,1.83,6.78,1.83,3,0,5.45-.94,7.35-2.82,1.9-1.88,2.85-4.52,2.85-7.92v-6.9c-1.08,1.92-2.68,3.52-4.8,4.8-2.12,1.28-4.6,1.92-7.44,1.92s-5.57-.72-7.95-2.16c-2.38-1.44-4.25-3.46-5.61-6.06-1.36-2.6-2.04-5.56-2.04-8.88s.68-6.31,2.04-8.85c1.36-2.54,3.23-4.51,5.61-5.91,2.38-1.4,5.03-2.1,7.95-2.1s5.33.62,7.47,1.86ZM247.99,248.74c-1-1.84-2.35-3.25-4.05-4.23-1.7-.98-3.57-1.47-5.61-1.47s-3.9.48-5.58,1.44c-1.68.96-3.02,2.36-4.02,4.2-1,1.84-1.5,4-1.5,6.48s.5,4.71,1.5,6.57c1,1.86,2.34,3.28,4.02,4.26,1.68.98,3.54,1.47,5.58,1.47s3.91-.49,5.61-1.47c1.7-.98,3.05-2.4,4.05-4.26,1-1.86,1.5-4.03,1.5-6.51s-.5-4.64-1.5-6.48Z"/><path class="cls-3" d="M269.71,227.32v44.4h-5.46v-44.4h5.46Z"/><path class="cls-3" d="M284.98,270.16c-2.5-1.4-4.46-3.39-5.88-5.97-1.42-2.58-2.13-5.57-2.13-8.97s.73-6.33,2.19-8.91,3.45-4.56,5.97-5.94c2.52-1.38,5.34-2.07,8.46-2.07s5.94.69,8.46,2.07c2.52,1.38,4.51,3.35,5.97,5.91,1.46,2.56,2.19,5.54,2.19,8.94s-.75,6.39-2.25,8.97c-1.5,2.58-3.53,4.57-6.09,5.97-2.56,1.4-5.4,2.1-8.52,2.1s-5.87-.7-8.37-2.1ZM298.87,266.08c1.72-.92,3.11-2.3,4.17-4.14,1.06-1.84,1.59-4.08,1.59-6.72s-.52-4.88-1.56-6.72c-1.04-1.84-2.4-3.21-4.08-4.11-1.68-.9-3.5-1.35-5.46-1.35s-3.83.45-5.49,1.35c-1.66.9-2.99,2.27-3.99,4.11-1,1.84-1.5,4.08-1.5,6.72s.49,4.94,1.47,6.78c.98,1.84,2.29,3.21,3.93,4.11,1.64.9,3.44,1.35,5.4,1.35s3.8-.46,5.52-1.38Z"/><path class="cls-3" d="M327.79,240.16c2.16-1.24,4.62-1.86,7.38-1.86,2.96,0,5.62.7,7.98,2.1,2.36,1.4,4.22,3.37,5.58,5.91,1.36,2.54,2.04,5.49,2.04,8.85s-.68,6.28-2.04,8.88c-1.36,2.6-3.23,4.62-5.61,6.06-2.38,1.44-5.03,2.16-7.95,2.16s-5.33-.62-7.47-1.86c-2.14-1.24-3.75-2.82-4.83-4.74v6.06h-5.46v-44.4h5.46v17.64c1.12-1.96,2.76-3.56,4.92-4.8ZM343.69,248.68c-1-1.84-2.35-3.24-4.05-4.2-1.7-.96-3.57-1.44-5.61-1.44s-3.85.49-5.55,1.47c-1.7.98-3.06,2.4-4.08,4.26-1.02,1.86-1.53,4.01-1.53,6.45s.51,4.65,1.53,6.51c1.02,1.86,2.38,3.28,4.08,4.26,1.7.98,3.55,1.47,5.55,1.47s3.91-.49,5.61-1.47c1.7-.98,3.05-2.4,4.05-4.26,1-1.86,1.5-4.05,1.5-6.57s-.5-4.64-1.5-6.48Z"/><path class="cls-3" d="M357.97,246.31c1.36-2.54,3.23-4.51,5.61-5.91,2.38-1.4,5.03-2.1,7.95-2.1s5.38.62,7.5,1.86c2.12,1.24,3.7,2.8,4.74,4.68v-6h5.52v32.88h-5.52v-6.12c-1.08,1.92-2.69,3.51-4.83,4.77-2.14,1.26-4.63,1.89-7.47,1.89s-5.56-.72-7.92-2.16c-2.36-1.44-4.22-3.46-5.58-6.06-1.36-2.6-2.04-5.56-2.04-8.88s.68-6.31,2.04-8.85ZM382.27,248.74c-1-1.84-2.35-3.25-4.05-4.23-1.7-.98-3.57-1.47-5.61-1.47s-3.9.48-5.58,1.44c-1.68.96-3.02,2.36-4.02,4.2-1,1.84-1.5,4-1.5,6.48s.5,4.71,1.5,6.57c1,1.86,2.34,3.28,4.02,4.26,1.68.98,3.54,1.47,5.58,1.47s3.91-.49,5.61-1.47c1.7-.98,3.05-2.4,4.05-4.26,1-1.86,1.5-4.03,1.5-6.51s-.5-4.64-1.5-6.48Z"/><path class="cls-3" d="M403.99,227.32v44.4h-5.46v-44.4h5.46Z"/><path class="cls-3" d="M443.1,257.32h-26.28c.2,3.24,1.31,5.77,3.33,7.59,2.02,1.82,4.47,2.73,7.35,2.73,2.36,0,4.33-.55,5.91-1.65,1.58-1.1,2.69-2.57,3.33-4.41h5.88c-.88,3.16-2.64,5.73-5.28,7.71-2.64,1.98-5.92,2.97-9.84,2.97-3.12,0-5.91-.7-8.37-2.1-2.46-1.4-4.39-3.39-5.79-5.97-1.4-2.58-2.1-5.57-2.1-8.97s.68-6.38,2.04-8.94c1.36-2.56,3.27-4.53,5.73-5.91s5.29-2.07,8.49-2.07,5.88.68,8.28,2.04c2.4,1.36,4.25,3.23,5.55,5.61,1.3,2.38,1.95,5.07,1.95,8.07,0,1.04-.06,2.14-.18,3.3ZM436.26,247.51c-.92-1.5-2.17-2.64-3.75-3.42-1.58-.78-3.33-1.17-5.25-1.17-2.76,0-5.11.88-7.05,2.64-1.94,1.76-3.05,4.2-3.33,7.32h20.76c0-2.08-.46-3.87-1.38-5.37Z"/><path class="cls-3" d="M467.22,239.77c1.84-3.26,4.35-5.81,7.53-7.65,3.18-1.84,6.71-2.76,10.59-2.76,4.56,0,8.54,1.1,11.94,3.3,3.4,2.2,5.88,5.32,7.44,9.36h-6.54c-1.16-2.52-2.83-4.46-5.01-5.82-2.18-1.36-4.79-2.04-7.83-2.04s-5.54.68-7.86,2.04c-2.32,1.36-4.14,3.29-5.46,5.79-1.32,2.5-1.98,5.43-1.98,8.79s.66,6.23,1.98,8.73c1.32,2.5,3.14,4.43,5.46,5.79,2.32,1.36,4.94,2.04,7.86,2.04s5.65-.67,7.83-2.01c2.18-1.34,3.85-3.27,5.01-5.79h6.54c-1.56,4-4.04,7.09-7.44,9.27-3.4,2.18-7.38,3.27-11.94,3.27-3.88,0-7.41-.91-10.59-2.73-3.18-1.82-5.69-4.35-7.53-7.59-1.84-3.24-2.76-6.9-2.76-10.98s.92-7.75,2.76-11.01Z"/><path class="cls-3" d="M521.16,269.41c-3.2-1.82-5.73-4.36-7.59-7.62-1.86-3.26-2.79-6.93-2.79-11.01s.93-7.75,2.79-11.01c1.86-3.26,4.39-5.8,7.59-7.62,3.2-1.82,6.74-2.73,10.62-2.73s7.48.91,10.68,2.73c3.2,1.82,5.72,4.35,7.56,7.59,1.84,3.24,2.76,6.92,2.76,11.04s-.92,7.8-2.76,11.04c-1.84,3.24-4.36,5.77-7.56,7.59-3.2,1.82-6.76,2.73-10.68,2.73s-7.42-.91-10.62-2.73ZM539.67,265.36c2.34-1.36,4.18-3.3,5.52-5.82,1.34-2.52,2.01-5.44,2.01-8.76s-.67-6.29-2.01-8.79c-1.34-2.5-3.17-4.43-5.49-5.79-2.32-1.36-4.96-2.04-7.92-2.04s-5.6.68-7.92,2.04c-2.32,1.36-4.15,3.29-5.49,5.79-1.34,2.5-2.01,5.43-2.01,8.79s.67,6.24,2.01,8.76c1.34,2.52,3.18,4.46,5.52,5.82,2.34,1.36,4.97,2.04,7.89,2.04s5.55-.68,7.89-2.04Z"/><path class="cls-3" d="M570.36,257.29c2.88-2.62,5.31-5.36,7.29-8.22,1.98-2.86,2.97-5.67,2.97-8.43,0-2.6-.63-4.65-1.89-6.15s-3.29-2.25-6.09-2.25-4.83.85-6.33,2.55c-1.5,1.7-2.31,3.97-2.43,6.81h-5.28c.16-4.48,1.52-7.94,4.08-10.38,2.56-2.44,5.86-3.66,9.9-3.66s7.39,1.14,9.81,3.42c2.42,2.28,3.63,5.42,3.63,9.42,0,3.32-.99,6.55-2.97,9.69-1.98,3.14-4.23,5.9-6.75,8.28-2.52,2.38-5.74,5.15-9.66,8.31h20.64v4.56h-28.86v-3.9c5.08-4.08,9.06-7.43,11.94-10.05Z"/><path class="cls-3" d="M617.28,247.42v4.62h-23.94v-4.62h23.94Z"/><path class="cls-3" d="M657.36,257.32h-26.28c.2,3.24,1.31,5.77,3.33,7.59,2.02,1.82,4.47,2.73,7.35,2.73,2.36,0,4.33-.55,5.91-1.65,1.58-1.1,2.69-2.57,3.33-4.41h5.88c-.88,3.16-2.64,5.73-5.28,7.71-2.64,1.98-5.92,2.97-9.84,2.97-3.12,0-5.91-.7-8.37-2.1-2.46-1.4-4.39-3.39-5.79-5.97-1.4-2.58-2.1-5.57-2.1-8.97s.68-6.38,2.04-8.94c1.36-2.56,3.27-4.53,5.73-5.91s5.29-2.07,8.49-2.07,5.88.68,8.28,2.04c2.4,1.36,4.25,3.23,5.55,5.61,1.3,2.38,1.95,5.07,1.95,8.07,0,1.04-.06,2.14-.18,3.3ZM650.52,247.51c-.92-1.5-2.17-2.64-3.75-3.42-1.58-.78-3.33-1.17-5.25-1.17-2.76,0-5.11.88-7.05,2.64-1.94,1.76-3.05,4.2-3.33,7.32h20.76c0-2.08-.46-3.87-1.38-5.37Z"/><path class="cls-3" d="M711.12,239.83c2,1.06,3.58,2.65,4.74,4.77,1.16,2.12,1.74,4.7,1.74,7.74v19.38h-5.4v-18.6c0-3.28-.81-5.79-2.43-7.53-1.62-1.74-3.81-2.61-6.57-2.61s-5.1.91-6.78,2.73c-1.68,1.82-2.52,4.45-2.52,7.89v18.12h-5.4v-18.6c0-3.28-.81-5.79-2.43-7.53-1.62-1.74-3.81-2.61-6.57-2.61s-5.1.91-6.78,2.73c-1.68,1.82-2.52,4.45-2.52,7.89v18.12h-5.46v-32.88h5.46v4.74c1.08-1.72,2.53-3.04,4.35-3.96,1.82-.92,3.83-1.38,6.03-1.38,2.76,0,5.2.62,7.32,1.86,2.12,1.24,3.7,3.06,4.74,5.46.92-2.32,2.44-4.12,4.56-5.4,2.12-1.28,4.48-1.92,7.08-1.92s4.84.53,6.84,1.59Z"/><path class="cls-3" d="M726.72,232.42c-.72-.72-1.08-1.6-1.08-2.64s.36-1.92,1.08-2.64c.72-.72,1.6-1.08,2.64-1.08s1.85.36,2.55,1.08c.7.72,1.05,1.6,1.05,2.64s-.35,1.92-1.05,2.64c-.7.72-1.55,1.08-2.55,1.08s-1.92-.36-2.64-1.08ZM732,238.84v32.88h-5.46v-32.88h5.46Z"/><path class="cls-3" d="M746.16,270.97c-2-.86-3.58-2.06-4.74-3.6-1.16-1.54-1.8-3.31-1.92-5.31h5.64c.16,1.64.93,2.98,2.31,4.02,1.38,1.04,3.19,1.56,5.43,1.56,2.08,0,3.72-.46,4.92-1.38,1.2-.92,1.8-2.08,1.8-3.48s-.64-2.51-1.92-3.21c-1.28-.7-3.26-1.39-5.94-2.07-2.44-.64-4.43-1.29-5.97-1.95-1.54-.66-2.86-1.64-3.96-2.94-1.1-1.3-1.65-3.01-1.65-5.13,0-1.68.5-3.22,1.5-4.62,1-1.4,2.42-2.51,4.26-3.33,1.84-.82,3.94-1.23,6.3-1.23,3.64,0,6.58.92,8.82,2.76,2.24,1.84,3.44,4.36,3.6,7.56h-5.46c-.12-1.72-.81-3.1-2.07-4.14-1.26-1.04-2.95-1.56-5.07-1.56-1.96,0-3.52.42-4.68,1.26s-1.74,1.94-1.74,3.3c0,1.08.35,1.97,1.05,2.67.7.7,1.58,1.26,2.64,1.68,1.06.42,2.53.89,4.41,1.41,2.36.64,4.28,1.27,5.76,1.89,1.48.62,2.75,1.55,3.81,2.79,1.06,1.24,1.61,2.86,1.65,4.86,0,1.8-.5,3.42-1.5,4.86s-2.41,2.57-4.23,3.39c-1.82.82-3.91,1.23-6.27,1.23-2.52,0-4.78-.43-6.78-1.29Z"/><path class="cls-3" d="M777.48,270.97c-2-.86-3.58-2.06-4.74-3.6-1.16-1.54-1.8-3.31-1.92-5.31h5.64c.16,1.64.93,2.98,2.31,4.02,1.38,1.04,3.19,1.56,5.43,1.56,2.08,0,3.72-.46,4.92-1.38,1.2-.92,1.8-2.08,1.8-3.48s-.64-2.51-1.92-3.21c-1.28-.7-3.26-1.39-5.94-2.07-2.44-.64-4.43-1.29-5.97-1.95-1.54-.66-2.86-1.64-3.96-2.94-1.1-1.3-1.65-3.01-1.65-5.13,0-1.68.5-3.22,1.5-4.62,1-1.4,2.42-2.51,4.26-3.33,1.84-.82,3.94-1.23,6.3-1.23,3.64,0,6.58.92,8.82,2.76,2.24,1.84,3.44,4.36,3.6,7.56h-5.46c-.12-1.72-.81-3.1-2.07-4.14-1.26-1.04-2.95-1.56-5.07-1.56-1.96,0-3.52.42-4.68,1.26s-1.74,1.94-1.74,3.3c0,1.08.35,1.97,1.05,2.67.7.7,1.58,1.26,2.64,1.68,1.06.42,2.53.89,4.41,1.41,2.36.64,4.28,1.27,5.76,1.89,1.48.62,2.75,1.55,3.81,2.79,1.06,1.24,1.61,2.86,1.65,4.86,0,1.8-.5,3.42-1.5,4.86s-2.41,2.57-4.23,3.39c-1.82.82-3.91,1.23-6.27,1.23-2.52,0-4.78-.43-6.78-1.29Z"/><path class="cls-3" d="M804.12,232.42c-.72-.72-1.08-1.6-1.08-2.64s.36-1.92,1.08-2.64c.72-.72,1.6-1.08,2.64-1.08s1.85.36,2.55,1.08c.7.72,1.05,1.6,1.05,2.64s-.35,1.92-1.05,2.64c-.7.72-1.55,1.08-2.55,1.08s-1.92-.36-2.64-1.08ZM809.4,238.84v32.88h-5.46v-32.88h5.46Z"/><path class="cls-3" d="M824.67,270.16c-2.5-1.4-4.46-3.39-5.88-5.97-1.42-2.58-2.13-5.57-2.13-8.97s.73-6.33,2.19-8.91,3.45-4.56,5.97-5.94c2.52-1.38,5.34-2.07,8.46-2.07s5.94.69,8.46,2.07c2.52,1.38,4.51,3.35,5.97,5.91,1.46,2.56,2.19,5.54,2.19,8.94s-.75,6.39-2.25,8.97c-1.5,2.58-3.53,4.57-6.09,5.97-2.56,1.4-5.4,2.1-8.52,2.1s-5.87-.7-8.37-2.1ZM838.56,266.08c1.72-.92,3.11-2.3,4.17-4.14,1.06-1.84,1.59-4.08,1.59-6.72s-.52-4.88-1.56-6.72c-1.04-1.84-2.4-3.21-4.08-4.11-1.68-.9-3.5-1.35-5.46-1.35s-3.83.45-5.49,1.35c-1.66.9-2.99,2.27-3.99,4.11-1,1.84-1.5,4.08-1.5,6.72s.49,4.94,1.47,6.78c.98,1.84,2.29,3.21,3.93,4.11,1.64.9,3.44,1.35,5.4,1.35s3.8-.46,5.52-1.38Z"/><path class="cls-3" d="M882.84,241.87c2.48,2.42,3.72,5.91,3.72,10.47v19.38h-5.4v-18.6c0-3.28-.82-5.79-2.46-7.53-1.64-1.74-3.88-2.61-6.72-2.61s-5.17.9-6.87,2.7-2.55,4.42-2.55,7.86v18.18h-5.46v-32.88h5.46v4.68c1.08-1.68,2.55-2.98,4.41-3.9,1.86-.92,3.91-1.38,6.15-1.38,4,0,7.24,1.21,9.72,3.63Z"/><path class="cls-3" d="M925.32,257.32h-26.28c.2,3.24,1.31,5.77,3.33,7.59,2.02,1.82,4.47,2.73,7.35,2.73,2.36,0,4.33-.55,5.91-1.65,1.58-1.1,2.69-2.57,3.33-4.41h5.88c-.88,3.16-2.64,5.73-5.28,7.71-2.64,1.98-5.92,2.97-9.84,2.97-3.12,0-5.91-.7-8.37-2.1-2.46-1.4-4.39-3.39-5.79-5.97-1.4-2.58-2.1-5.57-2.1-8.97s.68-6.38,2.04-8.94c1.36-2.56,3.27-4.53,5.73-5.91s5.29-2.07,8.49-2.07,5.88.68,8.28,2.04c2.4,1.36,4.25,3.23,5.55,5.61,1.3,2.38,1.95,5.07,1.95,8.07,0,1.04-.06,2.14-.18,3.3ZM918.48,247.51c-.92-1.5-2.17-2.64-3.75-3.42-1.58-.78-3.33-1.17-5.25-1.17-2.76,0-5.11.88-7.05,2.64-1.94,1.76-3.05,4.2-3.33,7.32h20.76c0-2.08-.46-3.87-1.38-5.37Z"/><path class="cls-3" d="M942.27,239.8c1.78-1.04,3.95-1.56,6.51-1.56v5.64h-1.44c-6.12,0-9.18,3.32-9.18,9.96v17.88h-5.46v-32.88h5.46v5.34c.96-1.88,2.33-3.34,4.11-4.38Z"/><path class="cls-3" d="M984.48,243.34h-6.9v28.38h-5.46v-28.38h-4.26v-4.5h4.26v-2.34c0-3.68.95-6.37,2.85-8.07,1.9-1.7,4.95-2.55,9.15-2.55v4.56c-2.4,0-4.09.47-5.07,1.41-.98.94-1.47,2.49-1.47,4.65v2.34h6.9v4.5Z"/><path class="cls-3" d="M1000.41,239.8c1.78-1.04,3.95-1.56,6.51-1.56v5.64h-1.44c-6.12,0-9.18,3.32-9.18,9.96v17.88h-5.46v-32.88h5.46v5.34c.96-1.88,2.33-3.34,4.11-4.38Z"/><path class="cls-3" d="M1013.22,246.31c1.36-2.54,3.23-4.51,5.61-5.91,2.38-1.4,5.03-2.1,7.95-2.1s5.38.62,7.5,1.86c2.12,1.24,3.7,2.8,4.74,4.68v-6h5.52v32.88h-5.52v-6.12c-1.08,1.92-2.69,3.51-4.83,4.77-2.14,1.26-4.63,1.89-7.47,1.89s-5.56-.72-7.92-2.16c-2.36-1.44-4.22-3.46-5.58-6.06-1.36-2.6-2.04-5.56-2.04-8.88s.68-6.31,2.04-8.85ZM1037.52,248.74c-1-1.84-2.35-3.25-4.05-4.23-1.7-.98-3.57-1.47-5.61-1.47s-3.9.48-5.58,1.44c-1.68.96-3.02,2.36-4.02,4.2-1,1.84-1.5,4-1.5,6.48s.5,4.71,1.5,6.57c1,1.86,2.34,3.28,4.02,4.26,1.68.98,3.54,1.47,5.58,1.47s3.91-.49,5.61-1.47c1.7-.98,3.05-2.4,4.05-4.26,1-1.86,1.5-4.03,1.5-6.51s-.5-4.64-1.5-6.48Z"/><path class="cls-3" d="M155.29,329.32h-26.28c.2,3.24,1.31,5.77,3.33,7.59,2.02,1.82,4.47,2.73,7.35,2.73,2.36,0,4.33-.55,5.91-1.65,1.58-1.1,2.69-2.57,3.33-4.41h5.88c-.88,3.16-2.64,5.73-5.28,7.71-2.64,1.98-5.92,2.97-9.84,2.97-3.12,0-5.91-.7-8.37-2.1-2.46-1.4-4.39-3.39-5.79-5.97-1.4-2.58-2.1-5.57-2.1-8.97s.68-6.38,2.04-8.94c1.36-2.56,3.27-4.53,5.73-5.91s5.29-2.07,8.49-2.07,5.88.68,8.28,2.04c2.4,1.36,4.25,3.23,5.55,5.61,1.3,2.38,1.95,5.07,1.95,8.07,0,1.04-.06,2.14-.18,3.3ZM148.45,319.51c-.92-1.5-2.17-2.64-3.75-3.42-1.58-.78-3.33-1.17-5.25-1.17-2.76,0-5.11.88-7.05,2.64-1.94,1.76-3.05,4.2-3.33,7.32h20.76c0-2.08-.46-3.87-1.38-5.37Z"/><path class="cls-3" d="M188.41,313.87c2.48,2.42,3.72,5.91,3.72,10.47v19.38h-5.4v-18.6c0-3.28-.82-5.79-2.46-7.53-1.64-1.74-3.88-2.61-6.72-2.61s-5.17.9-6.87,2.7-2.55,4.42-2.55,7.86v18.18h-5.46v-32.88h5.46v4.68c1.08-1.68,2.55-2.98,4.41-3.9,1.86-.92,3.91-1.38,6.15-1.38,4,0,7.24,1.21,9.72,3.63Z"/><path class="cls-3" d="M230.89,329.32h-26.28c.2,3.24,1.31,5.77,3.33,7.59,2.02,1.82,4.47,2.73,7.35,2.73,2.36,0,4.33-.55,5.91-1.65,1.58-1.1,2.69-2.57,3.33-4.41h5.88c-.88,3.16-2.64,5.73-5.28,7.71-2.64,1.98-5.92,2.97-9.84,2.97-3.12,0-5.91-.7-8.37-2.1-2.46-1.4-4.39-3.39-5.79-5.97-1.4-2.58-2.1-5.57-2.1-8.97s.68-6.38,2.04-8.94c1.36-2.56,3.27-4.53,5.73-5.91s5.29-2.07,8.49-2.07,5.88.68,8.28,2.04c2.4,1.36,4.25,3.23,5.55,5.61,1.3,2.38,1.95,5.07,1.95,8.07,0,1.04-.06,2.14-.18,3.3ZM224.05,319.51c-.92-1.5-2.17-2.64-3.75-3.42-1.58-.78-3.33-1.17-5.25-1.17-2.76,0-5.11.88-7.05,2.64-1.94,1.76-3.05,4.2-3.33,7.32h20.76c0-2.08-.46-3.87-1.38-5.37Z"/><path class="cls-3" d="M247.84,311.8c1.78-1.04,3.95-1.56,6.51-1.56v5.64h-1.44c-6.12,0-9.18,3.32-9.18,9.96v17.88h-5.46v-32.88h5.46v5.34c.96-1.88,2.33-3.34,4.11-4.38Z"/><path class="cls-3" d="M281.68,312.16c2.14,1.24,3.73,2.8,4.77,4.68v-6h5.52v33.6c0,3-.64,5.67-1.92,8.01s-3.11,4.17-5.49,5.49c-2.38,1.32-5.15,1.98-8.31,1.98-4.32,0-7.92-1.02-10.8-3.06s-4.58-4.82-5.1-8.34h5.4c.6,2,1.84,3.61,3.72,4.83,1.88,1.22,4.14,1.83,6.78,1.83,3,0,5.45-.94,7.35-2.82,1.9-1.88,2.85-4.52,2.85-7.92v-6.9c-1.08,1.92-2.68,3.52-4.8,4.8-2.12,1.28-4.6,1.92-7.44,1.92s-5.57-.72-7.95-2.16c-2.38-1.44-4.25-3.46-5.61-6.06-1.36-2.6-2.04-5.56-2.04-8.88s.68-6.31,2.04-8.85c1.36-2.54,3.23-4.51,5.61-5.91,2.38-1.4,5.03-2.1,7.95-2.1s5.33.62,7.47,1.86ZM284.95,320.74c-1-1.84-2.35-3.25-4.05-4.23-1.7-.98-3.57-1.47-5.61-1.47s-3.9.48-5.58,1.44c-1.68.96-3.02,2.36-4.02,4.2-1,1.84-1.5,4-1.5,6.48s.5,4.71,1.5,6.57c1,1.86,2.34,3.28,4.02,4.26,1.68.98,3.54,1.47,5.58,1.47s3.91-.49,5.61-1.47c1.7-.98,3.05-2.4,4.05-4.26,1-1.86,1.5-4.03,1.5-6.51s-.5-4.64-1.5-6.48Z"/><path class="cls-3" d="M301.39,304.42c-.72-.72-1.08-1.6-1.08-2.64s.36-1.92,1.08-2.64c.72-.72,1.6-1.08,2.64-1.08s1.85.36,2.55,1.08c.7.72,1.05,1.6,1.05,2.64s-.35,1.92-1.05,2.64c-.7.72-1.55,1.08-2.55,1.08s-1.92-.36-2.64-1.08ZM306.67,310.84v32.88h-5.46v-32.88h5.46Z"/><path class="cls-5" d="M336.91,342.7c-2.28-1-4.08-2.37-5.4-4.11-1.32-1.74-2.06-3.69-2.22-5.85h10.14c.12,1.16.66,2.1,1.62,2.82.96.72,2.14,1.08,3.54,1.08,1.28,0,2.27-.25,2.97-.75.7-.5,1.05-1.15,1.05-1.95,0-.96-.5-1.67-1.5-2.13-1-.46-2.62-.97-4.86-1.53-2.4-.56-4.4-1.15-6-1.77-1.6-.62-2.98-1.6-4.14-2.94-1.16-1.34-1.74-3.15-1.74-5.43,0-1.92.53-3.67,1.59-5.25,1.06-1.58,2.62-2.83,4.68-3.75,2.06-.92,4.51-1.38,7.35-1.38,4.2,0,7.51,1.04,9.93,3.12,2.42,2.08,3.81,4.84,4.17,8.28h-9.48c-.16-1.16-.67-2.08-1.53-2.76-.86-.68-1.99-1.02-3.39-1.02-1.2,0-2.12.23-2.76.69-.64.46-.96,1.09-.96,1.89,0,.96.51,1.68,1.53,2.16,1.02.48,2.61.96,4.77,1.44,2.48.64,4.5,1.27,6.06,1.89,1.56.62,2.93,1.62,4.11,3,1.18,1.38,1.79,3.23,1.83,5.55,0,1.96-.55,3.71-1.65,5.25-1.1,1.54-2.68,2.75-4.74,3.63-2.06.88-4.45,1.32-7.17,1.32-2.92,0-5.52-.5-7.8-1.5Z"/><path class="cls-5" d="M383.23,335.02v8.7h-5.22c-3.72,0-6.62-.91-8.7-2.73-2.08-1.82-3.12-4.79-3.12-8.91v-13.32h-4.08v-8.52h4.08v-8.16h10.26v8.16h6.72v8.52h-6.72v13.44c0,1,.24,1.72.72,2.16.48.44,1.28.66,2.4.66h3.66Z"/><path class="cls-5" d="M420.3,329.44h-23.22c.16,2.08.83,3.67,2.01,4.77,1.18,1.1,2.63,1.65,4.35,1.65,2.56,0,4.34-1.08,5.34-3.24h10.92c-.56,2.2-1.57,4.18-3.03,5.94-1.46,1.76-3.29,3.14-5.49,4.14-2.2,1-4.66,1.5-7.38,1.5-3.28,0-6.2-.7-8.76-2.1-2.56-1.4-4.56-3.4-6-6-1.44-2.6-2.16-5.64-2.16-9.12s.71-6.52,2.13-9.12c1.42-2.6,3.41-4.6,5.97-6,2.56-1.4,5.5-2.1,8.82-2.1s6.12.68,8.64,2.04c2.52,1.36,4.49,3.3,5.91,5.82,1.42,2.52,2.13,5.46,2.13,8.82,0,.96-.06,1.96-.18,3ZM409.99,323.74c0-1.76-.6-3.16-1.8-4.2-1.2-1.04-2.7-1.56-4.5-1.56s-3.17.5-4.35,1.5c-1.18,1-1.91,2.42-2.19,4.26h12.84Z"/><path class="cls-5" d="M444.82,311.2c1.78.96,3.15,2.22,4.11,3.78v-4.74h10.26v33.42c0,3.08-.61,5.87-1.83,8.37-1.22,2.5-3.08,4.49-5.58,5.97-2.5,1.48-5.61,2.22-9.33,2.22-4.96,0-8.98-1.17-12.06-3.51-3.08-2.34-4.84-5.51-5.28-9.51h10.14c.32,1.28,1.08,2.29,2.28,3.03,1.2.74,2.68,1.11,4.44,1.11,2.12,0,3.81-.61,5.07-1.83,1.26-1.22,1.89-3.17,1.89-5.85v-4.74c-1,1.56-2.38,2.83-4.14,3.81-1.76.98-3.82,1.47-6.18,1.47-2.76,0-5.26-.71-7.5-2.13-2.24-1.42-4.01-3.44-5.31-6.06-1.3-2.62-1.95-5.65-1.95-9.09s.65-6.46,1.95-9.06c1.3-2.6,3.07-4.6,5.31-6,2.24-1.4,4.74-2.1,7.5-2.1,2.36,0,4.43.48,6.21,1.44ZM446.8,320.92c-1.42-1.48-3.15-2.22-5.19-2.22s-3.77.73-5.19,2.19c-1.42,1.46-2.13,3.47-2.13,6.03s.71,4.59,2.13,6.09c1.42,1.5,3.15,2.25,5.19,2.25s3.77-.74,5.19-2.22c1.42-1.48,2.13-3.5,2.13-6.06s-.71-4.58-2.13-6.06Z"/><path class="cls-5" d="M531.99,313.66c2.46,2.52,3.69,6.02,3.69,10.5v19.56h-10.2v-18.18c0-2.16-.57-3.83-1.71-5.01-1.14-1.18-2.71-1.77-4.71-1.77s-3.57.59-4.71,1.77c-1.14,1.18-1.71,2.85-1.71,5.01v18.18h-10.2v-18.18c0-2.16-.57-3.83-1.71-5.01-1.14-1.18-2.71-1.77-4.71-1.77s-3.57.59-4.71,1.77c-1.14,1.18-1.71,2.85-1.71,5.01v18.18h-10.26v-33.48h10.26v4.2c1.04-1.4,2.4-2.51,4.08-3.33,1.68-.82,3.58-1.23,5.7-1.23,2.52,0,4.77.54,6.75,1.62,1.98,1.08,3.53,2.62,4.65,4.62,1.16-1.84,2.74-3.34,4.74-4.5,2-1.16,4.18-1.74,6.54-1.74,4.16,0,7.47,1.26,9.93,3.78Z"/><path class="cls-5" d="M574.26,329.44h-23.22c.16,2.08.83,3.67,2.01,4.77,1.18,1.1,2.63,1.65,4.35,1.65,2.56,0,4.34-1.08,5.34-3.24h10.92c-.56,2.2-1.57,4.18-3.03,5.94-1.46,1.76-3.29,3.14-5.49,4.14-2.2,1-4.66,1.5-7.38,1.5-3.28,0-6.2-.7-8.76-2.1-2.56-1.4-4.56-3.4-6-6-1.44-2.6-2.16-5.64-2.16-9.12s.71-6.52,2.13-9.12c1.42-2.6,3.41-4.6,5.97-6,2.56-1.4,5.5-2.1,8.82-2.1s6.12.68,8.64,2.04c2.52,1.36,4.49,3.3,5.91,5.82,1.42,2.52,2.13,5.46,2.13,8.82,0,.96-.06,1.96-.18,3ZM563.94,323.74c0-1.76-.6-3.16-1.8-4.2-1.2-1.04-2.7-1.56-4.5-1.56s-3.17.5-4.35,1.5c-1.18,1-1.91,2.42-2.19,4.26h12.84Z"/><path class="cls-5" d="M579.75,317.86c1.3-2.6,3.07-4.6,5.31-6,2.24-1.4,4.74-2.1,7.5-2.1,2.2,0,4.21.46,6.03,1.38,1.82.92,3.25,2.16,4.29,3.72v-15.54h10.26v44.4h-10.26v-4.8c-.96,1.6-2.33,2.88-4.11,3.84-1.78.96-3.85,1.44-6.21,1.44-2.76,0-5.26-.71-7.5-2.13-2.24-1.42-4.01-3.44-5.31-6.06-1.3-2.62-1.95-5.65-1.95-9.09s.65-6.46,1.95-9.06ZM600.75,320.92c-1.42-1.48-3.15-2.22-5.19-2.22s-3.77.73-5.19,2.19c-1.42,1.46-2.13,3.47-2.13,6.03s.71,4.59,2.13,6.09c1.42,1.5,3.15,2.25,5.19,2.25s3.77-.74,5.19-2.22c1.42-1.48,2.13-3.5,2.13-6.06s-.71-4.58-2.13-6.06Z"/><path class="cls-5" d="M636.27,304.96c2.66-3.96,6.95-5.94,12.87-5.94s10.21,1.98,12.87,5.94c2.66,3.96,3.99,9.38,3.99,16.26s-1.33,12.42-3.99,16.38-6.95,5.94-12.87,5.94-10.21-1.98-12.87-5.94c-2.66-3.96-3.99-9.42-3.99-16.38s1.33-12.3,3.99-16.26ZM654.6,311.89c-.88-2.18-2.7-3.27-5.46-3.27s-4.58,1.09-5.46,3.27c-.88,2.18-1.32,5.29-1.32,9.33,0,2.72.16,4.97.48,6.75.32,1.78.97,3.22,1.95,4.32.98,1.1,2.43,1.65,4.35,1.65s3.37-.55,4.35-1.65c.98-1.1,1.63-2.54,1.95-4.32.32-1.78.48-4.03.48-6.75,0-4.04-.44-7.15-1.32-9.33Z"/><path class="cls-5" d="M683.46,334.24l-6.66,17.22h-6.54l3.48-17.22h9.72Z"/><path class="cls-5" d="M705.18,335.62c2.12,0,3.62-.94,4.5-2.82.88-1.88,1.32-4.94,1.32-9.18-.88,1.24-2.08,2.2-3.6,2.88-1.52.68-3.22,1.02-5.1,1.02-2.56,0-4.84-.53-6.84-1.59-2-1.06-3.57-2.64-4.71-4.74-1.14-2.1-1.71-4.65-1.71-7.65s.61-5.54,1.83-7.74c1.22-2.2,2.96-3.9,5.22-5.1s4.93-1.8,8.01-1.8c5.92,0,10.06,1.84,12.42,5.52,2.36,3.68,3.54,9.1,3.54,16.26,0,5.2-.47,9.49-1.41,12.87-.94,3.38-2.52,5.95-4.74,7.71-2.22,1.76-5.25,2.64-9.09,2.64-3.04,0-5.63-.6-7.77-1.8-2.14-1.2-3.78-2.78-4.92-4.74-1.14-1.96-1.79-4.12-1.95-6.48h9.48c.6,3.16,2.44,4.74,5.52,4.74ZM708.66,317.89c1-1.02,1.5-2.41,1.5-4.17,0-1.92-.52-3.4-1.56-4.44-1.04-1.04-2.44-1.56-4.2-1.56s-3.15.53-4.17,1.59c-1.02,1.06-1.53,2.51-1.53,4.35,0,1.72.51,3.11,1.53,4.17,1.02,1.06,2.49,1.59,4.41,1.59,1.68,0,3.02-.51,4.02-1.53Z"/><path class="cls-5" d="M727.47,303.46c1.86-1.76,4.27-2.64,7.23-2.64s5.36.88,7.2,2.64c1.84,1.76,2.76,4.26,2.76,7.5s-.92,5.74-2.76,7.5c-1.84,1.76-4.24,2.64-7.2,2.64s-5.37-.88-7.23-2.64c-1.86-1.76-2.79-4.26-2.79-7.5s.93-5.74,2.79-7.5ZM731.76,310.96c0,2.72.96,4.08,2.88,4.08.92,0,1.64-.34,2.16-1.02.52-.68.78-1.7.78-3.06,0-2.76-.98-4.14-2.94-4.14s-2.88,1.38-2.88,4.14ZM765.42,301.48l-23.1,42.24h-9.9l23.1-42.24h9.9ZM756,326.74c1.84-1.76,4.24-2.64,7.2-2.64s5.36.88,7.2,2.64c1.84,1.76,2.76,4.26,2.76,7.5s-.92,5.74-2.76,7.5c-1.84,1.76-4.24,2.64-7.2,2.64s-5.36-.88-7.2-2.64c-1.84-1.76-2.76-4.26-2.76-7.5s.92-5.74,2.76-7.5ZM761.01,331.12c-.5.68-.75,1.72-.75,3.12,0,2.72.96,4.08,2.88,4.08.92,0,1.64-.34,2.16-1.02.52-.68.78-1.7.78-3.06s-.26-2.39-.78-3.09c-.52-.7-1.24-1.05-2.16-1.05s-1.63.34-2.13,1.02Z"/><path class="cls-5" d="M792.21,305.17c-1.14-1.06-1.71-2.37-1.71-3.93s.57-2.93,1.71-3.99c1.14-1.06,2.61-1.59,4.41-1.59s3.21.53,4.35,1.59c1.14,1.06,1.71,2.39,1.71,3.99s-.57,2.87-1.71,3.93c-1.14,1.06-2.59,1.59-4.35,1.59s-3.27-.53-4.41-1.59ZM801.72,310.24v33.48h-10.26v-33.48h10.26Z"/><path class="cls-5" d="M822.36,334c3.92-3.24,7.01-5.9,9.27-7.98,2.26-2.08,4.17-4.26,5.73-6.54,1.56-2.28,2.34-4.5,2.34-6.66,0-1.64-.38-2.92-1.14-3.84-.76-.92-1.9-1.38-3.42-1.38s-2.71.57-3.57,1.71c-.86,1.14-1.29,2.75-1.29,4.83h-9.9c.08-3.4.81-6.24,2.19-8.52,1.38-2.28,3.2-3.96,5.46-5.04,2.26-1.08,4.77-1.62,7.53-1.62,4.76,0,8.35,1.22,10.77,3.66,2.42,2.44,3.63,5.62,3.63,9.54,0,4.28-1.46,8.25-4.38,11.91-2.92,3.66-6.64,7.23-11.16,10.71h16.2v8.34h-30.12v-7.62c1.36-1.08,1.98-1.58,1.86-1.5Z"/><path class="cls-5" d="M859.11,304.96c2.66-3.96,6.95-5.94,12.87-5.94s10.21,1.98,12.87,5.94c2.66,3.96,3.99,9.38,3.99,16.26s-1.33,12.42-3.99,16.38-6.95,5.94-12.87,5.94-10.21-1.98-12.87-5.94c-2.66-3.96-3.99-9.42-3.99-16.38s1.33-12.3,3.99-16.26ZM877.44,311.89c-.88-2.18-2.7-3.27-5.46-3.27s-4.58,1.09-5.46,3.27c-.88,2.18-1.32,5.29-1.32,9.33,0,2.72.16,4.97.48,6.75.32,1.78.97,3.22,1.95,4.32.98,1.1,2.43,1.65,4.35,1.65s3.37-.55,4.35-1.65c.98-1.1,1.63-2.54,1.95-4.32.32-1.78.48-4.03.48-6.75,0-4.04-.44-7.15-1.32-9.33Z"/><path class="cls-5" d="M895.74,334c3.92-3.24,7.01-5.9,9.27-7.98,2.26-2.08,4.17-4.26,5.73-6.54,1.56-2.28,2.34-4.5,2.34-6.66,0-1.64-.38-2.92-1.14-3.84-.76-.92-1.9-1.38-3.42-1.38s-2.71.57-3.57,1.71c-.86,1.14-1.29,2.75-1.29,4.83h-9.9c.08-3.4.81-6.24,2.19-8.52,1.38-2.28,3.2-3.96,5.46-5.04,2.26-1.08,4.77-1.62,7.53-1.62,4.76,0,8.35,1.22,10.77,3.66,2.42,2.44,3.63,5.62,3.63,9.54,0,4.28-1.46,8.25-4.38,11.91-2.92,3.66-6.64,7.23-11.16,10.71h16.2v8.34h-30.12v-7.62c1.36-1.08,1.98-1.58,1.86-1.5Z"/><path class="cls-5" d="M930,334c3.92-3.24,7.01-5.9,9.27-7.98,2.26-2.08,4.17-4.26,5.73-6.54,1.56-2.28,2.34-4.5,2.34-6.66,0-1.64-.38-2.92-1.14-3.84-.76-.92-1.9-1.38-3.42-1.38s-2.71.57-3.57,1.71c-.86,1.14-1.29,2.75-1.29,4.83h-9.9c.08-3.4.81-6.24,2.19-8.52,1.38-2.28,3.2-3.96,5.46-5.04,2.26-1.08,4.77-1.62,7.53-1.62,4.76,0,8.35,1.22,10.77,3.66,2.42,2.44,3.63,5.62,3.63,9.54,0,4.28-1.46,8.25-4.38,11.91-2.92,3.66-6.64,7.23-11.16,10.71h16.2v8.34h-30.12v-7.62c1.36-1.08,1.98-1.58,1.86-1.5Z"/><path class="cls-3" d="M983.37,342.16c-2.5-1.4-4.46-3.39-5.88-5.97-1.42-2.58-2.13-5.57-2.13-8.97s.73-6.33,2.19-8.91,3.45-4.56,5.97-5.94c2.52-1.38,5.34-2.07,8.46-2.07s5.94.69,8.46,2.07c2.52,1.38,4.51,3.35,5.97,5.91,1.46,2.56,2.19,5.54,2.19,8.94s-.75,6.39-2.25,8.97c-1.5,2.58-3.53,4.57-6.09,5.97-2.56,1.4-5.4,2.1-8.52,2.1s-5.87-.7-8.37-2.1ZM997.26,338.08c1.72-.92,3.11-2.3,4.17-4.14,1.06-1.84,1.59-4.08,1.59-6.72s-.52-4.88-1.56-6.72c-1.04-1.84-2.4-3.21-4.08-4.11-1.68-.9-3.5-1.35-5.46-1.35s-3.83.45-5.49,1.35c-1.66.9-2.99,2.27-3.99,4.11-1,1.84-1.5,4.08-1.5,6.72s.49,4.94,1.47,6.78c.98,1.84,2.29,3.21,3.93,4.11,1.64.9,3.44,1.35,5.4,1.35s3.8-.46,5.52-1.38Z"/><path class="cls-3" d="M1036.83,312.16c2.14,1.24,3.73,2.8,4.77,4.68v-6h5.52v33.6c0,3-.64,5.67-1.92,8.01s-3.11,4.17-5.49,5.49c-2.38,1.32-5.15,1.98-8.31,1.98-4.32,0-7.92-1.02-10.8-3.06s-4.58-4.82-5.1-8.34h5.4c.6,2,1.84,3.61,3.72,4.83,1.88,1.22,4.14,1.83,6.78,1.83,3,0,5.45-.94,7.35-2.82,1.9-1.88,2.85-4.52,2.85-7.92v-6.9c-1.08,1.92-2.68,3.52-4.8,4.8-2.12,1.28-4.6,1.92-7.44,1.92s-5.57-.72-7.95-2.16c-2.38-1.44-4.25-3.46-5.61-6.06-1.36-2.6-2.04-5.56-2.04-8.88s.68-6.31,2.04-8.85c1.36-2.54,3.23-4.51,5.61-5.91,2.38-1.4,5.03-2.1,7.95-2.1s5.33.62,7.47,1.86ZM1040.1,320.74c-1-1.84-2.35-3.25-4.05-4.23-1.7-.98-3.57-1.47-5.61-1.47s-3.9.48-5.58,1.44c-1.68.96-3.02,2.36-4.02,4.2-1,1.84-1.5,4-1.5,6.48s.5,4.71,1.5,6.57c1,1.86,2.34,3.28,4.02,4.26,1.68.98,3.54,1.47,5.58,1.47s3.91-.49,5.61-1.47c1.7-.98,3.05-2.4,4.05-4.26,1-1.86,1.5-4.03,1.5-6.51s-.5-4.64-1.5-6.48Z"/><path class="cls-3" d="M203.47,385.87c2.48,2.42,3.72,5.91,3.72,10.47v19.38h-5.4v-18.6c0-3.28-.82-5.79-2.46-7.53-1.64-1.74-3.88-2.61-6.72-2.61s-5.17.9-6.87,2.7-2.55,4.42-2.55,7.86v18.18h-5.46v-32.88h5.46v4.68c1.08-1.68,2.55-2.98,4.41-3.9,1.86-.92,3.91-1.38,6.15-1.38,4,0,7.24,1.21,9.72,3.63Z"/><path class="cls-3" d="M216.13,390.31c1.36-2.54,3.23-4.51,5.61-5.91,2.38-1.4,5.03-2.1,7.95-2.1s5.38.62,7.5,1.86c2.12,1.24,3.7,2.8,4.74,4.68v-6h5.52v32.88h-5.52v-6.12c-1.08,1.92-2.69,3.51-4.83,4.77-2.14,1.26-4.63,1.89-7.47,1.89s-5.56-.72-7.92-2.16c-2.36-1.44-4.22-3.46-5.58-6.06-1.36-2.6-2.04-5.56-2.04-8.88s.68-6.31,2.04-8.85ZM240.43,392.74c-1-1.84-2.35-3.25-4.05-4.23-1.7-.98-3.57-1.47-5.61-1.47s-3.9.48-5.58,1.44c-1.68.96-3.02,2.36-4.02,4.2-1,1.84-1.5,4-1.5,6.48s.5,4.71,1.5,6.57c1,1.86,2.34,3.28,4.02,4.26,1.68.98,3.54,1.47,5.58,1.47s3.91-.49,5.61-1.47c1.7-.98,3.05-2.4,4.05-4.26,1-1.86,1.5-4.03,1.5-6.51s-.5-4.64-1.5-6.48ZM236.44,377.59c-1.22,1.14-2.75,1.71-4.59,1.71s-3.32-.58-4.56-1.74c-1.24-1.16-1.86-2.68-1.86-4.56s.62-3.4,1.86-4.56c1.24-1.16,2.76-1.74,4.56-1.74s3.37.57,4.59,1.71c1.22,1.14,1.83,2.67,1.83,4.59s-.61,3.45-1.83,4.59ZM234.16,370.51c-.62-.62-1.39-.93-2.31-.93s-1.69.31-2.31.93c-.62.62-.93,1.43-.93,2.43s.31,1.82.93,2.46c.62.64,1.39.96,2.31.96s1.69-.32,2.31-.96c.62-.64.93-1.46.93-2.46s-.31-1.81-.93-2.43Z"/><path class="cls-3" d="M286.51,401.32h-26.28c.2,3.24,1.31,5.77,3.33,7.59,2.02,1.82,4.47,2.73,7.35,2.73,2.36,0,4.33-.55,5.91-1.65,1.58-1.1,2.69-2.57,3.33-4.41h5.88c-.88,3.16-2.64,5.73-5.28,7.71-2.64,1.98-5.92,2.97-9.84,2.97-3.12,0-5.91-.7-8.37-2.1-2.46-1.4-4.39-3.39-5.79-5.97-1.4-2.58-2.1-5.57-2.1-8.97s.68-6.38,2.04-8.94c1.36-2.56,3.27-4.53,5.73-5.91s5.29-2.07,8.49-2.07,5.88.68,8.28,2.04c2.4,1.36,4.25,3.23,5.55,5.61,1.3,2.38,1.95,5.07,1.95,8.07,0,1.04-.06,2.14-.18,3.3ZM279.67,391.51c-.92-1.5-2.17-2.64-3.75-3.42-1.58-.78-3.33-1.17-5.25-1.17-2.76,0-5.11.88-7.05,2.64-1.94,1.76-3.05,4.2-3.33,7.32h20.76c0-2.08-.46-3.87-1.38-5.37Z"/><path class="cls-3" d="M293.89,390.31c1.36-2.54,3.23-4.51,5.61-5.91,2.38-1.4,5.05-2.1,8.01-2.1,2.56,0,4.94.59,7.14,1.77,2.2,1.18,3.88,2.73,5.04,4.65v-17.4h5.52v44.4h-5.52v-6.18c-1.08,1.96-2.68,3.57-4.8,4.83-2.12,1.26-4.6,1.89-7.44,1.89s-5.57-.72-7.95-2.16c-2.38-1.44-4.25-3.46-5.61-6.06-1.36-2.6-2.04-5.56-2.04-8.88s.68-6.31,2.04-8.85ZM318.19,392.74c-1-1.84-2.35-3.25-4.05-4.23-1.7-.98-3.57-1.47-5.61-1.47s-3.9.48-5.58,1.44c-1.68.96-3.02,2.36-4.02,4.2-1,1.84-1.5,4-1.5,6.48s.5,4.71,1.5,6.57c1,1.86,2.34,3.28,4.02,4.26,1.68.98,3.54,1.47,5.58,1.47s3.91-.49,5.61-1.47c1.7-.98,3.05-2.4,4.05-4.26,1-1.86,1.5-4.03,1.5-6.51s-.5-4.64-1.5-6.48Z"/><path class="cls-3" d="M364.27,401.32h-26.28c.2,3.24,1.31,5.77,3.33,7.59,2.02,1.82,4.47,2.73,7.35,2.73,2.36,0,4.33-.55,5.91-1.65,1.58-1.1,2.69-2.57,3.33-4.41h5.88c-.88,3.16-2.64,5.73-5.28,7.71-2.64,1.98-5.92,2.97-9.84,2.97-3.12,0-5.91-.7-8.37-2.1-2.46-1.4-4.39-3.39-5.79-5.97-1.4-2.58-2.1-5.57-2.1-8.97s.68-6.38,2.04-8.94c1.36-2.56,3.27-4.53,5.73-5.91s5.29-2.07,8.49-2.07,5.88.68,8.28,2.04c2.4,1.36,4.25,3.23,5.55,5.61,1.3,2.38,1.95,5.07,1.95,8.07,0,1.04-.06,2.14-.18,3.3ZM357.43,391.51c-.92-1.5-2.17-2.64-3.75-3.42-1.58-.78-3.33-1.17-5.25-1.17-2.76,0-5.11.88-7.05,2.64-1.94,1.76-3.05,4.2-3.33,7.32h20.76c0-2.08-.46-3.87-1.38-5.37Z"/><path class="cls-3" d="M417.49,401.32h-26.28c.2,3.24,1.31,5.77,3.33,7.59,2.02,1.82,4.47,2.73,7.35,2.73,2.36,0,4.33-.55,5.91-1.65,1.58-1.1,2.69-2.57,3.33-4.41h5.88c-.88,3.16-2.64,5.73-5.28,7.71-2.64,1.98-5.92,2.97-9.84,2.97-3.12,0-5.91-.7-8.37-2.1-2.46-1.4-4.39-3.39-5.79-5.97-1.4-2.58-2.1-5.57-2.1-8.97s.68-6.38,2.04-8.94c1.36-2.56,3.27-4.53,5.73-5.91s5.29-2.07,8.49-2.07,5.88.68,8.28,2.04c2.4,1.36,4.25,3.23,5.55,5.61,1.3,2.38,1.95,5.07,1.95,8.07,0,1.04-.06,2.14-.18,3.3ZM410.65,391.51c-.92-1.5-2.17-2.64-3.75-3.42-1.58-.78-3.33-1.17-5.25-1.17-2.76,0-5.11.88-7.05,2.64-1.94,1.76-3.05,4.2-3.33,7.32h20.76c0-2.08-.46-3.87-1.38-5.37Z"/><path class="cls-3" d="M450.61,385.87c2.48,2.42,3.72,5.91,3.72,10.47v19.38h-5.4v-18.6c0-3.28-.82-5.79-2.46-7.53-1.64-1.74-3.88-2.61-6.72-2.61s-5.17.9-6.87,2.7-2.55,4.42-2.55,7.86v18.18h-5.46v-32.88h5.46v4.68c1.08-1.68,2.55-2.98,4.41-3.9,1.86-.92,3.91-1.38,6.15-1.38,4,0,7.24,1.21,9.72,3.63Z"/><path class="cls-3" d="M505.03,385.87c2.48,2.42,3.72,5.91,3.72,10.47v19.38h-5.4v-18.6c0-3.28-.82-5.79-2.46-7.53-1.64-1.74-3.88-2.61-6.72-2.61s-5.17.9-6.87,2.7-2.55,4.42-2.55,7.86v18.18h-5.46v-32.88h5.46v4.68c1.08-1.68,2.55-2.98,4.41-3.9,1.86-.92,3.91-1.38,6.15-1.38,4,0,7.24,1.21,9.72,3.63Z"/><path class="cls-3" d="M546.01,382.84l-19.8,48.36h-5.64l6.48-15.84-13.26-32.52h6.06l10.32,26.64,10.2-26.64h5.64Z"/><path class="cls-3" d="M577.06,383.8c1.78-1.04,3.95-1.56,6.51-1.56v5.64h-1.44c-6.12,0-9.18,3.32-9.18,9.96v17.88h-5.46v-32.88h5.46v5.34c.96-1.88,2.33-3.34,4.11-4.38Z"/><path class="cls-3" d="M619.69,401.32h-26.28c.2,3.24,1.31,5.77,3.33,7.59,2.02,1.82,4.47,2.73,7.35,2.73,2.36,0,4.33-.55,5.91-1.65,1.58-1.1,2.69-2.57,3.33-4.41h5.88c-.88,3.16-2.64,5.73-5.28,7.71-2.64,1.98-5.92,2.97-9.84,2.97-3.12,0-5.91-.7-8.37-2.1-2.46-1.4-4.39-3.39-5.79-5.97-1.4-2.58-2.1-5.57-2.1-8.97s.68-6.38,2.04-8.94c1.36-2.56,3.27-4.53,5.73-5.91s5.29-2.07,8.49-2.07,5.88.68,8.28,2.04c2.4,1.36,4.25,3.23,5.55,5.61,1.3,2.38,1.95,5.07,1.95,8.07,0,1.04-.06,2.14-.18,3.3ZM612.84,391.51c-.92-1.5-2.17-2.64-3.75-3.42-1.58-.78-3.33-1.17-5.25-1.17-2.76,0-5.11.88-7.05,2.64-1.94,1.76-3.05,4.2-3.33,7.32h20.76c0-2.08-.46-3.87-1.38-5.37Z"/><path class="cls-3" d="M645.43,415.72l-12.9-14.52v14.52h-5.46v-44.4h5.46v26.1l12.66-14.58h7.62l-15.48,16.38,15.54,16.5h-7.44Z"/><path class="cls-3" d="M663.93,414.16c-2.5-1.4-4.46-3.39-5.88-5.97-1.42-2.58-2.13-5.57-2.13-8.97s.73-6.33,2.19-8.91,3.45-4.56,5.97-5.94c2.52-1.38,5.34-2.07,8.46-2.07s5.94.69,8.46,2.07c2.52,1.38,4.51,3.35,5.97,5.91,1.46,2.56,2.19,5.54,2.19,8.94s-.75,6.39-2.25,8.97c-1.5,2.58-3.53,4.57-6.09,5.97-2.56,1.4-5.4,2.1-8.52,2.1s-5.87-.7-8.37-2.1ZM677.83,410.08c1.72-.92,3.11-2.3,4.17-4.14,1.06-1.84,1.59-4.08,1.59-6.72s-.52-4.88-1.56-6.72c-1.04-1.84-2.4-3.21-4.08-4.11-1.68-.9-3.5-1.35-5.46-1.35s-3.83.45-5.49,1.35c-1.66.9-2.99,2.27-3.99,4.11-1,1.84-1.5,4.08-1.5,6.72s.49,4.94,1.47,6.78c.98,1.84,2.29,3.21,3.93,4.11,1.64.9,3.44,1.35,5.4,1.35s3.8-.46,5.52-1.38Z"/><path class="cls-3" d="M705.94,383.8c1.78-1.04,3.95-1.56,6.51-1.56v5.64h-1.44c-6.12,0-9.18,3.32-9.18,9.96v17.88h-5.46v-32.88h5.46v5.34c.96-1.88,2.33-3.34,4.11-4.38Z"/><path class="cls-3" d="M718.74,390.31c1.36-2.54,3.23-4.51,5.61-5.91,2.38-1.4,5.05-2.1,8.01-2.1,2.56,0,4.94.59,7.14,1.77,2.2,1.18,3.88,2.73,5.04,4.65v-17.4h5.52v44.4h-5.52v-6.18c-1.08,1.96-2.68,3.57-4.8,4.83-2.12,1.26-4.6,1.89-7.44,1.89s-5.57-.72-7.95-2.16c-2.38-1.44-4.25-3.46-5.61-6.06-1.36-2.6-2.04-5.56-2.04-8.88s.68-6.31,2.04-8.85ZM743.04,392.74c-1-1.84-2.35-3.25-4.05-4.23-1.7-.98-3.57-1.47-5.61-1.47s-3.9.48-5.58,1.44c-1.68.96-3.02,2.36-4.02,4.2-1,1.84-1.5,4-1.5,6.48s.5,4.71,1.5,6.57c1,1.86,2.34,3.28,4.02,4.26,1.68.98,3.54,1.47,5.58,1.47s3.91-.49,5.61-1.47c1.7-.98,3.05-2.4,4.05-4.26,1-1.86,1.5-4.03,1.5-6.51s-.5-4.64-1.5-6.48Z"/><path class="cls-3" d="M785.61,384.19c2.14-1.26,4.63-1.89,7.47-1.89s5.57.7,7.95,2.1c2.38,1.4,4.25,3.37,5.61,5.91,1.36,2.54,2.04,5.49,2.04,8.85s-.68,6.28-2.04,8.88c-1.36,2.6-3.23,4.62-5.61,6.06-2.38,1.44-5.03,2.16-7.95,2.16s-5.27-.63-7.41-1.89c-2.14-1.26-3.77-2.83-4.89-4.71v21.66h-5.46v-48.48h5.46v6.06c1.08-1.88,2.69-3.45,4.83-4.71ZM801.6,392.68c-1-1.84-2.35-3.24-4.05-4.2-1.7-.96-3.57-1.44-5.61-1.44s-3.85.49-5.55,1.47c-1.7.98-3.06,2.4-4.08,4.26-1.02,1.86-1.53,4.01-1.53,6.45s.51,4.65,1.53,6.51c1.02,1.86,2.38,3.28,4.08,4.26,1.7.98,3.55,1.47,5.55,1.47s3.91-.49,5.61-1.47c1.7-.98,3.05-2.4,4.05-4.26,1-1.86,1.5-4.05,1.5-6.57s-.5-4.64-1.5-6.48Z"/><path class="cls-3" d="M815.88,390.31c1.36-2.54,3.23-4.51,5.61-5.91,2.38-1.4,5.03-2.1,7.95-2.1s5.38.62,7.5,1.86c2.12,1.24,3.7,2.8,4.74,4.68v-6h5.52v32.88h-5.52v-6.12c-1.08,1.92-2.69,3.51-4.83,4.77-2.14,1.26-4.63,1.89-7.47,1.89s-5.56-.72-7.92-2.16c-2.36-1.44-4.22-3.46-5.58-6.06-1.36-2.6-2.04-5.56-2.04-8.88s.68-6.31,2.04-8.85ZM840.18,392.74c-1-1.84-2.35-3.25-4.05-4.23-1.7-.98-3.57-1.47-5.61-1.47s-3.9.48-5.58,1.44c-1.68.96-3.02,2.36-4.02,4.2-1,1.84-1.5,4-1.5,6.48s.5,4.71,1.5,6.57c1,1.86,2.34,3.28,4.02,4.26,1.68.98,3.54,1.47,5.58,1.47s3.91-.49,5.61-1.47c1.7-.98,3.05-2.4,4.05-4.26,1-1.86,1.5-4.03,1.5-6.51s-.5-4.64-1.5-6.48ZM836.19,377.59c-1.22,1.14-2.75,1.71-4.59,1.71s-3.32-.58-4.56-1.74c-1.24-1.16-1.86-2.68-1.86-4.56s.62-3.4,1.86-4.56c1.24-1.16,2.76-1.74,4.56-1.74s3.37.57,4.59,1.71c1.22,1.14,1.83,2.67,1.83,4.59s-.61,3.45-1.83,4.59ZM833.91,370.51c-.62-.62-1.39-.93-2.31-.93s-1.69.31-2.31.93c-.62.62-.93,1.43-.93,2.43s.31,1.82.93,2.46c.62.64,1.39.96,2.31.96s1.69-.32,2.31-.96c.62-.64.93-1.46.93-2.46s-.31-1.81-.93-2.43Z"/><path class="cls-3" d="M878.43,414.16c-2.5-1.4-4.46-3.39-5.88-5.97-1.42-2.58-2.13-5.57-2.13-8.97s.73-6.33,2.19-8.91,3.45-4.56,5.97-5.94c2.52-1.38,5.34-2.07,8.46-2.07s5.94.69,8.46,2.07c2.52,1.38,4.51,3.35,5.97,5.91,1.46,2.56,2.19,5.54,2.19,8.94s-.75,6.39-2.25,8.97c-1.5,2.58-3.53,4.57-6.09,5.97-2.56,1.4-5.4,2.1-8.52,2.1s-5.87-.7-8.37-2.1ZM892.32,410.08c1.72-.92,3.11-2.3,4.17-4.14,1.06-1.84,1.59-4.08,1.59-6.72s-.52-4.88-1.56-6.72c-1.04-1.84-2.4-3.21-4.08-4.11-1.68-.9-3.5-1.35-5.46-1.35s-3.83.45-5.49,1.35c-1.66.9-2.99,2.27-3.99,4.11-1,1.84-1.5,4.08-1.5,6.72s.49,4.94,1.47,6.78c.98,1.84,2.29,3.21,3.93,4.11,1.64.9,3.44,1.35,5.4,1.35s3.8-.46,5.52-1.38Z"/><path class="cls-3" d="M923.1,410.68l10.2-27.84h5.82l-12.9,32.88h-6.36l-12.9-32.88h5.88l10.26,27.84Z"/><path class="cls-3" d="M974.34,401.32h-26.28c.2,3.24,1.31,5.77,3.33,7.59,2.02,1.82,4.47,2.73,7.35,2.73,2.36,0,4.33-.55,5.91-1.65,1.58-1.1,2.69-2.57,3.33-4.41h5.88c-.88,3.16-2.64,5.73-5.28,7.71-2.64,1.98-5.92,2.97-9.84,2.97-3.12,0-5.91-.7-8.37-2.1-2.46-1.4-4.39-3.39-5.79-5.97-1.4-2.58-2.1-5.57-2.1-8.97s.68-6.38,2.04-8.94c1.36-2.56,3.27-4.53,5.73-5.91s5.29-2.07,8.49-2.07,5.88.68,8.28,2.04c2.4,1.36,4.25,3.23,5.55,5.61,1.3,2.38,1.95,5.07,1.95,8.07,0,1.04-.06,2.14-.18,3.3ZM967.5,391.51c-.92-1.5-2.17-2.64-3.75-3.42-1.58-.78-3.33-1.17-5.25-1.17-2.76,0-5.11.88-7.05,2.64-1.94,1.76-3.05,4.2-3.33,7.32h20.76c0-2.08-.46-3.87-1.38-5.37Z"/><path class="cls-3" d="M991.29,383.8c1.78-1.04,3.95-1.56,6.51-1.56v5.64h-1.44c-6.12,0-9.18,3.32-9.18,9.96v17.88h-5.46v-32.88h5.46v5.34c.96-1.88,2.33-3.34,4.11-4.38Z"/><path class="cls-5" d="M295.21,446.38c2.64-2.32,6.22-3.48,10.74-3.48,3,0,5.57.52,7.71,1.56,2.14,1.04,3.76,2.46,4.86,4.26,1.1,1.8,1.65,3.82,1.65,6.06,0,2.64-.66,4.79-1.98,6.45-1.32,1.66-2.86,2.79-4.62,3.39v.24c2.28.76,4.08,2.02,5.4,3.78,1.32,1.76,1.98,4.02,1.98,6.78,0,2.48-.57,4.67-1.71,6.57-1.14,1.9-2.8,3.39-4.98,4.47-2.18,1.08-4.77,1.62-7.77,1.62-4.8,0-8.63-1.18-11.49-3.54-2.86-2.36-4.37-5.92-4.53-10.68h9.96c.04,1.76.54,3.15,1.5,4.17.96,1.02,2.36,1.53,4.2,1.53,1.56,0,2.77-.45,3.63-1.35.86-.9,1.29-2.09,1.29-3.57,0-1.92-.61-3.31-1.83-4.17-1.22-.86-3.17-1.29-5.85-1.29h-1.92v-8.34h1.92c2.04,0,3.69-.35,4.95-1.05,1.26-.7,1.89-1.95,1.89-3.75,0-1.44-.4-2.56-1.2-3.36-.8-.8-1.9-1.2-3.3-1.2-1.52,0-2.65.46-3.39,1.38-.74.92-1.17,2.06-1.29,3.42h-10.02c.16-4.28,1.56-7.58,4.2-9.9Z"/><path class="cls-5" d="M346.93,452.41c-.8-.74-1.94-1.11-3.42-1.11-2.28,0-3.92.99-4.92,2.97s-1.52,5.11-1.56,9.39c.88-1.4,2.15-2.5,3.81-3.3,1.66-.8,3.49-1.2,5.49-1.2,3.92,0,7.07,1.24,9.45,3.72,2.38,2.48,3.57,5.94,3.57,10.38,0,2.92-.59,5.48-1.77,7.68-1.18,2.2-2.9,3.92-5.16,5.16-2.26,1.24-4.93,1.86-8.01,1.86-6.16,0-10.44-1.93-12.84-5.79-2.4-3.86-3.6-9.41-3.6-16.65,0-7.6,1.27-13.25,3.81-16.95,2.54-3.7,6.61-5.55,12.21-5.55,3,0,5.53.59,7.59,1.77,2.06,1.18,3.62,2.73,4.68,4.65,1.06,1.92,1.69,4.02,1.89,6.3h-9.54c-.32-1.48-.88-2.59-1.68-3.33ZM339.58,468.79c-1.14,1.02-1.71,2.47-1.71,4.35s.53,3.42,1.59,4.5c1.06,1.08,2.57,1.62,4.53,1.62,1.76,0,3.15-.53,4.17-1.59,1.02-1.06,1.53-2.51,1.53-4.35s-.5-3.36-1.5-4.44c-1-1.08-2.44-1.62-4.32-1.62-1.72,0-3.15.51-4.29,1.53Z"/><path class="cls-5" d="M377.23,478.24l-6.66,17.22h-6.54l3.48-17.22h9.72Z"/><path class="cls-5" d="M383.95,454.78c0-2.16.56-4.13,1.68-5.91,1.12-1.78,2.82-3.2,5.1-4.26,2.28-1.06,5.08-1.59,8.4-1.59s6.11.53,8.37,1.59c2.26,1.06,3.95,2.48,5.07,4.26,1.12,1.78,1.68,3.75,1.68,5.91s-.51,4.04-1.53,5.64c-1.02,1.6-2.39,2.86-4.11,3.78,2.16,1.04,3.82,2.47,4.98,4.29,1.16,1.82,1.74,3.95,1.74,6.39,0,2.84-.72,5.29-2.16,7.35-1.44,2.06-3.39,3.63-5.85,4.71-2.46,1.08-5.19,1.62-8.19,1.62s-5.73-.54-8.19-1.62c-2.46-1.08-4.41-2.65-5.85-4.71-1.44-2.06-2.16-4.51-2.16-7.35,0-2.48.58-4.63,1.74-6.45,1.16-1.82,2.8-3.23,4.92-4.23-3.76-2-5.64-5.14-5.64-9.42ZM394.57,470.17c-1.16,1.02-1.74,2.43-1.74,4.23,0,1.68.57,3.06,1.71,4.14,1.14,1.08,2.67,1.62,4.59,1.62s3.43-.54,4.53-1.62c1.1-1.08,1.65-2.46,1.65-4.14s-.57-3.16-1.71-4.2c-1.14-1.04-2.63-1.56-4.47-1.56s-3.4.51-4.56,1.53ZM402.88,452.53c-.94-.9-2.19-1.35-3.75-1.35s-2.81.46-3.75,1.38c-.94.92-1.41,2.2-1.41,3.84s.48,2.79,1.44,3.69,2.2,1.35,3.72,1.35,2.76-.46,3.72-1.38c.96-.92,1.44-2.16,1.44-3.72,0-1.64-.47-2.91-1.41-3.81Z"/><path class="cls-5" d="M487.66,457.66c2.46,2.52,3.69,6.02,3.69,10.5v19.56h-10.2v-18.18c0-2.16-.57-3.83-1.71-5.01-1.14-1.18-2.71-1.77-4.71-1.77s-3.57.59-4.71,1.77c-1.14,1.18-1.71,2.85-1.71,5.01v18.18h-10.2v-18.18c0-2.16-.57-3.83-1.71-5.01-1.14-1.18-2.71-1.77-4.71-1.77s-3.57.59-4.71,1.77c-1.14,1.18-1.71,2.85-1.71,5.01v18.18h-10.26v-33.48h10.26v4.2c1.04-1.4,2.4-2.51,4.08-3.33,1.68-.82,3.58-1.23,5.7-1.23,2.52,0,4.77.54,6.75,1.62,1.98,1.08,3.53,2.62,4.65,4.62,1.16-1.84,2.74-3.34,4.74-4.5,2-1.16,4.18-1.74,6.54-1.74,4.16,0,7.47,1.26,9.93,3.78Z"/><path class="cls-5" d="M499.3,449.17c-1.14-1.06-1.71-2.37-1.71-3.93s.57-2.93,1.71-3.99c1.14-1.06,2.61-1.59,4.41-1.59s3.21.53,4.35,1.59c1.14,1.06,1.71,2.39,1.71,3.99s-.57,2.87-1.71,3.93c-1.14,1.06-2.59,1.59-4.35,1.59s-3.27-.53-4.41-1.59ZM508.81,454.24v33.48h-10.26v-33.48h10.26Z"/><path class="cls-5" d="M526.51,443.32v44.4h-10.26v-44.4h10.26Z"/><path class="cls-5" d="M544.21,443.32v44.4h-10.26v-44.4h10.26Z"/><path class="cls-5" d="M552.4,449.17c-1.14-1.06-1.71-2.37-1.71-3.93s.57-2.93,1.71-3.99c1.14-1.06,2.61-1.59,4.41-1.59s3.21.53,4.35,1.59c1.14,1.06,1.71,2.39,1.71,3.99s-.57,2.87-1.71,3.93c-1.14,1.06-2.59,1.59-4.35,1.59s-3.27-.53-4.41-1.59ZM561.91,454.24v33.48h-10.26v-33.48h10.26Z"/><path class="cls-5" d="M569.26,461.86c1.3-2.6,3.07-4.6,5.31-6,2.24-1.4,4.74-2.1,7.5-2.1,2.36,0,4.43.48,6.21,1.44,1.78.96,3.15,2.22,4.11,3.78v-4.74h10.26v33.48h-10.26v-4.74c-1,1.56-2.39,2.82-4.17,3.78-1.78.96-3.85,1.44-6.21,1.44-2.72,0-5.2-.71-7.44-2.13-2.24-1.42-4.01-3.44-5.31-6.06-1.3-2.62-1.95-5.65-1.95-9.09s.65-6.46,1.95-9.06ZM590.26,464.92c-1.42-1.48-3.15-2.22-5.19-2.22s-3.77.73-5.19,2.19c-1.42,1.46-2.13,3.47-2.13,6.03s.71,4.59,2.13,6.09c1.42,1.5,3.15,2.25,5.19,2.25s3.77-.74,5.19-2.22c1.42-1.48,2.13-3.5,2.13-6.06s-.71-4.58-2.13-6.06Z"/><path class="cls-5" d="M624.85,455.47c1.8-1.06,3.8-1.59,6-1.59v10.86h-2.82c-2.56,0-4.48.55-5.76,1.65-1.28,1.1-1.92,3.03-1.92,5.79v15.54h-10.26v-33.48h10.26v5.58c1.2-1.84,2.7-3.29,4.5-4.35Z"/><path class="cls-5" d="M635.68,461.86c1.3-2.6,3.07-4.6,5.31-6,2.24-1.4,4.74-2.1,7.5-2.1,2.2,0,4.21.46,6.03,1.38,1.82.92,3.25,2.16,4.29,3.72v-15.54h10.26v44.4h-10.26v-4.8c-.96,1.6-2.33,2.88-4.11,3.84-1.78.96-3.85,1.44-6.21,1.44-2.76,0-5.26-.71-7.5-2.13-2.24-1.42-4.01-3.44-5.31-6.06-1.3-2.62-1.95-5.65-1.95-9.09s.65-6.46,1.95-9.06ZM656.68,464.92c-1.42-1.48-3.15-2.22-5.19-2.22s-3.77.73-5.19,2.19c-1.42,1.46-2.13,3.47-2.13,6.03s.71,4.59,2.13,6.09c1.42,1.5,3.15,2.25,5.19,2.25s3.77-.74,5.19-2.22c1.42-1.48,2.13-3.5,2.13-6.06s-.71-4.58-2.13-6.06Z"/><path class="cls-5" d="M707.88,473.44h-23.22c.16,2.08.83,3.67,2.01,4.77,1.18,1.1,2.63,1.65,4.35,1.65,2.56,0,4.34-1.08,5.34-3.24h10.92c-.56,2.2-1.57,4.18-3.03,5.94-1.46,1.76-3.29,3.14-5.49,4.14-2.2,1-4.66,1.5-7.38,1.5-3.28,0-6.2-.7-8.76-2.1-2.56-1.4-4.56-3.4-6-6-1.44-2.6-2.16-5.64-2.16-9.12s.71-6.52,2.13-9.12c1.42-2.6,3.41-4.6,5.97-6,2.56-1.4,5.5-2.1,8.82-2.1s6.12.68,8.64,2.04c2.52,1.36,4.49,3.3,5.91,5.82,1.42,2.52,2.13,5.46,2.13,8.82,0,.96-.06,1.96-.18,3ZM697.56,467.74c0-1.76-.6-3.16-1.8-4.2-1.2-1.04-2.7-1.56-4.5-1.56s-3.17.5-4.35,1.5c-1.18,1-1.91,2.42-2.19,4.26h12.84Z"/><path class="cls-5" d="M728.22,455.47c1.8-1.06,3.8-1.59,6-1.59v10.86h-2.82c-2.56,0-4.48.55-5.76,1.65-1.28,1.1-1.92,3.03-1.92,5.79v15.54h-10.26v-33.48h10.26v5.58c1.2-1.84,2.7-3.29,4.5-4.35Z"/><path class="cls-5" d="M770.52,479.02v8.7h-5.22c-3.72,0-6.62-.91-8.7-2.73-2.08-1.82-3.12-4.79-3.12-8.91v-13.32h-4.08v-8.52h4.08v-8.16h10.26v8.16h6.72v8.52h-6.72v13.44c0,1,.24,1.72.72,2.16.48.44,1.28.66,2.4.66h3.66Z"/><path class="cls-5" d="M782.61,486.1c-2.62-1.4-4.68-3.4-6.18-6-1.5-2.6-2.25-5.64-2.25-9.12s.76-6.47,2.28-9.09c1.52-2.62,3.6-4.63,6.24-6.03,2.64-1.4,5.6-2.1,8.88-2.1s6.24.7,8.88,2.1c2.64,1.4,4.72,3.41,6.24,6.03,1.52,2.62,2.28,5.65,2.28,9.09s-.77,6.47-2.31,9.09c-1.54,2.62-3.64,4.63-6.3,6.03-2.66,1.4-5.63,2.1-8.91,2.1s-6.23-.7-8.85-2.1ZM796.47,477.16c1.38-1.44,2.07-3.5,2.07-6.18s-.67-4.74-2.01-6.18c-1.34-1.44-2.99-2.16-4.95-2.16s-3.66.71-4.98,2.13c-1.32,1.42-1.98,3.49-1.98,6.21s.65,4.74,1.95,6.18c1.3,1.44,2.93,2.16,4.89,2.16s3.63-.72,5.01-2.16Z"/><path class="cls-5" d="M844.23,457.69c2.34,2.54,3.51,6.03,3.51,10.47v19.56h-10.2v-18.18c0-2.24-.58-3.98-1.74-5.22-1.16-1.24-2.72-1.86-4.68-1.86s-3.52.62-4.68,1.86c-1.16,1.24-1.74,2.98-1.74,5.22v18.18h-10.26v-33.48h10.26v4.44c1.04-1.48,2.44-2.65,4.2-3.51,1.76-.86,3.74-1.29,5.94-1.29,3.92,0,7.05,1.27,9.39,3.81Z"/><path class="cls-5" d="M860.7,486.7c-2.28-1-4.08-2.37-5.4-4.11-1.32-1.74-2.06-3.69-2.22-5.85h10.14c.12,1.16.66,2.1,1.62,2.82.96.72,2.14,1.08,3.54,1.08,1.28,0,2.27-.25,2.97-.75.7-.5,1.05-1.15,1.05-1.95,0-.96-.5-1.67-1.5-2.13-1-.46-2.62-.97-4.86-1.53-2.4-.56-4.4-1.15-6-1.77-1.6-.62-2.98-1.6-4.14-2.94-1.16-1.34-1.74-3.15-1.74-5.43,0-1.92.53-3.67,1.59-5.25,1.06-1.58,2.62-2.83,4.68-3.75,2.06-.92,4.51-1.38,7.35-1.38,4.2,0,7.51,1.04,9.93,3.12,2.42,2.08,3.81,4.84,4.17,8.28h-9.48c-.16-1.16-.67-2.08-1.53-2.76-.86-.68-1.99-1.02-3.39-1.02-1.2,0-2.12.23-2.76.69-.64.46-.96,1.09-.96,1.89,0,.96.51,1.68,1.53,2.16,1.02.48,2.61.96,4.77,1.44,2.48.64,4.5,1.27,6.06,1.89,1.56.62,2.93,1.62,4.11,3,1.18,1.38,1.79,3.23,1.83,5.55,0,1.96-.55,3.71-1.65,5.25-1.1,1.54-2.68,2.75-4.74,3.63-2.06.88-4.45,1.32-7.17,1.32-2.92,0-5.52-.5-7.8-1.5Z"/><path class="cls-4" d="M710,1323.37c1.73-1.57,3.19-3.22,4.37-4.93,1.19-1.72,1.78-3.4,1.78-5.06,0-1.56-.38-2.79-1.13-3.69-.76-.9-1.97-1.35-3.65-1.35s-2.9.51-3.8,1.53c-.9,1.02-1.39,2.38-1.46,4.09h-3.17c.1-2.69.91-4.76,2.45-6.23s3.52-2.2,5.94-2.2,4.43.68,5.89,2.05c1.45,1.37,2.18,3.25,2.18,5.65,0,1.99-.59,3.93-1.78,5.81-1.19,1.88-2.54,3.54-4.05,4.97-1.51,1.43-3.44,3.09-5.8,4.99h12.38v2.74h-17.32v-2.34c3.05-2.45,5.44-4.46,7.16-6.03Z"/><path class="cls-4" d="M725.95,1309.08c1.34-2.32,3.7-3.47,7.06-3.47s5.68,1.16,7.02,3.47c1.34,2.32,2.02,5.54,2.02,9.67s-.67,7.46-2.02,9.79c-1.34,2.33-3.68,3.49-7.02,3.49s-5.71-1.16-7.06-3.49c-1.34-2.33-2.02-5.59-2.02-9.79s.67-7.35,2.02-9.67ZM738.38,1313.43c-.28-1.45-.84-2.62-1.69-3.51-.85-.89-2.08-1.33-3.69-1.33s-2.87.45-3.73,1.33c-.85.89-1.42,2.06-1.69,3.51-.28,1.45-.41,3.22-.41,5.31s.14,3.97.41,5.44c.28,1.46.84,2.64,1.69,3.53.85.89,2.09,1.33,3.73,1.33s2.84-.44,3.69-1.33c.85-.89,1.42-2.06,1.69-3.53.28-1.46.41-3.28.41-5.44s-.14-3.86-.41-5.31Z"/><path class="cls-4" d="M753.31,1323.37c1.73-1.57,3.19-3.22,4.37-4.93,1.19-1.72,1.78-3.4,1.78-5.06,0-1.56-.38-2.79-1.13-3.69-.76-.9-1.97-1.35-3.65-1.35s-2.9.51-3.8,1.53c-.9,1.02-1.39,2.38-1.46,4.09h-3.17c.1-2.69.91-4.76,2.45-6.23s3.52-2.2,5.94-2.2,4.43.68,5.89,2.05c1.45,1.37,2.18,3.25,2.18,5.65,0,1.99-.59,3.93-1.78,5.81-1.19,1.88-2.54,3.54-4.05,4.97-1.51,1.43-3.44,3.09-5.8,4.99h12.38v2.74h-17.32v-2.34c3.05-2.45,5.44-4.46,7.16-6.03Z"/><path class="cls-4" d="M774.01,1323.37c1.73-1.57,3.19-3.22,4.37-4.93,1.19-1.72,1.78-3.4,1.78-5.06,0-1.56-.38-2.79-1.13-3.69-.76-.9-1.97-1.35-3.65-1.35s-2.9.51-3.8,1.53c-.9,1.02-1.39,2.38-1.46,4.09h-3.17c.1-2.69.91-4.76,2.45-6.23s3.52-2.2,5.94-2.2,4.43.68,5.89,2.05c1.45,1.37,2.18,3.25,2.18,5.65,0,1.99-.59,3.93-1.78,5.81-1.19,1.88-2.54,3.54-4.05,4.97-1.51,1.43-3.44,3.09-5.8,4.99h12.38v2.74h-17.32v-2.34c3.05-2.45,5.44-4.46,7.16-6.03Z"/><path class="cls-4" d="M536.83,1323.37c1.73-1.57,3.19-3.22,4.37-4.93,1.19-1.72,1.78-3.4,1.78-5.06,0-1.56-.38-2.79-1.13-3.69-.76-.9-1.97-1.35-3.65-1.35s-2.9.51-3.8,1.53c-.9,1.02-1.39,2.38-1.46,4.09h-3.17c.1-2.69.91-4.76,2.45-6.23s3.52-2.2,5.94-2.2,4.43.68,5.89,2.05c1.45,1.37,2.18,3.25,2.18,5.65,0,1.99-.59,3.93-1.78,5.81-1.19,1.88-2.54,3.54-4.05,4.97-1.51,1.43-3.44,3.09-5.8,4.99h12.38v2.74h-17.32v-2.34c3.05-2.45,5.44-4.46,7.16-6.03Z"/><path class="cls-4" d="M552.78,1309.08c1.34-2.32,3.7-3.47,7.06-3.47s5.68,1.16,7.02,3.47c1.34,2.32,2.02,5.54,2.02,9.67s-.67,7.46-2.02,9.79c-1.34,2.33-3.68,3.49-7.02,3.49s-5.71-1.16-7.06-3.49c-1.34-2.33-2.02-5.59-2.02-9.79s.67-7.35,2.02-9.67ZM565.22,1313.43c-.28-1.45-.84-2.62-1.69-3.51-.85-.89-2.08-1.33-3.69-1.33s-2.87.45-3.73,1.33c-.85.89-1.42,2.06-1.69,3.51-.28,1.45-.41,3.22-.41,5.31s.14,3.97.41,5.44c.28,1.46.84,2.64,1.69,3.53.85.89,2.09,1.33,3.73,1.33s2.84-.44,3.69-1.33c.85-.89,1.42-2.06,1.69-3.53.28-1.46.41-3.28.41-5.44s-.14-3.86-.41-5.31Z"/><path class="cls-4" d="M580.14,1323.37c1.73-1.57,3.19-3.22,4.37-4.93,1.19-1.72,1.78-3.4,1.78-5.06,0-1.56-.38-2.79-1.13-3.69-.76-.9-1.97-1.35-3.65-1.35s-2.9.51-3.8,1.53c-.9,1.02-1.39,2.38-1.46,4.09h-3.17c.1-2.69.91-4.76,2.45-6.23s3.52-2.2,5.94-2.2,4.43.68,5.89,2.05c1.45,1.37,2.18,3.25,2.18,5.65,0,1.99-.59,3.93-1.78,5.81-1.19,1.88-2.54,3.54-4.05,4.97-1.51,1.43-3.44,3.09-5.8,4.99h12.38v2.74h-17.32v-2.34c3.05-2.45,5.44-4.46,7.16-6.03Z"/><path class="cls-4" d="M593.21,1308.99v-2.99h6.77v26.03h-3.31v-23.04h-3.46Z"/><path class="cls-4" d="M353.33,1322.41c1.73-1.57,3.19-3.21,4.37-4.93,1.19-1.71,1.78-3.4,1.78-5.06,0-1.56-.38-2.79-1.13-3.69-.76-.9-1.97-1.35-3.65-1.35s-2.9.51-3.8,1.53c-.9,1.02-1.39,2.38-1.46,4.09h-3.17c.1-2.69.91-4.76,2.45-6.23,1.54-1.46,3.52-2.2,5.94-2.2s4.43.68,5.89,2.05c1.45,1.37,2.18,3.25,2.18,5.65,0,1.99-.59,3.93-1.78,5.81-1.19,1.88-2.54,3.54-4.05,4.97-1.51,1.43-3.44,3.09-5.8,4.99h12.38v2.74h-17.32v-2.34c3.05-2.45,5.44-4.46,7.16-6.03Z"/><path class="cls-4" d="M369.28,1308.12c1.34-2.32,3.7-3.47,7.06-3.47s5.68,1.16,7.02,3.47c1.34,2.32,2.02,5.54,2.02,9.67s-.67,7.46-2.02,9.79c-1.34,2.33-3.68,3.49-7.02,3.49s-5.71-1.16-7.06-3.49c-1.34-2.33-2.02-5.59-2.02-9.79s.67-7.35,2.02-9.67ZM381.72,1312.47c-.28-1.45-.84-2.62-1.69-3.51-.85-.89-2.08-1.33-3.69-1.33s-2.87.44-3.73,1.33c-.85.89-1.42,2.06-1.69,3.51-.28,1.45-.41,3.22-.41,5.31s.14,3.97.41,5.44c.28,1.46.84,2.64,1.69,3.53.85.89,2.09,1.33,3.73,1.33s2.84-.44,3.69-1.33c.85-.89,1.42-2.06,1.69-3.53.28-1.46.41-3.28.41-5.44s-.14-3.86-.41-5.31Z"/><path class="cls-4" d="M396.64,1322.41c1.73-1.57,3.19-3.21,4.37-4.93,1.19-1.71,1.78-3.4,1.78-5.06,0-1.56-.38-2.79-1.13-3.69-.76-.9-1.97-1.35-3.65-1.35s-2.9.51-3.8,1.53c-.9,1.02-1.39,2.38-1.46,4.09h-3.17c.1-2.69.91-4.76,2.45-6.23,1.54-1.46,3.52-2.2,5.94-2.2s4.43.68,5.89,2.05c1.45,1.37,2.18,3.25,2.18,5.65,0,1.99-.59,3.93-1.78,5.81-1.19,1.88-2.54,3.54-4.05,4.97-1.51,1.43-3.44,3.09-5.8,4.99h12.38v2.74h-17.32v-2.34c3.05-2.45,5.44-4.46,7.16-6.03Z"/><path class="cls-4" d="M412.59,1308.12c1.34-2.32,3.7-3.47,7.06-3.47s5.68,1.16,7.02,3.47c1.34,2.32,2.02,5.54,2.02,9.67s-.67,7.46-2.02,9.79c-1.34,2.33-3.68,3.49-7.02,3.49s-5.71-1.16-7.06-3.49c-1.34-2.33-2.02-5.59-2.02-9.79s.67-7.35,2.02-9.67ZM425.03,1312.47c-.28-1.45-.84-2.62-1.69-3.51-.85-.89-2.08-1.33-3.69-1.33s-2.87.44-3.73,1.33c-.85.89-1.42,2.06-1.69,3.51-.28,1.45-.41,3.22-.41,5.31s.14,3.97.41,5.44c.28,1.46.84,2.64,1.69,3.53.85.89,2.09,1.33,3.73,1.33s2.84-.44,3.69-1.33c.85-.89,1.42-2.06,1.69-3.53.28-1.46.41-3.28.41-5.44s-.14-3.86-.41-5.31Z"/><path class="cls-8" d="M492.49,884.32H217.66c-19.2,0-32.66-19.57-26.32-38.28l61.94-183.09c3.91-11.56,14.47-19.3,26.32-19.3h133.93c11.01,0,20.99,6.69,25.47,17.08l78.95,183.09c8.21,19.04-5.29,40.5-25.47,40.5Z"/><circle class="cls-2" cx="347.38" cy="607.06" r="43.09"/><path class="cls-5" d="M273.06,708.93c1.61-1.34,3.73-2.01,6.36-2.01,1.79,0,3.33.31,4.61.94,1.28.63,2.24,1.47,2.89,2.54s.98,2.28.98,3.63c0,1.55-.4,2.86-1.2,3.93-.8,1.07-1.75,1.79-2.86,2.16v.15c1.42.44,2.54,1.23,3.34,2.36.8,1.13,1.2,2.58,1.2,4.35,0,1.47-.34,2.79-1.01,3.94s-1.67,2.06-2.99,2.71c-1.31.65-2.89.98-4.74.98-2.78,0-5.04-.7-6.78-2.1-1.75-1.4-2.67-3.47-2.76-6.19h5.01c.05,1.2.46,2.17,1.24,2.89.77.73,1.84,1.09,3.19,1.09,1.25,0,2.22-.35,2.89-1.05.68-.7,1.01-1.6,1.01-2.71,0-1.47-.47-2.53-1.4-3.17-.93-.64-2.38-.96-4.35-.96h-1.07v-4.24h1.07c3.49,0,5.24-1.17,5.24-3.5,0-1.06-.31-1.88-.94-2.47-.63-.59-1.53-.88-2.71-.88s-2.05.31-2.67.94c-.63.63-.99,1.42-1.09,2.38h-5.05c.12-2.46.99-4.36,2.6-5.7Z"/><path class="cls-5" d="M305.13,711.93c-.6-.52-1.47-.77-2.6-.77-1.7,0-2.94.68-3.74,2.05-.8,1.36-1.21,3.58-1.24,6.65.59-.98,1.45-1.75,2.58-2.3,1.13-.55,2.36-.83,3.69-.83,1.6,0,3.01.34,4.24,1.03,1.23.69,2.19,1.69,2.88,3,.69,1.31,1.03,2.89,1.03,4.74,0,1.75-.35,3.3-1.05,4.66-.7,1.36-1.73,2.43-3.08,3.19-1.35.76-2.96,1.14-4.83,1.14-2.56,0-4.57-.56-6.03-1.7-1.46-1.13-2.48-2.71-3.06-4.74s-.87-4.53-.87-7.5c0-4.5.77-7.9,2.32-10.19,1.55-2.3,3.99-3.45,7.34-3.45,2.58,0,4.58.7,6.01,2.1,1.43,1.4,2.25,3.15,2.47,5.24h-4.79c-.25-1.03-.67-1.81-1.27-2.32ZM299.36,722.11c-.88.76-1.33,1.87-1.33,3.32s.41,2.59,1.23,3.43c.82.84,1.99,1.25,3.48,1.25,1.33,0,2.38-.41,3.15-1.22s1.16-1.9,1.16-3.28-.38-2.56-1.12-3.39c-.75-.84-1.85-1.25-3.3-1.25-1.3,0-2.4.38-3.28,1.14Z"/><path class="cls-5" d="M322.29,729l-4.31,10.36h-3.32l2.4-10.36h5.24Z"/><path class="cls-5" d="M342.54,711.45l-9.81,22.97h-5.24l9.88-22.38h-12.61v-4.42h17.77v3.83Z"/><path class="cls-5" d="M386.43,716.01c1.54,1.54,2.3,3.68,2.3,6.43v11.98h-5.16v-11.28c0-1.6-.41-2.82-1.22-3.67-.81-.85-1.92-1.27-3.32-1.27s-2.51.42-3.34,1.27c-.82.85-1.24,2.07-1.24,3.67v11.28h-5.16v-11.28c0-1.6-.41-2.82-1.22-3.67-.81-.85-1.92-1.27-3.32-1.27s-2.55.42-3.37,1.27-1.24,2.07-1.24,3.67v11.28h-5.16v-20.43h5.16v2.47c.66-.86,1.52-1.54,2.56-2.03,1.04-.49,2.19-.74,3.45-.74,1.6,0,3.02.34,4.28,1.01,1.25.68,2.22,1.64,2.91,2.89.66-1.18,1.63-2.13,2.89-2.84,1.27-.71,2.64-1.07,4.11-1.07,2.51,0,4.53.77,6.07,2.3Z"/><path class="cls-5" d="M393.98,710.7c-.6-.58-.9-1.3-.9-2.16s.3-1.58.9-2.16c.6-.58,1.36-.87,2.27-.87s1.66.29,2.27.87c.6.58.9,1.3.9,2.16s-.3,1.58-.9,2.16c-.6.58-1.36.87-2.27.87s-1.67-.29-2.27-.87ZM398.8,714v20.43h-5.16v-20.43h5.16Z"/><path class="cls-5" d="M403.79,718.64c.82-1.6,1.94-2.83,3.35-3.69,1.41-.86,2.99-1.29,4.74-1.29,1.52,0,2.86.31,4,.92,1.14.61,2.06,1.39,2.75,2.32v-2.91h5.2v20.43h-5.2v-2.99c-.66.96-1.58,1.75-2.75,2.38-1.17.63-2.51.94-4.04.94-1.72,0-3.29-.44-4.7-1.33s-2.53-2.13-3.35-3.74c-.82-1.61-1.24-3.46-1.24-5.55s.41-3.9,1.24-5.49ZM417.89,720.98c-.49-.9-1.16-1.59-1.99-2.06-.84-.48-1.73-.72-2.69-.72s-1.84.23-2.66.7c-.81.47-1.47,1.15-1.97,2.05-.5.9-.76,1.96-.76,3.19s.25,2.3.76,3.23c.5.92,1.17,1.63,1.99,2.12.82.49,1.7.74,2.64.74s1.86-.24,2.69-.72c.83-.48,1.5-1.17,1.99-2.06.49-.9.74-1.97.74-3.23s-.25-2.33-.74-3.23Z"/><path class="cls-5" d="M319.18,762.48v9.88c0,.69.17,1.19.5,1.49.33.31.89.46,1.68.46h2.4v4.35h-3.24c-4.35,0-6.53-2.11-6.53-6.34v-9.84h-2.43v-4.24h2.43v-5.05h5.2v5.05h4.57v4.24h-4.57Z"/><path class="cls-5" d="M331.23,777.69c-1.57-.87-2.81-2.11-3.71-3.71-.9-1.6-1.35-3.44-1.35-5.53s.46-3.93,1.38-5.53c.92-1.6,2.18-2.83,3.78-3.71,1.6-.87,3.38-1.31,5.35-1.31s3.75.44,5.35,1.31c1.6.87,2.86,2.11,3.78,3.71.92,1.6,1.38,3.44,1.38,5.53s-.47,3.93-1.42,5.53c-.95,1.6-2.23,2.83-3.83,3.71-1.61.87-3.41,1.31-5.4,1.31s-3.74-.44-5.31-1.31ZM339.18,773.82c.82-.45,1.48-1.14,1.97-2.05.49-.91.74-2.02.74-3.32,0-1.94-.51-3.43-1.53-4.48-1.02-1.04-2.27-1.57-3.74-1.57s-2.71.52-3.71,1.57c-1,1.05-1.49,2.54-1.49,4.48s.48,3.44,1.46,4.48c.97,1.04,2.19,1.57,3.67,1.57.93,0,1.81-.23,2.64-.68Z"/><path class="cls-5" d="M368.21,760.25c1.5,1.54,2.25,3.68,2.25,6.43v11.98h-5.16v-11.28c0-1.62-.41-2.87-1.22-3.74-.81-.87-1.92-1.31-3.32-1.31s-2.55.44-3.37,1.31c-.82.87-1.24,2.12-1.24,3.74v11.28h-5.16v-20.43h5.16v2.54c.69-.88,1.57-1.58,2.64-2.08,1.07-.5,2.24-.76,3.52-.76,2.43,0,4.4.77,5.9,2.3Z"/><path class="cls-5" d="M378.68,778.09c-1.33-.6-2.38-1.42-3.15-2.45-.77-1.03-1.2-2.18-1.27-3.43h5.2c.1.79.48,1.44,1.16,1.95.68.52,1.52.77,2.53.77s1.75-.2,2.3-.59c.55-.39.83-.9.83-1.51,0-.66-.34-1.16-1.01-1.49-.68-.33-1.75-.69-3.23-1.09-1.52-.37-2.77-.75-3.74-1.14s-1.81-1-2.51-1.81-1.05-1.9-1.05-3.28c0-1.13.33-2.16.98-3.1.65-.93,1.58-1.67,2.8-2.21s2.65-.81,4.29-.81c2.43,0,4.38.61,5.83,1.83s2.25,2.86,2.4,4.92h-4.94c-.07-.81-.41-1.46-1.01-1.94-.6-.48-1.41-.72-2.42-.72-.93,0-1.65.17-2.16.52-.5.34-.76.82-.76,1.44,0,.69.34,1.21,1.03,1.57.69.36,1.76.72,3.21,1.09,1.47.37,2.69.75,3.65,1.14.96.39,1.79,1,2.49,1.82.7.82,1.06,1.91,1.09,3.26,0,1.18-.33,2.24-.98,3.17-.65.93-1.59,1.67-2.8,2.19s-2.64.79-4.26.79-3.17-.3-4.5-.9Z"/><path class="cls-5" d="M293.31,815.16c1.65-2.99,3.96-5.33,6.91-7,2.96-1.67,6.31-2.51,10.05-2.51,4.59,0,8.52,1.21,11.79,3.64,3.27,2.42,5.46,5.73,6.56,9.92h-10.36c-.77-1.62-1.86-2.85-3.28-3.69-1.42-.84-3.02-1.27-4.82-1.27-2.9,0-5.25,1.01-7.05,3.03-1.8,2.02-2.7,4.72-2.7,8.1s.9,6.08,2.7,8.1c1.8,2.02,4.15,3.03,7.05,3.03,1.8,0,3.41-.42,4.82-1.27,1.41-.84,2.51-2.07,3.28-3.69h10.36c-1.1,4.19-3.29,7.48-6.56,9.89-3.27,2.41-7.2,3.61-11.79,3.61-3.75,0-7.1-.83-10.05-2.51-2.96-1.67-5.26-3.99-6.91-6.97-1.65-2.98-2.48-6.37-2.48-10.19s.83-7.23,2.48-10.22Z"/><path class="cls-5" d="M342.7,842.63c-3.03-1.69-5.44-4.05-7.22-7.08-1.78-3.03-2.67-6.44-2.67-10.22s.89-7.18,2.67-10.19c1.78-3.01,4.19-5.36,7.22-7.05,3.03-1.69,6.36-2.53,10-2.53s6.97.85,10,2.53c3.03,1.69,5.42,4.04,7.16,7.05,1.74,3.01,2.62,6.41,2.62,10.19s-.88,7.19-2.64,10.22-4.15,5.39-7.16,7.08c-3.01,1.69-6.34,2.53-9.97,2.53s-6.97-.84-10-2.53ZM360.11,833.48c1.85-2.06,2.78-4.77,2.78-8.15s-.93-6.14-2.78-8.18c-1.85-2.04-4.32-3.06-7.41-3.06s-5.61,1.01-7.46,3.03c-1.86,2.02-2.78,4.76-2.78,8.21s.93,6.14,2.78,8.18c1.85,2.04,4.34,3.06,7.46,3.06s5.56-1.03,7.41-3.09Z"/><path class="cls-5" d="M378.15,835.85c3.6-2.98,6.44-5.42,8.51-7.33,2.07-1.91,3.83-3.91,5.26-6.01,1.43-2.09,2.15-4.13,2.15-6.12,0-1.51-.35-2.68-1.05-3.53-.7-.84-1.75-1.27-3.14-1.27s-2.49.52-3.28,1.57c-.79,1.05-1.18,2.53-1.18,4.44h-9.09c.07-3.12.74-5.73,2.01-7.82,1.27-2.09,2.94-3.64,5.01-4.63,2.07-.99,4.38-1.49,6.91-1.49,4.37,0,7.67,1.12,9.89,3.36,2.22,2.24,3.33,5.16,3.33,8.76,0,3.93-1.34,7.58-4.02,10.94-2.68,3.36-6.1,6.64-10.25,9.83h14.88v7.66h-27.66v-7c1.25-.99,1.82-1.45,1.71-1.38Z"/><path class="cls-1" d="M662.69,776.53c-5-9.95-21.58-39.78-58.12-58.12-30.37-15.24-58.8-14.65-73.48-13"/><polygon class="cls-8" points="549.09 679.83 553.51 683.9 533.44 705.63 556.58 724.06 552.83 728.76 524.65 706.3 549.09 679.83"/></svg>