<?xml version="1.0" encoding="UTF-8"?><svg id="Layer_1" xmlns="http://www.w3.org/2000/svg" viewBox="0 0 705.79 963.25"><defs><style>.cls-1{fill:#147350;}.cls-1,.cls-2{stroke-width:0px;}.cls-2{fill:#f2c063;}</style></defs><path class="cls-1" d="M377.23,187.32c2.06.86,72.63,30.27,214.15,98.6,22.39,10.81,32.39,18.49,35.96,21.89,4.13,3.93,7.67,8.07,14.07,9.38,8.37,1.72,15.86-2.57,25.02-7.82,9.25-5.29,15.37-8.8,15.64-14.07.17-3.39-2.22-4.95-12.51-15.64-8.9-9.25-13.39-13.96-15.42-18.21-2.75-5.77-3.38-11.04-4.44-20-1.17-9.84-.14-11.7-1.11-16.67-1.78-9.06-7.8-16.12-16.67-23.33-29.49-24.01-92.01-51.13-116.67-62.22-19.22-8.65-11.86-5.96-40-18.89-117.1-53.83-210-84.32-245.56-95.56-.7-.22-12.4-5.67-28.89-8.89-10.83-2.11-16.39-3.13-23.33-1.11-12.5,3.63-21.72,14.73-23.33,16.67-3.67,4.42-4.57,6.92-8.89,10-6.16,4.4-12.77,5.32-15.56,5.56-12.29,1.04-15.51-5.83-24.44-3.33-7.39,2.07-11.3,8.48-12.22,10-.24.4-5.87,9.96-2.22,20,0,0,2.33,6.41,8.89,11.11,21.6,15.47,252.27,92.02,277.53,102.53Z"/><path class="cls-1" d="M360.72,71.31c.42-.67,2.91-4.51,7.44-6.67,3.19-1.52,6-1.69,8.98-1.54,12.22.62,23.35,6.67,23.35,6.67,2.37,1.29,15.44,6.76,41.58,17.71,10.34,4.33,20.03,10.2,30.54,14.12,0,0,4.19,1.56,11.04,6.67,1.85,1.38,2.65,2.14,3.08,3.34,1.25,3.46-1.43,8.1-2.82,10.52-1.3,2.26-1.89,2.59-1.8,3.59.11,1.22,1.15,2.73,8.47,5.65,6.98,2.78,9.83,2.92,15.4,5.65,2.32,1.14,3.04,2.78,4.62,2.57,2.24-.31,3.46-3.26,5.13-7.19,6.24-14.63,6.16-13.36,6.42-14.89.48-2.83,1.94-11.56-3.34-18.99-2.06-2.91-4.41-4.57-5.65-5.39-22.09-14.62-67.75-32.59-67.75-32.59-16.13-6.35-32.51-12.07-48.51-18.74,0,0-8.68-3.62-24.64-6.67-6.96-1.33-12.04-1.84-17.71,0-4.93,1.6-8.3,4.32-10.27,5.9-5.94,4.8-8.95,10.22-10.27,12.58-1.69,3.05-2.89,6.15-3.59,7.96-.69,1.79-1.04,2.68-1.03,3.08.08,3.3,4.89,4.68,17.45,10.78,5.94,2.88,8.29,4.23,10.27,3.08,1.93-1.13,1.12-3.27,3.59-7.19Z"/><path class="cls-1" d="M65.34,334.83c118.84-7.56,116.98-7.73,116.98-7.73,48.7,4.37,18.22-4.15,216.31-6.62,232.29-2.9,217.34,9.52,238.38,7.73,1.27-.11,12.9-1.14,26.49,3.31,6.93,2.27,12.13,3.97,15.45,8.83,6.76,9.88,1.83,27.04-7.73,35.32-5.17,4.48-7.9,3.06-13.24,7.73-8.33,7.27-10.1,18.04-11.04,24.28-5.22,34.9-3.45,57.11-7.73,87.18-2.7,19.03-5.2,22.74-5.52,38.63-.3,15.04,1.75,21.13,1.1,37.52-.56,14.19-2.62,23.01-4.41,33.11-3.75,21.09-2.06,23.61-5.52,67.32-3.23,40.83-4.85,61.25-8.83,83.87-2.06,11.71-5.07,26.56-6.62,48.56-1.24,17.57.03,17.31-1.1,28.69-1.76,17.75-4.25,42.78-20.97,62.91-15.07,18.14-35.47,24.16-43.04,26.49-12.82,3.94-23.33,4.3-27.59,4.41-77.57,2.02-269.26-5.67-327.77-2.21-2.3.14-15.51.95-33.11,0-21-1.13-42.85-2.31-56.28-9.93-25.86-14.68-27.85-57.36-28.69-81.67-8.22-237.62-6.62-291.35-6.62-291.35,1.23-41.38-13.52-82.23-12.14-123.6.22-6.55,1.29-25.27-9.93-34.21-4.95-3.94-9.09-3.44-14.35-8.83-6.22-6.38-10.21-17.13-7.73-24.28,4.47-12.87,30.07-14.49,45.25-15.45Z"/><path class="cls-2" d="M218.99,505.9c0,6.29-1.53,12.58-7.31,18.53-5.44,5.61-13.26,7.31-19.55,7.31h-17.68c-2.21,0-3.57.17-4.25-1.19-.68-.85-.68-2.38-.68-4.08v-108.46c0-1.87,0-3.4.68-4.25,1.02-1.19,2.21-1.02,4.42-1.02h17.34c7.31,0,14.79,2.04,20.06,6.97,4.93,4.59,6.97,11.39,6.97,18.7v67.49ZM200.63,502.5v-60.52c0-3.57-.17-6.8-2.21-9.35-1.36-1.36-2.55-2.04-5.61-2.04-2.72,0-4.08,0-4.59.68-.51.68-.51,1.36-.51,2.38v76.5c0,1.53,0,2.72.68,3.4.51.51,2.38.34,3.91.34,2.04,0,4.59-.68,6.46-3.06,2.04-2.89,1.87-5.78,1.87-8.33Z"/><path class="cls-2" d="M249.59,528.85c0,2.55-.17,2.72-9.52,2.72-8.33,0-8.67,0-8.67-2.38v-113.56c0-2.55.68-2.72,8.67-2.72,9.01,0,9.52.17,9.52,2.89v113.05Z"/><path class="cls-2" d="M311.47,528.34c0,.85,0,2.72-1.36,3.23-1.02.51-2.38,0-3.57,0-1.7,0-3.06-6.12-4.76-6.97-1.87-.51-3.4,7.14-15.13,7.14-15.81,0-24.65-11.56-24.65-23.8v-71.23c0-11.73,8.5-23.97,24.65-23.97s24.82,12.24,24.82,23.97v9.18c0,1.53-1.53,2.21-10.2,2.21-5.95,0-8.16.17-8.16-1.7,0-2.38-.17-7.31-.17-9.01,0-2.38-1.7-7.14-6.29-7.14-5.1,0-6.46,5.44-6.46,9.69v64.09c0,4.42.51,9.69,6.46,9.69,5.44,0,6.29-4.59,6.29-6.8v-22.27c0-1.53-.51-2.04-1.53-2.38-1.7-.51-3.74-.51-4.59-1.02-.68-.68-.68-2.38-.68-5.1,0-2.89,0-4.76.68-5.1,2.21-1.53,9.69-1.7,16.49-1.53s8.16,1.19,8.16,3.57v55.25Z"/><path class="cls-2" d="M342.07,528.85c0,2.55-.17,2.72-9.52,2.72-8.33,0-8.67,0-8.67-2.38v-113.56c0-2.55.68-2.72,8.67-2.72,9.01,0,9.52.17,9.52,2.89v113.05Z"/><path class="cls-2" d="M400.89,420.73c0,7.82-.17,8.67-2.04,8.67h-7.31c-1.87,0-4.08,0-4.93.34-1.53,1.19-1.19,4.08-1.19,6.29v94.01c0,1.53-1.87,1.7-9.86,1.7-7.14,0-8.67,0-8.67-1.7v-94.01c0-2.21.34-5.1-1.19-6.29-.85-.34-3.06-.34-4.93-.34h-6.29c-2.55,0-3.06-1.19-3.06-8.33s.34-8.33,2.38-8.33h44.88c2.04,0,2.21,1.53,2.21,7.99Z"/><path class="cls-2" d="M450.02,530.04c.34,1.87-4.76,1.7-9.35,1.7-4.93,0-8.16.34-8.5-2.04-1.36-9.52-2.04-15.98-3.4-25.33-.17-1.7-2.21-1.36-4.93-1.36-3.23,0-4.93-.34-5.1,1.36-1.02,9.52-1.7,15.81-2.55,25.67-.17,1.87-3.91,1.7-9.35,1.7-2.55,0-8.5,0-8.33-1.53,6.29-44.37,10.71-74.12,16.32-115.09.34-2.38,5.1-2.55,8.84-2.55,4.25,0,8.67.17,9.18,3.06,6.46,43.52,10.37,70.04,17.17,114.41ZM427.41,489.07c-.85-12.58-1.36-19.72-2.21-33.15,0-.85-.34-4.59-1.53-4.59-.85,0-1.19,4.25-1.19,4.93-.85,13.26-1.36,21.76-2.21,32.64,0,1.19.85,1.36,3.4,1.36,2.21,0,3.91.34,3.74-1.19Z"/><path class="cls-2" d="M500.68,523.07c0,8.16-.17,8.67-2.21,8.67h-32.64c-2.38,0-4.76,0-5.61-1.02-1.02-1.19-.85-3.74-.85-5.95v-109.31c0-2.38.85-2.72,8.5-2.72,8.67,0,9.69.17,9.69,2.89v92.82c0,2.21-.17,5.1,1.02,5.95.85.51,2.89.68,4.59.68h15.13c2.21,0,2.38.85,2.38,7.99Z"/><path class="cls-2" d="M216.95,657.94c0,14.11-8.16,23.8-23.97,23.8s-24.65-10.88-24.65-23.8v-71.23c0-13.09,9.35-23.97,24.65-23.97s23.97,11.56,23.97,23.97v9.18c0,1.7-1.36,2.21-9.18,2.21-5.61,0-8.5.34-8.5-1.87v-8.84c0-2.38-1.87-7.14-6.29-7.14-5.27,0-6.46,5.27-6.46,9.69v64.09c0,4.76,1.19,9.69,6.46,9.69,4.93,0,6.29-4.08,6.29-6.8v-8.84c0-2.38,1.53-2.21,9.01-2.21s8.67.17,8.67,3.23v8.84Z"/><path class="cls-2" d="M268.46,673.07c0,8.16-.17,8.67-2.21,8.67h-32.64c-2.38,0-4.76,0-5.61-1.02-1.02-1.19-.85-3.74-.85-5.95v-109.31c0-2.38.85-2.72,8.5-2.72,8.67,0,9.69.17,9.69,2.89v92.82c0,2.21-.17,5.1,1.02,5.95.85.51,2.89.68,4.59.68h15.13c2.21,0,2.38.85,2.38,7.99Z"/><path class="cls-2" d="M320.3,673.24c0,7.82-.17,8.5-2.04,8.5h-32.64c-2.72,0-5.61.34-6.8-.68-1.36-1.19-1.02-3.74-1.02-5.78v-107.44c0-2.21.17-2.38,1.19-3.74s2.21-1.36,3.91-1.36h35.19c2.04,0,2.04,1.36,2.04,7.99,0,7.65,0,8.67-2.21,8.67h-17c-1.36,0-3.4.17-3.91.85-.85,1.19-.85,1.02-.85,3.23v22.44c0,1.53-.34,3.4,1.02,4.42,1.19.85,2.38.68,3.74.68h8.16c2.04,0,2.21,1.02,2.21,8.5s0,8.16-2.21,8.16h-7.65c-1.7,0-3.57.17-4.25.51-1.53,1.02-1.19,2.72-1.19,4.93v25.33c0,2.21,0,5.44.85,5.95.85.51,3.23.68,5.1.68h16.15c2.04,0,2.21.68,2.21,8.16Z"/><path class="cls-2" d="M378.61,680.04c.34,1.87-4.76,1.7-9.35,1.7-4.93,0-8.16.34-8.5-2.04-1.36-9.52-2.04-15.98-3.4-25.33-.17-1.7-2.21-1.36-4.93-1.36-3.23,0-4.93-.34-5.1,1.36-1.02,9.52-1.7,15.81-2.55,25.67-.17,1.87-3.91,1.7-9.35,1.7-2.55,0-8.5,0-8.33-1.53,6.29-44.37,10.71-74.12,16.32-115.09.34-2.38,5.1-2.55,8.84-2.55,4.25,0,8.67.17,9.18,3.06,6.46,43.52,10.37,70.04,17.17,114.41ZM356,639.07c-.85-12.58-1.36-19.72-2.21-33.15,0-.85-.34-4.59-1.53-4.59-.85,0-1.19,4.25-1.19,4.93-.85,13.26-1.36,21.76-2.21,32.64,0,1.19.85,1.36,3.4,1.36,2.21,0,3.91.34,3.74-1.19Z"/><path class="cls-2" d="M440.15,676.81c0,4.42.17,4.93-8.5,4.93-4.42,0-6.29-.34-7.48-4.59-5.61-19.72-7.65-28.73-13.6-50.15-1.02-3.74-2.38-10.03-3.57-10.03s-1.19,3.57-1.19,5.78v55.93c0,2.72-.51,3.06-9.35,3.06s-8.5-.34-8.5-2.89v-113.73c0-2.38.34-2.38,7.82-2.38s8.33.68,9.52,5.44c3.74,13.94,8.67,32.13,13.77,50.15.51,1.7,1.02,4.42,2.04,4.42,1.19,0,1.19-3.23,1.19-5.1v-51.85c0-2.72.51-3.06,9.01-3.06s8.84.17,8.84,2.89v111.18Z"/><path class="cls-2" d="M502.03,657.94c0,14.11-9.01,23.8-24.82,23.8s-24.65-11.22-24.65-23.63v-92.48c0-2.72,1.19-2.89,9.52-2.89,6.8,0,8.67.34,8.67,2.89v88.57c0,4.59.85,9.52,6.46,9.52s6.46-4.76,6.46-9.52v-88.74c0-2.38.85-2.72,8.5-2.72,8.84,0,9.86.51,9.86,2.55v92.65Z"/><path class="cls-2" d="M563.91,610.68c0,6.97-2.04,13.77-8.5,19.72-5.44,4.93-12.75,6.29-19.04,6.29-2.38,0-3.74,1.02-3.74,5.27v37.06c0,2.89-1.7,2.72-9.52,2.72s-8.67,0-8.67-3.74v-109.99c0-2.04.17-3.4.85-4.25.85-1.19,2.21-1.02,4.25-1.02h17.34c6.8,0,13.6,1.7,18.7,5.95,5.78,4.76,8.33,11.22,8.33,19.72v22.27ZM545.55,608.3v-16.32c0-3.57-.17-6.8-2.21-9.35-1.36-1.36-2.89-2.04-5.61-2.04-2.04,0-3.91,0-4.59.68-.51.68-.51,1.36-.51,2.38v32.3c0,1.7-.17,3.06,1.02,3.57.85.17,2.04.17,3.74.17,1.87,0,4.25-.51,6.12-2.72,2.21-2.89,2.04-5.44,2.04-8.67Z"/><path class="cls-2" d="M218.99,805.9c0,6.29-1.53,12.58-7.31,18.53-5.44,5.61-13.26,7.31-19.55,7.31h-17.68c-2.21,0-3.57.17-4.25-1.19-.68-.85-.68-2.38-.68-4.08v-108.46c0-1.87,0-3.4.68-4.25,1.02-1.19,2.21-1.02,4.42-1.02h17.34c7.31,0,14.79,2.04,20.06,6.97,4.93,4.59,6.97,11.39,6.97,18.7v67.49ZM200.63,802.5v-60.52c0-3.57-.17-6.8-2.21-9.35-1.36-1.36-2.55-2.04-5.61-2.04-2.72,0-4.08,0-4.59.68-.51.68-.51,1.36-.51,2.38v76.5c0,1.53,0,2.72.68,3.4.51.51,2.38.34,3.91.34,2.04,0,4.59-.68,6.46-3.06,2.04-2.89,1.87-5.78,1.87-8.33Z"/><path class="cls-2" d="M277.81,830.04c.34,1.87-4.76,1.7-9.35,1.7-4.93,0-8.16.34-8.5-2.04-1.36-9.52-2.04-15.98-3.4-25.33-.17-1.7-2.21-1.36-4.93-1.36-3.23,0-4.93-.34-5.1,1.36-1.02,9.52-1.7,15.81-2.55,25.67-.17,1.87-3.91,1.7-9.35,1.7-2.55,0-8.5,0-8.33-1.53,6.29-44.37,10.71-74.12,16.32-115.09.34-2.38,5.1-2.55,8.84-2.55,4.25,0,8.67.17,9.18,3.06,6.46,43.52,10.37,70.04,17.17,114.41ZM255.2,789.07c-.85-12.58-1.36-19.72-2.21-33.15,0-.85-.34-4.59-1.53-4.59-.85,0-1.19,4.25-1.19,4.93-.85,13.26-1.36,21.76-2.21,32.64,0,1.19.85,1.36,3.4,1.36,2.21,0,3.91.34,3.74-1.19Z"/><path class="cls-2" d="M323.37,715.29c-4.25,20.06-7.48,35.53-12.24,55.59-.85,3.57-1.36,7.31-1.87,10.03-.34,1.53-1.02,5.95-1.02,9.01v40.46c0,1.53-7.14,1.36-9.35,1.36-2.72,0-9.01.17-9.01-1.87,0-13.77.17-24.31.17-39.44,0-3.06-.17-6.46-.51-8.33-.34-2.21-1.53-6.46-2.38-10.2-4.59-19.89-8.5-36.72-12.75-56.61-.51-2.21,4.76-2.38,7.65-2.38,5.27,0,10.03.17,10.37,2.72,2.04,14.79,3.91,28.05,5.78,41.82,0,.51.34,1.53,1.02,1.53s.85-1.19.85-1.7c2.21-15.13,3.4-26.35,5.44-41.65.34-2.21,5.1-2.72,9.52-2.72s8.84.17,8.33,2.38Z"/><path class="cls-2" d="M376.1,774.28c0,2.25-.09,4.86-1.53,4.86h-21.42c-.99,0-1.53.18-2.16-.36-.81-.63-.63-.81-.63-2.16v-13.32c0-3.96,1.44-7.2,2.97-9.09,4.41-5.31,5.04-5.94,8.73-10.62,1.98-2.61,2.7-4.05,3.69-7.11.81-2.61.9-4.41.9-6.48,0-2.7-.63-4.68-3.42-4.68-2.61,0-3.15,2.61-3.15,4.68v3.15c0,.99-2.97,1.17-4.95,1.17s-4.41,0-4.41-1.26v-5.04c0-6.48,4.77-11.88,12.51-11.88,8.19,0,12.78,5.04,12.78,11.79v6.66c0,6.12-3.78,11.07-6.66,14.49-3.33,3.96-4.59,5.4-7.74,9.18-.99,1.26-1.62,2.88-1.62,4.59v4.14c0,1.35-.09,1.62.45,2.16.45.45,1.17.45,2.07.45h12.24c1.17,0,1.35,2.34,1.35,4.68Z"/><path class="cls-2" d="M408.59,766.18c0,8.64-5.31,12.96-13.05,12.96s-13.05-4.95-13.05-12.96v-37.17c0-7.83,5.58-12.87,13.05-12.87s13.05,5.04,13.05,12.87v37.17ZM398.87,764.2v-33.39c0-2.52-.72-5.4-3.33-5.4s-3.42,2.88-3.42,5.4v33.39c0,3.06.72,5.4,3.42,5.4s3.33-2.34,3.33-5.4Z"/><path class="cls-2" d="M439.55,774.28c0,2.25-.09,4.86-1.53,4.86h-21.42c-.99,0-1.53.18-2.16-.36-.81-.63-.63-.81-.63-2.16v-13.32c0-3.96,1.44-7.2,2.97-9.09,4.41-5.31,5.04-5.94,8.73-10.62,1.98-2.61,2.7-4.05,3.69-7.11.81-2.61.9-4.41.9-6.48,0-2.7-.63-4.68-3.42-4.68-2.61,0-3.15,2.61-3.15,4.68v3.15c0,.99-2.97,1.17-4.95,1.17s-4.41,0-4.41-1.26v-5.04c0-6.48,4.77-11.88,12.51-11.88,8.19,0,12.78,5.04,12.78,11.79v6.66c0,6.12-3.78,11.07-6.66,14.49-3.33,3.96-4.59,5.4-7.74,9.18-.99,1.26-1.62,2.88-1.62,4.59v4.14c0,1.35-.09,1.62.45,2.16.45.45,1.17.45,2.07.45h12.24c1.17,0,1.35,2.34,1.35,4.68Z"/><path class="cls-2" d="M468.89,763.84c0,1.71,0,3.51-.54,3.51-1.26,0-1.35-.09-1.89.36-.36.36-.27.54-.27,1.08v9.27c0,.99-1.71,1.08-4.05,1.08-1.8,0-5.04-.18-5.04-1.17v-8.1c0-.54.09-1.26-.18-1.89-.36-.54-1.53-.45-2.43-.45h-10.98c-.45,0-1.17.09-1.44-.36-.36-.63-.27-1.35-.27-2.07v-7.83c0-.99,0-1.62.18-2.79.18-.9.45-1.71.72-2.52,4.23-12.33,7.11-20.7,11.88-33.93.63-1.62,1.26-2.07,5.49-2.07,4.95,0,6.03.27,6.03,1.17v40.41c0,.36,0,1.08.18,1.26.36.36,1.35.27,2.07.27.54,0,.54,2.97.54,4.77ZM457.46,737.65c0-2.25.09-3.69-.36-3.69-.63,0-.81,1.62-1.08,2.61-1.17,4.86-2.25,8.82-3.51,13.68-.27.99-.54,1.62-.72,2.61-.09.63-.18.9-.18,1.53v2.97c0,.99.09,1.08.45,1.53.18.27.72.27,1.98.27s2.43-.09,2.79-.27c.36-.18.27-.9.27-1.62.09-8.37.27-11.25.36-19.62Z"/><path class="cls-2" d="M368.16,828.91c0,.98-.12,2-.67,2h-14.7c-.79,0-.85-.89-.85-1.96,0-1.16.12-2.18.98-2.18h2.56c.43,0,.79.04,1.1-.09s.31-.8.31-1.33v-18.36c0-.36.06-1.07-.24-1.07-.67,0-1.83.8-2.44,1.11-.49.31-1.46,1.11-1.65.4-.18-.89-.37-2.27-.12-3.2.06-.44,1.4-1.2,2.44-1.82.98-.58,1.34-2.18,1.89-2.27,1.52-.36,4.7-.36,5.92-.36.79,0,.67.84.67,1.33v24.22c0,.49,0,1.02.18,1.2.24.22.79.22,1.04.22h3.05c.55,0,.55.98.55,2.13Z"/><path class="cls-2" d="M388.11,824.07c0,4.18-3.23,6.85-8.6,6.85-5.8,0-8.72-2.93-8.72-6.85,0-5.56.06-8,.06-13.96,0-2.44.55-3.96,2.68-6.09,2.14-2.18,7.08-4.18,14.09-4.27.43,0,.37,1.56.37,2s0,1.96-.37,1.96c-3.29.31-6.1.44-8.11,1.91-1.46,1.02-2.26,2.18-2.26,3.96v2.4c0,.27-.12.71.24.84.37.27,1.28-.62,4.15-.62,1.4,0,2.75.31,4.03,1.2,1.4.93,2.44,2.49,2.44,4.49v6.18ZM381.76,823.18v-4.67c0-1.42-.55-2.58-2.32-2.58s-2.26,1.16-2.26,2.67v4.58c0,1.87,0,3.16,2.32,3.16,1.95,0,2.26-1.47,2.26-3.16Z"/><path class="cls-2" d="M426.35,830.11c0,.71.06.8-3.23.8-2.99,0-3.17-.09-3.17-.76,0-6.22,0-14.27-.18-17.78-.24-.4-.79-.27-.92.18-.73,2.49-1.46,4.53-2.07,6.04-.12.44-.37.67-1.34.67s-1.16-.22-1.34-.62c-.49-1.38-1.22-3.56-1.95-6-.12-.44-.85-.58-1.1-.22-.18,3.56-.18,11.47-.18,17.69,0,.71-.18.8-3.36.8-2.99,0-2.93-.09-2.93-.76v-29.6c0-.76.43-.71,2.81-.71,2.62,0,3.05.22,3.66,1.64.92,2.27,1.83,4.27,2.68,6.36.61,1.56,1.28,2.93,1.71,2.93s1.04-1.29,1.71-2.93c.98-2.31,1.71-4.04,2.68-6.36.55-1.42.98-1.69,3.35-1.69,2.62,0,3.17.04,3.17.76v29.56Z"/><path class="cls-2" d="M448.19,830.47c.12.49-1.71.44-3.35.44-1.77,0-2.93.09-3.05-.53-.49-2.49-.73-4.18-1.22-6.62-.06-.44-.79-.36-1.77-.36-1.16,0-1.77-.09-1.83.36-.37,2.49-.61,4.13-.92,6.71-.06.49-1.4.44-3.36.44-.92,0-3.05,0-2.99-.4,2.26-11.6,3.84-19.38,5.86-30.09.12-.62,1.83-.67,3.17-.67,1.52,0,3.11.04,3.29.8,2.32,11.38,3.72,18.31,6.16,29.91ZM440.08,819.76c-.3-3.29-.49-5.16-.79-8.67,0-.22-.12-1.2-.55-1.2-.31,0-.43,1.11-.43,1.29-.3,3.47-.49,5.69-.79,8.53,0,.31.31.36,1.22.36.79,0,1.4.09,1.34-.31Z"/><path class="cls-2" d="M469.24,830.2c0,.71-.43.71-3.35.71s-3.17.04-3.17-.76v-10.22c0-1.56-.73-2.8-2.26-2.8-2.13,0-2.38-.04-2.38.58v12.36c0,.84-.49.84-3.54.84-2.5,0-2.99,0-2.99-.98v-28.76c0-.44.06-.89.24-1.11.37-.36.79-.27,1.59-.27h6.04c2.62,0,5.31.53,7.14,1.82,1.83,1.24,2.5,3.02,2.5,4.89v3.78c0,1.29-.24,2.13-1.04,2.93-1.1,1.2-2.99,1.47-2.99,1.6,0,.18,1.95.27,3.11,1.38.79.8,1.1,1.56,1.1,2.8v11.2ZM462.53,810.47v-3.02c0-.93-.06-1.78-.85-2.44-.43-.36-.79-.53-2.2-.53-.55,0-.98,0-1.22.22-.12.18-.18.36-.18.58v6.62c0,.4,0,.71.31.89.24.13.61.09,1.1.09.55,0,1.53-.13,2.2-.67.79-.62.85-1.29.85-1.73Z"/></svg>