<?xml version="1.0" encoding="UTF-8"?>
<svg id="Layer_1" data-name="Layer 1" xmlns="http://www.w3.org/2000/svg" viewBox="0 0 1143 1450">
  <defs>
    <style>
      .cls-1 {
        fill: #589936;
      }

      .cls-1, .cls-2, .cls-3, .cls-4, .cls-5, .cls-6 {
        stroke-width: 0px;
      }

      .cls-2 {
        fill: #a7ce9d;
      }

      .cls-3 {
        fill: #f2c063;
      }

      .cls-7 {
        font-size: 48px;
      }

      .cls-4 {
        fill: #ffdfa2;
      }

      .cls-8 {
        font-family: CenturyGothic-Bold, 'Century Gothic';
        font-weight: 700;
      }

      .cls-8, .cls-5 {
        fill: #ea9143;
      }

      .cls-9 {
        font-family: CenturyGothic, 'Century Gothic';
      }

      .cls-6 {
        fill: #147350;
      }
    </style>
  </defs>
  <rect class="cls-4" x="-7.69" y="-11.7" width="1164.26" height="1482.89"/>
  <g>
    <path class="cls-1" d="M255.3,948.85s-89.45,7.33-109.98,87.99c-20.53,80.65-27.86,107.05,35.19,124.65,63.06,17.6,233.16,0,233.16,0,0,0,26.4,8.8,30.8,24.93,4.4,16.13,285.96,0,285.96,0,0,0,61.1-194.06,235.12-162.78,0,0,37.15-26.4,5.87-52.79s-111.45-22-111.45-22c0,0,8.8-200.9-123.18-292.8,0,0,2.93,69.41-50.84,73.32,0,0,70.39,216.06-69.41,367.59l-101.67,2.93s-84.08-34.22-52.79-95.81l31.28-61.59-238.05,6.35Z"/>
    <path class="cls-6" d="M355.44,822.31c-5.01-.04-9.97-1.05-14.6-2.97-14.44-5.98-47.76-18.91-60.61-16.64-16.62,2.93-62.67,65.93-60.9,79.19,1.76,13.18,8.17,30.73,23.81,33.02,13.56,1.98,195.36.45,243.48,0,10.54-.1,20.6-4.73,27.27-12.89,11.44-14.01,17.82-39.33-29.1-75-3.25-2.47-7.23-3.8-11.31-3.84l-118.04-.87Z"/>
    <path class="cls-6" d="M603.02,644.61c-10.33,5.54-32.13,21.21-7.31,45.59,6.45,6.34,15.18,9.85,24.23,9.85h52.51c6.63,0,13.11-2.09,18.41-6.08,11.33-8.52,25.6-25.32,2-46.17-3.97-3.51-9.11-5.44-14.4-5.44h-66.41c-3.15,0-6.25.76-9.02,2.24Z"/>
    <path class="cls-2" d="M884.98,1066.06c-2.71-.3-3.19-4.02-.61-4.92,22.81-7.92,66.94-20.38,92.91-9.15,28.92,12.5,34.09,73.11,35,96.93.25,6.41-.54,12.8-2.38,18.95-6.59,22.1-26.11,77.07-60.98,93.34-43.99,20.53-88.96,25.42-125.14,12.71-36.17-12.71-72.95-62.55-70.39-67.46,2.02-3.86,23.83-66.68,40.08-85.62,2.43-2.83,7.04-.86,6.58,2.85-2.22,17.95-4.61,60.45,19.81,74.95,31.28,18.57,62.57,29.33,90.92,12.71,28.35-16.62,48.88-51.81,43.99-69.41-4.38-15.76-28.35-71.23-69.82-75.87Z"/>
    <path class="cls-2" d="M230.03,1193.4l-63.21-5.19c-1.79-.15-3.09,1.66-2.36,3.3,6.53,14.65,33.44,69.21,75.68,78.5,48.88,10.75,79.38,20.53,130.12-10.75,43.53-26.84,46.84-47.92,46.9-53.37,0-.85-.43-1.61-1.16-2.04-6.01-3.55-35.76-19.83-61.03-10.42-.29.11-.56.27-.79.48-3.75,3.41-37.69,33.69-52.45,27.23-15.45-6.76-17.55,10.01-67.54-26.17-1.22-.88-2.67-1.43-4.17-1.55Z"/>
  </g>
  <g>
    <rect class="cls-5" x="253.34" y="619.31" width="248.06" height="177.18" rx="34.21" ry="34.21" transform="translate(50.22 -24.56) rotate(3.99)"/>
    <path class="cls-5" d="M366.8,787.06l-5.47,4.98c-1.75,1.59-3.2,3.48-4.29,5.58l-2.17,4.18c-1.05,1.29-1.97,2.68-2.76,4.14l-10.12,18.72c-2.38,3.51-.06,8.28,4.17,8.57l13.45.47,21.13,1.94,11.11.78c4.23.3,7.19-4.1,5.32-7.91l-9.61-23.71-1.49-3.63c-.93-3.28-2.58-6.32-4.83-8.89l-4.17-4.75c-1.86-3.79-7.12-4.16-10.27-.47Z"/>
    <rect class="cls-3" x="267.02" y="629.08" width="220.7" height="157.64" rx="34.21" ry="34.21" transform="translate(50.22 -24.56) rotate(3.99)"/>
    <polygon class="cls-4" points="405.26 709.85 351.73 673.58 347.21 738.33 405.26 709.85"/>
  </g>
  <path class="cls-2" d="M254.68,979.24c1.46-.38,3.01.23,3.98,1.39l73.39,88.24s5.55,6.26,0,6.66c-3.31.24-30.16.1-39.47.04-1.59,0-2.73,1.51-2.29,3.03l16.18,56.61c.59,2.06-.03,4.36-1.74,5.66-1.24.94-2.86,1.3-4.65-.5-4-4-72.84-89.72-72.84-89.72,0,0-4.44-6.22,3.11-6.22,6.01,0,27.81.56,36.43.79,1.77.05,3.08-1.63,2.61-3.33l-16.28-56.82s-2.07-4.9,1.58-5.85Z"/>
  <text class="cls-7" transform="translate(247.52 243.71)"><tspan class="cls-8"><tspan x="0" y="0">2 timers streaming på 1 dag</tspan></tspan><tspan class="cls-9"><tspan x="-100.73" y="57.6">bruger samme mængde energi som</tspan></tspan><tspan class="cls-8"><tspan x="71.03" y="115.2">8 km på en el scooter</tspan></tspan></text>
</svg>